<?xml version="1.0" encoding="UTF-8" standalone="no"?>
<!-- Created with Inkscape (http://www.inkscape.org/) -->

<svg
   version="1.1"
   id="svg1"
   width="545.04401"
   height="226.61867"
   viewBox="0 0 545.04401 226.61867"
   xmlns="http://www.w3.org/2000/svg"
   xmlns:svg="http://www.w3.org/2000/svg">
  <defs
     id="defs1" />
  <g
     id="g1">
    <path
       id="path1"
       d="M -16.7354,-130.91405 V 19.12643 h 388.86266 v -150.04048 z"
       style="fill:#ffffff;fill-opacity:1;fill-rule:nonzero;stroke:none"
       transform="matrix(1.3333333,0,0,-1.3333333,35.597333,38.785333)" />
    <path
       id="path2"
       d="M 12.04738,0 C 12.04738,6.65366 6.65366,12.04738 0,12.04738 -6.65366,12.04738 -12.04738,6.65366 -12.04738,0 c 0,-6.65366 5.39372,-12.04738 12.04738,-12.04738 6.65366,0 12.04738,5.39372 12.04738,12.04738 z"
       style="fill:#ccffcc;fill-opacity:1;fill-rule:nonzero;stroke:#00b300;stroke-width:0.79701;stroke-linecap:butt;stroke-linejoin:miter;stroke-miterlimit:10;stroke-dasharray:none;stroke-opacity:1"
       transform="matrix(1.3333333,0,0,-1.3333333,35.597333,38.785333)" />
    <path
       id="path3"
       d="m 1.9230156,-5.4010234 c -0.035156,-0.1054688 -0.035156,-0.1640625 -0.035156,-0.1757813 0,-0.2695312 0.4570312,-0.2695312 0.7148437,-0.2695312 v -0.2695313 c -0.4101562,0.023437 -0.8671875,0.023437 -1.2773437,0.023437 -0.37500002,0 -0.50390627,-0.011719 -1.14843752,-0.023437 v 0.2695313 c 0.65625,0 0.76171875,0.035156 0.87890622,0.3515625 l 2.1679688,5.49609371 c 0.058594,0.12890625 0.082031,0.19921875 0.234375,0.19921875 0.140625,0 0.1640625,-0.0585938 0.2109375,-0.17578125 L 5.7433281,-5.2486797 c 0.1875,-0.46875 0.5625,-0.5976562 0.984375,-0.5976562 v -0.2695313 c -0.3164062,0.023437 -0.5742187,0.023437 -0.8789062,0.023437 -0.3867188,0 -0.5625,-0.011719 -1.0078125,-0.023437 v 0.2695313 c 0.4453125,0.011719 0.6328125,0.2226562 0.6328125,0.4453125 0,0.082031 0,0.09375 -0.035156,0.1875 l -1.7226562,4.34765621 z m 0,0"
       style="fill:#000000;fill-opacity:1;fill-rule:nonzero;stroke:none"
       aria-label="V"
       transform="matrix(1.3333333,0,0,1.3333333,30.990667,42.869333)" />
    <path
       id="path4"
       d="m 12.04738,-41.90004 c 0,6.65367 -5.39372,12.04739 -12.04738,12.04739 -6.65366,0 -12.04738,-5.39372 -12.04738,-12.04739 0,-6.65366 5.39372,-12.04738 12.04738,-12.04738 6.65366,0 12.04738,5.39372 12.04738,12.04738 z"
       style="fill:#ffe6cc;fill-opacity:1;fill-rule:nonzero;stroke:#cc6600;stroke-width:0.79701;stroke-linecap:butt;stroke-linejoin:miter;stroke-miterlimit:10;stroke-dasharray:none;stroke-opacity:1"
       transform="matrix(1.3333333,0,0,-1.3333333,35.597333,38.785333)" />
    <path
       id="path5"
       d="m 3.492875,-1.0795391 c 0,0.16406254 0,0.18750004 -0.140625,0.37500004 -0.28125,0.41015625 -0.6914062,0.57421875 -1.0429687,0.57421875 -0.3867188,0 -0.75,-0.2109375 -0.984375,-0.5859375 C 1.0905313,-1.1029766 1.0788125,-1.6303203 1.0788125,-1.9232891 c 0,-0.421875 0.046875,-0.890625 0.28125,-1.2539062 0.1992188,-0.28125 0.5625,-0.5625 1.0429688,-0.5625 0.375,0 0.7382812,0.1875 0.9726562,0.5273437 0.1171875,0.140625 0.1171875,0.1523438 0.1171875,0.328125 z M 3.516312,-3.4350078 C 3.4694375,-3.4936016 3.071,-3.9623516 2.367875,-3.9623516 c -1.1015625,0 -2.0625,0.8789063 -2.0625,2.0390625 0,1.11328129 0.9023438,2.01562504 1.96875,2.01562504 0.6445313,0 1.0546875,-0.375 1.21875,-0.57421875 v 0.57421875 l 1.3476563,-0.09375 v -0.28125 c -0.609375,0 -0.6914063,-0.0585938 -0.6914063,-0.50390625 V -6.2240703 l -1.3242187,0.1054687 v 0.2695313 c 0.609375,0 0.6914062,0.070312 0.6914062,0.5039062 z m 8.24707,0.3984375 c 0,-1.828125 -1.394531,-3.28125 -3.0703122,-3.28125 -1.6757812,0 -3.0585937,1.453125 -3.0585937,3.28125 0,1.8164062 1.3945312,3.23437499 3.0585937,3.23437499 1.6757812,0 3.0703122,-1.41796879 3.0703122,-3.23437499 z m -3.0703122,2.96484374 c -0.9023437,0 -2.1445312,-0.78515625 -2.1445312,-3.10546874 0,-2.1796875 1.2773437,-2.8945313 2.1445312,-2.8945313 0.8671875,0 2.1562492,0.7148438 2.1562492,2.8945313 0,2.32031249 -1.2539054,3.10546874 -2.1562492,3.10546874 z m 0,0"
       style="fill:#000000;fill-opacity:1;fill-rule:nonzero;stroke:none"
       aria-label="dO"
       transform="matrix(1.3333333,0,0,1.3333333,27.405333,98.802667)" />
    <path
       id="path6"
       d="m 12.04738,-68.91774 c 0,6.65367 -5.39372,12.04739 -12.04738,12.04739 -6.65366,0 -12.04738,-5.39372 -12.04738,-12.04739 0,-6.65366 5.39372,-12.04738 12.04738,-12.04738 6.65366,0 12.04738,5.39372 12.04738,12.04738 z"
       style="fill:#fbcce8;fill-opacity:1;fill-rule:nonzero;stroke:#ec008c;stroke-width:0.79701;stroke-linecap:butt;stroke-linejoin:miter;stroke-miterlimit:10;stroke-dasharray:none;stroke-opacity:1"
       transform="matrix(1.3333333,0,0,-1.3333333,35.597333,38.785333)" />
    <path
       id="path7"
       d="m 4.7707656,-0.05835156 c 0.9609375,-0.3984375 1.875,-1.50000004 1.875,-2.97656254 0,-1.828125 -1.3945312,-3.28125 -3.0703125,-3.28125 -1.6757812,0 -3.05859372,1.453125 -3.05859372,3.28125 0,1.8164063 1.39453122,3.23437504 3.05859372,3.23437504 0.3164063,0 0.65625,-0.0703125 0.8671875,-0.12890625 0.1640625,0.890625 0.3046875,1.66406251 1.1367188,1.66406251 0.9257812,0 1.1132812,-1.19531251 1.1132812,-1.65234376 0,-0.0820312525 0,-0.1875 -0.1054687,-0.1875 -0.070312,0 -0.1054688,0.046875 -0.1171875,0.09375 -0.070312,0.78515625 -0.6796875,0.83203125 -0.8203125,0.83203125 -0.4804688,0 -0.6679688,-0.38671875 -0.8789063,-0.87890625 z M 2.9309219,-0.17553906 C 2.0637344,-0.51538281 1.3957656,-1.4294453 1.3957656,-3.0349141 c 0,-2.2265625 1.2539063,-3.0351562 2.1796875,-3.0351562 0.9375,0 2.1796875,0.796875 2.1796875,3.0351562 0,1.1835938 -0.3515625,2.13281254 -1.125,2.64843754 -0.1875,-0.4453125 -0.4570312,-0.94921874 -1.0429687,-0.94921874 -0.4335938,0 -0.7617188,0.35156249 -0.7617188,0.76171874 0,0.2109375 0.09375,0.38671875 0.1054688,0.3984375 z m 1.4414062,-0.0703125 c -0.2578125,0.140625 -0.5625,0.1875 -0.796875,0.1875 -0.4335937,0 -0.5273437,-0.375 -0.5273437,-0.515625 0,-0.26953125 0.1992187,-0.53906254 0.5507812,-0.53906254 0.46875,0 0.65625,0.37500004 0.7734375,0.86718754 z m 0,0"
       style="fill:#000000;fill-opacity:1;fill-rule:nonzero;stroke:none"
       aria-label="Q"
       transform="matrix(1.3333333,0,0,1.3333333,30.818667,133.59733)" />
    <path
       id="path8"
       d="m 12.04738,-95.93544 c 0,6.65367 -5.39372,12.04739 -12.04738,12.04739 -6.65366,0 -12.04738,-5.39372 -12.04738,-12.04739 0,-6.65366 5.39372,-12.04738 12.04738,-12.04738 6.65366,0 12.04738,5.39372 12.04738,12.04738 z"
       style="fill:#ccccff;fill-opacity:1;fill-rule:nonzero;stroke:#0000ff;stroke-width:0.79701;stroke-linecap:butt;stroke-linejoin:miter;stroke-miterlimit:10;stroke-dasharray:none;stroke-opacity:1"
       transform="matrix(1.3333333,0,0,-1.3333333,35.597333,38.785333)" />
    <path
       id="path9"
       d="m 5.3674219,-5.2979375 c 0.5625,-0.5273437 1.125,-0.5390625 1.2773437,-0.5507812 V -6.11825 c -0.2578125,0.023437 -0.7148437,0.023437 -0.796875,0.023437 -0.375,0 -0.7148437,-0.011719 -1.1132812,-0.023437 v 0.2695313 c 0.2460937,0.011719 0.3867187,0.1289062 0.3867187,0.2929687 0,0.082031 -0.023437,0.1523438 -0.070312,0.2109375 l -2.9882812,2.765625 V -5.415125 c 0,-0.328125 0.011719,-0.4335937 0.703125,-0.4335937 h 0.210937 V -6.11825 c -0.3984375,0.023437 -0.9023438,0.023437 -1.3125,0.023437 -0.421875,0 -0.92578128,0 -1.32421878,-0.023437 v 0.2695313 h 0.2109375 c 0.69140628,0 0.70312498,0.1054687 0.70312498,0.4335937 v 4.7109375 c 0,0.328125 -0.011719,0.421875 -0.70312498,0.421875 h -0.2109375 v 0.28125 C 0.73851562,-0.0245 1.2424219,-0.0245 1.6642969,-0.0245 c 0.4101562,0 0.9140625,0 1.3125,0.0234375 v -0.28125 H 2.7658594 c -0.6914063,0 -0.703125,-0.09375 -0.703125,-0.421875 V -2.2393437 L 3.1525781,-3.258875 4.8283594,-0.86825 c 0.070312,0.09375 0.1523437,0.234375 0.1523437,0.328125 0,0.2578125 -0.3398437,0.2578125 -0.5039062,0.2578125 v 0.28125 C 4.8635156,-0.0245 5.3205469,-0.0245 5.7189844,-0.0245 c 0.234375,0 0.5976562,0 1.0546875,0.0234375 v -0.28125 c -0.5742188,0 -0.6914063,-0.0820313 -0.984375,-0.4921875 L 3.6916406,-3.7510625 Z m 0,0"
       style="fill:#000000;fill-opacity:1;fill-rule:nonzero;stroke:none"
       aria-label="K"
       transform="matrix(1.3333333,0,0,1.3333333,30.82,170.78267)" />
    <path
       id="path10"
       d="m 99.30206,0 c 0,6.65366 -5.39372,12.04738 -12.04738,12.04738 -6.65367,0 -12.04739,-5.39372 -12.04739,-12.04738 0,-6.65366 5.39372,-12.04738 12.04739,-12.04738 6.65366,0 12.04738,5.39372 12.04738,12.04738 z"
       style="fill:#fbcce8;fill-opacity:1;fill-rule:nonzero;stroke:#ec008c;stroke-width:0.79701;stroke-linecap:butt;stroke-linejoin:miter;stroke-miterlimit:10;stroke-dasharray:none;stroke-opacity:1"
       transform="matrix(1.3333333,0,0,-1.3333333,35.597333,38.785333)" />
    <path
       id="path11"
       d="m 4.7687188,-0.05932031 c 0.9609375,-0.3984375 1.875,-1.49999999 1.875,-2.97656249 0,-1.828125 -1.3945313,-3.28125 -3.0703125,-3.28125 -1.6757813,0 -3.0585938,1.453125 -3.0585938,3.28125 0,1.8164062 1.3945313,3.23437499 3.0585938,3.23437499 0.3164062,0 0.65625,-0.0703125 0.8671875,-0.12890625 0.1640625,0.890625 0.3046875,1.66406246 1.1367187,1.66406246 0.9257813,0 1.1132813,-1.19531246 1.1132813,-1.65234371 0,-0.0820312525 0,-0.1875 -0.1054688,-0.1875 -0.070312,0 -0.1054687,0.046875 -0.1171875,0.09375 C 6.397625,0.77271094 5.78825,0.81958594 5.647625,0.81958594 c -0.4804687,0 -0.6679687,-0.38671875 -0.8789062,-0.87890625 z M 2.928875,-0.17650781 C 2.0616875,-0.51635156 1.3937188,-1.4304141 1.3937188,-3.0358828 c 0,-2.2265625 1.2539062,-3.0351563 2.1796875,-3.0351563 0.9375,0 2.1796875,0.796875 2.1796875,3.0351563 0,1.1835937 -0.3515625,2.13281249 -1.125,2.64843749 -0.1875,-0.4453125 -0.4570313,-0.94921879 -1.0429688,-0.94921879 -0.4335937,0 -0.7617187,0.35156254 -0.7617187,0.76171879 0,0.2109375 0.09375,0.38671875 0.1054687,0.3984375 z m 1.4414063,-0.0703125 c -0.2578125,0.140625 -0.5625,0.1875 -0.796875,0.1875 -0.4335938,0 -0.5273438,-0.375 -0.5273438,-0.515625 0,-0.26953125 0.1992188,-0.53906249 0.5507813,-0.53906249 0.46875,0 0.65625,0.37499999 0.7734375,0.86718749 z m 0,0"
       style="fill:#000000;fill-opacity:1;fill-rule:nonzero;stroke:none"
       aria-label="Q"
       transform="matrix(1.3333333,0,0,1.3333333,147.15733,41.708)" />
    <path
       id="path12"
       d="m 99.30206,-27.0177 c 0,6.65367 -5.39372,12.0474 -12.04738,12.0474 -6.65367,0 -12.04739,-5.39373 -12.04739,-12.0474 0,-6.65366 5.39372,-12.04738 12.04739,-12.04738 6.65366,0 12.04738,5.39372 12.04738,12.04738 z"
       style="fill:#ffffff;fill-opacity:1;fill-rule:nonzero;stroke:#000000;stroke-width:0.79701;stroke-linecap:butt;stroke-linejoin:miter;stroke-miterlimit:10;stroke-dasharray:none;stroke-opacity:1"
       transform="matrix(1.3333333,0,0,-1.3333333,35.597333,38.785333)" />
    <path
       id="path13"
       d="m 3.4910703,-1.0774219 c 0,0.16406252 0,0.18750002 -0.140625,0.37500002 -0.28125,0.41015625 -0.6914062,0.57421875 -1.0429687,0.57421875 -0.3867188,0 -0.75,-0.2109375 -0.984375,-0.5859375 C 1.0887266,-1.1008594 1.0770078,-1.6282031 1.0770078,-1.9211719 c 0,-0.421875 0.046875,-0.890625 0.28125,-1.2539062 0.1992188,-0.28125 0.5625,-0.5625 1.0429688,-0.5625 0.375,0 0.7382812,0.1875 0.9726562,0.5273437 0.1171875,0.140625 0.1171875,0.1523438 0.1171875,0.328125 z m 0.023437,-2.3554687 c -0.046875,-0.058594 -0.4453125,-0.5273438 -1.1484375,-0.5273438 -1.1015625,0 -2.06249999,0.8789063 -2.06249999,2.0390625 0,1.11328127 0.90234379,2.01562502 1.96874999,2.01562502 0.6445313,0 1.0546875,-0.375 1.21875,-0.57421875 V 0.09445312 L 4.8387266,7.03125e-4 V -0.28054688 c -0.609375,0 -0.6914063,-0.0585938 -0.6914063,-0.50390625 V -6.2219531 l -1.3242187,0.1054687 v 0.2695313 c 0.609375,0 0.6914062,0.070312 0.6914062,0.5039062 z m 5.1796875,0.6210937 c 1.2539063,0 2.1679682,-0.7851562 2.1679682,-1.640625 0,-0.890625 -0.9140619,-1.6640625 -2.1679682,-1.6640625 h -3.210937 v 0.2695313 h 0.1992188 c 0.6914062,0 0.7148437,0.1054687 0.7148437,0.4335937 v 4.71093752 c 0,0.328125 -0.023437,0.421875 -0.7148437,0.421875 H 5.4832578 V 7.03125e-4 c 0.3984375,-0.023437505 0.9023438,-0.023437505 1.3125,-0.023437505 0.4101563,0 0.9140625,0 1.3242188,0.023437505 V -0.28054688 H 7.9090391 c -0.6914063,0 -0.7148438,-0.09375 -0.7148438,-0.421875 V -2.8117969 Z m -1.523437,-2.6601562 c 0,-0.3046875 0.023437,-0.375 0.4453125,-0.375 h 0.8554688 c 1.4765625,0 1.4765625,0.984375 1.4765625,1.3945312 0,0.3984375 0,1.3828125 -1.4882813,1.3828125 H 7.1707578 Z m 0,0"
       style="fill:#000000;fill-opacity:1;fill-rule:nonzero;stroke:none"
       aria-label="dP"
       transform="matrix(1.3333333,0,0,1.3333333,144.34133,78.96)" />
    <path
       id="path14"
       d="m 99.30206,-54.0354 c 0,6.65367 -5.39372,12.0474 -12.04738,12.0474 -6.65367,0 -12.04739,-5.39373 -12.04739,-12.0474 0,-6.65366 5.39372,-12.04738 12.04739,-12.04738 6.65366,0 12.04738,5.39372 12.04738,12.04738 z"
       style="fill:#ccccff;fill-opacity:1;fill-rule:nonzero;stroke:#0000ff;stroke-width:0.79701;stroke-linecap:butt;stroke-linejoin:miter;stroke-miterlimit:10;stroke-dasharray:none;stroke-opacity:1"
       transform="matrix(1.3333333,0,0,-1.3333333,35.597333,38.785333)" />
    <path
       id="path15"
       d="m 5.366375,-5.2983281 c 0.5625,-0.5273438 1.125,-0.5390625 1.2773438,-0.5507813 v -0.2695312 c -0.2578125,0.023437 -0.7148438,0.023437 -0.796875,0.023437 -0.375,0 -0.7148438,-0.011719 -1.1132813,-0.023437 v 0.2695312 c 0.2460938,0.011719 0.3867188,0.1289063 0.3867188,0.2929688 0,0.082031 -0.023437,0.1523437 -0.070312,0.2109375 l -2.9882813,2.765625 v -2.8359375 c 0,-0.328125 0.011719,-0.4335938 0.703125,-0.4335938 H 2.97575 v -0.2695312 c -0.3984375,0.023437 -0.9023437,0.023437 -1.3125,0.023437 -0.421875,0 -0.92578125,0 -1.32421875,-0.023437 v 0.2695312 h 0.2109375 c 0.69140625,0 0.70312505,0.1054688 0.70312505,0.4335938 v 4.71093747 c 0,0.328125 -0.011719,0.421875 -0.70312505,0.421875 h -0.2109375 v 0.28125 c 0.3984375,-0.0234375 0.90234375,-0.0234375 1.32421875,-0.0234375 0.4101563,0 0.9140625,0 1.3125,0.0234375 v -0.28125 H 2.7648125 c -0.6914062,0 -0.703125,-0.09375 -0.703125,-0.421875 V -2.2397344 l 1.0898438,-1.0195312 1.6757812,2.39062497 c 0.070312,0.09375 0.1523438,0.234375 0.1523438,0.328125 0,0.2578125 -0.3398438,0.2578125 -0.5039063,0.2578125 v 0.28125 c 0.3867188,-0.0234375 0.84375,-0.0234375 1.2421875,-0.0234375 0.234375,0 0.5976563,0 1.0546875,0.0234375 v -0.28125 c -0.5742187,0 -0.6914062,-0.0820313 -0.984375,-0.4921875 L 3.6905938,-3.7514531 Z m 0,0"
       style="fill:#000000;fill-opacity:1;fill-rule:nonzero;stroke:none"
       aria-label="K"
       transform="matrix(1.3333333,0,0,1.3333333,147.15733,114.916)" />
    <path
       id="path16"
       d="m 99.30206,-95.93544 c 0,6.65367 -5.39372,12.04739 -12.04738,12.04739 -6.65367,0 -12.04739,-5.39372 -12.04739,-12.04739 0,-6.65366 5.39372,-12.04738 12.04739,-12.04738 6.65366,0 12.04738,5.39372 12.04738,12.04738 z"
       style="fill:#ffffff;fill-opacity:1;fill-rule:nonzero;stroke:#000000;stroke-width:0.79701;stroke-linecap:butt;stroke-linejoin:miter;stroke-miterlimit:10;stroke-dasharray:none;stroke-opacity:1"
       transform="matrix(1.3333333,0,0,-1.3333333,35.597333,38.785333)" />
    <path
       id="path17"
       d="m 3.5736484,-2.8135625 c 1.2539063,0 2.1679688,-0.7851562 2.1679688,-1.640625 0,-0.890625 -0.9140625,-1.6640625 -2.1679688,-1.6640625 H 0.36271094 v 0.2695313 h 0.19921875 c 0.69140621,0 0.71484371,0.1054687 0.71484371,0.4335937 v 4.7109375 c 0,0.328125 -0.023437,0.421875 -0.71484371,0.421875 H 0.36271094 v 0.28125 C 0.76114844,-0.0245 1.2650547,-0.0245 1.6752109,-0.0245 c 0.4101563,0 0.9140625,0 1.3242188,0.0234375 v -0.28125 H 2.7884922 c -0.6914063,0 -0.7148438,-0.09375 -0.7148438,-0.421875 v -2.109375 z M 2.0502109,-5.4737187 c 0,-0.3046875 0.023437,-0.375 0.4453125,-0.375 h 0.8554688 c 1.4765625,0 1.4765625,0.984375 1.4765625,1.3945312 0,0.3984375 0,1.3828125 -1.4882813,1.3828125 H 2.0502109 Z m 0,0"
       style="fill:#000000;fill-opacity:1;fill-rule:nonzero;stroke:none"
       aria-label="P"
       transform="matrix(1.3333333,0,0,1.3333333,147.75467,170.78267)" />
    <path
       id="path18"
       d="m 186.55676,-22.67754 c 0,6.65368 -5.39372,12.0474 -12.04739,12.0474 -6.65366,0 -12.04738,-5.39372 -12.04738,-12.0474 0,-6.65365 5.39372,-12.04737 12.04738,-12.04737 6.65367,0 12.04739,5.39372 12.04739,12.04737 z"
       style="fill:#ffffff;fill-opacity:1;fill-rule:nonzero;stroke:#000000;stroke-width:0.79701;stroke-linecap:butt;stroke-linejoin:miter;stroke-miterlimit:10;stroke-dasharray:none;stroke-opacity:1"
       transform="matrix(1.3333333,0,0,-1.3333333,35.597333,38.785333)" />
    <path
       id="path19"
       d="m 3.4917109,-1.0792188 c 0,0.16406255 0,0.18750005 -0.140625,0.37500005 C 3.0698359,-0.2940625 2.6596797,-0.13 2.3081172,-0.13 c -0.3867188,0 -0.75,-0.2109375 -0.984375,-0.5859375 C 1.0893672,-1.1026563 1.0776484,-1.63 1.0776484,-1.9229688 c 0,-0.421875 0.046875,-0.890625 0.28125,-1.2539062 0.1992188,-0.28125 0.5625,-0.5625 1.0429688,-0.5625 0.375,0 0.7382812,0.1875 0.9726562,0.5273437 0.1171875,0.140625 0.1171875,0.1523438 0.1171875,0.328125 z m 0.023437,-2.3554687 c -0.046875,-0.058594 -0.4453125,-0.5273438 -1.1484375,-0.5273438 -1.1015625,0 -2.06249996,0.8789063 -2.06249996,2.0390625 0,1.1132813 0.90234376,2.01562505 1.96874996,2.01562505 0.6445313,0 1.0546875,-0.375 1.21875,-0.57421875 v 0.57421875 l 1.3476563,-0.09375 v -0.28125 c -0.609375,0 -0.6914063,-0.0585938 -0.6914063,-0.50390625 v -5.4375 L 2.8237422,-6.1182813 V -5.84875 c 0.609375,0 0.6914062,0.070312 0.6914062,0.5039062 z m 6.9726561,-1.8632813 c 0.5625,-0.5273437 1.125,-0.5390625 1.277343,-0.5507812 v -0.2695313 c -0.257811,0.023437 -0.714843,0.023437 -0.796875,0.023437 -0.375,0 -0.714843,-0.011719 -1.1132803,-0.023437 V -5.84875 c 0.2460943,0.011719 0.3867193,0.1289062 0.3867193,0.2929687 0,0.082031 -0.02344,0.1523438 -0.07031,0.2109375 l -2.9882813,2.765625 v -2.8359375 c 0,-0.328125 0.011719,-0.4335937 0.703125,-0.4335937 h 0.2109375 v -0.2695313 c -0.3984375,0.023437 -0.9023438,0.023437 -1.3125,0.023437 -0.421875,0 -0.9257813,0 -1.3242188,-0.023437 V -5.84875 h 0.2109375 c 0.6914063,0 0.703125,0.1054687 0.703125,0.4335937 v 4.71093755 c 0,0.328125 -0.011719,0.421875 -0.703125,0.421875 h -0.21094 v 0.28125 c 0.3984375,-0.0234375 0.9023438,-0.0234375 1.3242188,-0.0234375 0.4101562,0 0.9140625,0 1.3125,0.0234375 v -0.28125 H 7.8862422 c -0.6914063,0 -0.703125,-0.09375 -0.703125,-0.421875 V -2.239375 l 1.0898437,-1.0195313 1.6757813,2.39062505 c 0.070313,0.09375 0.1523438,0.234375 0.1523438,0.328125 0,0.2578125 -0.3398438,0.2578125 -0.5039063,0.2578125 v 0.28125 c 0.3867187,-0.0234375 0.8437503,-0.0234375 1.2421873,-0.0234375 0.234375,0 0.597656,0 1.054688,0.0234375 v -0.28125 c -0.574219,0 -0.691407,-0.0820313 -0.984375,-0.4921875 L 8.8120234,-3.7510938 Z m 0,0"
       style="fill:#000000;fill-opacity:1;fill-rule:nonzero;stroke:none"
       aria-label="dK"
       transform="matrix(1.3333333,0,0,1.3333333,260.08267,73.173333)" />
    <path
       id="path20"
       d="m 186.55676,-56.07343 c 0,6.65366 -5.39372,12.04738 -12.04739,12.04738 -6.65366,0 -12.04738,-5.39372 -12.04738,-12.04738 0,-6.65367 5.39372,-12.04739 12.04738,-12.04739 6.65367,0 12.04739,5.39372 12.04739,12.04739 z"
       style="fill:#ffffff;fill-opacity:1;fill-rule:nonzero;stroke:#000000;stroke-width:0.79701;stroke-linecap:butt;stroke-linejoin:miter;stroke-miterlimit:10;stroke-dasharray:none;stroke-opacity:1"
       transform="matrix(1.3333333,0,0,-1.3333333,35.597333,38.785333)" />
    <path
       id="path21"
       d="m 3.4927109,-1.0768281 c 0,0.16406248 0,0.18749998 -0.140625,0.37499998 -0.28125,0.41015625 -0.6914062,0.57421875 -1.0429687,0.57421875 -0.3867188,0 -0.75,-0.2109375 -0.984375,-0.5859375 C 1.0903672,-1.1002656 1.0786484,-1.6276094 1.0786484,-1.9205781 c 0,-0.421875 0.046875,-0.890625 0.28125,-1.2539063 0.1992188,-0.28125 0.5625,-0.5625 1.0429688,-0.5625 0.375,0 0.7382812,0.1875 0.9726562,0.5273438 0.1171875,0.140625 0.1171875,0.1523437 0.1171875,0.328125 z m 0.023437,-2.3554688 c -0.046875,-0.058594 -0.4453125,-0.5273437 -1.1484375,-0.5273437 -1.1015625,0 -2.06249996,0.8789062 -2.06249996,2.0390625 0,1.11328123 0.90234376,2.01562498 1.96874996,2.01562498 0.6445313,0 1.0546875,-0.375 1.21875,-0.57421875 v 0.57421875 l 1.3476563,-0.09375 v -0.28125 c -0.609375,0 -0.6914063,-0.0585938 -0.6914063,-0.50390625 V -6.2213594 l -1.3242187,0.1054688 v 0.2695312 c 0.609375,0 0.6914062,0.070312 0.6914062,0.5039063 z m 6.3720704,3.37500003 c 0.9609377,-0.3984375 1.8750007,-1.50000003 1.8750007,-2.97656253 0,-1.828125 -1.394531,-3.28125 -3.0703132,-3.28125 -1.6757813,0 -3.0585938,1.453125 -3.0585938,3.28125 0,1.8164063 1.3945313,3.23437503 3.0585938,3.23437503 0.3164062,0 0.65625,-0.0703125 0.8671875,-0.12890625 0.1640625,0.890625 0.3046875,1.66406252 1.1367197,1.66406252 0.925781,0 1.113281,-1.19531252 1.113281,-1.65234377 0,-0.08203125 0,-0.1875 -0.105469,-0.1875 -0.07031,0 -0.105469,0.046875 -0.117187,0.09375 -0.07031,0.78515625 -0.679688,0.83203125 -0.820313,0.83203125 -0.480469,0 -0.667969,-0.38671875 -0.8789067,-0.87890625 z M 8.048375,-0.17448437 C 7.1811875,-0.51432812 6.5132188,-1.4283906 6.5132188,-3.0338594 c 0,-2.2265625 1.2539062,-3.0351562 2.1796875,-3.0351562 0.9375,0 2.1796877,0.796875 2.1796877,3.0351562 0,1.1835938 -0.351563,2.13281253 -1.1250002,2.64843753 -0.1875,-0.4453125 -0.4570313,-0.94921873 -1.0429688,-0.94921873 -0.4335937,0 -0.7617187,0.35156248 -0.7617187,0.76171873 0,0.2109375 0.09375,0.38671875 0.1054687,0.3984375 z m 1.4414063,-0.0703125 c -0.2578125,0.140625 -0.5625,0.1875 -0.796875,0.1875 -0.4335938,0 -0.5273438,-0.375 -0.5273438,-0.515625 0,-0.26953125 0.1992188,-0.53906253 0.5507813,-0.53906253 0.46875,0 0.65625,0.37500003 0.7734375,0.86718753 z m 0,0"
       style="fill:#000000;fill-opacity:1;fill-rule:nonzero;stroke:none"
       aria-label="dQ"
       transform="matrix(1.3333333,0,0,1.3333333,260.08133,116.53733)" />
    <path
       id="path22"
       d="m 186.55676,-95.93544 c 0,6.65367 -5.39372,12.04739 -12.04739,12.04739 -6.65366,0 -12.04738,-5.39372 -12.04738,-12.04739 0,-6.65366 5.39372,-12.04738 12.04738,-12.04738 6.65367,0 12.04739,5.39372 12.04739,12.04738 z"
       style="fill:#ffffff;fill-opacity:1;fill-rule:nonzero;stroke:#000000;stroke-width:0.79701;stroke-linecap:butt;stroke-linejoin:miter;stroke-miterlimit:10;stroke-dasharray:none;stroke-opacity:1"
       transform="matrix(1.3333333,0,0,-1.3333333,35.597333,38.785333)" />
    <path
       id="path23"
       d="m 3.4926172,-1.0793828 c 0,0.16406249 0,0.18749999 -0.140625,0.37499999 -0.28125,0.41015625 -0.6914063,0.57421875 -1.0429688,0.57421875 -0.3867187,0 -0.75,-0.2109375 -0.984375,-0.5859375 C 1.0902734,-1.1028203 1.0785547,-1.6301641 1.0785547,-1.9231328 c 0,-0.421875 0.046875,-0.890625 0.28125,-1.2539063 0.1992187,-0.28125 0.5625,-0.5625 1.0429687,-0.5625 0.375,0 0.7382813,0.1875 0.9726563,0.5273438 0.1171875,0.140625 0.1171875,0.1523437 0.1171875,0.328125 z m 0.023437,-2.3554688 c -0.046875,-0.058594 -0.4453125,-0.5273437 -1.1484375,-0.5273437 -1.1015625,0 -2.06250001,0.8789062 -2.06250001,2.0390625 0,1.11328124 0.90234371,2.01562499 1.96875001,2.01562499 0.6445312,0 1.0546875,-0.375 1.21875,-0.57421875 v 0.57421875 l 1.3476562,-0.09375 v -0.28125 c -0.609375,0 -0.6914062,-0.0585938 -0.6914062,-0.50390625 V -6.2239141 l -1.3242188,0.1054688 v 0.2695312 c 0.609375,0 0.6914063,0.070312 0.6914063,0.5039063 z m 3.5244141,-1.96875 c -0.035156,-0.1054687 -0.035156,-0.1640625 -0.035156,-0.1757812 0,-0.2695313 0.4570313,-0.2695313 0.7148438,-0.2695313 v -0.2695312 c -0.4101563,0.023437 -0.8671875,0.023437 -1.2773438,0.023437 -0.375,0 -0.5039062,-0.011719 -1.1484375,-0.023437 v 0.2695312 c 0.65625,0 0.7617188,0.035156 0.8789063,0.3515625 L 8.34125,-0.00125781 c 0.058594,0.12890625 0.082031,0.19921875 0.234375,0.19921875 0.140625,0 0.1640625,-0.0585938 0.2109375,-0.17578125 L 10.860781,-5.2512578 c 0.1875,-0.46875 0.5625,-0.5976563 0.984375,-0.5976563 v -0.2695312 c -0.316406,0.023437 -0.574218,0.023437 -0.878906,0.023437 -0.386719,0 -0.5625,-0.011719 -1.0078125,-0.023437 v 0.2695312 c 0.4453125,0.011719 0.6328125,0.2226563 0.6328125,0.4453125 0,0.082031 0,0.09375 -0.03516,0.1875 l -1.7226565,4.34765629 z m 0,0"
       style="fill:#000000;fill-opacity:1;fill-rule:nonzero;stroke:none"
       aria-label="dV"
       transform="matrix(1.3333333,0,0,1.3333333,260.25333,170.84933)" />
    <path
       id="path24"
       d="m 257.42381,-35.52182 c 0,6.65367 -5.39372,12.04739 -12.04738,12.04739 -6.65367,0 -12.04739,-5.39372 -12.04739,-12.04739 0,-6.65366 5.39372,-12.04738 12.04739,-12.04738 6.65366,0 12.04738,5.39372 12.04738,12.04738 z"
       style="fill:#d9d9d9;fill-opacity:1;fill-rule:nonzero;stroke:#000000;stroke-width:0.79701;stroke-linecap:butt;stroke-linejoin:miter;stroke-miterlimit:10;stroke-dasharray:none;stroke-opacity:1"
       transform="matrix(1.3333333,0,0,-1.3333333,35.597333,38.785333)" />
    <path
       id="path25"
       d="m 4.7708125,-0.05785937 c 0.9609375,-0.3984375 1.875,-1.50000003 1.875,-2.97656253 0,-1.828125 -1.3945312,-3.28125 -3.0703125,-3.28125 -1.6757812,0 -3.05859375,1.453125 -3.05859375,3.28125 0,1.8164063 1.39453125,3.23437503 3.05859375,3.23437503 0.3164063,0 0.65625,-0.0703125 0.8671875,-0.12890625 0.1640625,0.890625 0.3046875,1.66406252 1.1367188,1.66406252 0.9257812,0 1.1132812,-1.19531252 1.1132812,-1.65234377 0,-0.082031255 0,-0.1875 -0.1054687,-0.1875 -0.070312,0 -0.1054688,0.046875 -0.1171875,0.09375 -0.070312,0.78515625 -0.6796875,0.83203125 -0.8203125,0.83203125 -0.4804688,0 -0.6679688,-0.38671875 -0.8789063,-0.87890625 z M 2.9309688,-0.17504687 C 2.0637813,-0.51489062 1.3958125,-1.4289531 1.3958125,-3.0344219 c 0,-2.2265625 1.2539063,-3.0351562 2.1796875,-3.0351562 0.9375,0 2.1796875,0.796875 2.1796875,3.0351562 0,1.1835938 -0.3515625,2.13281253 -1.125,2.64843753 -0.1875,-0.4453125 -0.4570312,-0.94921873 -1.0429687,-0.94921873 -0.4335938,0 -0.7617188,0.35156248 -0.7617188,0.76171873 0,0.2109375 0.09375,0.38671875 0.1054688,0.3984375 z m 1.4414062,-0.0703125 c -0.2578125,0.140625 -0.5625,0.1875 -0.796875,0.1875 -0.4335937,0 -0.5273437,-0.375 -0.5273437,-0.515625 0,-0.26953125 0.1992187,-0.53906253 0.5507812,-0.53906253 0.46875,0 0.65625,0.37500003 0.7734375,0.86718753 z m 0,0"
       style="fill:#000000;fill-opacity:1;fill-rule:nonzero;stroke:none"
       aria-label="Q"
       transform="matrix(1.3333333,0,0,1.3333333,357.98267,89.069333)" />
    <path
       id="path26"
       d="m 257.42929,-71.75761 c 0,6.65667 -5.39616,12.05285 -12.05286,12.05285 -6.65669,0 -12.05285,-5.39618 -12.05285,-12.05285 0,-6.65669 5.39616,-12.05286 12.05285,-12.05286 6.6567,0 12.05286,5.39617 12.05286,12.05286 z"
       style="fill:#d9d9d9;fill-opacity:1;fill-rule:nonzero;stroke:#000000;stroke-width:0.79701;stroke-linecap:butt;stroke-linejoin:miter;stroke-miterlimit:10;stroke-dasharray:none;stroke-opacity:1"
       transform="matrix(1.3333333,0,0,-1.3333333,35.597333,38.785333)" />
    <path
       id="path27"
       d="m 1.7578281,-5.5194219 c 0,-0.2695312 -0.2109375,-0.4921875 -0.4804687,-0.4921875 -0.2695313,0 -0.49218752,0.2226563 -0.49218752,0.4921875 0,0.2695313 0.22265622,0.4804688 0.49218752,0.4804688 0.2695312,0 0.4804687,-0.2109375 0.4804687,-0.4804688 z m -3.1289062,6.8085938 c 0,0.1640625 0,0.1875 -0.140625,0.375 -0.28125,0.4101562 -0.6914063,0.5742187 -1.0429688,0.5742187 -0.3867187,0 -0.75,-0.2109375 -0.984375,-0.5859375 -0.234375,-0.3867187 -0.2460937,-0.91406248 -0.2460937,-1.20703123 0,-0.421875 0.046875,-0.890625 0.28125,-1.25390625 0.1992187,-0.28125002 0.5625,-0.56250002 1.0429687,-0.56250002 0.375,0 0.7382813,0.1875 0.9726563,0.52734377 0.1171875,0.140625 0.1171875,0.15234375 0.1171875,0.328125 z m 0.023437,-2.3554688 c -0.046875,-0.058594 -0.4453125,-0.5273437 -1.1484375,-0.5273437 -1.1015625,0 -2.0625,0.87890622 -2.0625,2.03906247 0,1.11328123 0.9023437,2.01562503 1.96875,2.01562503 0.6445312,0 1.0546875,-0.375 1.21875,-0.5742188 v 0.5742188 l 1.34765623,-0.09375 v -0.28125 c -0.609375,0 -0.69140625,-0.058594 -0.69140625,-0.5039063 v -5.4375 l -1.32421878,0.1054688 v 0.2695312 c 0.609375,0 0.6914063,0.070312 0.6914063,0.5039063 z m 6.9726562,-1.8632812 c 0.5625,-0.5273438 1.125,-0.5390625 1.2773438,-0.5507813 v -0.2695312 c -0.2578125,0.023437 -0.7148438,0.023437 -0.796875,0.023437 -0.375,0 -0.7148438,-0.011719 -1.1132813,-0.023437 v 0.2695312 c 0.2460938,0.011719 0.3867188,0.1289063 0.3867188,0.2929688 0,0.082031 -0.023437,0.1523437 -0.070312,0.2109375 L 2.3203281,-0.21082813 V -3.0467656 c 0,-0.328125 0.011719,-0.4335938 0.703125,-0.4335938 h 0.2109375 v -0.2695312 c -0.3984375,0.023437 -0.9023437,0.023437 -1.3125,0.023437 -0.421875,0 -0.92578122,0 -1.32421872,-0.023437 v 0.2695312 h 0.2109375 c 0.69140622,0 0.70312502,0.1054688 0.70312502,0.4335938 v 4.7109375 c 0,0.328125 -0.011719,0.421875 -0.70312502,0.421875 h -0.2109375 v 0.28125 c 0.3984375,-0.023437 0.90234372,-0.023437 1.32421872,-0.023437 0.4101563,0 0.9140625,0 1.3125,0.023437 v -0.28125 H 3.0234531 c -0.6914062,0 -0.703125,-0.09375 -0.703125,-0.421875 V 0.12901562 L 3.4101719,-0.89051563 5.0859531,1.5001094 c 0.070312,0.09375 0.1523438,0.234375 0.1523438,0.328125 0,0.2578125 -0.3398438,0.2578125 -0.5039063,0.2578125 v 0.28125 c 0.3867188,-0.023437 0.84375,-0.023437 1.2421875,-0.023437 0.234375,0 0.5976563,0 1.0546875,0.023437 v -0.28125 c -0.5742187,0 -0.6914062,-0.082031 -0.984375,-0.4921875 L 3.9492344,-1.3827031 Z m 0,0"
       style="fill:#000000;fill-opacity:1;fill-rule:nonzero;stroke:none"
       aria-label="˙&#10;dK"
       transform="matrix(1.3333333,0,0,1.3333333,361.05467,136.88267)" />
    <path
       id="path28"
       d="m 344.67851,-53.94707 c 0,6.65366 -5.39372,12.04738 -12.04739,12.04738 -6.65366,0 -12.04738,-5.39372 -12.04738,-12.04738 0,-6.65367 5.39372,-12.04739 12.04738,-12.04739 6.65367,0 12.04739,5.39372 12.04739,12.04739 z"
       style="fill:#ffffff;fill-opacity:1;fill-rule:nonzero;stroke:#000000;stroke-width:0.79701;stroke-linecap:butt;stroke-linejoin:miter;stroke-miterlimit:10;stroke-dasharray:none;stroke-opacity:1"
       transform="matrix(1.3333333,0,0,-1.3333333,35.597333,38.785333)" />
    <path
       id="path29"
       d="m 1.7587109,-5.5189922 c 0,-0.2695312 -0.2109375,-0.4921875 -0.4804687,-0.4921875 -0.2695313,0 -0.49218751,0.2226563 -0.49218751,0.4921875 0,0.2695313 0.22265621,0.4804688 0.49218751,0.4804688 0.2695312,0 0.4804687,-0.2109375 0.4804687,-0.4804688 z m -2.68359371,6.8056641 c 0,0.1640625 0,0.1875 -0.14062499,0.375 -0.28125,0.4101562 -0.6914063,0.5742187 -1.0429688,0.5742187 -0.3867187,0 -0.75,-0.2109375 -0.984375,-0.5859375 -0.234375,-0.3867187 -0.2460937,-0.91406248 -0.2460937,-1.20703123 0,-0.421875 0.046875,-0.890625 0.28125,-1.25390625 0.1992187,-0.28125002 0.5625,-0.56250002 1.0429687,-0.56250002 0.375,0 0.7382813,0.1875 0.9726563,0.52734377 0.11718749,0.140625 0.11718749,0.15234375 0.11718749,0.328125 z m 0.0234375,-2.3554688 c -0.046875,-0.058594 -0.44531249,-0.5273437 -1.14843749,-0.5273437 -1.1015625,0 -2.0625,0.87890622 -2.0625,2.03906247 0,1.11328123 0.9023437,2.01562503 1.96875,2.01562503 0.6445312,0 1.0546875,-0.375 1.21874999,-0.5742188 v 0.5742188 l 1.34765625,-0.09375 v -0.28125 c -0.609375,0 -0.69140625,-0.058594 -0.69140625,-0.5039063 v -5.4375 l -1.32421879,0.1054688 v 0.2695312 c 0.60937504,0 0.69140629,0.070312 0.69140629,0.5039063 z m 5.17968751,0.62109377 c 1.2539062,0 2.1679687,-0.78515627 2.1679687,-1.64062497 0,-0.890625 -0.9140625,-1.6640625 -2.1679687,-1.6640625 H 1.0673047 v 0.2695312 h 0.1992187 c 0.6914063,0 0.7148438,0.1054688 0.7148438,0.4335938 v 4.7109375 c 0,0.328125 -0.023437,0.421875 -0.7148438,0.421875 H 1.0673047 v 0.28125 c 0.3984375,-0.023437 0.9023437,-0.023437 1.3125,-0.023437 0.4101562,0 0.9140625,0 1.3242187,0.023437 v -0.28125 H 3.4930859 c -0.6914062,0 -0.7148437,-0.09375 -0.7148437,-0.421875 V -0.44770313 Z M 2.7548047,-3.1078594 c 0,-0.3046875 0.023437,-0.375 0.4453125,-0.375 h 0.8554687 c 1.4765625,0 1.4765625,0.984375 1.4765625,1.3945313 0,0.3984375 0,1.38281247 -1.4882812,1.38281247 H 2.7548047 Z m 0,0"
       style="fill:#000000;fill-opacity:1;fill-rule:nonzero;stroke:none"
       aria-label="˙&#10;dP"
       transform="matrix(1.3333333,0,0,1.3333333,477.39333,113.136)" />
    <path
       id="path30"
       d="m 32.803,-124.48254 h 108.90338 v 12.86786 H 32.803 Z"
       style="fill:#ffffff;fill-opacity:1;fill-rule:nonzero;stroke:#ffffff;stroke-width:0.79701;stroke-linecap:butt;stroke-linejoin:miter;stroke-miterlimit:10;stroke-dasharray:none;stroke-opacity:1"
       transform="matrix(1.3333333,0,0,-1.3333333,35.597333,38.785333)" />
    <path
       id="path31"
       d="m 3.6682578,-6.2343516 c -0.046875,-0.1171875 -0.070312,-0.1875 -0.2109375,-0.1875 -0.1523437,0 -0.1640625,0.058594 -0.2226562,0.1992188 l -1.921875,5.33203124 c -0.1054688,0.29296875 -0.31640629,0.609375 -1.00781254,0.609375 V 2.34375e-5 C 0.64482031,-0.02341406 0.89091406,-0.02341406 1.2190391,-0.02341406 c 0.3164062,0 0.515625,0 1.0078125,0.0234374975 V -0.28122656 c -0.5039063,0 -0.65625,-0.28125 -0.65625,-0.45703125 0,-0.0820313 0.011719,-0.1171875 0.035156,-0.1640625 l 0.421875,-1.16015629 h 2.3203125 l 0.4804688,1.35937504 c 0.035156,0.0820313 0.046875,0.1171875 0.046875,0.15234375 0,0.26953125 -0.5039063,0.26953125 -0.7382813,0.26953125 V 2.34375e-5 C 4.5471641,-0.02341406 5.0159141,-0.02341406 5.4260703,-0.02341406 c 0.3984375,0 0.4335938,0 1.171875,0.0234374975 V -0.28122656 H 6.4456016 c -0.5507813,0 -0.65625,-0.0820313 -0.7382813,-0.328125 z m 0.5742188,3.890625 H 2.1213828 l 1.0664063,-2.9296875 z m 5.3261718,-1.2421875 v -0.28125 H 8.2678672 v -1.640625 H 8.0100547 c 0,0.75 -0.3164063,1.6757813 -1.1835938,1.6992188 v 0.2226562 h 0.7734375 v 2.4726563 c 0,1.00781249 0.7265625,1.20703124 1.2070313,1.20703124 0.5976562,0 0.9140625,-0.57421875 0.9140625,-1.20703124 V -1.6171641 H 9.4631797 v 0.4804688 c 0,0.65624999 -0.28125,0.98437499 -0.5976563,0.98437499 -0.5976562,0 -0.5976562,-0.78515625 -0.5976562,-0.94921879 v -2.484375 z m 3.5830076,0 v -0.28125 h -1.300781 v -1.640625 h -0.257813 c 0,0.75 -0.316406,1.6757813 -1.183593,1.6992188 v 0.2226562 h 0.773437 v 2.4726563 c 0,1.00781249 0.726563,1.20703124 1.207031,1.20703124 0.597657,0 0.914063,-0.57421875 0.914063,-1.20703124 v -0.5039063 h -0.257813 v 0.4804688 c 0,0.65624999 -0.28125,0.98437499 -0.597656,0.98437499 -0.597656,0 -0.597656,-0.78515625 -0.597656,-0.94921879 v -2.484375 z m 4.250977,1.5351563 c 0.199219,0 0.246094,0 0.246094,-0.1875 0,-0.9257813 -0.503907,-1.78125 -1.652344,-1.78125 -1.078125,0 -1.921875,0.9375 -1.921875,2.0507812 0,1.17187504 0.949219,2.06250004 2.039062,2.06250004 1.089844,0 1.535157,-0.94921875 1.535157,-1.16015624 0,-0.058594 -0.04687,-0.1171875 -0.128907,-0.1171875 -0.09375,0 -0.117187,0.058594 -0.128906,0.09375 -0.304687,0.91406249 -1.101562,0.93749999 -1.230469,0.93749999 -0.433593,0 -0.796875,-0.24609375 -1.007812,-0.55078125 C 14.859664,-1.1366953 14.847945,-1.6757578 14.847945,-2.0507578 Z m -2.542969,-0.2226563 c 0.08203,-1.3710937 0.878906,-1.5234375 1.136719,-1.5234375 0.492187,0 1.03125,0.3867188 1.042969,1.5234375 z m 4.722656,-0.046875 c 0,-0.9492187 0.679688,-1.4179687 1.242188,-1.4179687 0.527344,0 0.644531,0.4335937 0.644531,0.9726562 v 2.07421879 c 0,0.41015625 -0.09375,0.41015625 -0.691406,0.41015625 V 2.34375e-5 C 21.199508,-0.02341406 21.375289,-0.02341406 21.797164,-0.02341406 c 0.433594,0 0.550781,0 1.019531,0.0234374975 V -0.28122656 c -0.457031,0 -0.679687,0 -0.679687,-0.26953125 V -2.2734141 c 0,-0.75 0,-1.0078125 -0.257813,-1.3242187 -0.199218,-0.2460938 -0.550781,-0.3632813 -0.996093,-0.3632813 -0.832032,0 -1.21875,0.6210938 -1.347657,0.8671875 v -0.8671875 l -1.300781,0.09375 v 0.28125 c 0.609375,0 0.691406,0.058594 0.691406,0.5039063 v 2.39062499 c 0,0.41015625 -0.105468,0.41015625 -0.691406,0.41015625 V 2.34375e-5 C 18.656539,-0.02341406 18.820602,-0.02341406 19.254195,-0.02341406 c 0.433594,0 0.550782,0 1.019532,0.0234374975 V -0.28122656 c -0.585938,0 -0.691407,0 -0.691407,-0.41015625 z m 6.123047,-1.265625 v -0.28125 h -1.300781 v -1.640625 h -0.257813 c 0,0.75 -0.316406,1.6757813 -1.183593,1.6992188 v 0.2226562 h 0.773437 v 2.4726563 c 0,1.00781249 0.726563,1.20703124 1.207031,1.20703124 0.597657,0 0.914063,-0.57421875 0.914063,-1.20703124 v -0.5039063 h -0.257813 v 0.4804688 c 0,0.65624999 -0.28125,0.98437499 -0.597656,0.98437499 -0.597656,0 -0.597656,-0.78515625 -0.597656,-0.94921879 v -2.484375 z m 2.317383,-0.375 -1.289063,0.09375 v 0.28125 c 0.574219,0 0.644532,0.058594 0.644532,0.4921875 v 2.40234379 c 0,0.41015625 -0.09375,0.41015625 -0.679688,0.41015625 V 2.34375e-5 C 27.096969,-0.02341406 27.284469,-0.02341406 27.682906,-0.02341406 c 0.140625,0 0.515625,0 0.960938,0.0234374975 V -0.28122656 c -0.585938,0 -0.621094,-0.046875 -0.621094,-0.38671875 z m 0.02344,-1.5585937 c 0,-0.2695313 -0.210937,-0.4921875 -0.480468,-0.4921875 -0.28125,0 -0.492188,0.234375 -0.492188,0.4921875 0,0.2578125 0.210938,0.4804687 0.492188,0.4804687 0.269531,0 0.480468,-0.2109375 0.480468,-0.4804687 z m 5.220704,3.609375 c 0,-1.171875 -0.925782,-2.109375 -2.027344,-2.109375 -1.148438,0 -2.050781,0.9609375 -2.050781,2.109375 0,1.12499999 0.9375,2.00390624 2.039062,2.00390624 1.136719,0 2.039063,-0.90234375 2.039063,-2.00390624 z m -2.027344,1.75781249 c -0.457031,0 -0.832031,-0.22265625 -1.03125,-0.57421875 -0.234375,-0.37500004 -0.246094,-0.85546874 -0.246094,-1.26562504 0,-0.328125 0,-0.84375 0.222656,-1.2070312 0.269532,-0.4570313 0.714844,-0.5976563 1.042969,-0.5976563 0.503906,0 0.878906,0.2929688 1.054688,0.5976563 0.210937,0.375 0.210937,0.8320312 0.210937,1.2070312 0,0.328125 0,0.8554688 -0.222656,1.25390629 -0.246094,0.41015625 -0.65625,0.5859375 -1.03125,0.5859375 z m 3.963867,-2.16796879 c 0,-0.9492187 0.679688,-1.4179687 1.242188,-1.4179687 0.527343,0 0.644531,0.4335937 0.644531,0.9726562 v 2.07421879 c 0,0.41015625 -0.09375,0.41015625 -0.691406,0.41015625 V 2.34375e-5 C 36.820602,-0.02341406 36.996383,-0.02341406 37.418258,-0.02341406 c 0.433594,0 0.550781,0 1.019531,0.0234374975 V -0.28122656 c -0.457031,0 -0.679687,0 -0.679687,-0.26953125 V -2.2734141 c 0,-0.75 0,-1.0078125 -0.257813,-1.3242187 -0.199219,-0.2460938 -0.550781,-0.3632813 -0.996094,-0.3632813 -0.832031,0 -1.21875,0.6210938 -1.347656,0.8671875 v -0.8671875 l -1.300781,0.09375 v 0.28125 c 0.609375,0 0.691406,0.058594 0.691406,0.5039063 v 2.39062499 c 0,0.41015625 -0.105469,0.41015625 -0.691406,0.41015625 V 2.34375e-5 C 34.277633,-0.02341406 34.441695,-0.02341406 34.875289,-0.02341406 c 0.433594,0 0.550781,0 1.019531,0.0234374975 V -0.28122656 c -0.585937,0 -0.691406,0 -0.691406,-0.41015625 z m 8.560547,-3.1523437 c 0,-0.3046875 0.01172,-0.375 0.433594,-0.375 h 1.171875 c 0.878906,0 1.242187,0.703125 1.242187,1.2421875 0,0.6914062 -0.597656,1.3007812 -1.441406,1.3007812 h -1.40625 z m 2.191406,2.2734375 c 0.890625,-0.1757813 1.511719,-0.75 1.511719,-1.40625 0,-0.796875 -0.855469,-1.5117188 -2.039063,-1.5117188 H 42.08818 v 0.2695313 h 0.210937 c 0.691406,0 0.703125,0.1054687 0.703125,0.4335937 v 4.71093754 c 0,0.328125 -0.01172,0.421875 -0.703125,0.421875 H 42.08818 V 2.34375e-5 h 3.585937 c 1.21875,0 2.0625,-0.7968749975 2.0625,-1.6289062375 0,-0.8085938 -0.785156,-1.4648438 -1.78125,-1.5703125 z m -1.757812,2.91796874 c -0.421875,0 -0.433594,-0.0585938 -0.433594,-0.36328125 V -3.0702891 h 1.6875 c 1.042969,0 1.394531,0.8789063 1.394531,1.4179688 0,0.69140624 -0.539062,1.37109374 -1.464844,1.37109374 z m 7.125,-0.36328125 c 0.03516,0.375 0.304687,0.703125 0.691406,0.703125 0.222656,0 0.785156,-0.140625 0.785156,-0.85546875 V -1.3007578 h -0.257812 v 0.49218749 c 0,0.10546875 0,0.55078125 -0.316407,0.55078125 -0.328125,0 -0.328125,-0.43359375 -0.328125,-0.57421875 V -2.4023203 c 0,-0.515625 0,-0.8203125 -0.398437,-1.1835938 -0.328125,-0.2929687 -0.761719,-0.4335937 -1.207031,-0.4335937 -0.761719,0 -1.382813,0.375 -1.382813,0.9492187 0,0.28125 0.1875,0.4335938 0.421875,0.4335938 0.234375,0 0.410156,-0.1757813 0.410156,-0.4101563 0,-0.3867187 -0.398437,-0.4335937 -0.398437,-0.4335937 0.234375,-0.234375 0.667969,-0.3164063 0.925781,-0.3164063 0.457031,0 0.972656,0.3398438 0.972656,1.1367188 v 0.2929687 c -0.492187,0.023437 -1.160156,0.058594 -1.757812,0.3515625 -0.644531,0.3164063 -0.84375,0.7734375 -0.84375,1.13671879 0,0.73828125 0.867187,0.97265625 1.464844,0.97265625 0.75,0 1.089843,-0.4921875 1.21875,-0.73828125 z m -0.08203,-0.62109379 c 0,0.86718754 -0.679687,1.13671879 -1.066406,1.13671879 -0.421875,0 -0.820312,-0.3046875 -0.820312,-0.75 0,-0.58593749 0.515625,-1.21874999 1.886718,-1.27734379 z m 4.875,-2.2617187 c -0.1875,0.035156 -0.363281,0.1640625 -0.363281,0.421875 0,0.234375 0.175781,0.421875 0.410156,0.421875 0.234375,0 0.421875,-0.1640625 0.421875,-0.4335938 0,-0.5625 -0.621093,-0.9023437 -1.417968,-0.9023437 -1.148438,0 -2.003907,0.9609375 -2.003907,2.0859375 0,1.14843749 0.9375,2.02734374 1.992188,2.02734374 1.242187,0 1.535156,-1.078125 1.535156,-1.16015624 0,-0.1054688 -0.105469,-0.1054688 -0.128906,-0.1054688 -0.09375,0 -0.09375,0.011719 -0.152344,0.1640625 -0.210937,0.62109379 -0.703125,0.85546879 -1.171875,0.85546879 -0.5625,0 -1.300781,-0.46875 -1.300781,-1.79296879 0,-1.3945312 0.714844,-1.8164062 1.253906,-1.8164062 0.117188,0 0.597656,0.011719 0.925781,0.234375 z m 2.182618,1.5820312 v -4.2773437 l -1.324219,0.1054687 v 0.2695313 c 0.609375,0 0.691406,0.070312 0.691406,0.5039062 v 4.65234379 c 0,0.41015625 -0.105469,0.41015625 -0.691406,0.41015625 V 2.34375e-5 C 57.372359,-0.02341406 57.595016,-0.02341406 57.970016,-0.02341406 c 0.363281,0 0.585937,0 0.996093,0.0234374975 V -0.28122656 c -0.597656,0 -0.691406,0 -0.691406,-0.41015625 V -1.5937266 l 0.574219,-0.4804687 0.867187,1.17187499 c 0.140625,0.19921875 0.210938,0.3046875 0.210938,0.421875 0,0.09375 -0.02344,0.19921875 -0.304688,0.19921875 V 2.34375e-5 C 60.032516,-0.02341406 60.243453,-0.02341406 60.595016,-0.02341406 c 0.257812,0 0.550781,0 0.808593,0.0234374975 V -0.28122656 c -0.292968,0 -0.515625,0 -0.832031,-0.43359375 L 59.294234,-2.4491953 c 0.878907,-0.7617188 1.289063,-1.1132813 1.898438,-1.1367188 v -0.28125 c -0.316406,0.035156 -0.328125,0.035156 -0.65625,0.035156 -0.269531,0 -0.503906,-0.011719 -0.984375,-0.035156 v 0.28125 c 0.128906,0.011719 0.234375,0.070312 0.234375,0.2109375 0,0.1757813 -0.140625,0.2929688 -0.222656,0.3632813 z m 8.976562,-1.0546875 c 0.199219,-0.5390625 0.5625,-0.5742187 0.761719,-0.5859375 v -0.28125 c -0.363281,0.035156 -0.386719,0.035156 -0.679688,0.035156 -0.339843,0 -0.46875,0 -0.820312,-0.035156 v 0.28125 c 0.386719,0.011719 0.503906,0.2460938 0.503906,0.4335938 0,0.082031 -0.01172,0.140625 -0.03516,0.1992187 l -0.832031,2.25000004 -0.902344,-2.46093754 c -0.04687,-0.1171875 -0.04687,-0.140625 -0.04687,-0.1757812 0,-0.2226563 0.28125,-0.2460938 0.515625,-0.2460938 v -0.28125 c -0.410156,0.035156 -0.785156,0.035156 -0.925781,0.035156 -0.28125,0 -0.539063,0 -0.820313,-0.035156 v 0.28125 c 0.28125,0 0.457031,0.011719 0.5625,0.1289063 0.08203,0.1054687 0.199219,0.4570312 0.199219,0.4921875 0,0.011719 -0.04687,0.1171875 -0.04687,0.1171875 l -0.738281,2.02734374 -0.855469,-2.33203124 c -0.04687,-0.140625 -0.04687,-0.1523438 -0.04687,-0.1875 0,-0.2460938 0.351562,-0.2460938 0.515625,-0.2460938 v -0.28125 c -0.410156,0.023437 -0.621094,0.035156 -0.972656,0.035156 -0.304688,0 -0.5625,0 -0.867188,-0.035156 v 0.28125 c 0.433594,0 0.550781,0.023437 0.65625,0.328125 l 1.160156,3.16406254 c 0.04687,0.10546875 0.07031,0.1875 0.199219,0.1875 0.140625,0 0.175781,-0.0937500025 0.210938,-0.1875 l 0.914062,-2.50781254 0.925781,2.50781254 c 0.03516,0.0937499975 0.07031,0.1875 0.199219,0.1875 0.140625,0 0.164063,-0.08203125 0.199219,-0.17578125 z m 3.758789,2.35546879 c 0.03516,0.375 0.304688,0.703125 0.691406,0.703125 0.222657,0 0.785157,-0.140625 0.785157,-0.85546875 V -1.3007578 h -0.257813 v 0.49218749 c 0,0.10546875 0,0.55078125 -0.316406,0.55078125 -0.328125,0 -0.328125,-0.43359375 -0.328125,-0.57421875 V -2.4023203 c 0,-0.515625 0,-0.8203125 -0.398438,-1.1835938 -0.328125,-0.2929687 -0.761718,-0.4335937 -1.207031,-0.4335937 -0.761719,0 -1.382812,0.375 -1.382812,0.9492187 0,0.28125 0.1875,0.4335938 0.421875,0.4335938 0.234375,0 0.410156,-0.1757813 0.410156,-0.4101563 0,-0.3867187 -0.398438,-0.4335937 -0.398438,-0.4335937 0.234375,-0.234375 0.667969,-0.3164063 0.925782,-0.3164063 0.457031,0 0.972656,0.3398438 0.972656,1.1367188 v 0.2929687 c -0.492188,0.023437 -1.160156,0.058594 -1.757813,0.3515625 -0.644531,0.3164063 -0.84375,0.7734375 -0.84375,1.13671879 0,0.73828125 0.867188,0.97265625 1.464844,0.97265625 0.75,0 1.089844,-0.4921875 1.21875,-0.73828125 z m -0.08203,-0.62109379 c 0,0.86718754 -0.679688,1.13671879 -1.066406,1.13671879 -0.421875,0 -0.820313,-0.3046875 -0.820313,-0.75 0,-0.58593749 0.515625,-1.21874999 1.886719,-1.27734379 z m 3.213867,-0.7851562 c 0,-0.375 0.105469,-1.6875 1.125,-1.6875 v 0.011719 c -0.02344,0.011719 -0.164062,0.1171875 -0.164062,0.328125 0,0.2460938 0.1875,0.3984375 0.398437,0.3984375 0.1875,0 0.386719,-0.140625 0.386719,-0.4101562 0,-0.28125 -0.269531,-0.5507813 -0.667969,-0.5507813 -0.539062,0 -0.914062,0.375 -1.125,0.9257813 v -0.9257813 l -1.277344,0.09375 v 0.28125 c 0.609375,0 0.691407,0.058594 0.691407,0.5039063 v 2.39062499 c 0,0.41015625 -0.105469,0.41015625 -0.691407,0.41015625 V 2.34375e-5 c 0.46875,-0.0234374975 0.585938,-0.0234374975 1.042969,-0.0234374975 0.363281,0 0.574219,0 1.148438,0.0234374975 V -0.28122656 h -0.1875 c -0.65625,0 -0.679688,-0.09375 -0.679688,-0.421875 z m 5.501953,0.9726562 c 0,0.16406254 0,0.18750004 -0.140625,0.37500004 -0.28125,0.41015625 -0.691406,0.57421875 -1.042968,0.57421875 -0.386719,0 -0.75,-0.2109375 -0.984375,-0.5859375 -0.234375,-0.38671879 -0.246094,-0.91406249 -0.246094,-1.20703129 0,-0.421875 0.04687,-0.890625 0.28125,-1.2539062 0.199219,-0.28125 0.5625,-0.5625 1.042969,-0.5625 0.375,0 0.738281,0.1875 0.972656,0.5273437 0.117187,0.140625 0.117187,0.1523438 0.117187,0.328125 z m 0.02344,-2.3554687 c -0.04687,-0.058594 -0.445313,-0.5273438 -1.148438,-0.5273438 -1.101562,0 -2.0625,0.8789063 -2.0625,2.0390625 0,1.11328129 0.902344,2.01562504 1.96875,2.01562504 0.644532,0 1.054688,-0.375 1.21875,-0.57421875 V 0.09377344 L 81.014938,2.34375e-5 V -0.28122656 c -0.609375,0 -0.691407,-0.0585938 -0.691407,-0.50390625 V -6.2226328 l -1.324218,0.1054687 v 0.2695313 c 0.609375,0 0.691406,0.070312 0.691406,0.5039062 z m 8.252929,0.6210937 c 1.253907,0 2.167969,-0.7851562 2.167969,-1.640625 0,-0.890625 -0.914062,-1.6640625 -2.167969,-1.6640625 h -3.210937 v 0.2695313 h 0.199219 c 0.691406,0 0.714843,0.1054687 0.714843,0.4335937 v 4.71093754 c 0,0.328125 -0.02344,0.421875 -0.714843,0.421875 H 84.732711 V 2.34375e-5 c 0.398437,-0.0234374975 0.902344,-0.0234374975 1.3125,-0.0234374975 0.410156,0 0.914062,0 1.324219,0.0234374975 V -0.28122656 h -0.210938 c -0.691406,0 -0.714844,-0.09375 -0.714844,-0.421875 V -2.8124766 Z m -1.523437,-2.6601562 c 0,-0.3046875 0.02344,-0.375 0.445312,-0.375 H 87.721 c 1.476563,0 1.476563,0.984375 1.476563,1.3945312 0,0.3984375 0,1.3828125 -1.488282,1.3828125 h -1.289062 z m 7.03125,4.82812499 c 0.03516,0.375 0.304687,0.703125 0.691406,0.703125 0.222656,0 0.785156,-0.140625 0.785156,-0.85546875 V -1.3007578 h -0.257812 v 0.49218749 c 0,0.10546875 0,0.55078125 -0.316406,0.55078125 -0.328125,0 -0.328125,-0.43359375 -0.328125,-0.57421875 V -2.4023203 c 0,-0.515625 0,-0.8203125 -0.398438,-1.1835938 -0.328125,-0.2929687 -0.761719,-0.4335937 -1.207031,-0.4335937 -0.761719,0 -1.382813,0.375 -1.382813,0.9492187 0,0.28125 0.1875,0.4335938 0.421875,0.4335938 0.234375,0 0.410157,-0.1757813 0.410157,-0.4101563 0,-0.3867187 -0.398438,-0.4335937 -0.398438,-0.4335937 0.234375,-0.234375 0.667969,-0.3164063 0.925781,-0.3164063 0.457032,0 0.972657,0.3398438 0.972657,1.1367188 v 0.2929687 c -0.492188,0.023437 -1.160157,0.058594 -1.757813,0.3515625 -0.644531,0.3164063 -0.84375,0.7734375 -0.84375,1.13671879 0,0.73828125 0.867188,0.97265625 1.464844,0.97265625 0.75,0 1.089844,-0.4921875 1.21875,-0.73828125 z M 93.36943,-1.2656016 c 0,0.86718754 -0.679688,1.13671879 -1.066407,1.13671879 -0.421875,0 -0.820312,-0.3046875 -0.820312,-0.75 0,-0.58593749 0.515625,-1.21874999 1.886719,-1.27734379 z m 4.702148,-2.5195312 c 0,-0.1523438 0,-0.234375 -0.105469,-0.234375 -0.04687,0 -0.05859,0 -0.175781,0.1054687 -0.02344,0.023437 -0.105469,0.1054688 -0.152344,0.1523438 -0.28125,-0.1992188 -0.5625,-0.2578125 -0.867187,-0.2578125 -1.183594,0 -1.476563,0.65625 -1.476563,1.1132812 0,0.2929688 0.128907,0.5273438 0.328125,0.7148438 0.304688,0.28125 0.644532,0.3398437 1.101563,0.421875 0.457031,0.09375 0.609375,0.1171875 0.808594,0.2695312 0.09375,0.070312 0.316406,0.2460938 0.316406,0.58593754 0,0.78515625 -0.902344,0.78515625 -1.03125,0.78515625 -0.914063,0 -1.148438,-0.76171875 -1.253906,-1.24218749 -0.02344,-0.09375 -0.03516,-0.140625 -0.140625,-0.140625 -0.128907,0 -0.128907,0.070312 -0.128907,0.234375 v 1.14843749 c 0,0.15234375 0,0.22265625 0.105469,0.22265625 0.05859,0 0.07031,0 0.222656,-0.17578125 0.03516,-0.046875 0.140625,-0.1640625 0.1875,-0.2109375 0.375,0.36328125 0.785157,0.38671875 1.007813,0.38671875 1.101562,0 1.488281,-0.64453125 1.488281,-1.24218754 0,-0.3984375 -0.175781,-0.6445312 -0.375,-0.8554687 -0.304687,-0.2929688 -0.632812,-0.3515625 -1.289062,-0.4804688 -0.234375,-0.046875 -0.890625,-0.1640625 -0.890625,-0.6679687 0,-0.2929688 0.210937,-0.6679688 1.019531,-0.6679688 0.972656,0 1.03125,0.75 1.054687,0.9726563 0.01172,0.1054687 0.01172,0.1640625 0.117188,0.1640625 0.128906,0 0.128906,-0.070312 0.128906,-0.234375 z m 3.635742,0 c 0,-0.1523438 0,-0.234375 -0.10547,-0.234375 -0.0469,0 -0.0586,0 -0.17578,0.1054687 -0.0234,0.023437 -0.10547,0.1054688 -0.15234,0.1523438 -0.28125,-0.1992188 -0.5625,-0.2578125 -0.86719,-0.2578125 -1.183595,0 -1.476563,0.65625 -1.476563,1.1132812 0,0.2929688 0.128906,0.5273438 0.328125,0.7148438 0.304687,0.28125 0.644531,0.3398437 1.101558,0.421875 0.45704,0.09375 0.60938,0.1171875 0.8086,0.2695312 0.0937,0.070312 0.3164,0.2460938 0.3164,0.58593754 0,0.78515625 -0.90234,0.78515625 -1.03125,0.78515625 -0.914058,0 -1.148433,-0.76171875 -1.253902,-1.24218749 -0.02344,-0.09375 -0.03516,-0.140625 -0.140625,-0.140625 -0.128906,0 -0.128906,0.070312 -0.128906,0.234375 v 1.14843749 c 0,0.15234375 0,0.22265625 0.105468,0.22265625 0.05859,0 0.07031,0 0.222657,-0.17578125 0.03516,-0.046875 0.140625,-0.1640625 0.1875,-0.2109375 0.375,0.36328125 0.785158,0.38671875 1.007808,0.38671875 1.10157,0 1.48829,-0.64453125 1.48829,-1.24218754 0,-0.3984375 -0.17579,-0.6445312 -0.375,-0.8554687 -0.30469,-0.2929688 -0.63282,-0.3515625 -1.28907,-0.4804688 -0.23437,-0.046875 -0.890622,-0.1640625 -0.890622,-0.6679687 0,-0.2929688 0.210937,-0.6679688 1.019532,-0.6679688 0.97266,0 1.03125,0.75 1.05469,0.9726563 0.0117,0.1054687 0.0117,0.1640625 0.11718,0.1640625 0.12891,0 0.12891,-0.070312 0.12891,-0.234375 z m 0,0"
       style="fill:#000000;fill-opacity:1;fill-rule:nonzero;stroke:none"
       aria-label="AttentionBackwardPass"
       transform="matrix(1.3333333,0,0,1.3333333,83.761333,200.332)" />
    <path
       id="path32"
       d="m 212.42932,-126.22603 h 155.00992 v 14.61134 H 212.42932 Z"
       style="fill:#ffffff;fill-opacity:1;fill-rule:nonzero;stroke:#ffffff;stroke-width:0.79701;stroke-linecap:butt;stroke-linejoin:miter;stroke-miterlimit:10;stroke-dasharray:none;stroke-opacity:1"
       transform="matrix(1.3333333,0,0,-1.3333333,35.597333,38.785333)" />
    <path
       id="path33"
       d="m 2.0403516,-5.4726328 c 0,-0.3046875 0.011719,-0.375 0.4335937,-0.375 h 1.171875 c 0.8789063,0 1.2421875,0.703125 1.2421875,1.2421875 0,0.6914062 -0.5976562,1.3007812 -1.4414062,1.3007812 h -1.40625 z m 2.1914062,2.2734375 c 0.890625,-0.1757813 1.5117188,-0.75 1.5117188,-1.40625 0,-0.796875 -0.8554688,-1.5117188 -2.0390625,-1.5117188 H 0.36457031 v 0.2695313 h 0.2109375 c 0.69140629,0 0.70312499,0.1054687 0.70312499,0.4335937 v 4.71093754 c 0,0.328125 -0.011719,0.421875 -0.70312499,0.421875 H 0.36457031 V 2.34375e-5 H 3.9505078 c 1.21875,0 2.0625,-0.7968749975 2.0625,-1.6289062375 0,-0.8085938 -0.7851562,-1.4648438 -1.78125,-1.5703125 z m -1.7578125,2.91796874 c -0.421875,0 -0.4335937,-0.0585938 -0.4335937,-0.36328125 V -3.0702891 h 1.6875 c 1.0429687,0 1.3945312,0.8789063 1.3945312,1.4179688 0,0.69140624 -0.5390625,1.37109374 -1.4648437,1.37109374 z m 7.1220703,-0.36328125 c 0.035156,0.375 0.3046875,0.703125 0.6914064,0.703125 0.222656,0 0.785156,-0.140625 0.785156,-0.85546875 V -1.3007578 h -0.257812 v 0.49218749 c 0,0.10546875 0,0.55078125 -0.316407,0.55078125 -0.328125,0 -0.328125,-0.43359375 -0.328125,-0.57421875 V -2.4023203 c 0,-0.515625 0,-0.8203125 -0.3984371,-1.1835938 -0.328125,-0.2929687 -0.7617188,-0.4335937 -1.2070313,-0.4335937 -0.7617187,0 -1.3828125,0.375 -1.3828125,0.9492187 0,0.28125 0.1875,0.4335938 0.421875,0.4335938 0.234375,0 0.4101563,-0.1757813 0.4101563,-0.4101563 0,-0.3867187 -0.3984375,-0.4335937 -0.3984375,-0.4335937 0.234375,-0.234375 0.6679687,-0.3164063 0.9257812,-0.3164063 0.4570313,0 0.9726563,0.3398438 0.9726563,1.1367188 v 0.2929687 c -0.4921875,0.023437 -1.1601563,0.058594 -1.7578125,0.3515625 -0.6445313,0.3164063 -0.84375,0.7734375 -0.84375,1.13671879 0,0.73828125 0.8671875,0.97265625 1.4648437,0.97265625 0.75,0 1.0898438,-0.4921875 1.21875,-0.73828125 z M 9.5139844,-1.2656016 c 0,0.86718754 -0.6796875,1.13671879 -1.0664063,1.13671879 -0.421875,0 -0.8203125,-0.3046875 -0.8203125,-0.75 0,-0.58593749 0.515625,-1.21874999 1.8867188,-1.27734379 z m 4.8779296,-2.2617187 c -0.1875,0.035156 -0.363281,0.1640625 -0.363281,0.421875 0,0.234375 0.175781,0.421875 0.410156,0.421875 0.234375,0 0.421875,-0.1640625 0.421875,-0.4335938 0,-0.5625 -0.621094,-0.9023437 -1.417969,-0.9023437 -1.148437,0 -2.003906,0.9609375 -2.003906,2.0859375 0,1.14843749 0.9375,2.02734374 1.992188,2.02734374 1.242187,0 1.535156,-1.078125 1.535156,-1.16015624 0,-0.1054688 -0.105469,-0.1054688 -0.128906,-0.1054688 -0.09375,0 -0.09375,0.011719 -0.152344,0.1640625 -0.210938,0.62109379 -0.703125,0.85546879 -1.171875,0.85546879 -0.5625,0 -1.300781,-0.46875 -1.300781,-1.79296879 0,-1.3945312 0.714843,-1.8164062 1.253906,-1.8164062 0.117187,0 0.597656,0.011719 0.925781,0.234375 z m 2.170899,1.5820312 v -4.2773437 l -1.324219,0.1054687 v 0.2695313 c 0.609375,0 0.691406,0.070312 0.691406,0.5039062 v 4.65234379 c 0,0.41015625 -0.105469,0.41015625 -0.691406,0.41015625 V 2.34375e-5 C 15.637031,-0.02341406 15.859688,-0.02341406 16.234688,-0.02341406 c 0.363281,0 0.585937,0 0.996093,0.0234374975 V -0.28122656 c -0.597656,0 -0.691406,0 -0.691406,-0.41015625 V -1.5937266 l 0.574219,-0.4804687 0.867187,1.17187499 c 0.140625,0.19921875 0.210938,0.3046875 0.210938,0.421875 0,0.09375 -0.02344,0.19921875 -0.304688,0.19921875 V 2.34375e-5 C 18.297188,-0.02341406 18.508125,-0.02341406 18.859688,-0.02341406 c 0.257812,0 0.550781,0 0.808593,0.0234374975 V -0.28122656 c -0.292968,0 -0.515625,0 -0.832031,-0.43359375 L 17.558906,-2.4491953 c 0.878907,-0.7617188 1.289063,-1.1132813 1.898438,-1.1367188 v -0.28125 c -0.316406,0.035156 -0.328125,0.035156 -0.65625,0.035156 -0.269531,0 -0.503906,-0.011719 -0.984375,-0.035156 v 0.28125 c 0.128906,0.011719 0.234375,0.070312 0.234375,0.2109375 0,0.1757813 -0.140625,0.2929688 -0.222656,0.3632813 z m 8.976562,-1.0546875 c 0.199219,-0.5390625 0.5625,-0.5742187 0.761719,-0.5859375 v -0.28125 c -0.363281,0.035156 -0.386719,0.035156 -0.679688,0.035156 -0.339843,0 -0.46875,0 -0.820312,-0.035156 v 0.28125 c 0.386719,0.011719 0.503906,0.2460938 0.503906,0.4335938 0,0.082031 -0.01172,0.140625 -0.03516,0.1992187 l -0.832031,2.25000004 -0.902344,-2.46093754 c -0.04687,-0.1171875 -0.04687,-0.140625 -0.04687,-0.1757812 0,-0.2226563 0.28125,-0.2460938 0.515625,-0.2460938 v -0.28125 c -0.410156,0.035156 -0.785156,0.035156 -0.925781,0.035156 -0.28125,0 -0.539063,0 -0.820313,-0.035156 v 0.28125 c 0.28125,0 0.457031,0.011719 0.5625,0.1289063 0.08203,0.1054687 0.199219,0.4570312 0.199219,0.4921875 0,0.011719 -0.04687,0.1171875 -0.04687,0.1171875 l -0.738281,2.02734374 -0.855469,-2.33203124 c -0.04687,-0.140625 -0.04687,-0.1523438 -0.04687,-0.1875 0,-0.2460938 0.351562,-0.2460938 0.515625,-0.2460938 v -0.28125 c -0.410156,0.023437 -0.621094,0.035156 -0.972656,0.035156 -0.304688,0 -0.5625,0 -0.867188,-0.035156 v 0.28125 c 0.433594,0 0.550781,0.023437 0.65625,0.328125 l 1.160156,3.16406254 c 0.04687,0.10546875 0.07031,0.1875 0.199219,0.1875 0.140625,0 0.175781,-0.0937500025 0.210938,-0.1875 l 0.914062,-2.50781254 0.925781,2.50781254 c 0.03516,0.0937499975 0.07031,0.1875 0.199219,0.1875 0.140625,0 0.164063,-0.08203125 0.199219,-0.17578125 z m 3.770508,2.35546879 c 0.03516,0.375 0.304687,0.703125 0.691406,0.703125 0.222656,0 0.785156,-0.140625 0.785156,-0.85546875 V -1.3007578 h -0.257812 v 0.49218749 c 0,0.10546875 0,0.55078125 -0.316406,0.55078125 -0.328125,0 -0.328125,-0.43359375 -0.328125,-0.57421875 V -2.4023203 c 0,-0.515625 0,-0.8203125 -0.398438,-1.1835938 -0.328125,-0.2929687 -0.761719,-0.4335937 -1.207031,-0.4335937 -0.761719,0 -1.382813,0.375 -1.382813,0.9492187 0,0.28125 0.1875,0.4335938 0.421875,0.4335938 0.234375,0 0.410157,-0.1757813 0.410157,-0.4101563 0,-0.3867187 -0.398438,-0.4335937 -0.398438,-0.4335937 0.234375,-0.234375 0.667969,-0.3164063 0.925781,-0.3164063 0.457032,0 0.972657,0.3398438 0.972657,1.1367188 v 0.2929687 c -0.492188,0.023437 -1.160157,0.058594 -1.757813,0.3515625 -0.644531,0.3164063 -0.84375,0.7734375 -0.84375,1.13671879 0,0.73828125 0.867188,0.97265625 1.464844,0.97265625 0.75,0 1.089844,-0.4921875 1.21875,-0.73828125 z m -0.08203,-0.62109379 c 0,0.86718754 -0.679688,1.13671879 -1.066407,1.13671879 -0.421875,0 -0.820312,-0.3046875 -0.820312,-0.75 0,-0.58593749 0.515625,-1.21874999 1.886719,-1.27734379 z m 3.210937,-0.7851562 c 0,-0.375 0.105469,-1.6875 1.125,-1.6875 v 0.011719 c -0.02344,0.011719 -0.164062,0.1171875 -0.164062,0.328125 0,0.2460938 0.1875,0.3984375 0.398437,0.3984375 0.1875,0 0.386719,-0.140625 0.386719,-0.4101562 0,-0.28125 -0.269531,-0.5507813 -0.667969,-0.5507813 -0.539062,0 -0.914062,0.375 -1.125,0.9257813 v -0.9257813 l -1.277344,0.09375 v 0.28125 c 0.609375,0 0.691407,0.058594 0.691407,0.5039063 v 2.39062499 c 0,0.41015625 -0.105469,0.41015625 -0.691407,0.41015625 V 2.34375e-5 C 31.58332,-0.02341406 31.700508,-0.02341406 32.157539,-0.02341406 c 0.363281,0 0.574219,0 1.148438,0.0234374975 V -0.28122656 h -0.1875 c -0.65625,0 -0.679688,-0.09375 -0.679688,-0.421875 z m 5.504883,0.9726562 c 0,0.16406254 0,0.18750004 -0.140625,0.37500004 -0.28125,0.41015625 -0.691406,0.57421875 -1.042969,0.57421875 -0.386719,0 -0.75,-0.2109375 -0.984375,-0.5859375 C 35.541329,-1.1015391 35.52961,-1.6288828 35.52961,-1.9218516 c 0,-0.421875 0.04687,-0.890625 0.28125,-1.2539062 0.199219,-0.28125 0.5625,-0.5625 1.042969,-0.5625 0.375,0 0.738281,0.1875 0.972656,0.5273437 0.117188,0.140625 0.117188,0.1523438 0.117188,0.328125 z m 0.02344,-2.3554687 c -0.04687,-0.058594 -0.445312,-0.5273438 -1.148437,-0.5273438 -1.101563,0 -2.0625,0.8789063 -2.0625,2.0390625 0,1.11328129 0.902344,2.01562504 1.96875,2.01562504 0.644531,0 1.054687,-0.375 1.21875,-0.57421875 V 0.09377344 L 39.291328,2.34375e-5 V -0.28122656 c -0.609375,0 -0.691406,-0.0585938 -0.691406,-0.50390625 V -6.2226328 l -1.324219,0.1054687 v 0.2695313 c 0.609375,0 0.691406,0.070312 0.691406,0.5039062 z m 8.244141,0.6210937 c 1.253906,0 2.167969,-0.7851562 2.167969,-1.640625 0,-0.890625 -0.914063,-1.6640625 -2.167969,-1.6640625 h -3.210937 v 0.2695313 h 0.199218 c 0.691407,0 0.714844,0.1054687 0.714844,0.4335937 v 4.71093754 c 0,0.328125 -0.02344,0.421875 -0.714844,0.421875 H 43.000313 V 2.34375e-5 c 0.398437,-0.0234374975 0.902343,-0.0234374975 1.3125,-0.0234374975 0.410156,0 0.914062,0 1.324218,0.0234374975 V -0.28122656 h -0.210937 c -0.691406,0 -0.714844,-0.09375 -0.714844,-0.421875 V -2.8124766 Z m -1.523437,-2.6601562 c 0,-0.3046875 0.02344,-0.375 0.445312,-0.375 h 0.855469 c 1.476562,0 1.476562,0.984375 1.476562,1.3945312 0,0.3984375 0,1.3828125 -1.488281,1.3828125 h -1.289062 z m 7.040039,4.82812499 c 0.03516,0.375 0.304687,0.703125 0.691406,0.703125 0.222656,0 0.785156,-0.140625 0.785156,-0.85546875 V -1.3007578 h -0.257812 v 0.49218749 c 0,0.10546875 0,0.55078125 -0.316407,0.55078125 -0.328125,0 -0.328125,-0.43359375 -0.328125,-0.57421875 V -2.4023203 c 0,-0.515625 0,-0.8203125 -0.398437,-1.1835938 -0.328125,-0.2929687 -0.761719,-0.4335937 -1.207031,-0.4335937 -0.761719,0 -1.382813,0.375 -1.382813,0.9492187 0,0.28125 0.1875,0.4335938 0.421875,0.4335938 0.234375,0 0.410156,-0.1757813 0.410156,-0.4101563 0,-0.3867187 -0.398437,-0.4335937 -0.398437,-0.4335937 0.234375,-0.234375 0.667969,-0.3164063 0.925781,-0.3164063 0.457031,0 0.972656,0.3398438 0.972656,1.1367188 v 0.2929687 c -0.492187,0.023437 -1.160156,0.058594 -1.757812,0.3515625 -0.644531,0.3164063 -0.84375,0.7734375 -0.84375,1.13671879 0,0.73828125 0.867187,0.97265625 1.464844,0.97265625 0.75,0 1.089843,-0.4921875 1.21875,-0.73828125 z M 51.64582,-1.2656016 c 0,0.86718754 -0.679687,1.13671879 -1.066406,1.13671879 -0.421875,0 -0.820312,-0.3046875 -0.820312,-0.75 0,-0.58593749 0.515625,-1.21874999 1.886718,-1.27734379 z m 4.702149,-2.5195312 c 0,-0.1523438 0,-0.234375 -0.105469,-0.234375 -0.04687,0 -0.05859,0 -0.175781,0.1054687 -0.02344,0.023437 -0.105469,0.1054688 -0.152344,0.1523438 -0.28125,-0.1992188 -0.5625,-0.2578125 -0.867187,-0.2578125 -1.183594,0 -1.476563,0.65625 -1.476563,1.1132812 0,0.2929688 0.128906,0.5273438 0.328125,0.7148438 0.304688,0.28125 0.644531,0.3398437 1.101563,0.421875 0.457031,0.09375 0.609375,0.1171875 0.808593,0.2695312 0.09375,0.070312 0.316407,0.2460938 0.316407,0.58593754 0,0.78515625 -0.902344,0.78515625 -1.03125,0.78515625 -0.914063,0 -1.148438,-0.76171875 -1.253907,-1.24218749 -0.02344,-0.09375 -0.03516,-0.140625 -0.140625,-0.140625 -0.128906,0 -0.128906,0.070312 -0.128906,0.234375 v 1.14843749 c 0,0.15234375 0,0.22265625 0.105469,0.22265625 0.05859,0 0.07031,0 0.222656,-0.17578125 0.03516,-0.046875 0.140625,-0.1640625 0.1875,-0.2109375 0.375,0.36328125 0.785156,0.38671875 1.007813,0.38671875 1.101562,0 1.488281,-0.64453125 1.488281,-1.24218754 0,-0.3984375 -0.175781,-0.6445312 -0.375,-0.8554687 -0.304688,-0.2929688 -0.632813,-0.3515625 -1.289063,-0.4804688 -0.234375,-0.046875 -0.890625,-0.1640625 -0.890625,-0.6679687 0,-0.2929688 0.210938,-0.6679688 1.019532,-0.6679688 0.972656,0 1.03125,0.75 1.054687,0.9726563 0.01172,0.1054687 0.01172,0.1640625 0.117188,0.1640625 0.128906,0 0.128906,-0.070312 0.128906,-0.234375 z m 3.632812,0 c 0,-0.1523438 0,-0.234375 -0.105468,-0.234375 -0.04687,0 -0.05859,0 -0.175782,0.1054687 -0.02344,0.023437 -0.105468,0.1054688 -0.152343,0.1523438 -0.28125,-0.1992188 -0.5625,-0.2578125 -0.867188,-0.2578125 -1.183594,0 -1.476562,0.65625 -1.476562,1.1132812 0,0.2929688 0.128906,0.5273438 0.328125,0.7148438 0.304687,0.28125 0.644531,0.3398437 1.101562,0.421875 0.457031,0.09375 0.609375,0.1171875 0.808594,0.2695312 0.09375,0.070312 0.316406,0.2460938 0.316406,0.58593754 0,0.78515625 -0.902344,0.78515625 -1.03125,0.78515625 -0.914062,0 -1.148437,-0.76171875 -1.253906,-1.24218749 -0.02344,-0.09375 -0.03516,-0.140625 -0.140625,-0.140625 -0.128906,0 -0.128906,0.070312 -0.128906,0.234375 v 1.14843749 c 0,0.15234375 0,0.22265625 0.105468,0.22265625 0.05859,0 0.07031,0 0.222657,-0.17578125 0.03516,-0.046875 0.140625,-0.1640625 0.1875,-0.2109375 0.375,0.36328125 0.785156,0.38671875 1.007812,0.38671875 1.101563,0 1.488281,-0.64453125 1.488281,-1.24218754 0,-0.3984375 -0.175781,-0.6445312 -0.375,-0.8554687 -0.304687,-0.2929688 -0.632812,-0.3515625 -1.289062,-0.4804688 -0.234375,-0.046875 -0.890625,-0.1640625 -0.890625,-0.6679687 0,-0.2929688 0.210937,-0.6679688 1.019531,-0.6679688 0.972656,0 1.03125,0.75 1.054688,0.9726563 0.01172,0.1054687 0.01172,0.1640625 0.117187,0.1640625 0.128906,0 0.128906,-0.070312 0.128906,-0.234375 z m 7.957032,1.875 c 0,-1.171875 -0.925782,-2.109375 -2.027344,-2.109375 -1.148438,0 -2.050781,0.9609375 -2.050781,2.109375 0,1.12499999 0.9375,2.00390624 2.039062,2.00390624 1.136719,0 2.039063,-0.90234375 2.039063,-2.00390624 z m -2.027344,1.75781249 c -0.457031,0 -0.832031,-0.22265625 -1.03125,-0.57421875 -0.234375,-0.37500004 -0.246094,-0.85546874 -0.246094,-1.26562504 0,-0.328125 0,-0.84375 0.222656,-1.2070312 0.269532,-0.4570313 0.714844,-0.5976563 1.042969,-0.5976563 0.503906,0 0.878906,0.2929688 1.054688,0.5976563 0.210937,0.375 0.210937,0.8320312 0.210937,1.2070312 0,0.328125 0,0.8554688 -0.222656,1.25390629 -0.246094,0.41015625 -0.65625,0.5859375 -1.03125,0.5859375 z m 4.983398,-3.43359379 v -0.28125 h -1.066406 v -1.0078125 c 0,-0.8203125 0.445312,-1.21875 0.832031,-1.21875 0.08203,0 0.175781,0.011719 0.269531,0.046875 -0.09375,0.035156 -0.234375,0.1523438 -0.234375,0.375 0,0.234375 0.164063,0.3867188 0.398438,0.3867188 0.234375,0 0.398437,-0.1640625 0.398437,-0.3984375 0,-0.3398438 -0.339843,-0.6328125 -0.832031,-0.6328125 -0.703125,0 -1.441406,0.5273437 -1.441406,1.4179687 v 1.03125 h -0.703125 v 0.28125 h 0.703125 v 2.89453129 c 0,0.41015625 -0.09375,0.41015625 -0.679688,0.41015625 V 2.34375e-5 c 0.46875,-0.0234374975 0.585938,-0.0234374975 1.042969,-0.0234374975 0.363281,0 0.574219,0 1.136719,0.0234374975 V -0.28122656 h -0.175781 c -0.65625,0 -0.679688,-0.09375 -0.679688,-0.421875 V -3.5859141 Z m 5.244141,-0.1640625 c -0.726563,-0.1757812 -0.949219,-0.75 -0.949219,-1.1484375 0,-0.5976562 0.480469,-1.171875 1.230469,-1.171875 1.160156,0 1.628906,0.8671875 1.746094,1.7695313 0.03516,0.1640625 0.03516,0.2109375 0.152343,0.2109375 0.117188,0 0.117188,-0.058594 0.117188,-0.2460938 v -1.734375 c 0,-0.1757812 0,-0.2460937 -0.105469,-0.2460937 -0.05859,0 -0.07031,0 -0.128906,0.1171875 -0.117188,0.1523437 -0.03516,0.035156 -0.328125,0.5039062 -0.152344,-0.1757812 -0.621094,-0.6210937 -1.464844,-0.6210937 -1.042969,0 -1.792969,0.8085937 -1.792969,1.7226562 0,0.703125 0.421875,1.1367188 0.457032,1.1835938 0.410156,0.3867187 0.574218,0.4335937 1.640625,0.6796875 0.726562,0.1757812 0.796875,0.1992187 1.101562,0.5039062 0,0 0.304688,0.3398438 0.304688,0.8671875 0,0.60937504 -0.433594,1.27734379 -1.253907,1.27734379 -0.691406,0 -1.933593,-0.28125 -2.003906,-1.76953129 -0.01172,-0.1289062 -0.01172,-0.1875 -0.128906,-0.1875 -0.117188,0 -0.117188,0.070312 -0.117188,0.2578125 v 1.72265629 c 0,0.1875 0,0.2578125 0.105469,0.2578125 0.05859,0 0.07031,-0.0117188 0.128906,-0.1171875 0.117188,-0.1640625 0.03516,-0.046875 0.328125,-0.515625 0.550782,0.5390625 1.265625,0.6328125 1.699219,0.6328125 1.089844,0 1.816406,-0.90234375 1.816406,-1.86328129 0,-0.5039062 -0.1875,-0.9023437 -0.398437,-1.171875 -0.386719,-0.4921875 -0.785156,-0.5859375 -1.371094,-0.7265625 z m 6.667969,1.6992188 c 0.199218,0 0.246093,0 0.246093,-0.1875 0,-0.9257813 -0.503906,-1.78125 -1.652343,-1.78125 -1.078125,0 -1.921875,0.9375 -1.921875,2.0507812 0,1.17187504 0.949218,2.06250004 2.039062,2.06250004 1.089844,0 1.535156,-0.94921875 1.535156,-1.16015624 0,-0.058594 -0.04687,-0.1171875 -0.128906,-0.1171875 -0.09375,0 -0.117187,0.058594 -0.128906,0.09375 -0.304688,0.91406249 -1.101563,0.93749999 -1.230469,0.93749999 -0.433594,0 -0.796875,-0.24609375 -1.007812,-0.55078125 C 80.263008,-1.1366953 80.251289,-1.6757578 80.251289,-2.0507578 Z m -2.542969,-0.2226563 c 0.08203,-1.3710937 0.878906,-1.5234375 1.136719,-1.5234375 0.492187,0 1.03125,0.3867188 1.042968,1.5234375 z m 4.708008,-3.9492187 -1.324219,0.1054687 v 0.2695313 c 0.609375,0 0.679687,0.070312 0.679687,0.5039062 v 4.65234379 c 0,0.41015625 -0.09375,0.41015625 -0.679687,0.41015625 V 2.34375e-5 C 84.056953,-0.02341406 84.232734,-0.02341406 84.642891,-0.02341406 c 0.421875,0 0.574218,0 1.019531,0.0234374975 V -0.28122656 c -0.597656,0 -0.691406,0 -0.691406,-0.41015625 z m 4.49414,4.171875 c 0.199219,0 0.246094,0 0.246094,-0.1875 0,-0.9257813 -0.503906,-1.78125 -1.652344,-1.78125 -1.078125,0 -1.921875,0.9375 -1.921875,2.0507812 0,1.17187504 0.949219,2.06250004 2.039063,2.06250004 1.089844,0 1.535156,-0.94921875 1.535156,-1.16015624 0,-0.058594 -0.04687,-0.1171875 -0.128906,-0.1171875 -0.09375,0 -0.117188,0.058594 -0.128906,0.09375 -0.304688,0.91406249 -1.101563,0.93749999 -1.230469,0.93749999 -0.433594,0 -0.796875,-0.24609375 -1.007813,-0.55078125 C 86.922188,-1.1366953 86.910469,-1.6757578 86.910469,-2.0507578 Z m -2.542968,-0.2226563 c 0.08203,-1.3710937 0.878906,-1.5234375 1.136718,-1.5234375 0.492188,0 1.03125,0.3867188 1.042969,1.5234375 z m 6.313476,-1.2539062 c -0.1875,0.035156 -0.363281,0.1640625 -0.363281,0.421875 0,0.234375 0.175781,0.421875 0.410156,0.421875 0.234375,0 0.421875,-0.1640625 0.421875,-0.4335938 0,-0.5625 -0.621094,-0.9023437 -1.417969,-0.9023437 -1.148437,0 -2.003906,0.9609375 -2.003906,2.0859375 0,1.14843749 0.9375,2.02734374 1.992188,2.02734374 1.242187,0 1.535156,-1.078125 1.535156,-1.16015624 0,-0.1054688 -0.105469,-0.1054688 -0.128906,-0.1054688 -0.09375,0 -0.09375,0.011719 -0.152344,0.1640625 -0.210938,0.62109379 -0.703125,0.85546879 -1.171875,0.85546879 -0.5625,0 -1.300781,-0.46875 -1.300781,-1.79296879 0,-1.3945312 0.714843,-1.8164062 1.253906,-1.8164062 0.117187,0 0.597656,0.011719 0.925781,0.234375 z m 3.755859,-0.058594 v -0.28125 h -1.300781 v -1.640625 H 95.43293 c 0,0.75 -0.316407,1.6757813 -1.183594,1.6992188 v 0.2226562 h 0.773437 v 2.4726563 c 0,1.00781249 0.726563,1.20703124 1.207032,1.20703124 0.597656,0 0.914062,-0.57421875 0.914062,-1.20703124 v -0.5039063 h -0.257812 v 0.4804688 c 0,0.65624999 -0.28125,0.98437499 -0.597657,0.98437499 -0.597656,0 -0.597656,-0.78515625 -0.597656,-0.94921879 v -2.484375 z m 4.253907,1.5351563 c 0.19922,0 0.24609,0 0.24609,-0.1875 0,-0.9257813 -0.5039,-1.78125 -1.65234,-1.78125 -1.078125,0 -1.921875,0.9375 -1.921875,2.0507812 0,1.17187504 0.949218,2.06250004 2.039062,2.06250004 1.089843,0 1.535153,-0.94921875 1.535153,-1.16015624 0,-0.058594 -0.0469,-0.1171875 -0.1289,-0.1171875 -0.0937,0 -0.11719,0.058594 -0.12891,0.09375 -0.30469,0.91406249 -1.10156,0.93749999 -1.23047,0.93749999 -0.433592,0 -0.796873,-0.24609375 -1.00781,-0.55078125 C 98.702461,-1.1366953 98.690742,-1.6757578 98.690742,-2.0507578 Z m -2.542969,-0.2226563 c 0.08203,-1.3710937 0.878906,-1.5234375 1.136719,-1.5234375 0.49219,0 1.03125,0.3867188 1.04297,1.5234375 z m 6.547849,1.1953125 c 0,0.16406254 0,0.18750004 -0.14062,0.37500004 -0.28125,0.41015625 -0.69141,0.57421875 -1.04297,0.57421875 -0.38672,0 -0.75,-0.2109375 -0.98438,-0.5859375 -0.23437,-0.38671879 -0.24609,-0.91406249 -0.24609,-1.20703129 0,-0.421875 0.0469,-0.890625 0.28125,-1.2539062 0.19922,-0.28125 0.5625,-0.5625 1.04297,-0.5625 0.375,0 0.73828,0.1875 0.97266,0.5273437 0.11718,0.140625 0.11718,0.1523438 0.11718,0.328125 z m 0.0234,-2.3554687 c -0.0469,-0.058594 -0.44531,-0.5273438 -1.14844,-0.5273438 -1.10156,0 -2.0625,0.8789063 -2.0625,2.0390625 0,1.11328129 0.90235,2.01562504 1.96875,2.01562504 0.64453,0 1.05469,-0.375 1.21875,-0.57421875 V 0.09377344 L 106.59797,2.34375e-5 V -0.28122656 c -0.60938,0 -0.69141,-0.0585938 -0.69141,-0.50390625 V -6.2226328 l -1.32422,0.1054687 v 0.2695313 c 0.60938,0 0.69141,0.070312 0.69141,0.5039062 z m 6.71777,-0.3164063 c -0.72656,-0.1757812 -0.94922,-0.75 -0.94922,-1.1484375 0,-0.5976562 0.48047,-1.171875 1.23047,-1.171875 1.16016,0 1.62891,0.8671875 1.7461,1.7695313 0.0351,0.1640625 0.0351,0.2109375 0.15234,0.2109375 0.11719,0 0.11719,-0.058594 0.11719,-0.2460938 v -1.734375 c 0,-0.1757812 0,-0.2460937 -0.10547,-0.2460937 -0.0586,0 -0.0703,0 -0.12891,0.1171875 -0.11718,0.1523437 -0.0351,0.035156 -0.32812,0.5039062 -0.15235,-0.1757812 -0.6211,-0.6210937 -1.46485,-0.6210937 -1.04296,0 -1.79296,0.8085937 -1.79296,1.7226562 0,0.703125 0.42187,1.1367188 0.45703,1.1835938 0.41015,0.3867187 0.57422,0.4335937 1.64062,0.6796875 0.72656,0.1757812 0.79688,0.1992187 1.10156,0.5039062 0,0 0.30469,0.3398438 0.30469,0.8671875 0,0.60937504 -0.43359,1.27734379 -1.2539,1.27734379 -0.69141,0 -1.9336,-0.28125 -2.00391,-1.76953129 -0.0117,-0.1289062 -0.0117,-0.1875 -0.12891,-0.1875 -0.11718,0 -0.11718,0.070312 -0.11718,0.2578125 v 1.72265629 c 0,0.1875 0,0.2578125 0.10546,0.2578125 0.0586,0 0.0703,-0.0117188 0.12891,-0.1171875 0.11719,-0.1640625 0.0352,-0.046875 0.32813,-0.515625 0.55078,0.5390625 1.26562,0.6328125 1.69921,0.6328125 1.08985,0 1.81641,-0.90234375 1.81641,-1.86328129 0,-0.5039062 -0.1875,-0.9023437 -0.39844,-1.171875 -0.38672,-0.4921875 -0.78515,-0.5859375 -1.37109,-0.7265625 z m 6.62403,2.25 c 0,0.79687504 -0.44532,1.37109379 -1.08985,1.37109379 -0.75,0 -0.79687,-0.38671875 -0.79687,-0.8671875 V -3.9609141 l -1.34766,0.09375 v 0.28125 c 0.69141,0 0.69141,0.023437 0.69141,0.8203125 v 1.3476563 c 0,0.58593749 0,0.96093749 0.41015,1.27734374 0.25782,0.17578125 0.6211,0.234375 0.98438,0.234375 0.46875,0 0.90234,-0.19921875 1.16016,-0.73828125 h 0.0117 V 0.09377344 L 119.9632,2.34375e-5 V -0.28122656 c -0.60937,0 -0.67968,-0.0585938 -0.67968,-0.50390625 V -3.9609141 l -1.35938,0.09375 v 0.28125 c 0.60938,0 0.69141,0.058594 0.69141,0.5039063 z m 3.18457,-1.359375 c 0,-0.1757812 0,-0.1757812 0.10547,-0.328125 0.30468,-0.4101562 0.73828,-0.5507812 1.07812,-0.5507812 0.38672,0 0.75,0.2109375 0.98438,0.5859375 0.23437,0.3867187 0.24609,0.9257812 0.24609,1.2070312 0,0.421875 -0.0469,0.890625 -0.28125,1.25390629 -0.19922,0.29296875 -0.5625,0.5625 -1.04297,0.5625 -0.39844,0 -0.73828,-0.2109375 -0.96094,-0.5390625 -0.1289,-0.1875 -0.1289,-0.19921875 -0.1289,-0.37499999 z m -0.0703,2.30859379 c 0.26954,0.3984375 0.72657,0.64453125 1.20704,0.64453125 1.0664,0 2.05078,-0.85546875 2.05078,-2.02734374 0,-1.125 -0.89063,-2.0273438 -1.95703,-2.0273438 -0.6211,0 -1.03125,0.3164063 -1.25391,0.5507813 v -2.8125 l -1.32422,0.1054687 v 0.2695313 c 0.60938,0 0.69141,0.070312 0.69141,0.5039062 V 2.34375e-5 h 0.24609 z M 126.429,-1.6054455 c 0.22266,0.140625 0.49219,0.28125 0.91407,0.28125 0.84375,0 1.48828,-0.609375 1.48828,-1.3242188 0,-0.4335937 -0.2461,-0.7382812 -0.36328,-0.8671875 0.36328,-0.3164062 0.78515,-0.3164062 0.89062,-0.3164062 -0.0469,0.023437 -0.11719,0.070312 -0.11719,0.2226562 0,0.1054688 0.0586,0.2695313 0.26953,0.2695313 0.11719,0 0.26954,-0.082031 0.26954,-0.2695313 0,-0.1757812 -0.12891,-0.4570312 -0.49219,-0.4570312 -0.25781,0 -0.65625,0.1054687 -0.97266,0.421875 -0.24609,-0.1875 -0.58594,-0.3164063 -0.97265,-0.3164063 -0.84375,0 -1.48829,0.609375 -1.48829,1.3125 0,0.4570313 0.26954,0.7851563 0.41016,0.9140625 -0.0234,0.023437 -0.26953,0.3398438 -0.26953,0.75000004 0,0.3046875 0.14062,0.62109375 0.38672,0.78515625 -0.45703,0.140625 -0.82031,0.48046875 -0.82031,0.90234375 0,0.63281246 0.89062,1.14843746 2.03906,1.14843746 1.10156,0 2.03906,-0.4804687 2.03906,-1.17187496 0,-0.36328125 -0.16406,-0.76171875 -0.50391,-0.97265625 -0.49218,-0.31640625 -1.01953,-0.31640625 -1.86328,-0.31640625 -0.1875,0 -0.46875,0 -0.53906,-0.0234375 -0.26953,-0.046875 -0.43359,-0.29296875 -0.43359,-0.57421874 0,-0.1523438 0.0469,-0.28125 0.1289,-0.3984375 z m 0.91407,0.035156 c -0.79688,0 -0.79688,-0.8789062 -0.79688,-1.078125 0,-0.234375 0.0117,-0.5390625 0.16406,-0.7617187 0.14063,-0.1757813 0.375,-0.3046875 0.63282,-0.3046875 0.80859,0 0.80859,0.8671875 0.80859,1.0664062 0,0.2109375 0,1.078125 -0.80859,1.078125 z m 0.41015,1.52343754 c 0.28125,0 1.38281,0.01171875 1.38281,0.73828125 0,0.51562501 -0.67968,0.91406251 -1.52343,0.91406251 -0.87891,0 -1.54688,-0.421875 -1.54688,-0.91406251 0,-0.140625 0.0937,-0.73828125 0.85547,-0.73828125 z m 3.75293,-2.00390624 c 0,-0.375 0.10547,-1.6875 1.125,-1.6875 v 0.011719 c -0.0234,0.011719 -0.16406,0.1171875 -0.16406,0.328125 0,0.2460938 0.1875,0.3984375 0.39844,0.3984375 0.1875,0 0.38672,-0.140625 0.38672,-0.4101562 0,-0.28125 -0.26954,-0.5507813 -0.66797,-0.5507813 -0.53907,0 -0.91407,0.375 -1.125,0.9257813 v -0.9257813 l -1.27735,0.09375 v 0.28125 c 0.60938,0 0.69141,0.058594 0.69141,0.5039063 v 2.39062499 c 0,0.41015625 -0.10547,0.41015625 -0.69141,0.41015625 V 2.34375e-5 c 0.46875,-0.0234374975 0.58594,-0.0234374975 1.04297,-0.0234374975 0.36328,0 0.57422,0 1.14844,0.0234374975 V -0.28122656 h -0.1875 c -0.65625,0 -0.67969,-0.09375 -0.67969,-0.421875 z m 5.08008,1.40624999 c 0.0352,0.375 0.30469,0.703125 0.69141,0.703125 0.22265,0 0.78515,-0.140625 0.78515,-0.85546875 V -1.3007578 H 137.805 v 0.49218749 c 0,0.10546875 0,0.55078125 -0.31641,0.55078125 -0.32812,0 -0.32812,-0.43359375 -0.32812,-0.57421875 V -2.4023203 c 0,-0.515625 0,-0.8203125 -0.39844,-1.1835938 -0.32812,-0.2929687 -0.76172,-0.4335937 -1.20703,-0.4335937 -0.76172,0 -1.38281,0.375 -1.38281,0.9492187 0,0.28125 0.1875,0.4335938 0.42187,0.4335938 0.23438,0 0.41016,-0.1757813 0.41016,-0.4101563 0,-0.3867187 -0.39844,-0.4335937 -0.39844,-0.4335937 0.23438,-0.234375 0.66797,-0.3164063 0.92578,-0.3164063 0.45703,0 0.97266,0.3398438 0.97266,1.1367188 v 0.2929687 c -0.49219,0.023437 -1.16016,0.058594 -1.75781,0.3515625 -0.64453,0.3164063 -0.84375,0.7734375 -0.84375,1.13671879 0,0.73828125 0.86718,0.97265625 1.46484,0.97265625 0.75,0 1.08984,-0.4921875 1.21875,-0.73828125 z m -0.082,-0.62109379 c 0,0.86718754 -0.67969,1.13671879 -1.06641,1.13671879 -0.42187,0 -0.82031,-0.3046875 -0.82031,-0.75 0,-0.58593749 0.51563,-1.21874999 1.88672,-1.27734379 z m 3.2373,-1.7460937 c 0.30469,-0.515625 0.8086,-0.703125 1.1836,-0.703125 0.6914,0 1.23047,0.8085937 1.23047,1.78125 0,1.01953124 -0.60938,1.80468749 -1.33594,1.80468749 -0.39844,0 -0.73828,-0.234375 -0.96094,-0.5390625 -0.11719,-0.1875 -0.11719,-0.19921875 -0.11719,-0.37499999 z m 0,2.57812499 c 0.23438,0.234375 0.53907,0.52734375 1.13672,0.52734375 1.06641,0 2.05078,-0.85546875 2.05078,-2.02734374 0,-1.1367188 -0.8789,-2.0273438 -1.93359,-2.0273438 -0.49219,0 -0.9375,0.1992188 -1.27734,0.5625 v -0.5625 l -1.32422,0.09375 v 0.28125 c 0.63281,0 0.6914,0.058594 0.6914,0.4335938 v 4.2070312 c 0,0.4101563 -0.10547,0.4101563 -0.6914,0.4101563 V 1.734398 c 0.42187,-0.011719 0.58593,-0.023437 1.01953,-0.023437 0.43359,0 0.55078,0.011719 1.01953,0.023437 V 1.4648672 c -0.58594,0 -0.69141,0 -0.69141,-0.4101563 z m 5.14161,-5.78906249 -1.32422,0.1054687 v 0.2695313 c 0.60937,0 0.6914,0.070312 0.6914,0.5039062 v 4.65234379 c 0,0.41015625 -0.10547,0.41015625 -0.6914,0.41015625 V 2.34375e-5 c 0.42187,-0.0234374975 0.58593,-0.0234374975 1.01953,-0.0234374975 0.43359,0 0.55078,0 1.01953,0.0234374975 V -0.28122656 c -0.58594,0 -0.69141,0 -0.69141,-0.41015625 V -2.3202891 c 0,-0.9492187 0.67969,-1.4179687 1.24219,-1.4179687 0.52734,0 0.64453,0.4335937 0.64453,0.9726562 v 2.07421879 c 0,0.41015625 -0.0937,0.41015625 -0.6914,0.41015625 V 2.34375e-5 c 0.42187,-0.0234374975 0.59765,-0.0234374975 1.01953,-0.0234374975 0.43359,0 0.55078,0 1.01953,0.0234374975 V -0.28122656 c -0.45703,0 -0.67969,0 -0.67969,-0.26953125 V -2.2734141 c 0,-0.75 0,-1.0078125 -0.25781,-1.3242187 -0.19922,-0.2460938 -0.55078,-0.3632813 -0.9961,-0.3632813 -0.59765,0 -1.04296,0.3164063 -1.3125,0.8085938 h -0.0117 z m 0,0"
       style="fill:#000000;fill-opacity:1;fill-rule:nonzero;stroke:none"
       aria-label="BackwardPassofSelectedSubgraph"
       transform="matrix(1.3333333,0,0,1.3333333,323.26,200.332)" />
    <path
       id="path34"
       d="M 11.88849,-3.68118 70.91252,-21.95746"
       style="fill:none;stroke:#000000;stroke-width:0.79701;stroke-linecap:butt;stroke-linejoin:miter;stroke-miterlimit:10;stroke-dasharray:none;stroke-opacity:1"
       transform="matrix(1.3333333,0,0,-1.3333333,35.597333,38.785333)" />
    <path
       id="path35"
       d="M 4.66248,0 C 3.28098,0.25902 1.0361,1.0361 -0.51805,1.94269 V -1.94269 C 1.0361,-1.0361 3.28098,-0.25902 4.66248,0"
       style="fill:#000000;fill-opacity:1;fill-rule:nonzero;stroke:none"
       transform="matrix(1.2736267,0.39437333,0.39437333,-1.2736267,130.14733,68.061947)" />
    <path
       id="path36"
       d="m 12.26831,-39.80782 58.1221,9.91399"
       style="fill:none;stroke:#000000;stroke-width:0.79701;stroke-linecap:butt;stroke-linejoin:miter;stroke-miterlimit:10;stroke-dasharray:none;stroke-opacity:1"
       transform="matrix(1.3333333,0,0,-1.3333333,35.597333,38.785333)" />
    <path
       id="path37"
       d="M 4.66248,0 C 3.28098,0.25902 1.0361,1.0361 -0.51805,1.94269 V -1.94269 C 1.0361,-1.0361 3.28098,-0.25902 4.66248,0"
       style="fill:#000000;fill-opacity:1;fill-rule:nonzero;stroke:none"
       transform="matrix(1.3143067,-0.22418667,-0.22418667,-1.3143067,129.4512,78.643787)" />
    <path
       id="path38"
       d="M 11.88849,-72.59892 70.91252,-90.8752"
       style="fill:none;stroke:#000000;stroke-width:0.79701;stroke-linecap:butt;stroke-linejoin:miter;stroke-miterlimit:10;stroke-dasharray:none;stroke-opacity:1"
       transform="matrix(1.3333333,0,0,-1.3333333,35.597333,38.785333)" />
    <path
       id="path39"
       d="M 4.66248,0 C 3.28098,0.25902 1.0361,1.0361 -0.51805,1.94269 V -1.94269 C 1.0361,-1.0361 3.28098,-0.25902 4.66248,0"
       style="fill:#000000;fill-opacity:1;fill-rule:nonzero;stroke:none"
       transform="matrix(1.2736267,0.39437333,0.39437333,-1.2736267,130.14733,159.95227)" />
    <path
       id="path40"
       d="M 12.44588,-95.93544 H 70.14632"
       style="fill:none;stroke:#000000;stroke-width:0.79701;stroke-linecap:butt;stroke-linejoin:miter;stroke-miterlimit:10;stroke-dasharray:none;stroke-opacity:1"
       transform="matrix(1.3333333,0,0,-1.3333333,35.597333,38.785333)" />
    <path
       id="path41"
       d="M 4.66248,0 C 3.28098,0.25902 1.0361,1.0361 -0.51805,1.94269 V -1.94269 C 1.0361,-1.0361 3.28098,-0.25902 4.66248,0"
       style="fill:#000000;fill-opacity:1;fill-rule:nonzero;stroke:none"
       transform="matrix(1.3333333,0,0,-1.3333333,129.12576,166.69925)" />
    <path
       id="path42"
       d="M 99.29967,-3.13026 157.9521,-18.3746"
       style="fill:none;stroke:#000000;stroke-width:0.79701;stroke-linecap:butt;stroke-linejoin:miter;stroke-miterlimit:10;stroke-dasharray:none;stroke-opacity:1"
       transform="matrix(1.3333333,0,0,-1.3333333,35.597333,38.785333)" />
    <path
       id="path43"
       d="M 4.66248,0 C 3.28098,0.25902 1.0361,1.0361 -0.51805,1.94269 V -1.94269 C 1.0361,-1.0361 3.28098,-0.25902 4.66248,0"
       style="fill:#000000;fill-opacity:1;fill-rule:nonzero;stroke:none"
       transform="matrix(1.2903867,0.33534667,0.33534667,-1.2903867,246.20012,63.284787)" />
    <path
       id="path44"
       d="m 99.68462,-26.39955 57.73834,2.87231"
       style="fill:none;stroke:#000000;stroke-width:0.79701;stroke-linecap:butt;stroke-linejoin:miter;stroke-miterlimit:10;stroke-dasharray:none;stroke-opacity:1"
       transform="matrix(1.3333333,0,0,-1.3333333,35.597333,38.785333)" />
    <path
       id="path45"
       d="M 4.66248,0 C 3.28098,0.25902 1.0361,1.0361 -0.51805,1.94269 V -1.94269 C 1.0361,-1.0361 3.28098,-0.25902 4.66248,0"
       style="fill:#000000;fill-opacity:1;fill-rule:nonzero;stroke:none"
       transform="matrix(1.3316267,-0.06622667,-0.06622667,-1.3316267,245.49459,70.154987)" />
    <path
       id="path46"
       d="m 99.06247,-30.94957 59.21568,-19.71896"
       style="fill:none;stroke:#000000;stroke-width:0.79701;stroke-linecap:butt;stroke-linejoin:miter;stroke-miterlimit:10;stroke-dasharray:none;stroke-opacity:1"
       transform="matrix(1.3333333,0,0,-1.3333333,35.597333,38.785333)" />
    <path
       id="path47"
       d="M 4.66248,0 C 3.28098,0.25902 1.0361,1.0361 -0.51805,1.94269 V -1.94269 C 1.0361,-1.0361 3.28098,-0.25902 4.66248,0"
       style="fill:#000000;fill-opacity:1;fill-rule:nonzero;stroke:none"
       transform="matrix(1.2649733,0.42124,0.42124,-1.2649733,246.63485,106.34337)" />
    <path
       id="path48"
       d="m 99.69658,-54.32594 57.70993,-1.34809"
       style="fill:none;stroke:#000000;stroke-width:0.79701;stroke-linecap:butt;stroke-linejoin:miter;stroke-miterlimit:10;stroke-dasharray:none;stroke-opacity:1"
       transform="matrix(1.3333333,0,0,-1.3333333,35.597333,38.785333)" />
    <path
       id="path49"
       d="M 4.66248,0 C 3.28098,0.25902 1.0361,1.0361 -0.51805,1.94269 V -1.94269 C 1.0361,-1.0361 3.28098,-0.25902 4.66248,0"
       style="fill:#000000;fill-opacity:1;fill-rule:nonzero;stroke:none"
       transform="matrix(1.3329067,0.03113333,0.03113333,-1.3329067,245.47268,113.01737)" />
    <path
       id="path50"
       d="M 11.88849,-45.58122 158.1672,-90.8752"
       style="fill:none;stroke:#000000;stroke-width:0.79701;stroke-linecap:butt;stroke-linejoin:miter;stroke-miterlimit:10;stroke-dasharray:none;stroke-opacity:1"
       transform="matrix(1.3333333,0,0,-1.3333333,35.597333,38.785333)" />
    <path
       id="path51"
       d="M 4.66248,0 C 3.28098,0.25902 1.0361,1.0361 -0.51805,1.94269 V -1.94269 C 1.0361,-1.0361 3.28098,-0.25902 4.66248,0"
       style="fill:#000000;fill-opacity:1;fill-rule:nonzero;stroke:none"
       transform="matrix(1.2736267,0.39437333,0.39437333,-1.2736267,246.48692,159.95227)" />
    <path
       id="path52"
       d="M 99.70058,-95.93544 H 157.401"
       style="fill:none;stroke:#000000;stroke-width:0.79701;stroke-linecap:butt;stroke-linejoin:miter;stroke-miterlimit:10;stroke-dasharray:none;stroke-opacity:1"
       transform="matrix(1.3333333,0,0,-1.3333333,35.597333,38.785333)" />
    <path
       id="path53"
       d="M 4.66248,0 C 3.28098,0.25902 1.0361,1.0361 -0.51805,1.94269 V -1.94269 C 1.0361,-1.0361 3.28098,-0.25902 4.66248,0"
       style="fill:#000000;fill-opacity:1;fill-rule:nonzero;stroke:none"
       transform="matrix(1.3333333,0,0,-1.3333333,245.46533,166.69925)" />
    <path
       id="path54"
       d="m 257.5534,-38.09319 58.33903,-12.31924"
       style="fill:none;stroke:#000000;stroke-width:0.79701;stroke-linecap:butt;stroke-linejoin:miter;stroke-miterlimit:10;stroke-dasharray:none;stroke-opacity:1"
       transform="matrix(1.3333333,0,0,-1.3333333,35.597333,38.785333)" />
    <path
       id="path55"
       d="M 4.66248,0 C 3.28098,0.25902 1.0361,1.0361 -0.51805,1.94269 V -1.94269 C 1.0361,-1.0361 3.28098,-0.25902 4.66248,0"
       style="fill:#000000;fill-opacity:1;fill-rule:nonzero;stroke:none"
       transform="matrix(1.3045333,0.27546667,0.27546667,-1.3045333,456.78724,106.00188)" />
    <path
       id="path56"
       d="m 257.57567,-69.26758 58.29352,11.89917"
       style="fill:none;stroke:#000000;stroke-width:0.79701;stroke-linecap:butt;stroke-linejoin:miter;stroke-miterlimit:10;stroke-dasharray:none;stroke-opacity:1"
       transform="matrix(1.3333333,0,0,-1.3333333,35.597333,38.785333)" />
    <path
       id="path57"
       d="M 4.66248,0 C 3.28098,0.25902 1.0361,1.0361 -0.51805,1.94269 V -1.94269 C 1.0361,-1.0361 3.28098,-0.25902 4.66248,0"
       style="fill:#000000;fill-opacity:1;fill-rule:nonzero;stroke:none"
       transform="matrix(1.3063333,-0.26664,-0.26664,-1.3063333,456.75623,115.27656)" />
    <path
       id="path58"
       d="M 178.98503,14.43842 H 82.779 c -5.50234,0 -9.96276,-4.46041 -9.96276,-9.96277 v -35.96901 c 0,-5.50237 4.46042,-9.96277 9.96276,-9.96277 h 96.20603 c 5.50235,0 9.96277,4.4604 9.96277,9.96277 V 4.47565 c 0,5.50236 -4.46042,9.96277 -9.96277,9.96277 z"
       style="fill:none;stroke:#ff0000;stroke-width:0.79701;stroke-linecap:butt;stroke-linejoin:miter;stroke-miterlimit:10;stroke-dasharray:0.79701, 1.99255;stroke-dashoffset:0;stroke-opacity:1"
       transform="matrix(1.3333333,0,0,-1.3333333,35.597333,38.785333)" />
    <path
       id="path59"
       d="M 340.09561,-18.09454 H 237.90645 c -5.50235,0 -9.96277,-4.46042 -9.96277,-9.96277 V -79.2276 c 0,-5.50235 4.46042,-9.96277 9.96277,-9.96277 h 102.18916 c 5.50235,0 9.96277,4.46042 9.96277,9.96277 v 51.17029 c 0,5.50235 -4.46042,9.96277 -9.96277,9.96277 z"
       style="fill:none;stroke:#ff0000;stroke-width:0.79701;stroke-linecap:butt;stroke-linejoin:miter;stroke-miterlimit:10;stroke-dasharray:0.79701, 1.99255;stroke-dashoffset:0;stroke-opacity:1"
       transform="matrix(1.3333333,0,0,-1.3333333,35.597333,38.785333)" />
  </g>
</svg>
