<?xml version="1.0" encoding="UTF-8" standalone="no"?>
<!-- Created with Inkscape (http://www.inkscape.org/) -->

<svg
   version="1.1"
   id="svg1"
   width="554.38135"
   height="221.10533"
   viewBox="0 0 554.38135 221.10533"
   xmlns="http://www.w3.org/2000/svg"
   xmlns:svg="http://www.w3.org/2000/svg">
  <defs
     id="defs1" />
  <g
     id="g1">
    <path
       id="path1"
       d="M -204.62138,-129.17056 V 16.7354 h 395.86615 v -145.90596 z"
       style="fill:#ffffff;fill-opacity:1;fill-rule:nonzero;stroke:none"
       transform="matrix(1.3333333,0,0,-1.3333333,286.108,35.596)" />
    <path
       id="path2"
       d="M 12.04738,0 C 12.04738,6.65366 6.65366,12.04738 0,12.04738 -6.65366,12.04738 -12.04738,6.65366 -12.04738,0 c 0,-6.65366 5.39372,-12.04738 12.04738,-12.04738 6.65366,0 12.04738,5.39372 12.04738,12.04738 z"
       style="fill:#ccffcc;fill-opacity:1;fill-rule:nonzero;stroke:#00b300;stroke-width:0.79701;stroke-linecap:butt;stroke-linejoin:miter;stroke-miterlimit:10;stroke-dasharray:none;stroke-opacity:1"
       transform="matrix(1.3333333,0,0,-1.3333333,286.108,35.596)" />
    <path
       id="path3"
       d="M 1.920875,-5.4035781 C 1.885719,-5.5090469 1.885719,-5.5676406 1.885719,-5.5793594 c 0,-0.2695312 0.4570312,-0.2695312 0.7148437,-0.2695312 v -0.2695313 c -0.4101562,0.023437 -0.8671875,0.023437 -1.2773437,0.023437 -0.37500005,0 -0.5039063,-0.011719 -1.14843755,-0.023437 v 0.2695313 c 0.65625,0 0.76171875,0.035156 0.87890625,0.3515625 l 2.1679688,5.49609373 c 0.058594,0.12890625 0.082031,0.19921875 0.234375,0.19921875 0.140625,0 0.1640625,-0.0585938 0.2109375,-0.17578125 L 5.7411875,-5.2512344 c 0.1875,-0.46875 0.5625,-0.5976562 0.984375,-0.5976562 v -0.2695313 c -0.3164062,0.023437 -0.5742187,0.023437 -0.8789062,0.023437 -0.3867188,0 -0.5625,-0.011719 -1.0078125,-0.023437 v 0.2695313 c 0.4453125,0.011719 0.6328125,0.2226562 0.6328125,0.4453125 0,0.082031 0,0.09375 -0.035156,0.1875 l -1.7226562,4.34765623 z m 0,0"
       style="fill:#000000;fill-opacity:1;fill-rule:nonzero;stroke:none"
       aria-label="V"
       transform="matrix(1.3333333,0,0,1.3333333,281.50133,39.681333)" />
    <path
       id="path4"
       d="m 12.04738,-41.90004 c 0,6.65367 -5.39372,12.04739 -12.04738,12.04739 -6.65366,0 -12.04738,-5.39372 -12.04738,-12.04739 0,-6.65366 5.39372,-12.04738 12.04738,-12.04738 6.65366,0 12.04738,5.39372 12.04738,12.04738 z"
       style="fill:#ffe6cc;fill-opacity:1;fill-rule:nonzero;stroke:#cc6600;stroke-width:0.79701;stroke-linecap:butt;stroke-linejoin:miter;stroke-miterlimit:10;stroke-dasharray:none;stroke-opacity:1"
       transform="matrix(1.3333333,0,0,-1.3333333,286.108,35.596)" />
    <path
       id="path5"
       d="m 3.4926641,-1.0781641 c 0,0.16406254 0,0.18750004 -0.140625,0.37500004 -0.28125,0.41015625 -0.6914063,0.57421875 -1.0429688,0.57421875 -0.3867187,0 -0.75,-0.2109375 -0.984375,-0.5859375 C 1.0903203,-1.1016016 1.0786016,-1.6289453 1.0786016,-1.9219141 c 0,-0.421875 0.046875,-0.890625 0.28125,-1.2539062 0.1992187,-0.28125 0.5625,-0.5625 1.0429687,-0.5625 0.375,0 0.7382813,0.1875 0.9726563,0.5273437 0.1171875,0.140625 0.1171875,0.1523438 0.1171875,0.328125 z m 0.023437,-2.3554687 c -0.046875,-0.058594 -0.4453125,-0.5273438 -1.1484375,-0.5273438 -1.1015625,0 -2.06250004,0.8789063 -2.06250004,2.0390625 0,1.11328129 0.90234374,2.01562504 1.96875004,2.01562504 0.6445312,0 1.0546875,-0.375 1.21875,-0.57421875 V 0.09371094 L 4.8403203,-3.90625e-5 V -0.28128906 c -0.609375,0 -0.6914062,-0.0585938 -0.6914062,-0.50390625 V -6.2226953 l -1.3242188,0.1054687 v 0.2695313 c 0.609375,0 0.6914063,0.070312 0.6914063,0.5039062 z m 8.2470709,0.3984375 c 0,-1.828125 -1.394531,-3.28125 -3.0703131,-3.28125 -1.6757813,0 -3.0585938,1.453125 -3.0585938,3.28125 0,1.8164062 1.3945313,3.23437499 3.0585938,3.23437499 1.6757821,0 3.0703131,-1.41796879 3.0703131,-3.23437499 z m -3.0703131,2.96484374 c -0.9023438,0 -2.1445313,-0.78515625 -2.1445313,-3.10546874 0,-2.1796875 1.2773438,-2.8945313 2.1445313,-2.8945313 0.8671875,0 2.1562501,0.7148438 2.1562501,2.8945313 0,2.32031249 -1.2539064,3.10546874 -2.1562501,3.10546874 z m 0,0"
       style="fill:#000000;fill-opacity:1;fill-rule:nonzero;stroke:none"
       aria-label="dO"
       transform="matrix(1.3333333,0,0,1.3333333,277.91733,95.613333)" />
    <path
       id="path6"
       d="m 12.04738,-68.91774 c 0,6.65367 -5.39372,12.04739 -12.04738,12.04739 -6.65366,0 -12.04738,-5.39372 -12.04738,-12.04739 0,-6.65366 5.39372,-12.04738 12.04738,-12.04738 6.65366,0 12.04738,5.39372 12.04738,12.04738 z"
       style="fill:#fbcce8;fill-opacity:1;fill-rule:nonzero;stroke:#ec008c;stroke-width:0.79701;stroke-linecap:butt;stroke-linejoin:miter;stroke-miterlimit:10;stroke-dasharray:none;stroke-opacity:1"
       transform="matrix(1.3333333,0,0,-1.3333333,286.108,35.596)" />
    <path
       id="path7"
       d="m 4.7705547,-0.05990625 c 0.9609375,-0.3984375 1.875,-1.49999995 1.875,-2.97656245 0,-1.828125 -1.3945313,-3.28125 -3.0703125,-3.28125 -1.6757813,0 -3.05859376,1.453125 -3.05859376,3.28125 0,1.8164062 1.39453126,3.23437495 3.05859376,3.23437495 0.3164062,0 0.65625,-0.0703125 0.8671875,-0.12890625 0.1640625,0.890625 0.3046875,1.6640625 1.1367187,1.6640625 0.9257813,0 1.1132813,-1.1953125 1.1132813,-1.65234375 0,-0.08203125 0,-0.1875 -0.1054688,-0.1875 -0.070312,0 -0.1054687,0.046875 -0.1171875,0.09375 C 6.3994609,0.772125 5.7900859,0.819 5.6494609,0.819 5.1689922,0.819 4.9814922,0.43228125 4.7705547,-0.05990625 Z M 2.9307109,-0.17709375 C 2.0635234,-0.5169375 1.3955547,-1.431 1.3955547,-3.0364687 c 0,-2.2265625 1.2539062,-3.0351563 2.1796875,-3.0351563 0.9375,0 2.1796875,0.796875 2.1796875,3.0351563 0,1.1835937 -0.3515625,2.13281245 -1.125,2.64843745 C 4.4424297,-0.83334375 4.1728984,-1.33725 3.5869609,-1.33725 c -0.4335937,0 -0.7617187,0.3515625 -0.7617187,0.76171875 0,0.2109375 0.09375,0.38671875 0.1054687,0.3984375 z m 1.4414063,-0.0703125 c -0.2578125,0.140625 -0.5625,0.1875 -0.796875,0.1875 -0.4335938,0 -0.5273438,-0.375 -0.5273438,-0.515625 0,-0.26953125 0.1992188,-0.53906245 0.5507813,-0.53906245 0.46875,0 0.65625,0.37499995 0.7734375,0.86718745 z m 0,0"
       style="fill:#000000;fill-opacity:1;fill-rule:nonzero;stroke:none"
       aria-label="Q"
       transform="matrix(1.3333333,0,0,1.3333333,281.33067,130.408)" />
    <path
       id="path8"
       d="m 12.04738,-95.93544 c 0,6.65367 -5.39372,12.04739 -12.04738,12.04739 -6.65366,0 -12.04738,-5.39372 -12.04738,-12.04739 0,-6.65366 5.39372,-12.04738 12.04738,-12.04738 6.65366,0 12.04738,5.39372 12.04738,12.04738 z"
       style="fill:#ccccff;fill-opacity:1;fill-rule:nonzero;stroke:#0000ff;stroke-width:0.79701;stroke-linecap:butt;stroke-linejoin:miter;stroke-miterlimit:10;stroke-dasharray:none;stroke-opacity:1"
       transform="matrix(1.3333333,0,0,-1.3333333,286.108,35.596)" />
    <path
       id="path9"
       d="m 5.3682109,-5.2965625 c 0.5625,-0.5273437 1.125,-0.5390625 1.2773438,-0.5507812 V -6.116875 c -0.2578125,0.023437 -0.7148438,0.023437 -0.796875,0.023437 -0.375,0 -0.7148438,-0.011719 -1.1132813,-0.023437 v 0.2695313 c 0.2460938,0.011719 0.3867188,0.1289062 0.3867188,0.2929687 0,0.082031 -0.023437,0.1523438 -0.070312,0.2109375 l -2.9882813,2.765625 V -5.41375 c 0,-0.328125 0.011719,-0.4335937 0.703125,-0.4335937 h 0.210937 V -6.116875 c -0.3984375,0.023437 -0.9023437,0.023437 -1.3125,0.023437 -0.421875,0 -0.92578121,0 -1.32421871,-0.023437 v 0.2695313 h 0.2109375 c 0.69140621,0 0.70312501,0.1054687 0.70312501,0.4335937 v 4.7109375 c 0,0.328125 -0.011719,0.421875 -0.70312501,0.421875 h -0.2109375 v 0.28125 C 0.73930469,-0.023125 1.2432109,-0.023125 1.6650859,-0.023125 c 0.4101563,0 0.9140625,0 1.3125,0.0234375 v -0.28125 H 2.7666484 c -0.6914062,0 -0.703125,-0.09375 -0.703125,-0.421875 V -2.2379687 L 3.1533672,-3.2575 4.8291484,-0.866875 c 0.070312,0.09375 0.1523438,0.234375 0.1523438,0.328125 0,0.2578125 -0.3398438,0.2578125 -0.5039063,0.2578125 v 0.28125 c 0.3867188,-0.0234375 0.84375,-0.0234375 1.2421875,-0.0234375 0.234375,0 0.5976563,0 1.0546875,0.0234375 v -0.28125 c -0.5742187,0 -0.6914062,-0.0820313 -0.984375,-0.4921875 L 3.6924297,-3.7496875 Z m 0,0"
       style="fill:#000000;fill-opacity:1;fill-rule:nonzero;stroke:none"
       aria-label="K"
       transform="matrix(1.3333333,0,0,1.3333333,281.33067,167.59333)" />
    <path
       id="path10"
       d="m -175.83861,-17.00826 c 0,6.65366 -5.39372,12.04738 -12.04738,12.04738 -6.65365,0 -12.04737,-5.39372 -12.04737,-12.04738 0,-6.65365 5.39372,-12.04737 12.04737,-12.04737 6.65366,0 12.04738,5.39372 12.04738,12.04737 z"
       style="fill:#ccccff;fill-opacity:1;fill-rule:nonzero;stroke:#0000ff;stroke-width:0.79701;stroke-linecap:butt;stroke-linejoin:miter;stroke-miterlimit:10;stroke-dasharray:none;stroke-opacity:1"
       transform="matrix(1.3333333,0,0,-1.3333333,286.108,35.596)" />
    <path
       id="path11"
       d="m 5.3674219,-5.2963437 c 0.5625,-0.5273438 1.125,-0.5390625 1.2773437,-0.5507813 v -0.2695312 c -0.2578125,0.023437 -0.7148437,0.023437 -0.796875,0.023437 -0.375,0 -0.7148437,-0.011719 -1.1132812,-0.023437 v 0.2695312 c 0.2460937,0.011719 0.3867187,0.1289063 0.3867187,0.2929688 0,0.082031 -0.023437,0.1523437 -0.070312,0.2109375 l -2.9882812,2.765625 v -2.8359375 c 0,-0.328125 0.011719,-0.4335938 0.703125,-0.4335938 h 0.2109375 v -0.2695312 c -0.3984375,0.023437 -0.9023438,0.023437 -1.3125,0.023437 -0.421875,0 -0.92578127,0 -1.32421877,-0.023437 v 0.2695312 h 0.2109375 c 0.69140627,0 0.70312497,0.1054688 0.70312497,0.4335938 v 4.71093745 c 0,0.328125 -0.011719,0.421875 -0.70312497,0.421875 h -0.2109375 v 0.28125 c 0.3984375,-0.0234375 0.90234377,-0.0234375 1.32421877,-0.0234375 0.4101562,0 0.9140625,0 1.3125,0.0234375 v -0.28125 h -0.210938 c -0.6914063,0 -0.703125,-0.09375 -0.703125,-0.421875 V -2.23775 l 1.0898437,-1.0195312 1.6757813,2.39062495 c 0.070312,0.09375 0.1523437,0.234375 0.1523437,0.328125 0,0.2578125 -0.3398437,0.2578125 -0.5039062,0.2578125 v 0.28125 c 0.3867187,-0.0234375 0.84375,-0.0234375 1.2421875,-0.0234375 0.234375,0 0.5976562,0 1.0546875,0.0234375 v -0.28125 c -0.5742188,0 -0.6914063,-0.0820313 -0.984375,-0.4921875 L 3.6916406,-3.7494687 Z m 0,0"
       style="fill:#000000;fill-opacity:1;fill-rule:nonzero;stroke:none"
       aria-label="K"
       transform="matrix(1.3333333,0,0,1.3333333,30.82,62.358667)" />
    <path
       id="path12"
       d="m -175.83861,-47.5693 c 0,6.65365 -5.39372,12.04737 -12.04738,12.04737 -6.65365,0 -12.04737,-5.39372 -12.04737,-12.04737 0,-6.65368 5.39372,-12.0474 12.04737,-12.0474 6.65366,0 12.04738,5.39372 12.04738,12.0474 z"
       style="fill:#fbcce8;fill-opacity:1;fill-rule:nonzero;stroke:#ec008c;stroke-width:0.79701;stroke-linecap:butt;stroke-linejoin:miter;stroke-miterlimit:10;stroke-dasharray:none;stroke-opacity:1"
       transform="matrix(1.3333333,0,0,-1.3333333,286.108,35.596)" />
    <path
       id="path13"
       d="m 4.7707656,-0.05760937 c 0.9609375,-0.3984375 1.875,-1.50000003 1.875,-2.97656253 0,-1.828125 -1.3945312,-3.28125 -3.0703125,-3.28125 -1.6757812,0 -3.05859373,1.453125 -3.05859373,3.28125 0,1.8164063 1.39453123,3.23437503 3.05859373,3.23437503 0.3164063,0 0.65625,-0.0703125 0.8671875,-0.12890625 0.1640625,0.890625 0.3046875,1.66406252 1.1367188,1.66406252 0.9257812,0 1.1132812,-1.19531252 1.1132812,-1.65234377 0,-0.082031255 0,-0.1875 -0.1054687,-0.1875 -0.070312,0 -0.1054688,0.046875 -0.1171875,0.09375 -0.070312,0.78515625 -0.6796875,0.83203125 -0.8203125,0.83203125 -0.4804688,0 -0.6679688,-0.38671875 -0.8789063,-0.87890625 z M 2.9309219,-0.17479687 C 2.0637344,-0.51464062 1.3957656,-1.4287031 1.3957656,-3.0341719 c 0,-2.2265625 1.2539063,-3.0351562 2.1796875,-3.0351562 0.9375,0 2.1796875,0.796875 2.1796875,3.0351562 0,1.1835938 -0.3515625,2.13281253 -1.125,2.64843753 -0.1875,-0.4453125 -0.4570312,-0.94921873 -1.0429687,-0.94921873 -0.4335938,0 -0.7617188,0.35156248 -0.7617188,0.76171873 0,0.2109375 0.09375,0.38671875 0.1054688,0.3984375 z m 1.4414062,-0.0703125 c -0.2578125,0.140625 -0.5625,0.1875 -0.796875,0.1875 -0.4335937,0 -0.5273437,-0.375 -0.5273437,-0.515625 0,-0.26953125 0.1992187,-0.53906253 0.5507812,-0.53906253 0.46875,0 0.65625,0.37500003 0.7734375,0.86718753 z m 0,0"
       style="fill:#000000;fill-opacity:1;fill-rule:nonzero;stroke:none"
       aria-label="Q"
       transform="matrix(1.3333333,0,0,1.3333333,30.818667,101.944)" />
    <path
       id="path14"
       d="m -175.83861,-78.13036 c 0,6.65366 -5.39372,12.04738 -12.04738,12.04738 -6.65365,0 -12.04737,-5.39372 -12.04737,-12.04738 0,-6.65367 5.39372,-12.04739 12.04737,-12.04739 6.65366,0 12.04738,5.39372 12.04738,12.04739 z"
       style="fill:#ccffcc;fill-opacity:1;fill-rule:nonzero;stroke:#00b300;stroke-width:0.79701;stroke-linecap:butt;stroke-linejoin:miter;stroke-miterlimit:10;stroke-dasharray:none;stroke-opacity:1"
       transform="matrix(1.3333333,0,0,-1.3333333,286.108,35.596)" />
    <path
       id="path15"
       d="m 1.9230156,-5.4036719 c -0.035156,-0.1054687 -0.035156,-0.1640625 -0.035156,-0.1757812 0,-0.2695313 0.4570312,-0.2695313 0.7148437,-0.2695313 v -0.2695312 c -0.4101562,0.023437 -0.8671875,0.023437 -1.2773437,0.023437 -0.37500002,0 -0.50390627,-0.011719 -1.14843752,-0.023437 v 0.2695312 c 0.65625,0 0.76171875,0.035156 0.87890622,0.3515625 l 2.1679688,5.49609378 c 0.058594,0.12890625 0.082031,0.19921875 0.234375,0.19921875 0.140625,0 0.1640625,-0.0585938 0.2109375,-0.17578125 L 5.7433281,-5.2513281 c 0.1875,-0.46875 0.5625,-0.5976563 0.984375,-0.5976563 v -0.2695312 c -0.3164062,0.023437 -0.5742187,0.023437 -0.8789062,0.023437 -0.3867188,0 -0.5625,-0.011719 -1.0078125,-0.023437 v 0.2695312 c 0.4453125,0.011719 0.6328125,0.2226563 0.6328125,0.4453125 0,0.082031 0,0.09375 -0.035156,0.1875 l -1.7226562,4.34765628 z m 0,0"
       style="fill:#000000;fill-opacity:1;fill-rule:nonzero;stroke:none"
       aria-label="V"
       transform="matrix(1.3333333,0,0,1.3333333,30.990667,143.85333)" />
    <path
       id="path16"
       d="m -114.09587,-31.18166 c 0,6.65368 -5.39373,12.0474 -12.04739,12.0474 -6.65366,0 -12.04738,-5.39372 -12.04738,-12.0474 0,-6.65365 5.39372,-12.04737 12.04738,-12.04737 6.65366,0 12.04739,5.39372 12.04739,12.04737 z"
       style="fill:#ffffff;fill-opacity:1;fill-rule:nonzero;stroke:#000000;stroke-width:0.79701;stroke-linecap:butt;stroke-linejoin:miter;stroke-miterlimit:10;stroke-dasharray:none;stroke-opacity:1"
       transform="matrix(1.3333333,0,0,-1.3333333,286.108,35.596)" />
    <path
       id="path17"
       d="m 3.5739297,-2.8111406 c 1.2539062,0 2.1679687,-0.7851563 2.1679687,-1.640625 0,-0.890625 -0.9140625,-1.6640625 -2.1679687,-1.6640625 H 0.36299219 v 0.2695312 h 0.19921875 c 0.69140626,0 0.71484376,0.1054688 0.71484376,0.4335938 v 4.71093747 c 0,0.328125 -0.023437,0.421875 -0.71484376,0.421875 H 0.36299219 v 0.28125 c 0.3984375,-0.0234375 0.90234371,-0.0234375 1.31250001,-0.0234375 0.4101562,0 0.9140625,0 1.3242187,0.0234375 v -0.28125 H 2.7887734 c -0.6914062,0 -0.7148437,-0.09375 -0.7148437,-0.421875 V -2.8111406 Z M 2.0504922,-5.4712969 c 0,-0.3046875 0.023437,-0.375 0.4453125,-0.375 h 0.8554687 c 1.4765625,0 1.4765625,0.984375 1.4765625,1.3945313 0,0.3984375 0,1.3828125 -1.4882812,1.3828125 H 2.0504922 Z m 0,0"
       style="fill:#000000;fill-opacity:1;fill-rule:nonzero;stroke:none"
       aria-label="P"
       transform="matrix(1.3333333,0,0,1.3333333,113.73867,81.256)" />
    <path
       id="path18"
       d="m -52.35315,-45.35506 c 0,6.65367 -5.39372,12.0474 -12.04738,12.0474 -6.65365,0 -12.04737,-5.39373 -12.04737,-12.0474 0,-6.65365 5.39372,-12.04738 12.04737,-12.04738 6.65366,0 12.04738,5.39373 12.04738,12.04738 z"
       style="fill:#ffffff;fill-opacity:1;fill-rule:nonzero;stroke:#000000;stroke-width:0.79701;stroke-linecap:butt;stroke-linejoin:miter;stroke-miterlimit:10;stroke-dasharray:none;stroke-opacity:1"
       transform="matrix(1.3333333,0,0,-1.3333333,286.108,35.596)" />
    <path
       id="path19"
       d="m 6.6451641,-3.0358984 c 0,-1.828125 -1.3945313,-3.28125 -3.0703125,-3.28125 -1.6757813,0 -3.05859379,1.453125 -3.05859379,3.28125 0,1.8164062 1.39453129,3.23437496 3.05859379,3.23437496 1.6757812,0 3.0703125,-1.41796876 3.0703125,-3.23437496 z m -3.0703125,2.96484371 c -0.9023438,0 -2.1445313,-0.78515625 -2.1445313,-3.10546871 0,-2.1796875 1.2773438,-2.8945313 2.1445313,-2.8945313 0.8671875,0 2.15625,0.7148438 2.15625,2.8945313 0,2.32031246 -1.2539063,3.10546871 -2.15625,3.10546871 z m 0,0"
       style="fill:#000000;fill-opacity:1;fill-rule:nonzero;stroke:none"
       aria-label="O"
       transform="matrix(1.3333333,0,0,1.3333333,195.464,100.15333)" />
    <path
       id="path20"
       d="m 99.30206,0 c 0,6.65366 -5.39372,12.04738 -12.04738,12.04738 -6.65367,0 -12.04739,-5.39372 -12.04739,-12.04738 0,-6.65366 5.39372,-12.04738 12.04739,-12.04738 6.65366,0 12.04738,5.39372 12.04738,12.04738 z"
       style="fill:#fbcce8;fill-opacity:1;fill-rule:nonzero;stroke:#ec008c;stroke-width:0.79701;stroke-linecap:butt;stroke-linejoin:miter;stroke-miterlimit:10;stroke-dasharray:none;stroke-opacity:1"
       transform="matrix(1.3333333,0,0,-1.3333333,286.108,35.596)" />
    <path
       id="path21"
       d="m 4.7695078,-0.05794531 c 0.9609375,-0.3984375 1.875,-1.49999999 1.875,-2.97656249 0,-1.828125 -1.3945312,-3.28125 -3.0703125,-3.28125 -1.6757812,0 -3.05859374,1.453125 -3.05859374,3.28125 0,1.8164062 1.39453124,3.23437499 3.05859374,3.23437499 0.3164063,0 0.65625,-0.0703125 0.8671875,-0.12890625 0.1640625,0.890625 0.3046875,1.66406246 1.1367188,1.66406246 0.9257812,0 1.1132812,-1.19531246 1.1132812,-1.65234371 0,-0.0820312525 0,-0.1875 -0.1054687,-0.1875 -0.070312,0 -0.1054688,0.046875 -0.1171875,0.09375 -0.070312,0.78515625 -0.6796875,0.83203125 -0.8203125,0.83203125 -0.4804688,0 -0.6679688,-0.38671875 -0.8789063,-0.87890625 z M 2.9296641,-0.17513281 C 2.0624766,-0.51497656 1.3945078,-1.4290391 1.3945078,-3.0345078 c 0,-2.2265625 1.2539063,-3.0351563 2.1796875,-3.0351563 0.9375,0 2.1796875,0.796875 2.1796875,3.0351563 0,1.1835937 -0.3515625,2.13281249 -1.125,2.64843749 -0.1875,-0.4453125 -0.4570312,-0.94921879 -1.0429687,-0.94921879 -0.4335938,0 -0.7617188,0.35156254 -0.7617188,0.76171879 0,0.2109375 0.09375,0.38671875 0.1054688,0.3984375 z m 1.4414062,-0.0703125 c -0.2578125,0.140625 -0.5625,0.1875 -0.796875,0.1875 -0.4335937,0 -0.5273437,-0.375 -0.5273437,-0.515625 0,-0.26953125 0.1992187,-0.53906249 0.5507812,-0.53906249 0.46875,0 0.65625,0.37499999 0.7734375,0.86718749 z m 0,0"
       style="fill:#000000;fill-opacity:1;fill-rule:nonzero;stroke:none"
       aria-label="Q"
       transform="matrix(1.3333333,0,0,1.3333333,397.668,38.518667)" />
    <path
       id="path22"
       d="m 99.30206,-27.0177 c 0,6.65367 -5.39372,12.0474 -12.04738,12.0474 -6.65367,0 -12.04739,-5.39373 -12.04739,-12.0474 0,-6.65366 5.39372,-12.04738 12.04739,-12.04738 6.65366,0 12.04738,5.39372 12.04738,12.04738 z"
       style="fill:#ffffff;fill-opacity:1;fill-rule:nonzero;stroke:#000000;stroke-width:0.79701;stroke-linecap:butt;stroke-linejoin:miter;stroke-miterlimit:10;stroke-dasharray:none;stroke-opacity:1"
       transform="matrix(1.3333333,0,0,-1.3333333,286.108,35.596)" />
    <path
       id="path23"
       d="m 3.4908594,-1.0789766 c 0,0.16406254 0,0.18750004 -0.140625,0.37500004 -0.28125,0.41015625 -0.6914063,0.57421875 -1.0429688,0.57421875 -0.3867187,0 -0.75,-0.2109375 -0.984375,-0.5859375 C 1.0885156,-1.1024141 1.0767969,-1.6297578 1.0767969,-1.9227266 c 0,-0.421875 0.046875,-0.890625 0.28125,-1.2539062 0.1992187,-0.28125 0.5625,-0.5625 1.0429687,-0.5625 0.375,0 0.7382813,0.1875 0.9726563,0.5273437 0.1171875,0.140625 0.1171875,0.1523438 0.1171875,0.328125 z m 0.023437,-2.3554687 c -0.046875,-0.058594 -0.4453125,-0.5273438 -1.1484375,-0.5273438 -1.1015625,0 -2.06250002,0.8789063 -2.06250002,2.0390625 0,1.11328129 0.90234372,2.01562504 1.96875002,2.01562504 0.6445312,0 1.0546875,-0.375 1.21875,-0.57421875 V 0.09289844 L 4.8385156,-8.515625e-4 V -0.28210156 c -0.609375,0 -0.6914062,-0.0585938 -0.6914062,-0.50390625 V -6.2235078 l -1.3242188,0.1054687 v 0.2695313 c 0.609375,0 0.6914063,0.070312 0.6914063,0.5039062 z m 5.1796875,0.6210937 c 1.2539062,0 2.1679681,-0.7851562 2.1679681,-1.640625 0,-0.890625 -0.9140619,-1.6640625 -2.1679681,-1.6640625 h -3.210937 v 0.2695313 h 0.1992187 c 0.6914063,0 0.7148438,0.1054687 0.7148438,0.4335937 v 4.71093754 c 0,0.328125 -0.023437,0.421875 -0.7148438,0.421875 H 5.4830469 V -8.515625e-4 C 5.8814844,-0.02428906 6.3853906,-0.02428906 6.7955469,-0.02428906 c 0.4101562,0 0.9140625,0 1.3242187,0.0234374975 V -0.28210156 H 7.9088281 c -0.6914062,0 -0.7148437,-0.09375 -0.7148437,-0.421875 V -2.8133516 Z m -1.523437,-2.6601562 c 0,-0.3046875 0.023437,-0.375 0.4453125,-0.375 h 0.8554687 c 1.4765625,0 1.4765625,0.984375 1.4765625,1.3945312 0,0.3984375 0,1.3828125 -1.4882812,1.3828125 H 7.1705469 Z m 0,0"
       style="fill:#000000;fill-opacity:1;fill-rule:nonzero;stroke:none"
       aria-label="dP"
       transform="matrix(1.3333333,0,0,1.3333333,394.85333,75.770667)" />
    <path
       id="path24"
       d="m 99.30206,-54.0354 c 0,6.65367 -5.39372,12.0474 -12.04738,12.0474 -6.65367,0 -12.04739,-5.39373 -12.04739,-12.0474 0,-6.65366 5.39372,-12.04738 12.04739,-12.04738 6.65366,0 12.04738,5.39372 12.04738,12.04738 z"
       style="fill:#ccccff;fill-opacity:1;fill-rule:nonzero;stroke:#0000ff;stroke-width:0.79701;stroke-linecap:butt;stroke-linejoin:miter;stroke-miterlimit:10;stroke-dasharray:none;stroke-opacity:1"
       transform="matrix(1.3333333,0,0,-1.3333333,286.108,35.596)" />
    <path
       id="path25"
       d="m 5.3661641,-5.2979531 c 0.5625,-0.5273438 1.125,-0.5390625 1.2773437,-0.5507813 v -0.2695312 c -0.2578125,0.023437 -0.7148437,0.023437 -0.796875,0.023437 -0.375,0 -0.7148437,-0.011719 -1.1132812,-0.023437 v 0.2695312 c 0.2460937,0.011719 0.3867187,0.1289063 0.3867187,0.2929688 0,0.082031 -0.023437,0.1523437 -0.070312,0.2109375 l -2.9882812,2.765625 v -2.8359375 c 0,-0.328125 0.011719,-0.4335938 0.703125,-0.4335938 h 0.2109375 v -0.2695312 c -0.3984375,0.023437 -0.9023438,0.023437 -1.3125,0.023437 -0.421875,0 -0.92578129,0 -1.32421879,-0.023437 v 0.2695312 h 0.2109375 c 0.69140629,0 0.70312499,0.1054688 0.70312499,0.4335938 v 4.71093747 c 0,0.328125 -0.011719,0.421875 -0.70312499,0.421875 h -0.2109375 v 0.28125 c 0.3984375,-0.0234375 0.90234379,-0.0234375 1.32421879,-0.0234375 0.4101562,0 0.9140625,0 1.3125,0.0234375 v -0.28125 h -0.210938 c -0.6914063,0 -0.703125,-0.09375 -0.703125,-0.421875 V -2.2393594 l 1.0898437,-1.0195312 1.6757813,2.39062497 c 0.070312,0.09375 0.1523437,0.234375 0.1523437,0.328125 0,0.2578125 -0.3398437,0.2578125 -0.5039062,0.2578125 v 0.28125 c 0.3867187,-0.0234375 0.84375,-0.0234375 1.2421875,-0.0234375 0.234375,0 0.5976562,0 1.0546875,0.0234375 v -0.28125 c -0.5742188,0 -0.6914063,-0.0820313 -0.984375,-0.4921875 L 3.6903828,-3.7510781 Z m 0,0"
       style="fill:#000000;fill-opacity:1;fill-rule:nonzero;stroke:none"
       aria-label="K"
       transform="matrix(1.3333333,0,0,1.3333333,397.66933,111.728)" />
    <path
       id="path26"
       d="m 99.30206,-95.93544 c 0,6.65367 -5.39372,12.04739 -12.04738,12.04739 -6.65367,0 -12.04739,-5.39372 -12.04739,-12.04739 0,-6.65366 5.39372,-12.04738 12.04739,-12.04738 6.65366,0 12.04738,5.39372 12.04738,12.04738 z"
       style="fill:#ffffff;fill-opacity:1;fill-rule:nonzero;stroke:#000000;stroke-width:0.79701;stroke-linecap:butt;stroke-linejoin:miter;stroke-miterlimit:10;stroke-dasharray:none;stroke-opacity:1"
       transform="matrix(1.3333333,0,0,-1.3333333,286.108,35.596)" />
    <path
       id="path27"
       d="m 3.5734375,-2.8121875 c 1.2539063,0 2.1679688,-0.7851562 2.1679688,-1.640625 0,-0.890625 -0.9140625,-1.6640625 -2.1679688,-1.6640625 H 0.3625 v 0.2695313 h 0.19921875 c 0.69140625,0 0.71484375,0.1054687 0.71484375,0.4335937 v 4.7109375 c 0,0.328125 -0.023437,0.421875 -0.71484375,0.421875 H 0.3625 v 0.28125 C 0.7609375,-0.023125 1.2648438,-0.023125 1.675,-0.023125 c 0.4101563,0 0.9140625,0 1.3242188,0.0234375 v -0.28125 H 2.7882813 c -0.6914063,0 -0.7148438,-0.09375 -0.7148438,-0.421875 v -2.109375 z M 2.05,-5.4723437 c 0,-0.3046875 0.023437,-0.375 0.4453125,-0.375 h 0.8554688 c 1.4765625,0 1.4765625,0.984375 1.4765625,1.3945312 0,0.3984375 0,1.3828125 -1.4882813,1.3828125 H 2.05 Z m 0,0"
       style="fill:#000000;fill-opacity:1;fill-rule:nonzero;stroke:none"
       aria-label="P"
       transform="matrix(1.3333333,0,0,1.3333333,398.26667,167.59333)" />
    <path
       id="path28"
       d="m 186.55676,-22.67754 c 0,6.65368 -5.39372,12.0474 -12.04739,12.0474 -6.65366,0 -12.04738,-5.39372 -12.04738,-12.0474 0,-6.65365 5.39372,-12.04737 12.04738,-12.04737 6.65367,0 12.04739,5.39372 12.04739,12.04737 z"
       style="fill:#ffffff;fill-opacity:1;fill-rule:nonzero;stroke:#000000;stroke-width:0.79701;stroke-linecap:butt;stroke-linejoin:miter;stroke-miterlimit:10;stroke-dasharray:none;stroke-opacity:1"
       transform="matrix(1.3333333,0,0,-1.3333333,286.108,35.596)" />
    <path
       id="path29"
       d="m 3.4915,-1.0778438 c 0,0.16406255 0,0.18750005 -0.140625,0.37500005 -0.28125,0.41015625 -0.6914063,0.57421875 -1.0429688,0.57421875 -0.3867187,0 -0.75,-0.2109375 -0.984375,-0.5859375 -0.234375,-0.3867188 -0.2460937,-0.9140625 -0.2460937,-1.2070313 0,-0.421875 0.046875,-0.890625 0.28125,-1.2539062 0.1992187,-0.28125 0.5625,-0.5625 1.0429687,-0.5625 0.375,0 0.7382813,0.1875 0.9726563,0.5273437 C 3.4915,-3.0700313 3.4915,-3.0583125 3.4915,-2.8825313 Z M 3.514937,-3.4333125 C 3.4680625,-3.4919063 3.069625,-3.9606563 2.3665,-3.9606563 c -1.1015625,0 -2.0625,0.8789063 -2.0625,2.0390625 0,1.1132813 0.9023437,2.01562505 1.96875,2.01562505 0.6445312,0 1.0546875,-0.375 1.21875,-0.57421875 v 0.57421875 l 1.3476562,-0.09375 v -0.28125 c -0.609375,0 -0.6914062,-0.0585938 -0.6914062,-0.50390625 v -5.4375 l -1.3242188,0.1054687 v 0.2695313 c 0.609375,0 0.6914063,0.070312 0.6914063,0.5039062 z m 6.972656,-1.8632813 c 0.5625,-0.5273437 1.125,-0.5390625 1.277343,-0.5507812 v -0.2695313 c -0.257811,0.023437 -0.714843,0.023437 -0.796875,0.023437 -0.375,0 -0.714843,-0.011719 -1.1132803,-0.023437 v 0.2695313 c 0.2460943,0.011719 0.3867193,0.1289062 0.3867193,0.2929687 0,0.082031 -0.02344,0.1523438 -0.07031,0.2109375 l -2.9882813,2.765625 v -2.8359375 c 0,-0.328125 0.011719,-0.4335937 0.703125,-0.4335937 h 0.2109375 v -0.2695313 c -0.3984375,0.023437 -0.9023437,0.023437 -1.3125,0.023437 -0.421875,0 -0.9257812,0 -1.3242187,-0.023437 V -5.847375 H 5.67119 c 0.6914062,0 0.703125,0.1054687 0.703125,0.4335937 v 4.71093755 c 0,0.328125 -0.011719,0.421875 -0.703125,0.421875 H 5.46025 v 0.28125 c 0.3984375,-0.0234375 0.9023437,-0.0234375 1.3242187,-0.0234375 0.4101563,0 0.9140625,0 1.3125,0.0234375 v -0.28125 H 7.8860312 c -0.6914062,0 -0.703125,-0.09375 -0.703125,-0.421875 V -2.238 L 8.27275,-3.2575313 9.9485312,-0.86690625 c 0.070313,0.09375 0.1523438,0.234375 0.1523438,0.328125 0,0.2578125 -0.3398438,0.2578125 -0.5039063,0.2578125 v 0.28125 c 0.3867188,-0.0234375 0.8437503,-0.0234375 1.2421873,-0.0234375 0.234375,0 0.597656,0 1.054688,0.0234375 v -0.28125 c -0.574219,0 -0.691407,-0.0820313 -0.984375,-0.4921875 L 8.8118125,-3.7497188 Z m 0,0"
       style="fill:#000000;fill-opacity:1;fill-rule:nonzero;stroke:none"
       aria-label="dK"
       transform="matrix(1.3333333,0,0,1.3333333,510.59467,69.984)" />
    <path
       id="path30"
       d="m 186.55676,-56.07343 c 0,6.65366 -5.39372,12.04738 -12.04739,12.04738 -6.65366,0 -12.04738,-5.39372 -12.04738,-12.04738 0,-6.65367 5.39372,-12.04739 12.04738,-12.04739 6.65367,0 12.04739,5.39372 12.04739,12.04739 z"
       style="fill:#ffffff;fill-opacity:1;fill-rule:nonzero;stroke:#000000;stroke-width:0.79701;stroke-linecap:butt;stroke-linejoin:miter;stroke-miterlimit:10;stroke-dasharray:none;stroke-opacity:1"
       transform="matrix(1.3333333,0,0,-1.3333333,286.108,35.596)" />
    <path
       id="path31"
       d="m 3.4925,-1.0793828 c 0,0.16406249 0,0.18749999 -0.140625,0.37499999 -0.28125,0.41015625 -0.6914063,0.57421875 -1.0429688,0.57421875 -0.3867187,0 -0.75,-0.2109375 -0.984375,-0.5859375 C 1.0901562,-1.1028203 1.0784375,-1.6301641 1.0784375,-1.9231328 c 0,-0.421875 0.046875,-0.890625 0.28125,-1.2539063 0.1992187,-0.28125 0.5625,-0.5625 1.0429687,-0.5625 0.375,0 0.7382813,0.1875 0.9726563,0.5273438 C 3.4925,-3.0715703 3.4925,-3.0598516 3.4925,-2.8840703 Z M 3.515937,-3.4348516 C 3.4690625,-3.4934453 3.070625,-3.9621953 2.3675,-3.9621953 c -1.1015625,0 -2.0625,0.8789062 -2.0625,2.0390625 0,1.11328124 0.9023437,2.01562499 1.96875,2.01562499 0.6445312,0 1.0546875,-0.375 1.21875,-0.57421875 v 0.57421875 l 1.3476562,-0.09375 v -0.28125 c -0.609375,0 -0.6914062,-0.0585938 -0.6914062,-0.50390625 V -6.2239141 l -1.3242188,0.1054688 v 0.2695312 c 0.609375,0 0.6914063,0.070312 0.6914063,0.5039063 z m 6.3720703,3.37500004 c 0.9609377,-0.3984375 1.8750007,-1.50000004 1.8750007,-2.97656254 0,-1.828125 -1.394531,-3.28125 -3.0703132,-3.28125 -1.6757812,0 -3.0585937,1.453125 -3.0585937,3.28125 0,1.8164063 1.3945312,3.23437504 3.0585937,3.23437504 0.3164063,0 0.65625,-0.0703125 0.8671875,-0.12890625 0.1640625,0.890625 0.3046875,1.66406251 1.1367197,1.66406251 0.925781,0 1.113281,-1.19531251 1.113281,-1.65234376 0,-0.08203125 0,-0.1875 -0.105469,-0.1875 -0.07031,0 -0.105469,0.046875 -0.117187,0.09375 -0.07031,0.78515625 -0.679688,0.83203125 -0.820313,0.83203125 -0.480469,0 -0.667969,-0.38671875 -0.8789067,-0.87890625 z M 8.0481641,-0.17703906 C 7.1809766,-0.51688281 6.5130078,-1.4309453 6.5130078,-3.0364141 c 0,-2.2265625 1.2539063,-3.0351562 2.1796875,-3.0351562 0.9375,0 2.1796877,0.796875 2.1796877,3.0351562 0,1.1835938 -0.351563,2.13281254 -1.1250002,2.64843754 -0.1875,-0.4453125 -0.4570312,-0.94921874 -1.0429687,-0.94921874 -0.4335938,0 -0.7617188,0.35156249 -0.7617188,0.76171874 0,0.2109375 0.09375,0.38671875 0.1054688,0.3984375 z m 1.4414062,-0.0703125 c -0.2578125,0.140625 -0.5625,0.1875 -0.796875,0.1875 -0.4335937,0 -0.5273437,-0.375 -0.5273437,-0.515625 0,-0.26953125 0.1992187,-0.53906254 0.5507812,-0.53906254 0.46875,0 0.65625,0.37500004 0.7734375,0.86718754 z m 0,0"
       style="fill:#000000;fill-opacity:1;fill-rule:nonzero;stroke:none"
       aria-label="dQ"
       transform="matrix(1.3333333,0,0,1.3333333,510.59333,113.34933)" />
    <path
       id="path32"
       d="m 186.55676,-95.93544 c 0,6.65367 -5.39372,12.04739 -12.04739,12.04739 -6.65366,0 -12.04738,-5.39372 -12.04738,-12.04739 0,-6.65366 5.39372,-12.04738 12.04738,-12.04738 6.65367,0 12.04739,5.39372 12.04739,12.04738 z"
       style="fill:#ffffff;fill-opacity:1;fill-rule:nonzero;stroke:#000000;stroke-width:0.79701;stroke-linecap:butt;stroke-linejoin:miter;stroke-miterlimit:10;stroke-dasharray:none;stroke-opacity:1"
       transform="matrix(1.3333333,0,0,-1.3333333,286.108,35.596)" />
    <path
       id="path33"
       d="m 3.4924062,-1.0780078 c 0,0.16406249 0,0.18749999 -0.140625,0.37499999 -0.28125,0.41015625 -0.6914062,0.57421875 -1.0429687,0.57421875 -0.3867188,0 -0.75,-0.2109375 -0.984375,-0.5859375 C 1.0900625,-1.1014453 1.0783437,-1.6287891 1.0783437,-1.9217578 c 0,-0.421875 0.046875,-0.890625 0.28125,-1.2539063 0.1992188,-0.28125 0.5625,-0.5625 1.0429688,-0.5625 0.375,0 0.7382812,0.1875 0.9726562,0.5273438 0.1171875,0.140625 0.1171875,0.1523437 0.1171875,0.328125 z m 0.023437,-2.3554688 c -0.046875,-0.058594 -0.4453125,-0.5273437 -1.1484375,-0.5273437 -1.1015625,0 -2.06249995,0.8789062 -2.06249995,2.0390625 0,1.11328124 0.90234375,2.01562499 1.96874995,2.01562499 0.6445313,0 1.0546875,-0.375 1.21875,-0.57421875 V 0.09386719 L 4.8400625,1.171875e-4 V -0.28113281 c -0.609375,0 -0.6914063,-0.0585938 -0.6914063,-0.50390625 V -6.2225391 l -1.3242187,0.1054688 v 0.2695312 c 0.609375,0 0.6914062,0.070312 0.6914062,0.5039063 z m 3.5244141,-1.96875 c -0.035156,-0.1054687 -0.035156,-0.1640625 -0.035156,-0.1757812 0,-0.2695313 0.4570312,-0.2695313 0.7148437,-0.2695313 v -0.2695312 c -0.4101562,0.023437 -0.8671875,0.023437 -1.2773437,0.023437 -0.375,0 -0.5039063,-0.011719 -1.1484375,-0.023437 v 0.2695312 c 0.65625,0 0.7617187,0.035156 0.8789062,0.3515625 L 8.3410391,1.171875e-4 C 8.3996328,0.12902344 8.4230703,0.19933594 8.5754141,0.19933594 c 0.140625,0 0.1640625,-0.0585938 0.2109375,-0.17578125 L 10.86057,-5.2498828 c 0.1875,-0.46875 0.5625,-0.5976563 0.984375,-0.5976563 v -0.2695312 c -0.316406,0.023437 -0.574218,0.023437 -0.878906,0.023437 -0.386719,0 -0.5625,-0.011719 -1.0078124,-0.023437 v 0.2695312 c 0.4453124,0.011719 0.6328124,0.2226563 0.6328124,0.4453125 0,0.082031 0,0.09375 -0.03516,0.1875 l -1.7226564,4.34765629 z m 0,0"
       style="fill:#000000;fill-opacity:1;fill-rule:nonzero;stroke:none"
       aria-label="dV"
       transform="matrix(1.3333333,0,0,1.3333333,510.76533,167.66)" />
    <path
       id="path34"
       d="m 32.803,-124.48254 h 108.90338 v 12.86786 H 32.803 Z"
       style="fill:#ffffff;fill-opacity:1;fill-rule:nonzero;stroke:#ffffff;stroke-width:0.79701;stroke-linecap:butt;stroke-linejoin:miter;stroke-miterlimit:10;stroke-dasharray:none;stroke-opacity:1"
       transform="matrix(1.3333333,0,0,-1.3333333,286.108,35.596)" />
    <path
       id="path35"
       d="m 3.6690469,-6.2339766 c -0.046875,-0.1171875 -0.070312,-0.1875 -0.2109375,-0.1875 -0.1523438,0 -0.1640625,0.058594 -0.2226563,0.1992188 l -1.921875,5.33203124 c -0.1054687,0.29296875 -0.31640623,0.609375 -1.00781248,0.609375 V 3.984375e-4 C 0.64560937,-0.02303906 0.89170312,-0.02303906 1.2198281,-0.02303906 c 0.3164063,0 0.515625,0 1.0078125,0.0234374975 V -0.28085156 c -0.5039062,0 -0.65625,-0.28125 -0.65625,-0.45703125 0,-0.0820313 0.011719,-0.1171875 0.035156,-0.1640625 l 0.421875,-1.16015629 h 2.3203125 l 0.4804687,1.35937504 c 0.035156,0.0820313 0.046875,0.1171875 0.046875,0.15234375 0,0.26953125 -0.5039062,0.26953125 -0.7382812,0.26953125 V 3.984375e-4 C 4.5479531,-0.02303906 5.0167031,-0.02303906 5.4268594,-0.02303906 c 0.3984375,0 0.4335937,0 1.171875,0.0234374975 V -0.28085156 H 6.4463906 c -0.5507812,0 -0.65625,-0.0820313 -0.7382812,-0.328125 z m 0.5742187,3.890625 H 2.1221719 l 1.0664062,-2.9296875 z m 5.3261719,-1.2421875 v -0.28125 H 8.2686562 v -1.640625 H 8.0108437 c 0,0.75 -0.3164062,1.6757813 -1.1835937,1.6992188 v 0.2226562 h 0.7734375 v 2.4726563 c 0,1.00781249 0.7265625,1.20703124 1.2070312,1.20703124 0.5976563,0 0.9140625,-0.57421875 0.9140625,-1.20703124 V -1.6167891 H 9.4639687 v 0.4804688 c 0,0.65624999 -0.28125,0.98437499 -0.5976562,0.98437499 -0.5976563,0 -0.5976563,-0.78515625 -0.5976563,-0.94921879 v -2.484375 z m 3.5830075,0 v -0.28125 h -1.300781 v -1.640625 h -0.257812 c 0,0.75 -0.316407,1.6757813 -1.183594,1.6992188 v 0.2226562 h 0.773437 v 2.4726563 c 0,1.00781249 0.726563,1.20703124 1.207032,1.20703124 0.597656,0 0.914062,-0.57421875 0.914062,-1.20703124 v -0.5039063 h -0.257812 v 0.4804688 c 0,0.65624999 -0.28125,0.98437499 -0.597657,0.98437499 -0.597656,0 -0.597656,-0.78515625 -0.597656,-0.94921879 v -2.484375 z m 4.250977,1.5351563 c 0.199219,0 0.246094,0 0.246094,-0.1875 0,-0.9257813 -0.503907,-1.78125 -1.652344,-1.78125 -1.078125,0 -1.921875,0.9375 -1.921875,2.0507812 0,1.17187504 0.949219,2.06250004 2.039062,2.06250004 1.089844,0 1.535157,-0.94921875 1.535157,-1.16015624 0,-0.058594 -0.04687,-0.1171875 -0.128907,-0.1171875 -0.09375,0 -0.117187,0.058594 -0.128906,0.09375 -0.304687,0.91406249 -1.101562,0.93749999 -1.230469,0.93749999 -0.433593,0 -0.796875,-0.24609375 -1.007812,-0.55078125 C 14.860453,-1.1363203 14.848734,-1.6753828 14.848734,-2.0503828 Z m -2.542969,-0.2226563 c 0.08203,-1.3710937 0.878906,-1.5234375 1.136719,-1.5234375 0.492187,0 1.03125,0.3867188 1.042969,1.5234375 z m 4.719727,-0.046875 c 0,-0.9492187 0.679687,-1.4179687 1.242187,-1.4179687 0.527344,0 0.644531,0.4335937 0.644531,0.9726562 v 2.07421879 c 0,0.41015625 -0.09375,0.41015625 -0.691406,0.41015625 V 3.984375e-4 C 21.197367,-0.02303906 21.373148,-0.02303906 21.795023,-0.02303906 c 0.433594,0 0.550782,0 1.019532,0.0234374975 V -0.28085156 c -0.457032,0 -0.679688,0 -0.679688,-0.26953125 V -2.2730391 c 0,-0.75 0,-1.0078125 -0.257812,-1.3242187 -0.199219,-0.2460938 -0.550782,-0.3632813 -0.996094,-0.3632813 -0.832031,0 -1.21875,0.6210938 -1.347656,0.8671875 v -0.8671875 l -1.300782,0.09375 v 0.28125 c 0.609375,0 0.691407,0.058594 0.691407,0.5039063 v 2.39062499 c 0,0.41015625 -0.105469,0.41015625 -0.691407,0.41015625 V 3.984375e-4 C 18.654398,-0.02303906 18.818461,-0.02303906 19.252055,-0.02303906 c 0.433593,0 0.550781,0 1.019531,0.0234374975 V -0.28085156 c -0.585938,0 -0.691406,0 -0.691406,-0.41015625 z m 6.123047,-1.265625 v -0.28125 h -1.300782 v -1.640625 h -0.257812 c 0,0.75 -0.316406,1.6757813 -1.183594,1.6992188 v 0.2226562 h 0.773438 v 2.4726563 c 0,1.00781249 0.726562,1.20703124 1.207031,1.20703124 0.597656,0 0.914062,-0.57421875 0.914062,-1.20703124 v -0.5039063 h -0.257812 v 0.4804688 c 0,0.65624999 -0.28125,0.98437499 -0.597656,0.98437499 -0.597657,0 -0.597657,-0.78515625 -0.597657,-0.94921879 v -2.484375 z m 2.320312,-0.375 -1.289062,0.09375 v 0.28125 c 0.574218,0 0.644531,0.058594 0.644531,0.4921875 v 2.40234379 c 0,0.41015625 -0.09375,0.41015625 -0.679688,0.41015625 V 3.984375e-4 C 27.097758,-0.02303906 27.285258,-0.02303906 27.683695,-0.02303906 c 0.140625,0 0.515625,0 0.960938,0.0234374975 V -0.28085156 c -0.585938,0 -0.621094,-0.046875 -0.621094,-0.38671875 z m 0.02344,-1.5585937 c 0,-0.2695313 -0.210938,-0.4921875 -0.480469,-0.4921875 -0.28125,0 -0.492188,0.234375 -0.492188,0.4921875 0,0.2578125 0.210938,0.4804687 0.492188,0.4804687 0.269531,0 0.480469,-0.2109375 0.480469,-0.4804687 z m 5.217773,3.609375 c 0,-1.171875 -0.925781,-2.109375 -2.027344,-2.109375 -1.148437,0 -2.050781,0.9609375 -2.050781,2.109375 0,1.12499999 0.9375,2.00390624 2.039062,2.00390624 1.136719,0 2.039063,-0.90234375 2.039063,-2.00390624 z m -2.027344,1.75781249 c -0.457031,0 -0.832031,-0.22265625 -1.03125,-0.57421875 -0.234375,-0.37500004 -0.246094,-0.85546874 -0.246094,-1.26562504 0,-0.328125 0,-0.84375 0.222657,-1.2070312 0.269531,-0.4570313 0.714843,-0.5976563 1.042968,-0.5976563 0.503907,0 0.878907,0.2929688 1.054688,0.5976563 0.210937,0.375 0.210937,0.8320312 0.210937,1.2070312 0,0.328125 0,0.8554688 -0.222656,1.25390629 -0.246094,0.41015625 -0.65625,0.5859375 -1.03125,0.5859375 z m 3.963867,-2.16796879 c 0,-0.9492187 0.679688,-1.4179687 1.242188,-1.4179687 0.527344,0 0.644531,0.4335937 0.644531,0.9726562 v 2.07421879 c 0,0.41015625 -0.09375,0.41015625 -0.691406,0.41015625 V 3.984375e-4 C 36.818461,-0.02303906 36.994242,-0.02303906 37.416117,-0.02303906 c 0.433594,0 0.550781,0 1.019531,0.0234374975 V -0.28085156 c -0.457031,0 -0.679687,0 -0.679687,-0.26953125 V -2.2730391 c 0,-0.75 0,-1.0078125 -0.257813,-1.3242187 -0.199218,-0.2460938 -0.550781,-0.3632813 -0.996093,-0.3632813 -0.832032,0 -1.21875,0.6210938 -1.347657,0.8671875 v -0.8671875 l -1.300781,0.09375 v 0.28125 c 0.609375,0 0.691406,0.058594 0.691406,0.5039063 v 2.39062499 c 0,0.41015625 -0.105468,0.41015625 -0.691406,0.41015625 V 3.984375e-4 C 34.275492,-0.02303906 34.439555,-0.02303906 34.873148,-0.02303906 c 0.433594,0 0.550782,0 1.019532,0.0234374975 V -0.28085156 c -0.585938,0 -0.691407,0 -0.691407,-0.41015625 z m 8.563477,-3.1523437 c 0,-0.3046875 0.01172,-0.375 0.433594,-0.375 h 1.171875 c 0.878906,0 1.242187,0.703125 1.242187,1.2421875 0,0.6914062 -0.597656,1.3007812 -1.441406,1.3007812 h -1.40625 z m 2.191406,2.2734375 c 0.890625,-0.1757813 1.511719,-0.75 1.511719,-1.40625 0,-0.796875 -0.855469,-1.5117188 -2.039063,-1.5117188 h -3.339843 v 0.2695313 h 0.210937 c 0.691406,0 0.703125,0.1054687 0.703125,0.4335937 v 4.71093754 c 0,0.328125 -0.01172,0.421875 -0.703125,0.421875 H 42.088969 V 3.984375e-4 h 3.585937 c 1.21875,0 2.0625,-0.7968749975 2.0625,-1.6289062375 0,-0.8085938 -0.785156,-1.4648438 -1.78125,-1.5703125 z m -1.757812,2.91796874 c -0.421875,0 -0.433594,-0.0585938 -0.433594,-0.36328125 V -3.0699141 h 1.6875 c 1.042969,0 1.394531,0.8789063 1.394531,1.4179688 0,0.69140624 -0.539062,1.37109374 -1.464844,1.37109374 z m 7.12207,-0.36328125 c 0.03516,0.375 0.304688,0.703125 0.691406,0.703125 0.222657,0 0.785157,-0.140625 0.785157,-0.85546875 V -1.3003828 h -0.257813 v 0.49218749 c 0,0.10546875 0,0.55078125 -0.316406,0.55078125 -0.328125,0 -0.328125,-0.43359375 -0.328125,-0.57421875 V -2.4019453 c 0,-0.515625 0,-0.8203125 -0.398438,-1.1835938 -0.328125,-0.2929687 -0.761718,-0.4335937 -1.207031,-0.4335937 -0.761719,0 -1.382812,0.375 -1.382812,0.9492187 0,0.28125 0.1875,0.4335938 0.421875,0.4335938 0.234375,0 0.410156,-0.1757813 0.410156,-0.4101563 0,-0.3867187 -0.398438,-0.4335937 -0.398438,-0.4335937 0.234375,-0.234375 0.667969,-0.3164063 0.925782,-0.3164063 0.457031,0 0.972656,0.3398438 0.972656,1.1367188 v 0.2929687 c -0.492188,0.023437 -1.160156,0.058594 -1.757813,0.3515625 -0.644531,0.3164063 -0.84375,0.7734375 -0.84375,1.13671879 0,0.73828125 0.867188,0.97265625 1.464844,0.97265625 0.75,0 1.089844,-0.4921875 1.21875,-0.73828125 z m -0.08203,-0.62109379 c 0,0.86718754 -0.679688,1.13671879 -1.066406,1.13671879 -0.421875,0 -0.820313,-0.3046875 -0.820313,-0.75 0,-0.58593749 0.515625,-1.21874999 1.886719,-1.27734379 z m 4.877929,-2.2617187 c -0.1875,0.035156 -0.363281,0.1640625 -0.363281,0.421875 0,0.234375 0.175781,0.421875 0.410156,0.421875 0.234375,0 0.421875,-0.1640625 0.421875,-0.4335938 0,-0.5625 -0.621093,-0.9023437 -1.417968,-0.9023437 -1.148438,0 -2.003907,0.9609375 -2.003907,2.0859375 0,1.14843749 0.9375,2.02734374 1.992188,2.02734374 1.242187,0 1.535156,-1.078125 1.535156,-1.16015624 0,-0.1054688 -0.105469,-0.1054688 -0.128906,-0.1054688 -0.09375,0 -0.09375,0.011719 -0.152344,0.1640625 -0.210937,0.62109379 -0.703125,0.85546879 -1.171875,0.85546879 -0.5625,0 -1.300781,-0.46875 -1.300781,-1.79296879 0,-1.3945312 0.714844,-1.8164062 1.253906,-1.8164062 0.117188,0 0.597656,0.011719 0.925781,0.234375 z M 58.296,-1.9449141 v -4.2773437 l -1.324219,0.1054687 v 0.2695313 c 0.609375,0 0.691406,0.070312 0.691406,0.5039062 v 4.65234379 c 0,0.41015625 -0.105468,0.41015625 -0.691406,0.41015625 V 3.984375e-4 C 57.370219,-0.02303906 57.592875,-0.02303906 57.967875,-0.02303906 c 0.363281,0 0.585937,0 0.996094,0.0234374975 V -0.28085156 c -0.597657,0 -0.691407,0 -0.691407,-0.41015625 V -1.5933516 l 0.574219,-0.4804687 0.867188,1.17187499 c 0.140625,0.19921875 0.210937,0.3046875 0.210937,0.421875 0,0.09375 -0.02344,0.19921875 -0.304687,0.19921875 V 3.984375e-4 C 60.030375,-0.02303906 60.241312,-0.02303906 60.592875,-0.02303906 c 0.257812,0 0.550781,0 0.808594,0.0234374975 V -0.28085156 c -0.292969,0 -0.515625,0 -0.832032,-0.43359375 L 59.292094,-2.4488203 c 0.878906,-0.7617188 1.289062,-1.1132813 1.898437,-1.1367188 v -0.28125 c -0.316406,0.035156 -0.328125,0.035156 -0.65625,0.035156 -0.269531,0 -0.503906,-0.011719 -0.984375,-0.035156 v 0.28125 c 0.128906,0.011719 0.234375,0.070312 0.234375,0.2109375 0,0.1757813 -0.140625,0.2929688 -0.222656,0.3632813 z m 8.976562,-1.0546875 c 0.199219,-0.5390625 0.5625,-0.5742187 0.761719,-0.5859375 v -0.28125 c -0.363281,0.035156 -0.386719,0.035156 -0.679687,0.035156 -0.339844,0 -0.46875,0 -0.820313,-0.035156 v 0.28125 c 0.386719,0.011719 0.503906,0.2460938 0.503906,0.4335938 0,0.082031 -0.01172,0.140625 -0.03516,0.1992187 L 66.171,-0.70272656 65.268656,-3.1636641 c -0.04687,-0.1171875 -0.04687,-0.140625 -0.04687,-0.1757812 0,-0.2226563 0.28125,-0.2460938 0.515625,-0.2460938 v -0.28125 c -0.410156,0.035156 -0.785156,0.035156 -0.925781,0.035156 -0.28125,0 -0.539063,0 -0.820313,-0.035156 v 0.28125 c 0.28125,0 0.457032,0.011719 0.5625,0.1289063 0.08203,0.1054687 0.199219,0.4570312 0.199219,0.4921875 0,0.011719 -0.04687,0.1171875 -0.04687,0.1171875 l -0.738281,2.02734374 -0.855469,-2.33203124 c -0.04687,-0.140625 -0.04687,-0.1523438 -0.04687,-0.1875 0,-0.2460938 0.351563,-0.2460938 0.515625,-0.2460938 v -0.28125 c -0.410156,0.023437 -0.621094,0.035156 -0.972656,0.035156 -0.304688,0 -0.5625,0 -0.867188,-0.035156 v 0.28125 c 0.433594,0 0.550782,0.023437 0.65625,0.328125 l 1.160157,3.16406254 c 0.04687,0.10546875 0.07031,0.1875 0.199218,0.1875 0.140625,0 0.175782,-0.0937500025 0.210938,-0.1875 l 0.914062,-2.50781254 0.925782,2.50781254 c 0.03516,0.0937499975 0.07031,0.1875 0.199218,0.1875 0.140625,0 0.164063,-0.08203125 0.199219,-0.17578125 z m 3.761719,2.35546879 c 0.03516,0.375 0.304688,0.703125 0.691406,0.703125 0.222657,0 0.785157,-0.140625 0.785157,-0.85546875 V -1.3003828 h -0.257813 v 0.49218749 c 0,0.10546875 0,0.55078125 -0.316406,0.55078125 -0.328125,0 -0.328125,-0.43359375 -0.328125,-0.57421875 V -2.4019453 c 0,-0.515625 0,-0.8203125 -0.398438,-1.1835938 -0.328125,-0.2929687 -0.761718,-0.4335937 -1.207031,-0.4335937 -0.761719,0 -1.382812,0.375 -1.382812,0.9492187 0,0.28125 0.1875,0.4335938 0.421875,0.4335938 0.234375,0 0.410156,-0.1757813 0.410156,-0.4101563 0,-0.3867187 -0.398438,-0.4335937 -0.398438,-0.4335937 0.234375,-0.234375 0.667969,-0.3164063 0.925782,-0.3164063 0.457031,0 0.972656,0.3398438 0.972656,1.1367188 v 0.2929687 c -0.492188,0.023437 -1.160156,0.058594 -1.757813,0.3515625 -0.644531,0.3164063 -0.84375,0.7734375 -0.84375,1.13671879 0,0.73828125 0.867188,0.97265625 1.464844,0.97265625 0.75,0 1.089844,-0.4921875 1.21875,-0.73828125 z M 70.95225,-1.2652266 c 0,0.86718754 -0.679688,1.13671879 -1.066406,1.13671879 -0.421875,0 -0.820313,-0.3046875 -0.820313,-0.75 0,-0.58593749 0.515625,-1.21874999 1.886719,-1.27734379 z m 3.210937,-0.7851562 c 0,-0.375 0.105469,-1.6875 1.125,-1.6875 v 0.011719 c -0.02344,0.011719 -0.164062,0.1171875 -0.164062,0.328125 0,0.2460938 0.1875,0.3984375 0.398437,0.3984375 0.1875,0 0.386719,-0.140625 0.386719,-0.4101562 0,-0.28125 -0.269531,-0.5507813 -0.667969,-0.5507813 -0.539062,0 -0.914062,0.375 -1.125,0.9257813 v -0.9257813 l -1.277343,0.09375 v 0.28125 c 0.609375,0 0.691406,0.058594 0.691406,0.5039063 v 2.39062499 c 0,0.41015625 -0.105469,0.41015625 -0.691406,0.41015625 V 3.984375e-4 c 0.46875,-0.0234374975 0.585937,-0.0234374975 1.042968,-0.0234374975 0.363282,0 0.574219,0 1.148438,0.0234374975 V -0.28085156 h -0.1875 c -0.65625,0 -0.679688,-0.09375 -0.679688,-0.421875 z m 5.504883,0.9726562 c 0,0.16406254 0,0.18750004 -0.140625,0.37500004 -0.28125,0.41015625 -0.691406,0.57421875 -1.042968,0.57421875 -0.386719,0 -0.75,-0.2109375 -0.984375,-0.5859375 -0.234375,-0.38671879 -0.246094,-0.91406249 -0.246094,-1.20703129 0,-0.421875 0.04687,-0.890625 0.28125,-1.2539062 0.199219,-0.28125 0.5625,-0.5625 1.042969,-0.5625 0.375,0 0.738281,0.1875 0.972656,0.5273437 0.117187,0.140625 0.117187,0.1523438 0.117187,0.328125 z m 0.02344,-2.3554687 c -0.04687,-0.058594 -0.445313,-0.5273438 -1.148438,-0.5273438 -1.101562,0 -2.0625,0.8789063 -2.0625,2.0390625 0,1.11328129 0.902344,2.01562504 1.96875,2.01562504 0.644532,0 1.054688,-0.375 1.21875,-0.57421875 V 0.09414844 L 81.015727,3.984375e-4 V -0.28085156 c -0.609375,0 -0.691407,-0.0585938 -0.691407,-0.50390625 V -6.2222578 l -1.324218,0.1054687 v 0.2695313 c 0.609375,0 0.691406,0.070312 0.691406,0.5039062 z m 8.252929,0.6210937 c 1.253907,0 2.167969,-0.7851562 2.167969,-1.640625 0,-0.890625 -0.914062,-1.6640625 -2.167969,-1.6640625 H 84.7335 v 0.2695313 h 0.199219 c 0.691406,0 0.714843,0.1054687 0.714843,0.4335937 v 4.71093754 c 0,0.328125 -0.02344,0.421875 -0.714843,0.421875 H 84.7335 V 3.984375e-4 C 85.131937,-0.02303906 85.635844,-0.02303906 86.046,-0.02303906 c 0.410156,0 0.914062,0 1.324219,0.0234374975 V -0.28085156 h -0.210938 c -0.691406,0 -0.714844,-0.09375 -0.714844,-0.421875 V -2.8121016 Z M 86.421,-5.4722578 c 0,-0.3046875 0.02344,-0.375 0.445312,-0.375 h 0.855469 c 1.476563,0 1.476563,0.984375 1.476563,1.3945312 0,0.3984375 0,1.3828125 -1.488282,1.3828125 H 86.421 Z m 7.03125,4.82812499 c 0.03516,0.375 0.304687,0.703125 0.691406,0.703125 0.222656,0 0.785156,-0.140625 0.785156,-0.85546875 V -1.3003828 H 94.671 v 0.49218749 c 0,0.10546875 0,0.55078125 -0.316406,0.55078125 -0.328125,0 -0.328125,-0.43359375 -0.328125,-0.57421875 V -2.4019453 c 0,-0.515625 0,-0.8203125 -0.398438,-1.1835938 -0.328125,-0.2929687 -0.761719,-0.4335937 -1.207031,-0.4335937 -0.761719,0 -1.382813,0.375 -1.382813,0.9492187 0,0.28125 0.1875,0.4335938 0.421875,0.4335938 0.234375,0 0.410157,-0.1757813 0.410157,-0.4101563 0,-0.3867187 -0.398438,-0.4335937 -0.398438,-0.4335937 0.234375,-0.234375 0.667969,-0.3164063 0.925781,-0.3164063 0.457032,0 0.972657,0.3398438 0.972657,1.1367188 v 0.2929687 c -0.492188,0.023437 -1.160157,0.058594 -1.757813,0.3515625 -0.644531,0.3164063 -0.84375,0.7734375 -0.84375,1.13671879 0,0.73828125 0.867188,0.97265625 1.464844,0.97265625 0.75,0 1.089844,-0.4921875 1.21875,-0.73828125 z M 93.37022,-1.2652266 c 0,0.86718754 -0.679688,1.13671879 -1.066407,1.13671879 -0.421875,0 -0.820312,-0.3046875 -0.820312,-0.75 0,-0.58593749 0.515625,-1.21874999 1.886719,-1.27734379 z m 4.702148,-2.5195312 c 0,-0.1523438 0,-0.234375 -0.105469,-0.234375 -0.04687,0 -0.05859,0 -0.175781,0.1054687 -0.02344,0.023437 -0.105469,0.1054688 -0.152344,0.1523438 -0.28125,-0.1992188 -0.5625,-0.2578125 -0.867187,-0.2578125 -1.183594,0 -1.476563,0.65625 -1.476563,1.1132812 0,0.2929688 0.128907,0.5273438 0.328125,0.7148438 0.304688,0.28125 0.644532,0.3398437 1.101563,0.421875 0.457031,0.09375 0.609375,0.1171875 0.808594,0.2695312 0.09375,0.070312 0.316406,0.2460938 0.316406,0.58593754 0,0.78515625 -0.902344,0.78515625 -1.03125,0.78515625 -0.914063,0 -1.148438,-0.76171875 -1.253906,-1.24218749 -0.02344,-0.09375 -0.03516,-0.140625 -0.140625,-0.140625 -0.128907,0 -0.128907,0.070312 -0.128907,0.234375 v 1.14843749 c 0,0.15234375 0,0.22265625 0.105469,0.22265625 0.05859,0 0.07031,0 0.222656,-0.17578125 0.03516,-0.046875 0.140625,-0.1640625 0.1875,-0.2109375 0.375,0.36328125 0.785157,0.38671875 1.007813,0.38671875 1.101562,0 1.488281,-0.64453125 1.488281,-1.24218754 0,-0.3984375 -0.175781,-0.6445312 -0.375,-0.8554687 -0.304687,-0.2929688 -0.632812,-0.3515625 -1.289062,-0.4804688 -0.234375,-0.046875 -0.890625,-0.1640625 -0.890625,-0.6679687 0,-0.2929688 0.210937,-0.6679688 1.019531,-0.6679688 0.972656,0 1.03125,0.75 1.054687,0.9726563 0.01172,0.1054687 0.01172,0.1640625 0.117188,0.1640625 0.128906,0 0.128906,-0.070312 0.128906,-0.234375 z m 3.632812,0 c 0,-0.1523438 0,-0.234375 -0.10547,-0.234375 -0.0469,0 -0.0586,0 -0.17578,0.1054687 -0.0234,0.023437 -0.10547,0.1054688 -0.15234,0.1523438 -0.28125,-0.1992188 -0.5625,-0.2578125 -0.86719,-0.2578125 -1.183594,0 -1.476563,0.65625 -1.476563,1.1132812 0,0.2929688 0.128906,0.5273438 0.328125,0.7148438 0.304687,0.28125 0.644531,0.3398437 1.101558,0.421875 0.45703,0.09375 0.60938,0.1171875 0.8086,0.2695312 0.0937,0.070312 0.3164,0.2460938 0.3164,0.58593754 0,0.78515625 -0.90234,0.78515625 -1.03125,0.78515625 -0.914058,0 -1.148433,-0.76171875 -1.253902,-1.24218749 -0.02344,-0.09375 -0.03516,-0.140625 -0.140625,-0.140625 -0.128906,0 -0.128906,0.070312 -0.128906,0.234375 v 1.14843749 c 0,0.15234375 0,0.22265625 0.105469,0.22265625 0.05859,0 0.07031,0 0.222656,-0.17578125 0.03516,-0.046875 0.140625,-0.1640625 0.1875,-0.2109375 0.375,0.36328125 0.785158,0.38671875 1.007808,0.38671875 1.10157,0 1.48828,-0.64453125 1.48828,-1.24218754 0,-0.3984375 -0.17578,-0.6445312 -0.375,-0.8554687 -0.30468,-0.2929688 -0.63281,-0.3515625 -1.28906,-0.4804688 -0.23437,-0.046875 -0.890622,-0.1640625 -0.890622,-0.6679687 0,-0.2929688 0.210938,-0.6679688 1.019532,-0.6679688 0.97265,0 1.03125,0.75 1.05469,0.9726563 0.0117,0.1054687 0.0117,0.1640625 0.11718,0.1640625 0.12891,0 0.12891,-0.070312 0.12891,-0.234375 z m 0,0"
       style="fill:#000000;fill-opacity:1;fill-rule:nonzero;stroke:none"
       aria-label="AttentionBackwardPass"
       transform="matrix(1.3333333,0,0,1.3333333,334.272,197.144)" />
    <path
       id="path36"
       d="m -175.75833,-124.48254 h 102.52448 v 12.86786 h -102.52448 z"
       style="fill:#ffffff;fill-opacity:1;fill-rule:nonzero;stroke:#ffffff;stroke-width:0.79701;stroke-linecap:butt;stroke-linejoin:miter;stroke-miterlimit:10;stroke-dasharray:none;stroke-opacity:1"
       transform="matrix(1.3333333,0,0,-1.3333333,286.108,35.596)" />
    <path
       id="path37"
       d="m 3.6684531,-6.2339766 c -0.046875,-0.1171875 -0.070312,-0.1875 -0.2109375,-0.1875 -0.1523437,0 -0.1640625,0.058594 -0.2226562,0.1992188 l -1.921875,5.33203124 c -0.1054688,0.29296875 -0.31640628,0.609375 -1.00781253,0.609375 V 3.984375e-4 C 0.64501562,-0.02303906 0.89110937,-0.02303906 1.2192344,-0.02303906 c 0.3164062,0 0.515625,0 1.0078125,0.0234374975 V -0.28085156 c -0.5039063,0 -0.65625,-0.28125 -0.65625,-0.45703125 0,-0.0820313 0.011719,-0.1171875 0.035156,-0.1640625 l 0.421875,-1.16015629 h 2.3203125 l 0.4804688,1.35937504 c 0.035156,0.0820313 0.046875,0.1171875 0.046875,0.15234375 0,0.26953125 -0.5039063,0.26953125 -0.7382813,0.26953125 V 3.984375e-4 C 4.5473594,-0.02303906 5.0161094,-0.02303906 5.4262656,-0.02303906 c 0.3984375,0 0.4335938,0 1.171875,0.0234374975 V -0.28085156 H 6.4457969 c -0.5507813,0 -0.65625,-0.0820313 -0.7382813,-0.328125 z m 0.5742188,3.890625 H 2.1215781 l 1.0664063,-2.9296875 z m 5.3261718,-1.2421875 v -0.28125 H 8.2680625 v -1.640625 H 8.01025 c 0,0.75 -0.3164063,1.6757813 -1.1835938,1.6992188 v 0.2226562 h 0.7734375 v 2.4726563 c 0,1.00781249 0.7265625,1.20703124 1.2070313,1.20703124 0.5976562,0 0.9140625,-0.57421875 0.9140625,-1.20703124 V -1.6167891 H 9.463375 v 0.4804688 c 0,0.65624999 -0.28125,0.98437499 -0.5976563,0.98437499 -0.5976562,0 -0.5976562,-0.78515625 -0.5976562,-0.94921879 v -2.484375 z m 3.5830083,0 v -0.28125 H 11.85107 v -1.640625 h -0.257812 c 0,0.75 -0.316406,1.6757813 -1.183594,1.6992188 v 0.2226562 h 0.773438 v 2.4726563 c 0,1.00781249 0.726562,1.20703124 1.207031,1.20703124 0.597656,0 0.914062,-0.57421875 0.914062,-1.20703124 v -0.5039063 h -0.257812 v 0.4804688 c 0,0.65624999 -0.28125,0.98437499 -0.597656,0.98437499 -0.597657,0 -0.597657,-0.78515625 -0.597657,-0.94921879 v -2.484375 z m 4.250976,1.5351563 c 0.199219,0 0.246094,0 0.246094,-0.1875 0,-0.9257813 -0.503906,-1.78125 -1.652344,-1.78125 -1.078125,0 -1.921875,0.9375 -1.921875,2.0507812 0,1.17187504 0.949219,2.06250004 2.039063,2.06250004 1.089843,0 1.535156,-0.94921875 1.535156,-1.16015624 0,-0.058594 -0.04687,-0.1171875 -0.128906,-0.1171875 -0.09375,0 -0.117188,0.058594 -0.128907,0.09375 -0.304687,0.91406249 -1.101562,0.93749999 -1.230468,0.93749999 -0.433594,0 -0.796875,-0.24609375 -1.007813,-0.55078125 C 14.859859,-1.1363203 14.848141,-1.6753828 14.848141,-2.0503828 Z m -2.542969,-0.2226563 c 0.08203,-1.3710937 0.878907,-1.5234375 1.136719,-1.5234375 0.492188,0 1.03125,0.3867188 1.042969,1.5234375 z m 4.722657,-0.046875 c 0,-0.9492187 0.679687,-1.4179687 1.242187,-1.4179687 0.527344,0 0.644531,0.4335937 0.644531,0.9726562 v 2.07421879 c 0,0.41015625 -0.09375,0.41015625 -0.691406,0.41015625 V 3.984375e-4 C 21.199703,-0.02303906 21.375484,-0.02303906 21.797359,-0.02303906 c 0.433594,0 0.550782,0 1.019532,0.0234374975 V -0.28085156 c -0.457032,0 -0.679688,0 -0.679688,-0.26953125 V -2.2730391 c 0,-0.75 0,-1.0078125 -0.257812,-1.3242187 -0.199219,-0.2460938 -0.550782,-0.3632813 -0.996094,-0.3632813 -0.832031,0 -1.21875,0.6210938 -1.347656,0.8671875 v -0.8671875 l -1.300782,0.09375 v 0.28125 c 0.609375,0 0.691407,0.058594 0.691407,0.5039063 v 2.39062499 c 0,0.41015625 -0.105469,0.41015625 -0.691407,0.41015625 V 3.984375e-4 C 18.656734,-0.02303906 18.820797,-0.02303906 19.254391,-0.02303906 c 0.433593,0 0.550781,0 1.019531,0.0234374975 V -0.28085156 c -0.585938,0 -0.691406,0 -0.691406,-0.41015625 z m 6.123046,-1.265625 v -0.28125 h -1.300781 v -1.640625 h -0.257812 c 0,0.75 -0.316407,1.6757813 -1.183594,1.6992188 v 0.2226562 h 0.773437 v 2.4726563 c 0,1.00781249 0.726563,1.20703124 1.207032,1.20703124 0.597656,0 0.914062,-0.57421875 0.914062,-1.20703124 v -0.5039063 h -0.257812 v 0.4804688 c 0,0.65624999 -0.28125,0.98437499 -0.597657,0.98437499 -0.597656,0 -0.597656,-0.78515625 -0.597656,-0.94921879 v -2.484375 z m 2.317383,-0.375 -1.289062,0.09375 v 0.28125 c 0.574219,0 0.644531,0.058594 0.644531,0.4921875 v 2.40234379 c 0,0.41015625 -0.09375,0.41015625 -0.679687,0.41015625 V 3.984375e-4 C 27.097164,-0.02303906 27.284664,-0.02303906 27.683102,-0.02303906 c 0.140625,0 0.515625,0 0.960937,0.0234374975 V -0.28085156 c -0.585937,0 -0.621094,-0.046875 -0.621094,-0.38671875 z m 0.02344,-1.5585937 c 0,-0.2695313 -0.210938,-0.4921875 -0.480469,-0.4921875 -0.28125,0 -0.492187,0.234375 -0.492187,0.4921875 0,0.2578125 0.210937,0.4804687 0.492187,0.4804687 0.269531,0 0.480469,-0.2109375 0.480469,-0.4804687 z m 5.220703,3.609375 c 0,-1.171875 -0.925781,-2.109375 -2.027344,-2.109375 -1.148437,0 -2.050781,0.9609375 -2.050781,2.109375 0,1.12499999 0.9375,2.00390624 2.039062,2.00390624 1.136719,0 2.039063,-0.90234375 2.039063,-2.00390624 z m -2.027344,1.75781249 c -0.457031,0 -0.832031,-0.22265625 -1.03125,-0.57421875 C 29.974119,-1.1011641 29.9624,-1.5816328 29.9624,-1.9917891 c 0,-0.328125 0,-0.84375 0.222657,-1.2070312 0.269531,-0.4570313 0.714843,-0.5976563 1.042968,-0.5976563 0.503907,0 0.878907,0.2929688 1.054688,0.5976563 0.210937,0.375 0.210937,0.8320312 0.210937,1.2070312 0,0.328125 0,0.8554688 -0.222656,1.25390629 -0.246094,0.41015625 -0.65625,0.5859375 -1.03125,0.5859375 z M 35.20068,-2.3199141 c 0,-0.9492187 0.679687,-1.4179687 1.242187,-1.4179687 0.527344,0 0.644531,0.4335937 0.644531,0.9726562 v 2.07421879 c 0,0.41015625 -0.09375,0.41015625 -0.691406,0.41015625 V 3.984375e-4 C 36.817867,-0.02303906 36.993648,-0.02303906 37.415523,-0.02303906 c 0.433594,0 0.550782,0 1.019532,0.0234374975 V -0.28085156 c -0.457032,0 -0.679688,0 -0.679688,-0.26953125 V -2.2730391 c 0,-0.75 0,-1.0078125 -0.257812,-1.3242187 -0.199219,-0.2460938 -0.550782,-0.3632813 -0.996094,-0.3632813 -0.832031,0 -1.21875,0.6210938 -1.347656,0.8671875 v -0.8671875 l -1.300782,0.09375 v 0.28125 c 0.609375,0 0.691407,0.058594 0.691407,0.5039063 v 2.39062499 c 0,0.41015625 -0.105469,0.41015625 -0.691407,0.41015625 V 3.984375e-4 C 34.274898,-0.02303906 34.438961,-0.02303906 34.872555,-0.02303906 c 0.433593,0 0.550781,0 1.019531,0.0234374975 V -0.28085156 c -0.585938,0 -0.691406,0 -0.691406,-0.41015625 z m 11.891601,-3.7734375 h -5.027344 v 0.28125 h 0.210938 c 0.691406,0 0.703125,0.09375 0.703125,0.421875 v 4.68750004 c 0,0.328125 -0.01172,0.421875 -0.703125,0.421875 H 42.064937 V 3.984375e-4 C 42.463375,-0.02303906 43.025875,-0.02303906 43.436031,-0.02303906 c 0.363281,0 1.171875,0 1.488281,0.0234374975 V -0.28085156 h -0.28125 c -0.820312,0 -0.855468,-0.10546875 -0.855468,-0.43359375 V -2.9175703 h 0.808593 c 0.867188,0 0.960938,0.2929687 0.960938,1.0546875 h 0.257812 v -2.3789063 h -0.257812 c 0,0.7617188 -0.09375,1.0546875 -0.960938,1.0546875 h -0.808593 v -2.2617187 c 0,-0.3046875 0.01172,-0.3632813 0.433593,-0.3632813 h 1.136719 c 1.371094,0 1.59375,0.4921875 1.734375,1.734375 h 0.257813 z m 4.22168,4.1835938 c 0,-1.171875 -0.925781,-2.109375 -2.027344,-2.109375 -1.148437,0 -2.050781,0.9609375 -2.050781,2.109375 0,1.12499999 0.9375,2.00390624 2.039062,2.00390624 1.136719,0 2.039063,-0.90234375 2.039063,-2.00390624 z m -2.027344,1.75781249 c -0.457031,0 -0.832031,-0.22265625 -1.03125,-0.57421875 -0.234375,-0.37500004 -0.246094,-0.85546874 -0.246094,-1.26562504 0,-0.328125 0,-0.84375 0.222657,-1.2070312 0.269531,-0.4570313 0.714843,-0.5976563 1.042968,-0.5976563 0.503907,0 0.878907,0.2929688 1.054688,0.5976563 0.210937,0.375 0.210937,0.8320312 0.210937,1.2070312 0,0.328125 0,0.8554688 -0.222656,1.25390629 -0.246094,0.41015625 -0.65625,0.5859375 -1.03125,0.5859375 z m 3.890625,-1.89843749 c 0,-0.375 0.105469,-1.6875 1.125,-1.6875 v 0.011719 c -0.02344,0.011719 -0.164062,0.1171875 -0.164062,0.328125 0,0.2460938 0.1875,0.3984375 0.398437,0.3984375 0.1875,0 0.386719,-0.140625 0.386719,-0.4101562 0,-0.28125 -0.269531,-0.5507813 -0.667969,-0.5507813 -0.539062,0 -0.914062,0.375 -1.125,0.9257813 v -0.9257813 l -1.277344,0.09375 v 0.28125 c 0.609375,0 0.691407,0.058594 0.691407,0.5039063 v 2.39062499 c 0,0.41015625 -0.105469,0.41015625 -0.691407,0.41015625 V 3.984375e-4 c 0.46875,-0.0234374975 0.585938,-0.0234374975 1.042969,-0.0234374975 0.363281,0 0.574219,0 1.148438,0.0234374975 V -0.28085156 h -0.1875 c -0.65625,0 -0.679688,-0.09375 -0.679688,-0.421875 z m 7.719727,-0.9492188 c 0.199218,-0.5390625 0.5625,-0.5742187 0.761718,-0.5859375 v -0.28125 c -0.363281,0.035156 -0.386718,0.035156 -0.679687,0.035156 -0.339844,0 -0.46875,0 -0.820313,-0.035156 v 0.28125 c 0.386719,0.011719 0.503907,0.2460938 0.503907,0.4335938 0,0.082031 -0.01172,0.140625 -0.03516,0.1992187 l -0.832031,2.25000004 -0.902344,-2.46093754 c -0.04687,-0.1171875 -0.04687,-0.140625 -0.04687,-0.1757812 0,-0.2226563 0.28125,-0.2460938 0.515625,-0.2460938 v -0.28125 c -0.410156,0.035156 -0.785156,0.035156 -0.925781,0.035156 -0.28125,0 -0.539062,0 -0.820312,-0.035156 v 0.28125 c 0.28125,0 0.457031,0.011719 0.5625,0.1289063 0.08203,0.1054687 0.199218,0.4570312 0.199218,0.4921875 0,0.011719 -0.04687,0.1171875 -0.04687,0.1171875 l -0.738281,2.02734374 -0.855469,-2.33203124 c -0.04687,-0.140625 -0.04687,-0.1523438 -0.04687,-0.1875 0,-0.2460938 0.351563,-0.2460938 0.515625,-0.2460938 v -0.28125 c -0.410156,0.023437 -0.621093,0.035156 -0.972656,0.035156 -0.304687,0 -0.5625,0 -0.867187,-0.035156 v 0.28125 c 0.433593,0 0.550781,0.023437 0.65625,0.328125 l 1.160156,3.16406254 c 0.04687,0.10546875 0.07031,0.1875 0.199219,0.1875 0.140625,0 0.175781,-0.0937500025 0.210937,-0.1875 l 0.914063,-2.50781254 0.925781,2.50781254 c 0.03516,0.0937499975 0.07031,0.1875 0.199219,0.1875 0.140625,0 0.164062,-0.08203125 0.199218,-0.17578125 z m 3.758789,2.35546879 c 0.03516,0.375 0.304687,0.703125 0.691406,0.703125 0.222656,0 0.785156,-0.140625 0.785156,-0.85546875 V -1.3003828 h -0.257812 v 0.49218749 c 0,0.10546875 0,0.55078125 -0.316406,0.55078125 -0.328125,0 -0.328125,-0.43359375 -0.328125,-0.57421875 V -2.4019453 c 0,-0.515625 0,-0.8203125 -0.398438,-1.1835938 -0.328125,-0.2929687 -0.761719,-0.4335937 -1.207031,-0.4335937 -0.761719,0 -1.382813,0.375 -1.382813,0.9492187 0,0.28125 0.1875,0.4335938 0.421875,0.4335938 0.234375,0 0.410157,-0.1757813 0.410157,-0.4101563 0,-0.3867187 -0.398438,-0.4335937 -0.398438,-0.4335937 0.234375,-0.234375 0.667969,-0.3164063 0.925781,-0.3164063 0.457032,0 0.972657,0.3398438 0.972657,1.1367188 v 0.2929687 c -0.492188,0.023437 -1.160157,0.058594 -1.757813,0.3515625 -0.644531,0.3164063 -0.84375,0.7734375 -0.84375,1.13671879 0,0.73828125 0.867188,0.97265625 1.464844,0.97265625 0.75,0 1.089844,-0.4921875 1.21875,-0.73828125 z m -0.08203,-0.62109379 c 0,0.86718754 -0.679688,1.13671879 -1.066407,1.13671879 -0.421875,0 -0.820312,-0.3046875 -0.820312,-0.75 0,-0.58593749 0.515625,-1.21874999 1.886719,-1.27734379 z m 3.213867,-0.7851562 c 0,-0.375 0.105468,-1.6875 1.125,-1.6875 v 0.011719 c -0.02344,0.011719 -0.164063,0.1171875 -0.164063,0.328125 0,0.2460938 0.1875,0.3984375 0.398438,0.3984375 0.1875,0 0.386718,-0.140625 0.386718,-0.4101562 0,-0.28125 -0.269531,-0.5507813 -0.667968,-0.5507813 -0.539063,0 -0.914063,0.375 -1.125,0.9257813 v -0.9257813 l -1.277344,0.09375 v 0.28125 c 0.609375,0 0.691406,0.058594 0.691406,0.5039063 v 2.39062499 c 0,0.41015625 -0.105469,0.41015625 -0.691406,0.41015625 V 3.984375e-4 c 0.46875,-0.0234374975 0.585937,-0.0234374975 1.042969,-0.0234374975 0.363281,0 0.574218,0 1.148437,0.0234374975 V -0.28085156 h -0.1875 c -0.65625,0 -0.679687,-0.09375 -0.679687,-0.421875 z m 5.501953,0.9726562 c 0,0.16406254 0,0.18750004 -0.140625,0.37500004 -0.28125,0.41015625 -0.691406,0.57421875 -1.042969,0.57421875 -0.386719,0 -0.75,-0.2109375 -0.984375,-0.5859375 -0.234375,-0.38671879 -0.246094,-0.91406249 -0.246094,-1.20703129 0,-0.421875 0.04687,-0.890625 0.28125,-1.2539062 0.199219,-0.28125 0.5625,-0.5625 1.042969,-0.5625 0.375,0 0.738281,0.1875 0.972656,0.5273437 0.117188,0.140625 0.117188,0.1523438 0.117188,0.328125 z m 0.02344,-2.3554687 c -0.04687,-0.058594 -0.445312,-0.5273438 -1.148437,-0.5273438 -1.101563,0 -2.0625,0.8789063 -2.0625,2.0390625 0,1.11328129 0.902344,2.01562504 1.96875,2.01562504 0.644531,0 1.054687,-0.375 1.21875,-0.57421875 V 0.09414844 L 74.637203,3.984375e-4 V -0.28085156 c -0.609375,0 -0.691406,-0.0585938 -0.691406,-0.50390625 V -6.2222578 l -1.324219,0.1054687 v 0.2695313 c 0.609375,0 0.691406,0.070312 0.691406,0.5039062 z m 8.25293,0.6210937 c 1.253906,0 2.167969,-0.7851562 2.167969,-1.640625 0,-0.890625 -0.914063,-1.6640625 -2.167969,-1.6640625 h -3.210937 v 0.2695313 h 0.199218 c 0.691407,0 0.714844,0.1054687 0.714844,0.4335937 v 4.71093754 c 0,0.328125 -0.02344,0.421875 -0.714844,0.421875 H 78.354977 V 3.984375e-4 c 0.398437,-0.0234374975 0.902343,-0.0234374975 1.3125,-0.0234374975 0.410156,0 0.914062,0 1.324218,0.0234374975 V -0.28085156 h -0.210937 c -0.691406,0 -0.714844,-0.09375 -0.714844,-0.421875 V -2.8121016 Z m -1.523437,-2.6601562 c 0,-0.3046875 0.02344,-0.375 0.445312,-0.375 h 0.855469 c 1.476562,0 1.476562,0.984375 1.476562,1.3945312 0,0.3984375 0,1.3828125 -1.488281,1.3828125 h -1.289062 z m 7.03125,4.82812499 c 0.03516,0.375 0.304687,0.703125 0.691406,0.703125 0.222656,0 0.785156,-0.140625 0.785156,-0.85546875 V -1.3003828 h -0.257812 v 0.49218749 c 0,0.10546875 0,0.55078125 -0.316407,0.55078125 -0.328125,0 -0.328125,-0.43359375 -0.328125,-0.57421875 V -2.4019453 c 0,-0.515625 0,-0.8203125 -0.398437,-1.1835938 -0.328125,-0.2929687 -0.761719,-0.4335937 -1.207031,-0.4335937 -0.761719,0 -1.382813,0.375 -1.382813,0.9492187 0,0.28125 0.1875,0.4335938 0.421875,0.4335938 0.234375,0 0.410156,-0.1757813 0.410156,-0.4101563 0,-0.3867187 -0.398437,-0.4335937 -0.398437,-0.4335937 0.234375,-0.234375 0.667969,-0.3164063 0.925781,-0.3164063 0.457031,0 0.972656,0.3398438 0.972656,1.1367188 v 0.2929687 c -0.492187,0.023437 -1.160156,0.058594 -1.757812,0.3515625 -0.644531,0.3164063 -0.84375,0.7734375 -0.84375,1.13671879 0,0.73828125 0.867187,0.97265625 1.464844,0.97265625 0.75,0 1.089843,-0.4921875 1.21875,-0.73828125 z m -0.08203,-0.62109379 c 0,0.86718754 -0.679687,1.13671879 -1.066406,1.13671879 -0.421875,0 -0.820312,-0.3046875 -0.820312,-0.75 0,-0.58593749 0.515625,-1.21874999 1.886718,-1.27734379 z m 4.702149,-2.5195312 c 0,-0.1523438 0,-0.234375 -0.105469,-0.234375 -0.04687,0 -0.05859,0 -0.175781,0.1054687 -0.02344,0.023437 -0.105469,0.1054688 -0.152344,0.1523438 -0.28125,-0.1992188 -0.5625,-0.2578125 -0.867188,-0.2578125 -1.183593,0 -1.476562,0.65625 -1.476562,1.1132812 0,0.2929688 0.128906,0.5273438 0.328125,0.7148438 0.304687,0.28125 0.644531,0.3398437 1.101562,0.421875 0.457032,0.09375 0.609375,0.1171875 0.808594,0.2695312 0.09375,0.070312 0.316406,0.2460938 0.316406,0.58593754 0,0.78515625 -0.902343,0.78515625 -1.03125,0.78515625 -0.914062,0 -1.148437,-0.76171875 -1.253906,-1.24218749 -0.02344,-0.09375 -0.03516,-0.140625 -0.140625,-0.140625 -0.128906,0 -0.128906,0.070312 -0.128906,0.234375 v 1.14843749 c 0,0.15234375 0,0.22265625 0.105469,0.22265625 0.05859,0 0.07031,0 0.222656,-0.17578125 0.03516,-0.046875 0.140625,-0.1640625 0.1875,-0.2109375 0.375,0.36328125 0.785156,0.38671875 1.007812,0.38671875 1.101563,0 1.488282,-0.64453125 1.488282,-1.24218754 0,-0.3984375 -0.175782,-0.6445312 -0.375,-0.8554687 -0.304688,-0.2929688 -0.632813,-0.3515625 -1.289063,-0.4804688 -0.234375,-0.046875 -0.890625,-0.1640625 -0.890625,-0.6679687 0,-0.2929688 0.210938,-0.6679688 1.019531,-0.6679688 0.972657,0 1.03125,0.75 1.054688,0.9726563 0.01172,0.1054687 0.01172,0.1640625 0.117187,0.1640625 0.128907,0 0.128907,-0.070312 0.128907,-0.234375 z m 3.635742,0 c 0,-0.1523438 0,-0.234375 -0.105469,-0.234375 -0.04687,0 -0.05859,0 -0.175781,0.1054687 -0.02344,0.023437 -0.105469,0.1054688 -0.152344,0.1523438 -0.28125,-0.1992188 -0.5625,-0.2578125 -0.867187,-0.2578125 -1.183594,0 -1.476563,0.65625 -1.476563,1.1132812 0,0.2929688 0.128906,0.5273438 0.328125,0.7148438 0.304688,0.28125 0.644531,0.3398437 1.101563,0.421875 0.457031,0.09375 0.609375,0.1171875 0.808593,0.2695312 0.09375,0.070312 0.316407,0.2460938 0.316407,0.58593754 0,0.78515625 -0.902344,0.78515625 -1.03125,0.78515625 -0.914063,0 -1.148438,-0.76171875 -1.253907,-1.24218749 -0.02344,-0.09375 -0.03516,-0.140625 -0.140625,-0.140625 -0.128906,0 -0.128906,0.070312 -0.128906,0.234375 v 1.14843749 c 0,0.15234375 0,0.22265625 0.105469,0.22265625 0.05859,0 0.07031,0 0.222656,-0.17578125 0.03516,-0.046875 0.140625,-0.1640625 0.1875,-0.2109375 0.375,0.36328125 0.785156,0.38671875 1.007813,0.38671875 1.101562,0 1.488281,-0.64453125 1.488281,-1.24218754 0,-0.3984375 -0.175781,-0.6445312 -0.375,-0.8554687 -0.304688,-0.2929688 -0.632813,-0.3515625 -1.289063,-0.4804688 -0.234375,-0.046875 -0.890625,-0.1640625 -0.890625,-0.6679687 0,-0.2929688 0.210938,-0.6679688 1.019532,-0.6679688 0.972656,0 1.03125,0.75 1.054687,0.9726563 0.01172,0.1054687 0.01172,0.1640625 0.117188,0.1640625 0.128906,0 0.128906,-0.070312 0.128906,-0.234375 z m 0,0"
       style="fill:#000000;fill-opacity:1;fill-rule:nonzero;stroke:none"
       aria-label="AttentionForwardPass"
       transform="matrix(1.3333333,0,0,1.3333333,56.194667,197.144)" />
    <path
       id="path38"
       d="M 11.88849,-3.68118 70.91252,-21.95746"
       style="fill:none;stroke:#000000;stroke-width:0.79701;stroke-linecap:butt;stroke-linejoin:miter;stroke-miterlimit:10;stroke-dasharray:none;stroke-opacity:1"
       transform="matrix(1.3333333,0,0,-1.3333333,286.108,35.596)" />
    <path
       id="path39"
       d="M 4.66248,0 C 3.28098,0.25902 1.0361,1.0361 -0.51805,1.94269 V -1.94269 C 1.0361,-1.0361 3.28098,-0.25902 4.66248,0"
       style="fill:#000000;fill-opacity:1;fill-rule:nonzero;stroke:none"
       transform="matrix(1.2736267,0.39437333,0.39437333,-1.2736267,380.658,64.872613)" />
    <path
       id="path40"
       d="m 12.26831,-39.80782 58.1221,9.91399"
       style="fill:none;stroke:#000000;stroke-width:0.79701;stroke-linecap:butt;stroke-linejoin:miter;stroke-miterlimit:10;stroke-dasharray:none;stroke-opacity:1"
       transform="matrix(1.3333333,0,0,-1.3333333,286.108,35.596)" />
    <path
       id="path41"
       d="M 4.66248,0 C 3.28098,0.25902 1.0361,1.0361 -0.51805,1.94269 V -1.94269 C 1.0361,-1.0361 3.28098,-0.25902 4.66248,0"
       style="fill:#000000;fill-opacity:1;fill-rule:nonzero;stroke:none"
       transform="matrix(1.3143067,-0.22418667,-0.22418667,-1.3143067,379.96187,75.454453)" />
    <path
       id="path42"
       d="M 11.88849,-72.59892 70.91252,-90.8752"
       style="fill:none;stroke:#000000;stroke-width:0.79701;stroke-linecap:butt;stroke-linejoin:miter;stroke-miterlimit:10;stroke-dasharray:none;stroke-opacity:1"
       transform="matrix(1.3333333,0,0,-1.3333333,286.108,35.596)" />
    <path
       id="path43"
       d="M 4.66248,0 C 3.28098,0.25902 1.0361,1.0361 -0.51805,1.94269 V -1.94269 C 1.0361,-1.0361 3.28098,-0.25902 4.66248,0"
       style="fill:#000000;fill-opacity:1;fill-rule:nonzero;stroke:none"
       transform="matrix(1.2736267,0.39437333,0.39437333,-1.2736267,380.658,156.76293)" />
    <path
       id="path44"
       d="M 12.44588,-95.93544 H 70.14632"
       style="fill:none;stroke:#000000;stroke-width:0.79701;stroke-linecap:butt;stroke-linejoin:miter;stroke-miterlimit:10;stroke-dasharray:none;stroke-opacity:1"
       transform="matrix(1.3333333,0,0,-1.3333333,286.108,35.596)" />
    <path
       id="path45"
       d="M 4.66248,0 C 3.28098,0.25902 1.0361,1.0361 -0.51805,1.94269 V -1.94269 C 1.0361,-1.0361 3.28098,-0.25902 4.66248,0"
       style="fill:#000000;fill-opacity:1;fill-rule:nonzero;stroke:none"
       transform="matrix(1.3333333,0,0,-1.3333333,379.63643,163.50992)" />
    <path
       id="path46"
       d="M 99.29967,-3.13026 157.9521,-18.3746"
       style="fill:none;stroke:#ff0000;stroke-width:0.79701;stroke-linecap:butt;stroke-linejoin:miter;stroke-miterlimit:10;stroke-dasharray:none;stroke-opacity:1"
       transform="matrix(1.3333333,0,0,-1.3333333,286.108,35.596)" />
    <path
       id="path47"
       d="M 4.66248,0 C 3.28098,0.25902 1.0361,1.0361 -0.51805,1.94269 V -1.94269 C 1.0361,-1.0361 3.28098,-0.25902 4.66248,0"
       style="fill:#ff0000;fill-opacity:1;fill-rule:nonzero;stroke:none"
       transform="matrix(1.2903867,0.33534667,0.33534667,-1.2903867,496.71079,60.095453)" />
    <path
       id="path48"
       d="m 99.68462,-26.39955 57.73834,2.87231"
       style="fill:none;stroke:#ff0000;stroke-width:0.79701;stroke-linecap:butt;stroke-linejoin:miter;stroke-miterlimit:10;stroke-dasharray:none;stroke-opacity:1"
       transform="matrix(1.3333333,0,0,-1.3333333,286.108,35.596)" />
    <path
       id="path49"
       d="M 4.66248,0 C 3.28098,0.25902 1.0361,1.0361 -0.51805,1.94269 V -1.94269 C 1.0361,-1.0361 3.28098,-0.25902 4.66248,0"
       style="fill:#ff0000;fill-opacity:1;fill-rule:nonzero;stroke:none"
       transform="matrix(1.3316267,-0.06622667,-0.06622667,-1.3316267,496.00525,66.965653)" />
    <path
       id="path50"
       d="m 99.06247,-30.94957 59.21568,-19.71896"
       style="fill:none;stroke:#ff0000;stroke-width:0.79701;stroke-linecap:butt;stroke-linejoin:miter;stroke-miterlimit:10;stroke-dasharray:none;stroke-opacity:1"
       transform="matrix(1.3333333,0,0,-1.3333333,286.108,35.596)" />
    <path
       id="path51"
       d="M 4.66248,0 C 3.28098,0.25902 1.0361,1.0361 -0.51805,1.94269 V -1.94269 C 1.0361,-1.0361 3.28098,-0.25902 4.66248,0"
       style="fill:#ff0000;fill-opacity:1;fill-rule:nonzero;stroke:none"
       transform="matrix(1.2649733,0.42124,0.42124,-1.2649733,497.14552,103.15404)" />
    <path
       id="path52"
       d="m 99.69658,-54.32594 57.70993,-1.34809"
       style="fill:none;stroke:#ff0000;stroke-width:0.79701;stroke-linecap:butt;stroke-linejoin:miter;stroke-miterlimit:10;stroke-dasharray:none;stroke-opacity:1"
       transform="matrix(1.3333333,0,0,-1.3333333,286.108,35.596)" />
    <path
       id="path53"
       d="M 4.66248,0 C 3.28098,0.25902 1.0361,1.0361 -0.51805,1.94269 V -1.94269 C 1.0361,-1.0361 3.28098,-0.25902 4.66248,0"
       style="fill:#ff0000;fill-opacity:1;fill-rule:nonzero;stroke:none"
       transform="matrix(1.3329067,0.03113333,0.03113333,-1.3329067,495.98335,109.82804)" />
    <path
       id="path54"
       d="M 11.88849,-45.58122 158.1672,-90.8752"
       style="fill:none;stroke:#000000;stroke-width:0.79701;stroke-linecap:butt;stroke-linejoin:miter;stroke-miterlimit:10;stroke-dasharray:none;stroke-opacity:1"
       transform="matrix(1.3333333,0,0,-1.3333333,286.108,35.596)" />
    <path
       id="path55"
       d="M 4.66248,0 C 3.28098,0.25902 1.0361,1.0361 -0.51805,1.94269 V -1.94269 C 1.0361,-1.0361 3.28098,-0.25902 4.66248,0"
       style="fill:#000000;fill-opacity:1;fill-rule:nonzero;stroke:none"
       transform="matrix(1.2736267,0.39437333,0.39437333,-1.2736267,496.99759,156.76293)" />
    <path
       id="path56"
       d="M 99.70058,-95.93544 H 157.401"
       style="fill:none;stroke:#000000;stroke-width:0.79701;stroke-linecap:butt;stroke-linejoin:miter;stroke-miterlimit:10;stroke-dasharray:none;stroke-opacity:1"
       transform="matrix(1.3333333,0,0,-1.3333333,286.108,35.596)" />
    <path
       id="path57"
       d="M 4.66248,0 C 3.28098,0.25902 1.0361,1.0361 -0.51805,1.94269 V -1.94269 C 1.0361,-1.0361 3.28098,-0.25902 4.66248,0"
       style="fill:#000000;fill-opacity:1;fill-rule:nonzero;stroke:none"
       transform="matrix(1.3333333,0,0,-1.3333333,495.976,163.50992)" />
    <path
       id="path58"
       d="m -175.75612,-19.7927 32.93871,-7.5616"
       style="fill:none;stroke:#ff0000;stroke-width:0.79701;stroke-linecap:butt;stroke-linejoin:miter;stroke-miterlimit:10;stroke-dasharray:none;stroke-opacity:1"
       transform="matrix(1.3333333,0,0,-1.3333333,286.108,35.596)" />
    <path
       id="path59"
       d="M 4.66248,0 C 3.28098,0.25902 1.0361,1.0361 -0.51805,1.94269 V -1.94269 C 1.0361,-1.0361 3.28098,-0.25902 4.66248,0"
       style="fill:#ff0000;fill-opacity:1;fill-rule:nonzero;stroke:none"
       transform="matrix(1.29948,0.29829333,0.29829333,-1.29948,95.68476,72.0684)" />
    <path
       id="path60"
       d="m -175.85715,-44.37656 33.17862,8.80648"
       style="fill:none;stroke:#ff0000;stroke-width:0.79701;stroke-linecap:butt;stroke-linejoin:miter;stroke-miterlimit:10;stroke-dasharray:none;stroke-opacity:1"
       transform="matrix(1.3333333,0,0,-1.3333333,286.108,35.596)" />
    <path
       id="path61"
       d="M 4.66248,0 C 3.28098,0.25902 1.0361,1.0361 -0.51805,1.94269 V -1.94269 C 1.0361,-1.0361 3.28098,-0.25902 4.66248,0"
       style="fill:#ff0000;fill-opacity:1;fill-rule:nonzero;stroke:none"
       transform="matrix(1.2886533,-0.34204,-0.34204,-1.2886533,95.869947,83.022773)" />
    <path
       id="path62"
       d="m -175.85715,-74.9376 94.92136,25.19412"
       style="fill:none;stroke:#000000;stroke-width:0.79701;stroke-linecap:butt;stroke-linejoin:miter;stroke-miterlimit:10;stroke-dasharray:none;stroke-opacity:1"
       transform="matrix(1.3333333,0,0,-1.3333333,286.108,35.596)" />
    <path
       id="path63"
       d="M 4.66248,0 C 3.28098,0.25902 1.0361,1.0361 -0.51805,1.94269 V -1.94269 C 1.0361,-1.0361 3.28098,-0.25902 4.66248,0"
       style="fill:#000000;fill-opacity:1;fill-rule:nonzero;stroke:none"
       transform="matrix(1.2886533,-0.34204,-0.34204,-1.2886533,178.1936,101.92064)" />
    <path
       id="path64"
       d="m -114.01338,-33.9661 32.9387,-7.5616"
       style="fill:none;stroke:#000000;stroke-width:0.79701;stroke-linecap:butt;stroke-linejoin:miter;stroke-miterlimit:10;stroke-dasharray:none;stroke-opacity:1"
       transform="matrix(1.3333333,0,0,-1.3333333,286.108,35.596)" />
    <path
       id="path65"
       d="M 4.66248,0 C 3.28098,0.25902 1.0361,1.0361 -0.51805,1.94269 V -1.94269 C 1.0361,-1.0361 3.28098,-0.25902 4.66248,0"
       style="fill:#000000;fill-opacity:1;fill-rule:nonzero;stroke:none"
       transform="matrix(1.29948,0.29829333,0.29829333,-1.29948,178.00841,90.966267)" />
  </g>
</svg>
