<?xml version="1.0" encoding="UTF-8" standalone="no"?>
<!-- Created with Inkscape (http://www.inkscape.org/) -->

<svg
   version="1.1"
   id="svg1"
   width="542.94269"
   height="209.66667"
   viewBox="0 0 542.94269 209.66667"
   xmlns="http://www.w3.org/2000/svg"
   xmlns:svg="http://www.w3.org/2000/svg">
  <defs
     id="defs1" />
  <g
     id="g1">
    <path
       id="path1"
       d="M 12.04738,0 C 12.04738,6.65366 6.65366,12.04738 0,12.04738 -6.65366,12.04738 -12.04738,6.65366 -12.04738,0 c 0,-6.65366 5.39372,-12.04738 12.04738,-12.04738 6.65366,0 12.04738,5.39372 12.04738,12.04738 z"
       style="fill:#ccffcc;fill-opacity:1;fill-rule:nonzero;stroke:#00b300;stroke-width:0.79701;stroke-linecap:butt;stroke-linejoin:miter;stroke-miterlimit:10;stroke-dasharray:none;stroke-opacity:1"
       transform="matrix(1.3333333,0,0,-1.3333333,280.38933,29.877333)" />
    <path
       id="path2"
       d="m 1.9208125,-5.4026406 c -0.035156,-0.1054688 -0.035156,-0.1640625 -0.035156,-0.1757813 0,-0.2695312 0.4570312,-0.2695312 0.7148437,-0.2695312 v -0.2695313 c -0.4101562,0.023437 -0.8671875,0.023437 -1.2773437,0.023437 -0.37500005,0 -0.5039063,-0.011719 -1.14843755,-0.023437 v 0.2695313 c 0.65625,0 0.76171875,0.035156 0.87890625,0.3515625 L 3.221594,-2.96875e-4 C 3.280188,0.12860938 3.303625,0.19892188 3.455969,0.19892188 c 0.140625,0 0.1640625,-0.0585938 0.2109375,-0.17578125 L 5.741125,-5.2502969 c 0.1875,-0.46875 0.5625,-0.5976562 0.984375,-0.5976562 v -0.2695313 c -0.3164062,0.023437 -0.5742187,0.023437 -0.8789062,0.023437 -0.3867188,0 -0.5625,-0.011719 -1.0078125,-0.023437 v 0.2695313 c 0.4453125,0.011719 0.6328125,0.2226562 0.6328125,0.4453125 0,0.082031 0,0.09375 -0.035156,0.1875 l -1.7226562,4.34765623 z m 0,0"
       style="fill:#000000;fill-opacity:1;fill-rule:nonzero;stroke:none"
       aria-label="V"
       transform="matrix(1.3333333,0,0,1.3333333,275.78267,33.961333)" />
    <path
       id="path3"
       d="m 12.04738,-41.90004 c 0,6.65367 -5.39372,12.04739 -12.04738,12.04739 -6.65366,0 -12.04738,-5.39372 -12.04738,-12.04739 0,-6.65366 5.39372,-12.04738 12.04738,-12.04738 6.65366,0 12.04738,5.39372 12.04738,12.04738 z"
       style="fill:#ffe6cc;fill-opacity:1;fill-rule:nonzero;stroke:#cc6600;stroke-width:0.79701;stroke-linecap:butt;stroke-linejoin:miter;stroke-miterlimit:10;stroke-dasharray:none;stroke-opacity:1"
       transform="matrix(1.3333333,0,0,-1.3333333,280.38933,29.877333)" />
    <path
       id="path4"
       d="m 3.4936016,-1.0782266 c 0,0.16406254 0,0.18750004 -0.140625,0.37500004 -0.28125,0.41015625 -0.6914063,0.57421875 -1.0429688,0.57421875 -0.3867187,0 -0.75,-0.2109375 -0.984375,-0.5859375 C 1.0912578,-1.1016641 1.0795391,-1.6290078 1.0795391,-1.9219766 c 0,-0.421875 0.046875,-0.890625 0.28125,-1.2539062 0.1992187,-0.28125 0.5625,-0.5625 1.0429687,-0.5625 0.375,0 0.7382813,0.1875 0.9726563,0.5273437 0.1171875,0.140625 0.1171875,0.1523438 0.1171875,0.328125 z m 0.023437,-2.3554687 c -0.046875,-0.058594 -0.4453125,-0.5273438 -1.1484375,-0.5273438 -1.1015625,0 -2.06250004,0.8789063 -2.06250004,2.0390625 0,1.11328129 0.90234374,2.01562504 1.96875004,2.01562504 0.6445312,0 1.0546875,-0.375 1.21875,-0.57421875 V 0.09364844 L 4.8412578,-1.015625e-4 V -0.28135156 c -0.609375,0 -0.6914062,-0.0585938 -0.6914062,-0.50390625 V -6.2227578 l -1.3242188,0.1054687 v 0.2695313 c 0.609375,0 0.6914063,0.070312 0.6914063,0.5039062 z m 8.2470694,0.3984375 c 0,-1.828125 -1.394531,-3.28125 -3.0703116,-3.28125 -1.6757813,0 -3.0585938,1.453125 -3.0585938,3.28125 0,1.8164062 1.3945313,3.23437499 3.0585938,3.23437499 1.6757806,0 3.0703116,-1.41796879 3.0703116,-3.23437499 z m -3.0703116,2.96484374 c -0.9023438,0 -2.1445313,-0.78515625 -2.1445313,-3.10546874 0,-2.1796875 1.2773438,-2.8945313 2.1445313,-2.8945313 0.8671875,0 2.1562496,0.7148438 2.1562496,2.8945313 0,2.32031249 -1.2539059,3.10546874 -2.1562496,3.10546874 z m 0,0"
       style="fill:#000000;fill-opacity:1;fill-rule:nonzero;stroke:none"
       aria-label="dO"
       transform="matrix(1.3333333,0,0,1.3333333,272.19733,89.894667)" />
    <path
       id="path5"
       d="m 12.04738,-68.91774 c 0,6.65367 -5.39372,12.04739 -12.04738,12.04739 -6.65366,0 -12.04738,-5.39372 -12.04738,-12.04739 0,-6.65366 5.39372,-12.04738 12.04738,-12.04738 6.65366,0 12.04738,5.39372 12.04738,12.04738 z"
       style="fill:#fbcce8;fill-opacity:1;fill-rule:nonzero;stroke:#ec008c;stroke-width:0.79701;stroke-linecap:butt;stroke-linejoin:miter;stroke-miterlimit:10;stroke-dasharray:none;stroke-opacity:1"
       transform="matrix(1.3333333,0,0,-1.3333333,280.38933,29.877333)" />
    <path
       id="path6"
       d="m 4.7685625,-0.05996875 c 0.9609375,-0.3984375 1.875,-1.49999995 1.875,-2.97656245 0,-1.828125 -1.3945312,-3.28125 -3.0703125,-3.28125 -1.6757812,0 -3.05859375,1.453125 -3.05859375,3.28125 0,1.8164062 1.39453125,3.23437495 3.05859375,3.23437495 0.3164063,0 0.65625,-0.0703125 0.8671875,-0.12890625 C 4.6045,0.9595625 4.745125,1.733 5.5771563,1.733 c 0.9257812,0 1.1132812,-1.1953125 1.1132812,-1.65234375 0,-0.08203125 0,-0.1875 -0.1054687,-0.1875 -0.070312,0 -0.1054688,0.046875 -0.1171875,0.09375 C 6.3974688,0.7720625 5.7880938,0.8189375 5.6474688,0.8189375 5.167,0.8189375 4.9795,0.43221875 4.7685625,-0.05996875 Z M 2.9287188,-0.17715625 C 2.0615313,-0.517 1.3935625,-1.4310625 1.3935625,-3.0365312 c 0,-2.2265625 1.2539063,-3.0351563 2.1796875,-3.0351563 0.9375,0 2.1796875,0.796875 2.1796875,3.0351563 0,1.1835937 -0.3515625,2.13281245 -1.125,2.64843745 -0.1875,-0.4453125 -0.4570312,-0.94921875 -1.0429687,-0.94921875 -0.4335938,0 -0.7617188,0.3515625 -0.7617188,0.76171875 0,0.2109375 0.09375,0.38671875 0.1054688,0.3984375 z m 1.4414062,-0.0703125 c -0.2578125,0.140625 -0.5625,0.1875 -0.796875,0.1875 -0.4335937,0 -0.5273437,-0.375 -0.5273437,-0.515625 0,-0.26953125 0.1992187,-0.53906245 0.5507812,-0.53906245 0.46875,0 0.65625,0.37499995 0.7734375,0.86718745 z m 0,0"
       style="fill:#000000;fill-opacity:1;fill-rule:nonzero;stroke:none"
       aria-label="Q"
       transform="matrix(1.3333333,0,0,1.3333333,275.61067,124.68933)" />
    <path
       id="path7"
       d="m 12.04738,-95.93544 c 0,6.65367 -5.39372,12.04739 -12.04738,12.04739 -6.65366,0 -12.04738,-5.39372 -12.04738,-12.04739 0,-6.65366 5.39372,-12.04738 12.04738,-12.04738 6.65366,0 12.04738,5.39372 12.04738,12.04738 z"
       style="fill:#ccccff;fill-opacity:1;fill-rule:nonzero;stroke:#0000ff;stroke-width:0.79701;stroke-linecap:butt;stroke-linejoin:miter;stroke-miterlimit:10;stroke-dasharray:none;stroke-opacity:1"
       transform="matrix(1.3333333,0,0,-1.3333333,280.38933,29.877333)" />
    <path
       id="path8"
       d="m 5.3681484,-5.296625 c 0.5625,-0.5273437 1.125,-0.5390625 1.2773438,-0.5507812 V -6.1169375 C 6.3876797,-6.0935 5.9306484,-6.0935 5.8486172,-6.0935 c -0.375,0 -0.7148438,-0.011719 -1.1132813,-0.023437 v 0.2695313 c 0.2460938,0.011719 0.3867188,0.1289062 0.3867188,0.2929687 0,0.082031 -0.023437,0.1523438 -0.070312,0.2109375 l -2.9882813,2.765625 V -5.413812 c 0,-0.328125 0.011719,-0.4335937 0.703125,-0.4335937 h 0.210937 V -6.1169375 C 2.5790859,-6.0935 2.0751797,-6.0935 1.6650234,-6.0935 c -0.421875,0 -0.92578121,0 -1.32421871,-0.023437 v 0.2695313 h 0.2109375 c 0.69140621,0 0.70312501,0.1054687 0.70312501,0.4335937 v 4.7109375 c 0,0.328125 -0.011719,0.421875 -0.70312501,0.421875 H 0.34080469 V 2.5e-4 c 0.3984375,-0.0234375 0.90234371,-0.0234375 1.32421871,-0.0234375 0.4101563,0 0.9140625,0 1.3125,0.0234375 V -0.281 H 2.7665859 c -0.6914062,0 -0.703125,-0.09375 -0.703125,-0.421875 v -1.5351562 l 1.0898438,-1.0195313 1.6757812,2.390625 c 0.070312,0.09375 0.1523438,0.234375 0.1523438,0.328125 C 4.9814297,-0.281 4.6415859,-0.281 4.4775234,-0.281 V 2.5e-4 c 0.3867188,-0.0234375 0.84375,-0.0234375 1.2421875,-0.0234375 0.234375,0 0.5976563,0 1.0546875,0.0234375 V -0.281 c -0.5742187,0 -0.6914062,-0.0820313 -0.984375,-0.4921875 L 3.6923672,-3.74975 Z m 0,0"
       style="fill:#000000;fill-opacity:1;fill-rule:nonzero;stroke:none"
       aria-label="K"
       transform="matrix(1.3333333,0,0,1.3333333,275.612,161.87467)" />
    <path
       id="path9"
       d="m -175.83861,-17.00826 c 0,6.65366 -5.39372,12.04738 -12.04738,12.04738 -6.65365,0 -12.04737,-5.39372 -12.04737,-12.04738 0,-6.65365 5.39372,-12.04737 12.04737,-12.04737 6.65366,0 12.04738,5.39372 12.04738,12.04737 z"
       style="fill:#ccccff;fill-opacity:1;fill-rule:nonzero;stroke:#0000ff;stroke-width:0.79701;stroke-linecap:butt;stroke-linejoin:miter;stroke-miterlimit:10;stroke-dasharray:none;stroke-opacity:1"
       transform="matrix(1.3333333,0,0,-1.3333333,280.38933,29.877333)" />
    <path
       id="path10"
       d="m 5.3683594,-5.2983359 c 0.5625,-0.5273438 1.125,-0.5390625 1.2773437,-0.5507813 v -0.2695312 c -0.2578125,0.023437 -0.7148437,0.023437 -0.796875,0.023437 -0.375,0 -0.7148437,-0.011719 -1.1132812,-0.023437 v 0.2695312 c 0.2460937,0.011719 0.3867187,0.1289063 0.3867187,0.2929688 0,0.082031 -0.023437,0.1523437 -0.070312,0.2109375 l -2.9882812,2.765625 v -2.8359375 c 0,-0.328125 0.011719,-0.4335938 0.703125,-0.4335938 h 0.2109375 v -0.2695312 c -0.3984375,0.023437 -0.9023438,0.023437 -1.3125,0.023437 -0.421875,0 -0.92578127,0 -1.32421877,-0.023437 v 0.2695312 h 0.2109375 c 0.69140627,0 0.70312497,0.1054688 0.70312497,0.4335938 v 4.71093746 c 0,0.328125 -0.011719,0.421875 -0.70312497,0.421875 h -0.2109375 v 0.28125 c 0.3984375,-0.0234375 0.90234377,-0.0234375 1.32421877,-0.0234375 0.4101562,0 0.9140625,0 1.3125,0.0234375 v -0.28125 h -0.210938 c -0.6914063,0 -0.703125,-0.09375 -0.703125,-0.421875 V -2.2397422 l 1.0898437,-1.0195312 1.6757813,2.39062496 c 0.070312,0.09375 0.1523437,0.234375 0.1523437,0.328125 0,0.2578125 -0.3398437,0.2578125 -0.5039062,0.2578125 v 0.28125 c 0.3867187,-0.0234375 0.84375,-0.0234375 1.2421875,-0.0234375 0.234375,0 0.5976562,0 1.0546875,0.0234375 v -0.28125 c -0.5742188,0 -0.6914063,-0.0820313 -0.984375,-0.4921875 L 3.6925781,-3.7514609 Z m 0,0"
       style="fill:#000000;fill-opacity:1;fill-rule:nonzero;stroke:none"
       aria-label="K"
       transform="matrix(1.3333333,0,0,1.3333333,25.1,56.638667)" />
    <path
       id="path11"
       d="m -175.83861,-47.5693 c 0,6.65365 -5.39372,12.04737 -12.04738,12.04737 -6.65365,0 -12.04737,-5.39372 -12.04737,-12.04737 0,-6.65368 5.39372,-12.0474 12.04737,-12.0474 6.65366,0 12.04738,5.39372 12.04738,12.0474 z"
       style="fill:#fbcce8;fill-opacity:1;fill-rule:nonzero;stroke:#ec008c;stroke-width:0.79701;stroke-linecap:butt;stroke-linejoin:miter;stroke-miterlimit:10;stroke-dasharray:none;stroke-opacity:1"
       transform="matrix(1.3333333,0,0,-1.3333333,280.38933,29.877333)" />
    <path
       id="path12"
       d="m 4.7707031,-0.05960156 c 0.9609375,-0.3984375 1.875,-1.50000004 1.875,-2.97656254 0,-1.828125 -1.3945312,-3.28125 -3.0703125,-3.28125 -1.6757812,0 -3.05859372,1.453125 -3.05859372,3.28125 0,1.8164063 1.39453122,3.23437504 3.05859372,3.23437504 0.3164063,0 0.65625,-0.0703125 0.8671875,-0.12890625 0.1640625,0.890625 0.3046875,1.66406251 1.1367188,1.66406251 0.9257812,0 1.1132812,-1.19531251 1.1132812,-1.65234376 0,-0.08203125 0,-0.1875 -0.1054687,-0.1875 -0.070312,0 -0.1054688,0.046875 -0.1171875,0.09375 -0.070312,0.78515625 -0.6796875,0.83203125 -0.8203125,0.83203125 -0.4804688,0 -0.6679688,-0.38671875 -0.8789063,-0.87890625 z M 2.9308594,-0.17678906 C 2.0636719,-0.51663281 1.3957031,-1.4306953 1.3957031,-3.0361641 c 0,-2.2265625 1.2539063,-3.0351562 2.1796875,-3.0351562 0.9375,0 2.1796875,0.796875 2.1796875,3.0351562 0,1.1835938 -0.3515625,2.13281254 -1.125,2.64843754 -0.1875,-0.4453125 -0.4570312,-0.94921874 -1.0429687,-0.94921874 -0.4335938,0 -0.7617188,0.35156249 -0.7617188,0.76171874 0,0.2109375 0.09375,0.38671875 0.1054688,0.3984375 z m 1.4414062,-0.0703125 c -0.2578125,0.140625 -0.5625,0.1875 -0.796875,0.1875 -0.4335937,0 -0.5273437,-0.375 -0.5273437,-0.515625 0,-0.26953125 0.1992187,-0.53906254 0.5507812,-0.53906254 0.46875,0 0.65625,0.37500004 0.7734375,0.86718754 z m 0,0"
       style="fill:#000000;fill-opacity:1;fill-rule:nonzero;stroke:none"
       aria-label="Q"
       transform="matrix(1.3333333,0,0,1.3333333,25.1,96.224)" />
    <path
       id="path13"
       d="m -175.83861,-78.13036 c 0,6.65366 -5.39372,12.04738 -12.04738,12.04738 -6.65365,0 -12.04737,-5.39372 -12.04737,-12.04738 0,-6.65367 5.39372,-12.04739 12.04737,-12.04739 6.65366,0 12.04738,5.39372 12.04738,12.04739 z"
       style="fill:#ccffcc;fill-opacity:1;fill-rule:nonzero;stroke:#00b300;stroke-width:0.79701;stroke-linecap:butt;stroke-linejoin:miter;stroke-miterlimit:10;stroke-dasharray:none;stroke-opacity:1"
       transform="matrix(1.3333333,0,0,-1.3333333,280.38933,29.877333)" />
    <path
       id="path14"
       d="m 1.9210234,-5.4037344 c -0.035156,-0.1054687 -0.035156,-0.1640625 -0.035156,-0.1757812 0,-0.2695313 0.4570312,-0.2695313 0.7148437,-0.2695313 v -0.2695312 c -0.4101562,0.023437 -0.8671875,0.023437 -1.2773437,0.023437 -0.37500001,0 -0.50390626,-0.011719 -1.14843751,-0.023437 v 0.2695312 c 0.65625,0 0.76171875,0.035156 0.87890621,0.3515625 l 2.1679688,5.49609378 c 0.058594,0.12890625 0.082031,0.19921875 0.234375,0.19921875 0.140625,0 0.1640625,-0.0585938 0.2109375,-0.17578125 L 5.7413359,-5.2513906 c 0.1875,-0.46875 0.5625,-0.5976563 0.984375,-0.5976563 v -0.2695312 c -0.3164062,0.023437 -0.5742187,0.023437 -0.8789062,0.023437 -0.3867188,0 -0.5625,-0.011719 -1.0078125,-0.023437 v 0.2695312 c 0.4453125,0.011719 0.6328125,0.2226563 0.6328125,0.4453125 0,0.082031 0,0.09375 -0.035156,0.1875 l -1.7226562,4.34765628 z m 0,0"
       style="fill:#000000;fill-opacity:1;fill-rule:nonzero;stroke:none"
       aria-label="V"
       transform="matrix(1.3333333,0,0,1.3333333,25.270667,138.13467)" />
    <path
       id="path15"
       d="m -114.09587,-31.18166 c 0,6.65368 -5.39373,12.0474 -12.04739,12.0474 -6.65366,0 -12.04738,-5.39372 -12.04738,-12.0474 0,-6.65365 5.39372,-12.04737 12.04738,-12.04737 6.65366,0 12.04739,5.39372 12.04739,12.04737 z"
       style="fill:#ffffff;fill-opacity:1;fill-rule:nonzero;stroke:#000000;stroke-width:0.79701;stroke-linecap:butt;stroke-linejoin:miter;stroke-miterlimit:10;stroke-dasharray:none;stroke-opacity:1"
       transform="matrix(1.3333333,0,0,-1.3333333,280.38933,29.877333)" />
    <path
       id="path16"
       d="m 3.5738672,-2.8112031 c 1.2539062,0 2.1679687,-0.7851563 2.1679687,-1.640625 0,-0.890625 -0.9140625,-1.6640625 -2.1679687,-1.6640625 H 0.36292969 v 0.2695312 h 0.19921875 c 0.69140626,0 0.71484376,0.1054688 0.71484376,0.4335938 v 4.71093748 c 0,0.328125 -0.023437,0.421875 -0.71484376,0.421875 H 0.36292969 v 0.28125 c 0.3984375,-0.0234375 0.90234371,-0.0234375 1.31250001,-0.0234375 0.4101562,0 0.9140625,0 1.3242187,0.0234375 v -0.28125 H 2.7887109 c -0.6914062,0 -0.7148437,-0.09375 -0.7148437,-0.421875 V -2.8112031 Z M 2.0504297,-5.4713594 c 0,-0.3046875 0.023437,-0.375 0.4453125,-0.375 h 0.8554687 c 1.4765625,0 1.4765625,0.984375 1.4765625,1.3945313 0,0.3984375 0,1.3828125 -1.4882812,1.3828125 H 2.0504297 Z m 0,0"
       style="fill:#000000;fill-opacity:1;fill-rule:nonzero;stroke:none"
       aria-label="P"
       transform="matrix(1.3333333,0,0,1.3333333,108.02,75.537333)" />
    <path
       id="path17"
       d="m -52.35315,-45.35506 c 0,6.65367 -5.39372,12.0474 -12.04738,12.0474 -6.65365,0 -12.04737,-5.39373 -12.04737,-12.0474 0,-6.65365 5.39372,-12.04738 12.04737,-12.04738 6.65366,0 12.04738,5.39373 12.04738,12.04738 z"
       style="fill:#ffffff;fill-opacity:1;fill-rule:nonzero;stroke:#000000;stroke-width:0.79701;stroke-linecap:butt;stroke-linejoin:miter;stroke-miterlimit:10;stroke-dasharray:none;stroke-opacity:1"
       transform="matrix(1.3333333,0,0,-1.3333333,280.38933,29.877333)" />
    <path
       id="path18"
       d="m 6.6431719,-3.0359609 c 0,-1.828125 -1.3945313,-3.28125 -3.0703125,-3.28125 -1.6757813,0 -3.05859377,1.453125 -3.05859377,3.28125 0,1.8164062 1.39453127,3.23437496 3.05859377,3.23437496 1.6757812,0 3.0703125,-1.41796876 3.0703125,-3.23437496 z m -3.0703125,2.96484371 c -0.9023438,0 -2.1445313,-0.78515625 -2.1445313,-3.10546871 0,-2.1796875 1.2773438,-2.8945313 2.1445313,-2.8945313 0.8671875,0 2.15625,0.7148438 2.15625,2.8945313 0,2.32031246 -1.2539063,3.10546871 -2.15625,3.10546871 z m 0,0"
       style="fill:#000000;fill-opacity:1;fill-rule:nonzero;stroke:none"
       aria-label="O"
       transform="matrix(1.3333333,0,0,1.3333333,189.744,94.434667)" />
    <path
       id="path19"
       d="m 99.30206,0 c 0,6.65366 -5.39372,12.04738 -12.04738,12.04738 -6.65367,0 -12.04739,-5.39372 -12.04739,-12.04738 0,-6.65366 5.39372,-12.04738 12.04739,-12.04738 6.65366,0 12.04738,5.39372 12.04738,12.04738 z"
       style="fill:#fbcce8;fill-opacity:1;fill-rule:nonzero;stroke:#ec008c;stroke-width:0.79701;stroke-linecap:butt;stroke-linejoin:miter;stroke-miterlimit:10;stroke-dasharray:none;stroke-opacity:1"
       transform="matrix(1.3333333,0,0,-1.3333333,280.38933,29.877333)" />
    <path
       id="path20"
       d="m 4.7694453,-0.05800781 c 0.9609375,-0.3984375 1.875,-1.49999999 1.875,-2.97656249 0,-1.828125 -1.3945312,-3.28125 -3.0703125,-3.28125 -1.6757812,0 -3.05859374,1.453125 -3.05859374,3.28125 0,1.8164062 1.39453124,3.23437499 3.05859374,3.23437499 0.3164063,0 0.65625,-0.0703125 0.8671875,-0.12890625 0.1640625,0.890625 0.3046875,1.66406246 1.1367188,1.66406246 0.9257812,0 1.1132812,-1.19531246 1.1132812,-1.65234371 0,-0.0820312525 0,-0.1875 -0.1054687,-0.1875 -0.070312,0 -0.1054688,0.046875 -0.1171875,0.09375 -0.070312,0.78515625 -0.6796875,0.83203125 -0.8203125,0.83203125 -0.4804688,0 -0.6679688,-0.38671875 -0.8789063,-0.87890625 z M 2.9296016,-0.17519531 C 2.0624141,-0.51503906 1.3944453,-1.4291016 1.3944453,-3.0345703 c 0,-2.2265625 1.2539063,-3.0351563 2.1796875,-3.0351563 0.9375,0 2.1796875,0.796875 2.1796875,3.0351563 0,1.1835937 -0.3515625,2.13281249 -1.125,2.64843749 -0.1875,-0.4453125 -0.4570312,-0.94921879 -1.0429687,-0.94921879 -0.4335938,0 -0.7617188,0.35156254 -0.7617188,0.76171879 0,0.2109375 0.09375,0.38671875 0.1054688,0.3984375 z m 1.4414062,-0.0703125 c -0.2578125,0.140625 -0.5625,0.1875 -0.796875,0.1875 -0.4335937,0 -0.5273437,-0.375 -0.5273437,-0.515625 0,-0.26953125 0.1992187,-0.53906249 0.5507812,-0.53906249 0.46875,0 0.65625,0.37499999 0.7734375,0.86718749 z m 0,0"
       style="fill:#000000;fill-opacity:1;fill-rule:nonzero;stroke:none"
       aria-label="Q"
       transform="matrix(1.3333333,0,0,1.3333333,391.94933,32.8)" />
    <path
       id="path21"
       d="m 99.30206,-27.0177 c 0,6.65367 -5.39372,12.0474 -12.04738,12.0474 -6.65367,0 -12.04739,-5.39373 -12.04739,-12.0474 0,-6.65366 5.39372,-12.04738 12.04739,-12.04738 6.65366,0 12.04738,5.39372 12.04738,12.04738 z"
       style="fill:#ffffff;fill-opacity:1;fill-rule:nonzero;stroke:#000000;stroke-width:0.79701;stroke-linecap:butt;stroke-linejoin:miter;stroke-miterlimit:10;stroke-dasharray:none;stroke-opacity:1"
       transform="matrix(1.3333333,0,0,-1.3333333,280.38933,29.877333)" />
    <path
       id="path22"
       d="m 3.4917969,-1.0790391 c 0,0.16406254 0,0.18750004 -0.140625,0.37500004 -0.28125,0.41015625 -0.6914063,0.57421875 -1.0429688,0.57421875 -0.3867187,0 -0.75,-0.2109375 -0.984375,-0.5859375 C 1.0894531,-1.1024766 1.0777344,-1.6298203 1.0777344,-1.9227891 c 0,-0.421875 0.046875,-0.890625 0.28125,-1.2539062 0.1992187,-0.28125 0.5625,-0.5625 1.0429687,-0.5625 0.375,0 0.7382813,0.1875 0.9726563,0.5273437 0.1171875,0.140625 0.1171875,0.1523438 0.1171875,0.328125 z m 0.023437,-2.3554687 c -0.046875,-0.058594 -0.4453125,-0.5273438 -1.1484375,-0.5273438 -1.1015625,0 -2.06250002,0.8789063 -2.06250002,2.0390625 0,1.11328129 0.90234372,2.01562504 1.96875002,2.01562504 0.6445312,0 1.0546875,-0.375 1.21875,-0.57421875 V 0.09283594 L 4.8394531,-9.140625e-4 V -0.28216406 c -0.609375,0 -0.6914062,-0.0585938 -0.6914062,-0.50390625 V -6.2235703 l -1.3242188,0.1054687 v 0.2695313 c 0.609375,0 0.6914063,0.070312 0.6914063,0.5039062 z m 5.1796875,0.6210937 c 1.2539062,0 2.1679696,-0.7851562 2.1679696,-1.640625 0,-0.890625 -0.9140634,-1.6640625 -2.1679696,-1.6640625 h -3.210937 v 0.2695313 h 0.1992187 c 0.6914063,0 0.7148438,0.1054687 0.7148438,0.4335937 v 4.71093754 c 0,0.328125 -0.023437,0.421875 -0.7148438,0.421875 H 5.4839844 V -9.140625e-4 C 5.8824219,-0.02435156 6.3863281,-0.02435156 6.7964844,-0.02435156 c 0.4101562,0 0.9140625,0 1.3242187,0.0234374975 V -0.28216406 H 7.9097656 c -0.6914062,0 -0.7148437,-0.09375 -0.7148437,-0.421875 V -2.8134141 Z m -1.523437,-2.6601562 c 0,-0.3046875 0.023437,-0.375 0.4453125,-0.375 h 0.8554687 c 1.4765625,0 1.4765625,0.984375 1.4765625,1.3945312 0,0.3984375 0,1.3828125 -1.4882812,1.3828125 H 7.1714844 Z m 0,0"
       style="fill:#000000;fill-opacity:1;fill-rule:nonzero;stroke:none"
       aria-label="dP"
       transform="matrix(1.3333333,0,0,1.3333333,389.13333,70.052)" />
    <path
       id="path23"
       d="m 99.30206,-54.0354 c 0,6.65367 -5.39372,12.0474 -12.04738,12.0474 -6.65367,0 -12.04739,-5.39373 -12.04739,-12.0474 0,-6.65366 5.39372,-12.04738 12.04739,-12.04738 6.65366,0 12.04738,5.39372 12.04738,12.04738 z"
       style="fill:#ccccff;fill-opacity:1;fill-rule:nonzero;stroke:#0000ff;stroke-width:0.79701;stroke-linecap:butt;stroke-linejoin:miter;stroke-miterlimit:10;stroke-dasharray:none;stroke-opacity:1"
       transform="matrix(1.3333333,0,0,-1.3333333,280.38933,29.877333)" />
    <path
       id="path24"
       d="m 5.3671016,-5.2970156 c 0.5625,-0.5273438 1.125,-0.5390625 1.2773437,-0.5507813 v -0.2695312 c -0.2578125,0.023437 -0.7148437,0.023437 -0.796875,0.023437 -0.375,0 -0.7148437,-0.011719 -1.1132812,-0.023437 v 0.2695312 c 0.2460937,0.011719 0.3867187,0.1289063 0.3867187,0.2929688 0,0.082031 -0.023437,0.1523437 -0.070312,0.2109375 l -2.9882812,2.765625 v -2.8359375 c 0,-0.328125 0.011719,-0.4335938 0.703125,-0.4335938 h 0.2109375 v -0.2695312 c -0.3984375,0.023437 -0.9023438,0.023437 -1.3125,0.023437 -0.421875,0 -0.92578129,0 -1.32421879,-0.023437 v 0.2695312 h 0.2109375 c 0.69140629,0 0.70312499,0.1054688 0.70312499,0.4335938 v 4.71093747 c 0,0.328125 -0.011719,0.421875 -0.70312499,0.421875 h -0.210938 V -1.40625e-4 C 0.73819531,-0.02357813 1.2421016,-0.02357813 1.6639766,-0.02357813 c 0.4101562,0 0.9140625,0 1.3125,0.023437505 V -0.28139063 H 2.7655391 c -0.6914063,0 -0.703125,-0.09375 -0.703125,-0.421875 V -2.2384219 l 1.0898437,-1.0195312 1.6757813,2.39062497 c 0.070312,0.09375 0.1523437,0.234375 0.1523437,0.328125 0,0.2578125 -0.3398437,0.2578125 -0.5039062,0.2578125 v 0.281250005 c 0.3867187,-0.023437505 0.84375,-0.023437505 1.2421875,-0.023437505 0.234375,0 0.5976562,0 1.0546875,0.023437505 V -0.28139063 c -0.5742188,0 -0.6914063,-0.0820313 -0.984375,-0.4921875 L 3.6913203,-3.7501406 Z m 0,0"
       style="fill:#000000;fill-opacity:1;fill-rule:nonzero;stroke:none"
       aria-label="K"
       transform="matrix(1.3333333,0,0,1.3333333,391.94933,106.008)" />
    <path
       id="path25"
       d="m 99.30206,-95.93544 c 0,6.65367 -5.39372,12.04739 -12.04738,12.04739 -6.65367,0 -12.04739,-5.39372 -12.04739,-12.04739 0,-6.65366 5.39372,-12.04738 12.04739,-12.04738 6.65366,0 12.04738,5.39372 12.04738,12.04738 z"
       style="fill:#ffffff;fill-opacity:1;fill-rule:nonzero;stroke:#000000;stroke-width:0.79701;stroke-linecap:butt;stroke-linejoin:miter;stroke-miterlimit:10;stroke-dasharray:none;stroke-opacity:1"
       transform="matrix(1.3333333,0,0,-1.3333333,280.38933,29.877333)" />
    <path
       id="path26"
       d="m 3.574375,-2.81225 c 1.2539063,0 2.1679688,-0.7851562 2.1679688,-1.640625 0,-0.890625 -0.9140625,-1.6640625 -2.1679688,-1.6640625 H 0.3634375 v 0.2695313 h 0.19921875 c 0.69140625,0 0.71484375,0.1054687 0.71484375,0.4335937 V -0.702875 C 1.2775,-0.37475 1.2540625,-0.281 0.56265625,-0.281 H 0.3634375 V 2.5e-4 c 0.3984375,-0.0234375 0.9023438,-0.0234375 1.3125,-0.0234375 0.4101563,0 0.9140625,0 1.3242188,0.0234375 V -0.281 H 2.7892188 C 2.0978125,-0.281 2.074375,-0.37475 2.074375,-0.702875 V -2.81225 Z M 2.0509375,-5.4724062 c 0,-0.3046875 0.023437,-0.375 0.4453125,-0.375 h 0.8554688 c 1.4765625,0 1.4765625,0.984375 1.4765625,1.3945312 0,0.3984375 0,1.3828125 -1.4882813,1.3828125 H 2.0509375 Z m 0,0"
       style="fill:#000000;fill-opacity:1;fill-rule:nonzero;stroke:none"
       aria-label="P"
       transform="matrix(1.3333333,0,0,1.3333333,392.54667,161.87467)" />
    <path
       id="path27"
       d="m 186.55676,-22.67754 c 0,6.65368 -5.39372,12.0474 -12.04739,12.0474 -6.65366,0 -12.04738,-5.39372 -12.04738,-12.0474 0,-6.65365 5.39372,-12.04737 12.04738,-12.04737 6.65367,0 12.04739,5.39372 12.04739,12.04737 z"
       style="fill:#ffffff;fill-opacity:1;fill-rule:nonzero;stroke:#000000;stroke-width:0.79701;stroke-linecap:butt;stroke-linejoin:miter;stroke-miterlimit:10;stroke-dasharray:none;stroke-opacity:1"
       transform="matrix(1.3333333,0,0,-1.3333333,280.38933,29.877333)" />
    <path
       id="path28"
       d="m 3.4924375,-1.0779062 c 0,0.16406245 0,0.18749995 -0.140625,0.37499995 -0.28125,0.41015625 -0.6914062,0.57421875 -1.0429687,0.57421875 -0.3867188,0 -0.75,-0.2109375 -0.984375,-0.5859375 -0.234375,-0.3867187 -0.2460938,-0.9140625 -0.2460938,-1.2070312 0,-0.421875 0.046875,-0.890625 0.28125,-1.2539063 0.1992188,-0.28125 0.5625,-0.5625 1.0429688,-0.5625 0.375,0 0.7382812,0.1875 0.9726562,0.5273438 0.1171875,0.140625 0.1171875,0.1523437 0.1171875,0.328125 z M 3.515875,-3.433375 C 3.469,-3.4919687 3.0705625,-3.9607187 2.3674375,-3.9607187 c -1.1015625,0 -2.0625,0.8789062 -2.0625,2.0390625 0,1.1132812 0.9023438,2.01562495 1.96875,2.01562495 0.6445313,0 1.0546875,-0.375 1.21875,-0.57421875 v 0.57421875 l 1.3476563,-0.09375 v -0.28125 c -0.609375,0 -0.6914063,-0.0585938 -0.6914063,-0.50390625 v -5.4375 l -1.3242187,0.1054688 v 0.2695312 c 0.609375,0 0.6914062,0.070312 0.6914062,0.5039063 z m 6.969727,-1.8632812 c 0.5625,-0.5273438 1.125,-0.5390625 1.277343,-0.5507813 v -0.2695312 c -0.257812,0.023437 -0.714843,0.023437 -0.796875,0.023437 -0.375,0 -0.714843,-0.011719 -1.1132809,-0.023437 v 0.2695312 c 0.2460939,0.011719 0.3867189,0.1289063 0.3867189,0.2929688 0,0.082031 -0.02344,0.1523437 -0.07031,0.2109375 l -2.9882809,2.765625 v -2.8359375 c 0,-0.328125 0.011719,-0.4335938 0.703125,-0.4335938 h 0.2109375 v -0.2695312 c -0.3984375,0.023437 -0.9023438,0.023437 -1.3125,0.023437 -0.421875,0 -0.9257813,0 -1.3242188,-0.023437 v 0.2695312 h 0.2109375 c 0.6914063,0 0.703125,0.1054688 0.703125,0.4335938 v 4.71093745 c 0,0.328125 -0.011719,0.421875 -0.703125,0.421875 H 5.4582578 v 0.28125 c 0.3984375,-0.0234375 0.9023438,-0.0234375 1.3242188,-0.0234375 0.4101562,0 0.9140625,0 1.3125,0.0234375 v -0.28125 H 7.8840391 c -0.6914063,0 -0.703125,-0.09375 -0.703125,-0.421875 V -2.2380625 l 1.0898437,-1.0195312 1.6757813,2.39062495 c 0.070313,0.09375 0.1523439,0.234375 0.1523439,0.328125 0,0.2578125 -0.3398439,0.2578125 -0.5039064,0.2578125 v 0.28125 c 0.3867187,-0.0234375 0.8437504,-0.0234375 1.2421874,-0.0234375 0.234375,0 0.597656,0 1.054688,0.0234375 v -0.28125 c -0.574219,0 -0.691407,-0.0820313 -0.984375,-0.4921875 L 8.8098203,-3.7497812 Z m 0,0"
       style="fill:#000000;fill-opacity:1;fill-rule:nonzero;stroke:none"
       aria-label="dK"
       transform="matrix(1.3333333,0,0,1.3333333,504.87467,64.265333)" />
    <path
       id="path29"
       d="m 186.55676,-56.07343 c 0,6.65366 -5.39372,12.04738 -12.04739,12.04738 -6.65366,0 -12.04738,-5.39372 -12.04738,-12.04738 0,-6.65367 5.39372,-12.04739 12.04738,-12.04739 6.65367,0 12.04739,5.39372 12.04739,12.04739 z"
       style="fill:#ffffff;fill-opacity:1;fill-rule:nonzero;stroke:#000000;stroke-width:0.79701;stroke-linecap:butt;stroke-linejoin:miter;stroke-miterlimit:10;stroke-dasharray:none;stroke-opacity:1"
       transform="matrix(1.3333333,0,0,-1.3333333,280.38933,29.877333)" />
    <path
       id="path30"
       d="m 3.4934375,-1.0784453 c 0,0.16406249 0,0.18749999 -0.140625,0.37499999 -0.28125,0.41015625 -0.6914062,0.57421875 -1.0429687,0.57421875 -0.3867188,0 -0.75,-0.2109375 -0.984375,-0.5859375 C 1.0910938,-1.1018828 1.079375,-1.6292266 1.079375,-1.9221953 c 0,-0.421875 0.046875,-0.890625 0.28125,-1.2539063 0.1992188,-0.28125 0.5625,-0.5625 1.0429688,-0.5625 0.375,0 0.7382812,0.1875 0.9726562,0.5273438 0.1171875,0.140625 0.1171875,0.1523437 0.1171875,0.328125 z M 3.516875,-3.4339141 C 3.47,-3.4925078 3.0715625,-3.9612578 2.3684375,-3.9612578 c -1.1015625,0 -2.0625,0.8789062 -2.0625,2.0390625 0,1.11328124 0.9023438,2.01562499 1.96875,2.01562499 0.6445313,0 1.0546875,-0.375 1.21875,-0.57421875 V 0.09342969 L 4.8410938,-3.203125e-4 V -0.28157031 c -0.609375,0 -0.6914063,-0.0585938 -0.6914063,-0.50390625 V -6.2229766 l -1.3242187,0.1054688 v 0.2695312 c 0.609375,0 0.6914062,0.070312 0.6914062,0.5039063 z m 6.3720703,3.37500004 c 0.9609377,-0.3984375 1.8749997,-1.50000004 1.8749997,-2.97656254 0,-1.828125 -1.394531,-3.28125 -3.0703122,-3.28125 -1.6757812,0 -3.0585937,1.453125 -3.0585937,3.28125 0,1.8164063 1.3945312,3.23437504 3.0585937,3.23437504 0.3164063,0 0.65625,-0.0703125 0.8671875,-0.12890625 0.1640625,0.890625 0.3046875,1.66406251 1.1367187,1.66406251 0.925781,0 1.113281,-1.19531251 1.113281,-1.65234376 0,-0.0820312525 0,-0.1875 -0.105468,-0.1875 -0.07031,0 -0.105469,0.046875 -0.117188,0.09375 -0.07031,0.78515625 -0.679687,0.83203125 -0.820312,0.83203125 -0.480469,0 -0.667969,-0.38671875 -0.8789067,-0.87890625 z M 8.0491016,-0.17610156 C 7.1819141,-0.51594531 6.5139453,-1.4300078 6.5139453,-3.0354766 c 0,-2.2265625 1.2539063,-3.0351562 2.1796875,-3.0351562 0.9375,0 2.1796872,0.796875 2.1796872,3.0351562 0,1.1835938 -0.351562,2.13281254 -1.1249997,2.64843754 -0.1875,-0.4453125 -0.4570312,-0.94921874 -1.0429687,-0.94921874 -0.4335938,0 -0.7617188,0.35156249 -0.7617188,0.76171874 0,0.2109375 0.09375,0.38671875 0.1054688,0.3984375 z m 1.4414062,-0.0703125 c -0.2578125,0.140625 -0.5625,0.1875 -0.796875,0.1875 -0.4335937,0 -0.5273437,-0.375 -0.5273437,-0.515625 0,-0.26953125 0.1992187,-0.53906254 0.5507812,-0.53906254 0.46875,0 0.65625,0.37500004 0.7734375,0.86718754 z m 0,0"
       style="fill:#000000;fill-opacity:1;fill-rule:nonzero;stroke:none"
       aria-label="dQ"
       transform="matrix(1.3333333,0,0,1.3333333,504.87333,107.62933)" />
    <path
       id="path31"
       d="m 186.55676,-95.93544 c 0,6.65367 -5.39372,12.04739 -12.04739,12.04739 -6.65366,0 -12.04738,-5.39372 -12.04738,-12.04739 0,-6.65366 5.39372,-12.04738 12.04738,-12.04738 6.65367,0 12.04739,5.39372 12.04739,12.04738 z"
       style="fill:#ffffff;fill-opacity:1;fill-rule:nonzero;stroke:#000000;stroke-width:0.79701;stroke-linecap:butt;stroke-linejoin:miter;stroke-miterlimit:10;stroke-dasharray:none;stroke-opacity:1"
       transform="matrix(1.3333333,0,0,-1.3333333,280.38933,29.877333)" />
    <path
       id="path32"
       d="m 3.4933438,-1.0780703 c 0,0.16406249 0,0.18749999 -0.140625,0.37499999 -0.28125,0.41015625 -0.6914063,0.57421875 -1.0429688,0.57421875 -0.3867187,0 -0.75,-0.2109375 -0.984375,-0.5859375 C 1.091,-1.1015078 1.0792813,-1.6288516 1.0792813,-1.9218203 c 0,-0.421875 0.046875,-0.890625 0.28125,-1.2539063 0.1992187,-0.28125 0.5625,-0.5625 1.0429687,-0.5625 0.375,0 0.7382813,0.1875 0.9726563,0.5273438 0.1171875,0.140625 0.1171875,0.1523437 0.1171875,0.328125 z m 0.023437,-2.3554688 c -0.046875,-0.058594 -0.4453125,-0.5273437 -1.1484375,-0.5273437 -1.1015625,0 -2.06250005,0.8789062 -2.06250005,2.0390625 0,1.11328124 0.90234375,2.01562499 1.96875005,2.01562499 0.6445312,0 1.0546875,-0.375 1.21875,-0.57421875 V 0.09380469 L 4.841,5.46875e-5 V -0.28119531 c -0.609375,0 -0.6914062,-0.0585938 -0.6914062,-0.50390625 V -6.2226016 L 2.825375,-6.1171328 v 0.2695312 c 0.609375,0 0.6914063,0.070312 0.6914063,0.5039063 z m 3.524414,-1.96875 c -0.035156,-0.1054687 -0.035156,-0.1640625 -0.035156,-0.1757812 0,-0.2695313 0.4570312,-0.2695313 0.7148437,-0.2695313 v -0.2695312 c -0.4101562,0.023437 -0.8671875,0.023437 -1.2773437,0.023437 -0.375,0 -0.5039063,-0.011719 -1.1484375,-0.023437 v 0.2695312 c 0.65625,0 0.7617187,0.035156 0.8789062,0.3515625 L 8.3419766,5.46875e-5 C 8.4005703,0.12896094 8.4240078,0.19927344 8.5763516,0.19927344 c 0.140625,0 0.1640625,-0.0585938 0.2109375,-0.17578125 L 10.861508,-5.2499453 c 0.1875,-0.46875 0.5625,-0.5976563 0.984375,-0.5976563 v -0.2695312 c -0.316406,0.023437 -0.574219,0.023437 -0.878906,0.023437 -0.386719,0 -0.5625,-0.011719 -1.0078129,-0.023437 v 0.2695312 c 0.4453129,0.011719 0.6328129,0.2226563 0.6328129,0.4453125 0,0.082031 0,0.09375 -0.03516,0.1875 l -1.7226559,4.34765629 z m 0,0"
       style="fill:#000000;fill-opacity:1;fill-rule:nonzero;stroke:none"
       aria-label="dV"
       transform="matrix(1.3333333,0,0,1.3333333,505.04533,161.94133)" />
    <path
       id="path33"
       d="m 32.803,-124.48254 h 108.90338 v 12.86786 H 32.803 Z"
       style="fill:#ffffff;fill-opacity:1;fill-rule:nonzero;stroke:#ffffff;stroke-width:0.79701;stroke-linecap:butt;stroke-linejoin:miter;stroke-miterlimit:10;stroke-dasharray:none;stroke-opacity:1"
       transform="matrix(1.3333333,0,0,-1.3333333,280.38933,29.877333)" />
    <path
       id="path34"
       d="m 3.6689844,-6.2330391 c -0.046875,-0.1171875 -0.070312,-0.1875 -0.2109375,-0.1875 -0.1523438,0 -0.1640625,0.058594 -0.2226563,0.1992188 l -1.921875,5.33203124 c -0.1054687,0.29296875 -0.31640622,0.609375 -1.00781247,0.609375 v 0.28125 c 0.33984375,-0.0234375 0.5859375,-0.0234375 0.91406247,-0.0234375 0.3164063,0 0.515625,0 1.0078125,0.0234375 v -0.28125 c -0.5039062,0 -0.65625,-0.28125 -0.65625,-0.45703125 0,-0.0820313 0.011719,-0.1171875 0.035156,-0.1640625 l 0.421875,-1.16015629 h 2.3203125 l 0.4804687,1.35937504 c 0.035156,0.0820313 0.046875,0.1171875 0.046875,0.15234375 0,0.26953125 -0.5039062,0.26953125 -0.7382812,0.26953125 v 0.28125 c 0.4101562,-0.0234375 0.8789062,-0.0234375 1.2890625,-0.0234375 0.3984375,0 0.4335937,0 1.171875,0.0234375 v -0.28125 H 6.4463281 c -0.5507812,0 -0.65625,-0.0820313 -0.7382812,-0.328125 z m 0.5742187,3.890625 H 2.1221094 L 3.1885156,-5.2721016 Z M 9.569375,-3.5846016 v -0.28125 H 8.2685938 v -1.640625 H 8.0107813 c 0,0.75 -0.3164063,1.6757813 -1.1835938,1.6992188 v 0.2226562 H 7.600625 v 2.4726563 c 0,1.00781249 0.7265625,1.20703124 1.2070313,1.20703124 0.5976562,0 0.9140625,-0.57421875 0.9140625,-1.20703124 V -1.6158516 H 9.4639063 v 0.4804688 c 0,0.65624999 -0.28125,0.98437499 -0.5976563,0.98437499 -0.5976562,0 -0.5976562,-0.78515625 -0.5976562,-0.94921879 v -2.484375 z m 3.583008,0 v -0.28125 h -1.300781 v -1.640625 h -0.257813 c 0,0.75 -0.316406,1.6757813 -1.183594,1.6992188 v 0.2226562 h 0.773438 v 2.4726563 c 0,1.00781249 0.726562,1.20703124 1.207031,1.20703124 0.597656,0 0.914063,-0.57421875 0.914063,-1.20703124 v -0.5039063 h -0.257813 v 0.4804688 c 0,0.65624999 -0.28125,0.98437499 -0.597656,0.98437499 -0.597656,0 -0.597656,-0.78515625 -0.597656,-0.94921879 v -2.484375 z m 4.250976,1.5351563 c 0.199219,0 0.246094,0 0.246094,-0.1875 0,-0.9257813 -0.503906,-1.78125 -1.652344,-1.78125 -1.078125,0 -1.921875,0.9375 -1.921875,2.0507812 0,1.17187504 0.949219,2.06250004 2.039063,2.06250004 1.089844,0 1.535156,-0.94921875 1.535156,-1.16015624 0,-0.058594 -0.04687,-0.1171875 -0.128906,-0.1171875 -0.09375,0 -0.117188,0.058594 -0.128906,0.09375 -0.304688,0.91406249 -1.101563,0.93749999 -1.230469,0.93749999 -0.433594,0 -0.796875,-0.24609375 -1.007813,-0.55078125 C 14.860391,-1.1353828 14.848672,-1.6744453 14.848672,-2.0494453 Z m -2.542968,-0.2226563 c 0.08203,-1.3710937 0.878906,-1.5234375 1.136718,-1.5234375 0.492188,0 1.03125,0.3867188 1.042969,1.5234375 z m 4.722656,-0.046875 c 0,-0.9492187 0.679687,-1.4179687 1.242187,-1.4179687 0.527344,0 0.644532,0.4335937 0.644532,0.9726562 v 2.07421879 c 0,0.41015625 -0.09375,0.41015625 -0.691407,0.41015625 v 0.28125 c 0.421875,-0.0234375 0.597657,-0.0234375 1.019532,-0.0234375 0.433593,0 0.550781,0 1.019531,0.0234375 v -0.28125 c -0.457031,0 -0.679688,0 -0.679688,-0.26953125 V -2.2721016 c 0,-0.75 0,-1.0078125 -0.257812,-1.3242187 -0.199219,-0.2460938 -0.550781,-0.3632813 -0.996094,-0.3632813 -0.832031,0 -1.21875,0.6210938 -1.347656,0.8671875 v -0.8671875 l -1.300781,0.09375 v 0.28125 c 0.609375,0 0.691406,0.058594 0.691406,0.5039063 v 2.39062499 c 0,0.41015625 -0.105469,0.41015625 -0.691406,0.41015625 v 0.28125 c 0.421875,-0.0234375 0.585937,-0.0234375 1.019531,-0.0234375 0.433594,0 0.550781,0 1.019531,0.0234375 v -0.28125 c -0.585937,0 -0.691406,0 -0.691406,-0.41015625 z m 6.120117,-1.265625 v -0.28125 h -1.300781 v -1.640625 H 24.14457 c 0,0.75 -0.316406,1.6757813 -1.183593,1.6992188 v 0.2226562 h 0.773437 v 2.4726563 c 0,1.00781249 0.726563,1.20703124 1.207031,1.20703124 0.597657,0 0.914063,-0.57421875 0.914063,-1.20703124 v -0.5039063 h -0.257813 v 0.4804688 c 0,0.65624999 -0.28125,0.98437499 -0.597656,0.98437499 -0.597656,0 -0.597656,-0.78515625 -0.597656,-0.94921879 v -2.484375 z m 2.320313,-0.375 -1.289063,0.09375 v 0.28125 c 0.574219,0 0.644531,0.058594 0.644531,0.4921875 v 2.40234379 c 0,0.41015625 -0.09375,0.41015625 -0.679687,0.41015625 v 0.28125 c 0.398437,-0.0234375 0.585937,-0.0234375 0.984375,-0.0234375 0.140625,0 0.515625,0 0.960937,0.0234375 v -0.28125 c -0.585937,0 -0.621093,-0.046875 -0.621093,-0.38671875 z m 0.02344,-1.5585937 c 0,-0.2695313 -0.210937,-0.4921875 -0.480469,-0.4921875 -0.28125,0 -0.492187,0.234375 -0.492187,0.4921875 0,0.2578125 0.210937,0.4804687 0.492187,0.4804687 0.269532,0 0.480469,-0.2109375 0.480469,-0.4804687 z m 5.217774,3.609375 c 0,-1.171875 -0.925782,-2.109375 -2.027344,-2.109375 -1.148438,0 -2.050781,0.9609375 -2.050781,2.109375 0,1.12499999 0.9375,2.00390624 2.039062,2.00390624 1.136719,0 2.039063,-0.90234375 2.039063,-2.00390624 z m -2.027344,1.75781249 c -0.457031,0 -0.832031,-0.22265625 -1.03125,-0.57421875 C 29.971719,-1.1002266 29.96,-1.5806953 29.96,-1.9908516 c 0,-0.328125 0,-0.84375 0.222656,-1.2070312 0.269532,-0.4570313 0.714844,-0.5976563 1.042969,-0.5976563 0.503906,0 0.878906,0.2929688 1.054688,0.5976563 0.210937,0.375 0.210937,0.8320312 0.210937,1.2070312 0,0.328125 0,0.8554688 -0.222656,1.25390629 -0.246094,0.41015625 -0.65625,0.5859375 -1.03125,0.5859375 z m 3.963867,-2.16796879 c 0,-0.9492187 0.679687,-1.4179687 1.242187,-1.4179687 0.527344,0 0.644532,0.4335937 0.644532,0.9726562 v 2.07421879 c 0,0.41015625 -0.09375,0.41015625 -0.691407,0.41015625 v 0.28125 c 0.421875,-0.0234375 0.597657,-0.0234375 1.019532,-0.0234375 0.433593,0 0.550781,0 1.019531,0.0234375 v -0.28125 c -0.457031,0 -0.679688,0 -0.679688,-0.26953125 V -2.2721016 c 0,-0.75 0,-1.0078125 -0.257812,-1.3242187 -0.199219,-0.2460938 -0.550781,-0.3632813 -0.996094,-0.3632813 -0.832031,0 -1.21875,0.6210938 -1.347656,0.8671875 v -0.8671875 l -1.300781,0.09375 v 0.28125 c 0.609375,0 0.691406,0.058594 0.691406,0.5039063 v 2.39062499 c 0,0.41015625 -0.105469,0.41015625 -0.691406,0.41015625 v 0.28125 c 0.421875,-0.0234375 0.585937,-0.0234375 1.019531,-0.0234375 0.433594,0 0.550781,0 1.019531,0.0234375 v -0.28125 c -0.585937,0 -0.691406,0 -0.691406,-0.41015625 z m 8.563477,-3.1523437 c 0,-0.3046875 0.01172,-0.375 0.433593,-0.375 h 1.171875 c 0.878907,0 1.242188,0.703125 1.242188,1.2421875 0,0.6914062 -0.597656,1.3007812 -1.441406,1.3007812 h -1.40625 z m 2.191406,2.2734375 c 0.890625,-0.1757813 1.511719,-0.75 1.511719,-1.40625 0,-0.796875 -0.855469,-1.5117188 -2.039063,-1.5117188 h -3.339844 v 0.2695313 h 0.210938 c 0.691406,0 0.703125,0.1054687 0.703125,0.4335937 v 4.71093754 c 0,0.328125 -0.01172,0.421875 -0.703125,0.421875 h -0.210938 v 0.28125 h 3.585938 c 1.21875,0 2.0625,-0.796875 2.0625,-1.62890624 0,-0.8085938 -0.785156,-1.4648438 -1.78125,-1.5703125 z m -1.757813,2.91796874 c -0.421875,0 -0.433593,-0.0585938 -0.433593,-0.36328125 V -3.0689766 h 1.6875 c 1.042968,0 1.394531,0.8789063 1.394531,1.4179688 0,0.69140624 -0.539063,1.37109374 -1.464844,1.37109374 z m 7.122071,-0.36328125 c 0.03516,0.375 0.304687,0.703125 0.691406,0.703125 0.222656,0 0.785156,-0.140625 0.785156,-0.85546875 V -1.2994453 h -0.257812 v 0.49218749 c 0,0.10546875 0,0.55078125 -0.316407,0.55078125 -0.328125,0 -0.328125,-0.43359375 -0.328125,-0.57421875 V -2.4010078 c 0,-0.515625 0,-0.8203125 -0.398437,-1.1835938 -0.328125,-0.2929687 -0.761719,-0.4335937 -1.207031,-0.4335937 -0.761719,0 -1.382813,0.375 -1.382813,0.9492187 0,0.28125 0.1875,0.4335938 0.421875,0.4335938 0.234375,0 0.410156,-0.1757813 0.410156,-0.4101563 0,-0.3867187 -0.398437,-0.4335937 -0.398437,-0.4335937 0.234375,-0.234375 0.667969,-0.3164063 0.925781,-0.3164063 0.457031,0 0.972656,0.3398438 0.972656,1.1367188 v 0.2929687 c -0.492187,0.023437 -1.160156,0.058594 -1.757812,0.3515625 -0.644531,0.3164063 -0.84375,0.7734375 -0.84375,1.13671879 0,0.73828125 0.867187,0.97265625 1.464844,0.97265625 0.75,0 1.089843,-0.4921875 1.21875,-0.73828125 z M 51.23832,-1.2642891 c 0,0.86718754 -0.679687,1.13671879 -1.066406,1.13671879 -0.421875,0 -0.820312,-0.3046875 -0.820312,-0.75 0,-0.58593749 0.515625,-1.21874999 1.886718,-1.27734379 z m 4.87793,-2.2617187 c -0.1875,0.035156 -0.363281,0.1640625 -0.363281,0.421875 0,0.234375 0.175781,0.421875 0.410156,0.421875 0.234375,0 0.421875,-0.1640625 0.421875,-0.4335938 0,-0.5625 -0.621094,-0.9023437 -1.417969,-0.9023437 -1.148437,0 -2.003906,0.9609375 -2.003906,2.0859375 0,1.14843749 0.9375,2.02734374 1.992188,2.02734374 1.242187,0 1.535156,-1.078125 1.535156,-1.16015624 0,-0.1054688 -0.105469,-0.1054688 -0.128906,-0.1054688 -0.09375,0 -0.09375,0.011719 -0.152344,0.1640625 -0.210938,0.62109379 -0.703125,0.85546879 -1.171875,0.85546879 -0.5625,0 -1.300781,-0.46875 -1.300781,-1.79296879 0,-1.3945312 0.714843,-1.8164062 1.253906,-1.8164062 0.117187,0 0.597656,0.011719 0.925781,0.234375 z m 2.179688,1.5820312 v -4.2773437 l -1.324219,0.1054687 v 0.2695313 c 0.609375,0 0.691406,0.070312 0.691406,0.5039062 v 4.65234379 c 0,0.41015625 -0.105469,0.41015625 -0.691406,0.41015625 v 0.28125 c 0.398437,-0.0234375 0.621094,-0.0234375 0.996094,-0.0234375 0.363281,0 0.585937,0 0.996093,0.0234375 v -0.28125 c -0.597656,0 -0.691406,0 -0.691406,-0.41015625 V -1.5924141 l 0.574219,-0.4804687 0.867187,1.17187499 c 0.140625,0.19921875 0.210938,0.3046875 0.210938,0.421875 0,0.09375 -0.02344,0.19921875 -0.304688,0.19921875 v 0.28125 c 0.410157,-0.0234375 0.621094,-0.0234375 0.972657,-0.0234375 0.257812,0 0.550781,0 0.808593,0.0234375 v -0.28125 c -0.292968,0 -0.515625,0 -0.832031,-0.43359375 L 59.292031,-2.4478828 c 0.878907,-0.7617188 1.289063,-1.1132813 1.898438,-1.1367188 v -0.28125 c -0.316406,0.035156 -0.328125,0.035156 -0.65625,0.035156 -0.269531,0 -0.503906,-0.011719 -0.984375,-0.035156 v 0.28125 c 0.128906,0.011719 0.234375,0.070312 0.234375,0.2109375 0,0.1757813 -0.140625,0.2929688 -0.222656,0.3632813 z M 67.2725,-2.9986641 c 0.199219,-0.5390625 0.5625,-0.5742187 0.761719,-0.5859375 v -0.28125 c -0.363281,0.035156 -0.386719,0.035156 -0.679688,0.035156 -0.339843,0 -0.46875,0 -0.820312,-0.035156 v 0.28125 c 0.386719,0.011719 0.503906,0.2460938 0.503906,0.4335938 0,0.082031 -0.01172,0.140625 -0.03516,0.1992187 L 66.170934,-0.70178906 65.26859,-3.1627266 c -0.04687,-0.1171875 -0.04687,-0.140625 -0.04687,-0.1757812 0,-0.2226563 0.28125,-0.2460938 0.515625,-0.2460938 v -0.28125 c -0.410156,0.035156 -0.785156,0.035156 -0.925781,0.035156 -0.28125,0 -0.539063,0 -0.820313,-0.035156 v 0.28125 c 0.28125,0 0.457031,0.011719 0.5625,0.1289063 0.08203,0.1054687 0.199219,0.4570312 0.199219,0.4921875 0,0.011719 -0.04687,0.1171875 -0.04687,0.1171875 L 63.967819,-0.81897656 63.11235,-3.1510078 c -0.04687,-0.140625 -0.04687,-0.1523438 -0.04687,-0.1875 0,-0.2460938 0.351562,-0.2460938 0.515625,-0.2460938 v -0.28125 c -0.410156,0.023437 -0.621094,0.035156 -0.972656,0.035156 -0.304688,0 -0.5625,0 -0.867188,-0.035156 v 0.28125 c 0.433594,0 0.550781,0.023437 0.65625,0.328125 l 1.160156,3.16406254 c 0.04687,0.10546875 0.07031,0.1875 0.199219,0.1875 0.140625,0 0.175781,-0.09375 0.210938,-0.1875 l 0.914062,-2.50781254 0.925781,2.50781254 c 0.03516,0.09375 0.07031,0.1875 0.199219,0.1875 0.140625,0 0.164063,-0.08203125 0.199219,-0.17578125 z m 3.761719,2.35546879 c 0.03516,0.375 0.304687,0.703125 0.691406,0.703125 0.222656,0 0.785156,-0.140625 0.785156,-0.85546875 V -1.2994453 h -0.257812 v 0.49218749 c 0,0.10546875 0,0.55078125 -0.316406,0.55078125 -0.328125,0 -0.328125,-0.43359375 -0.328125,-0.57421875 V -2.4010078 c 0,-0.515625 0,-0.8203125 -0.398438,-1.1835938 -0.328125,-0.2929687 -0.761719,-0.4335937 -1.207031,-0.4335937 -0.761719,0 -1.382813,0.375 -1.382813,0.9492187 0,0.28125 0.1875,0.4335938 0.421875,0.4335938 0.234375,0 0.410157,-0.1757813 0.410157,-0.4101563 0,-0.3867187 -0.398438,-0.4335937 -0.398438,-0.4335937 0.234375,-0.234375 0.667969,-0.3164063 0.925781,-0.3164063 0.457032,0 0.972657,0.3398438 0.972657,1.1367188 v 0.2929687 c -0.492188,0.023437 -1.160157,0.058594 -1.757813,0.3515625 -0.644531,0.3164063 -0.84375,0.7734375 -0.84375,1.13671879 0,0.73828125 0.867188,0.97265625 1.464844,0.97265625 0.75,0 1.089844,-0.4921875 1.21875,-0.73828125 z m -0.08203,-0.62109379 c 0,0.86718754 -0.679688,1.13671879 -1.066407,1.13671879 -0.421875,0 -0.820312,-0.3046875 -0.820312,-0.75 0,-0.58593749 0.515625,-1.21874999 1.886719,-1.27734379 z m 3.210937,-0.7851562 c 0,-0.375 0.105469,-1.6875 1.125,-1.6875 v 0.011719 c -0.02344,0.011719 -0.164062,0.1171875 -0.164062,0.328125 0,0.2460938 0.1875,0.3984375 0.398437,0.3984375 0.1875,0 0.386719,-0.140625 0.386719,-0.4101562 0,-0.28125 -0.269531,-0.5507813 -0.667969,-0.5507813 -0.539062,0 -0.914062,0.375 -1.125,0.9257813 v -0.9257813 l -1.277344,0.09375 v 0.28125 c 0.609375,0 0.691407,0.058594 0.691407,0.5039063 v 2.39062499 c 0,0.41015625 -0.105469,0.41015625 -0.691407,0.41015625 v 0.28125 c 0.46875,-0.0234375 0.585938,-0.0234375 1.042969,-0.0234375 0.363281,0 0.574219,0 1.148438,0.0234375 v -0.28125 h -0.1875 c -0.65625,0 -0.679688,-0.09375 -0.679688,-0.421875 z m 5.504883,0.9726562 c 0,0.16406254 0,0.18750004 -0.140625,0.37500004 -0.28125,0.41015625 -0.691406,0.57421875 -1.042969,0.57421875 -0.386719,0 -0.75,-0.2109375 -0.984375,-0.5859375 -0.234375,-0.38671879 -0.246094,-0.91406249 -0.246094,-1.20703129 0,-0.421875 0.04687,-0.890625 0.28125,-1.2539062 0.199219,-0.28125 0.5625,-0.5625 1.042969,-0.5625 0.375,0 0.738281,0.1875 0.972656,0.5273437 0.117188,0.140625 0.117188,0.1523438 0.117188,0.328125 z m 0.02344,-2.3554687 c -0.04687,-0.058594 -0.445312,-0.5273438 -1.148437,-0.5273438 -1.101563,0 -2.0625,0.8789063 -2.0625,2.0390625 0,1.11328129 0.902344,2.01562504 1.96875,2.01562504 0.644531,0 1.054687,-0.375 1.21875,-0.57421875 v 0.57421875 l 1.347656,-0.09375 v -0.28125 c -0.609375,0 -0.691406,-0.0585938 -0.691406,-0.50390625 V -6.2213203 l -1.324219,0.1054687 v 0.2695313 c 0.609375,0 0.691406,0.070312 0.691406,0.5039062 z m 8.25293,0.6210937 c 1.253906,0 2.167969,-0.7851562 2.167969,-1.640625 0,-0.890625 -0.914063,-1.6640625 -2.167969,-1.6640625 h -3.210937 v 0.2695313 h 0.199218 c 0.691407,0 0.714844,0.1054687 0.714844,0.4335937 v 4.71093754 c 0,0.328125 -0.02344,0.421875 -0.714844,0.421875 h -0.199218 v 0.28125 c 0.398437,-0.0234375 0.902343,-0.0234375 1.3125,-0.0234375 0.410156,0 0.914062,0 1.324218,0.0234375 v -0.28125 h -0.210937 c -0.691406,0 -0.714844,-0.09375 -0.714844,-0.421875 V -2.8111641 Z m -1.523437,-2.6601562 c 0,-0.3046875 0.02344,-0.375 0.445312,-0.375 h 0.855469 c 1.476562,0 1.476562,0.984375 1.476562,1.3945312 0,0.3984375 0,1.3828125 -1.488281,1.3828125 h -1.289062 z m 7.03125,4.82812499 c 0.03516,0.375 0.304687,0.703125 0.691406,0.703125 0.222656,0 0.785156,-0.140625 0.785156,-0.85546875 V -1.2994453 h -0.257812 v 0.49218749 c 0,0.10546875 0,0.55078125 -0.316407,0.55078125 -0.328125,0 -0.328125,-0.43359375 -0.328125,-0.57421875 V -2.4010078 c 0,-0.515625 0,-0.8203125 -0.398437,-1.1835938 -0.328125,-0.2929687 -0.761719,-0.4335937 -1.207031,-0.4335937 -0.761719,0 -1.382813,0.375 -1.382813,0.9492187 0,0.28125 0.1875,0.4335938 0.421875,0.4335938 0.234375,0 0.410156,-0.1757813 0.410156,-0.4101563 0,-0.3867187 -0.398437,-0.4335937 -0.398437,-0.4335937 0.234375,-0.234375 0.667969,-0.3164063 0.925781,-0.3164063 0.457031,0 0.972656,0.3398438 0.972656,1.1367188 v 0.2929687 c -0.492187,0.023437 -1.160156,0.058594 -1.757812,0.3515625 -0.644531,0.3164063 -0.84375,0.7734375 -0.84375,1.13671879 0,0.73828125 0.867187,0.97265625 1.464844,0.97265625 0.75,0 1.089843,-0.4921875 1.21875,-0.73828125 z m -0.08203,-0.62109379 c 0,0.86718754 -0.679687,1.13671879 -1.066406,1.13671879 -0.421875,0 -0.820312,-0.3046875 -0.820312,-0.75 0,-0.58593749 0.515625,-1.21874999 1.886718,-1.27734379 z m 4.702149,-2.5195312 c 0,-0.1523438 0,-0.234375 -0.105469,-0.234375 -0.04687,0 -0.05859,0 -0.175781,0.1054687 -0.02344,0.023437 -0.105469,0.1054688 -0.152344,0.1523438 -0.28125,-0.1992188 -0.5625,-0.2578125 -0.867188,-0.2578125 -1.183593,0 -1.476562,0.65625 -1.476562,1.1132812 0,0.2929688 0.128906,0.5273438 0.328125,0.7148438 0.304687,0.28125 0.644531,0.3398437 1.101562,0.421875 0.457032,0.09375 0.609375,0.1171875 0.808594,0.2695312 0.09375,0.070312 0.316406,0.2460938 0.316406,0.58593754 0,0.78515625 -0.902343,0.78515625 -1.03125,0.78515625 -0.914062,0 -1.148437,-0.76171875 -1.253906,-1.24218749 -0.02344,-0.09375 -0.03516,-0.140625 -0.140625,-0.140625 -0.128906,0 -0.128906,0.070312 -0.128906,0.234375 v 1.14843749 c 0,0.15234375 0,0.22265625 0.105469,0.22265625 0.05859,0 0.07031,0 0.222656,-0.17578125 0.03516,-0.046875 0.140625,-0.1640625 0.1875,-0.2109375 0.375,0.36328125 0.785156,0.38671875 1.007812,0.38671875 1.101563,0 1.488282,-0.64453125 1.488282,-1.24218754 0,-0.3984375 -0.175782,-0.6445312 -0.375,-0.8554687 -0.304688,-0.2929688 -0.632813,-0.3515625 -1.289063,-0.4804688 -0.234375,-0.046875 -0.890625,-0.1640625 -0.890625,-0.6679687 0,-0.2929688 0.210938,-0.6679688 1.019531,-0.6679688 0.972657,0 1.03125,0.75 1.054688,0.9726563 0.01172,0.1054687 0.01172,0.1640625 0.117187,0.1640625 0.128907,0 0.128907,-0.070312 0.128907,-0.234375 z m 3.632819,0 c 0,-0.1523438 0,-0.234375 -0.10547,-0.234375 -0.0469,0 -0.0586,0 -0.17578,0.1054687 -0.0234,0.023437 -0.10547,0.1054688 -0.15235,0.1523438 -0.28125,-0.1992188 -0.5625,-0.2578125 -0.86718,-0.2578125 -1.183602,0 -1.476571,0.65625 -1.476571,1.1132812 0,0.2929688 0.128907,0.5273438 0.328125,0.7148438 0.304688,0.28125 0.644532,0.3398437 1.101566,0.421875 0.45703,0.09375 0.60938,0.1171875 0.80859,0.2695312 0.0937,0.070312 0.31641,0.2460938 0.31641,0.58593754 0,0.78515625 -0.90234,0.78515625 -1.03125,0.78515625 -0.914066,0 -1.148441,-0.76171875 -1.253909,-1.24218749 -0.02344,-0.09375 -0.03516,-0.140625 -0.140625,-0.140625 -0.128907,0 -0.128907,0.070312 -0.128907,0.234375 v 1.14843749 c 0,0.15234375 0,0.22265625 0.105469,0.22265625 0.05859,0 0.07031,0 0.222656,-0.17578125 0.03516,-0.046875 0.140625,-0.1640625 0.1875,-0.2109375 0.375,0.36328125 0.785156,0.38671875 1.007816,0.38671875 1.10156,0 1.48828,-0.64453125 1.48828,-1.24218754 0,-0.3984375 -0.17578,-0.6445312 -0.375,-0.8554687 -0.30469,-0.2929688 -0.63281,-0.3515625 -1.28906,-0.4804688 -0.23438,-0.046875 -0.890629,-0.1640625 -0.890629,-0.6679687 0,-0.2929688 0.210937,-0.6679688 1.019539,-0.6679688 0.97265,0 1.03125,0.75 1.05468,0.9726563 0.0117,0.1054687 0.0117,0.1640625 0.11719,0.1640625 0.12891,0 0.12891,-0.070312 0.12891,-0.234375 z m 0,0"
       style="fill:#000000;fill-opacity:1;fill-rule:nonzero;stroke:none"
       aria-label="AttentionBackwardPass"
       transform="matrix(1.3333333,0,0,1.3333333,328.55333,191.424)" />
    <path
       id="path35"
       d="m -175.75833,-124.48254 h 102.52448 v 12.86786 h -102.52448 z"
       style="fill:#ffffff;fill-opacity:1;fill-rule:nonzero;stroke:#ffffff;stroke-width:0.79701;stroke-linecap:butt;stroke-linejoin:miter;stroke-miterlimit:10;stroke-dasharray:none;stroke-opacity:1"
       transform="matrix(1.3333333,0,0,-1.3333333,280.38933,29.877333)" />
    <path
       id="path36"
       d="m 3.6693906,-6.2330391 c -0.046875,-0.1171875 -0.070312,-0.1875 -0.2109375,-0.1875 -0.1523437,0 -0.1640625,0.058594 -0.2226562,0.1992188 l -1.921875,5.33203124 c -0.1054688,0.29296875 -0.31640627,0.609375 -1.00781252,0.609375 v 0.28125 c 0.33984375,-0.0234375 0.5859375,-0.0234375 0.91406252,-0.0234375 0.3164062,0 0.515625,0 1.0078125,0.0234375 v -0.28125 c -0.5039063,0 -0.65625,-0.28125 -0.65625,-0.45703125 0,-0.0820313 0.011719,-0.1171875 0.035156,-0.1640625 l 0.421875,-1.16015629 h 2.3203125 l 0.4804688,1.35937504 c 0.035156,0.0820313 0.046875,0.1171875 0.046875,0.15234375 0,0.26953125 -0.5039063,0.26953125 -0.7382813,0.26953125 v 0.28125 c 0.4101563,-0.0234375 0.8789063,-0.0234375 1.2890625,-0.0234375 0.3984375,0 0.4335938,0 1.171875,0.0234375 v -0.28125 H 6.4467344 c -0.5507813,0 -0.65625,-0.0820313 -0.7382813,-0.328125 z m 0.5742188,3.890625 H 2.1225156 l 1.0664063,-2.9296875 z m 5.3261719,-1.2421875 v -0.28125 H 8.269 v -1.640625 H 8.0111875 c 0,0.75 -0.3164062,1.6757813 -1.1835937,1.6992188 v 0.2226562 h 0.7734375 v 2.4726563 c 0,1.00781249 0.7265625,1.20703124 1.2070312,1.20703124 0.5976563,0 0.9140625,-0.57421875 0.9140625,-1.20703124 V -1.6158516 H 9.4643125 v 0.4804688 c 0,0.65624999 -0.28125,0.98437499 -0.5976562,0.98437499 C 8.269,-0.15100781 8.269,-0.93616406 8.269,-1.1002266 v -2.484375 z m 3.5830077,0 v -0.28125 h -1.300781 v -1.640625 h -0.257813 c 0,0.75 -0.316406,1.6757813 -1.183593,1.6992188 v 0.2226562 h 0.773437 v 2.4726563 c 0,1.00781249 0.726563,1.20703124 1.207031,1.20703124 0.597657,0 0.914063,-0.57421875 0.914063,-1.20703124 V -1.6158516 H 13.04732 v 0.4804688 c 0,0.65624999 -0.28125,0.98437499 -0.597656,0.98437499 -0.597656,0 -0.597656,-0.78515625 -0.597656,-0.94921879 v -2.484375 z m 4.250977,1.5351563 c 0.199218,0 0.246093,0 0.246093,-0.1875 0,-0.9257813 -0.503906,-1.78125 -1.652343,-1.78125 -1.078125,0 -1.921875,0.9375 -1.921875,2.0507812 0,1.17187504 0.949218,2.06250004 2.039062,2.06250004 1.089844,0 1.535156,-0.94921875 1.535156,-1.16015624 0,-0.058594 -0.04687,-0.1171875 -0.128906,-0.1171875 -0.09375,0 -0.117187,0.058594 -0.128906,0.09375 -0.304688,0.91406249 -1.101563,0.93749999 -1.230469,0.93749999 -0.433594,0 -0.796875,-0.24609375 -1.007812,-0.55078125 C 14.860797,-1.1353828 14.849078,-1.6744453 14.849078,-2.0494453 Z m -2.542969,-0.2226563 c 0.08203,-1.3710937 0.878906,-1.5234375 1.136719,-1.5234375 0.492187,0 1.03125,0.3867188 1.042968,1.5234375 z m 4.719726,-0.046875 c 0,-0.9492187 0.679688,-1.4179687 1.242188,-1.4179687 0.527344,0 0.644531,0.4335937 0.644531,0.9726562 v 2.07421879 c 0,0.41015625 -0.09375,0.41015625 -0.691406,0.41015625 v 0.28125 c 0.421875,-0.0234375 0.597656,-0.0234375 1.019531,-0.0234375 0.433594,0 0.550781,0 1.019531,0.0234375 v -0.28125 c -0.457031,0 -0.679687,0 -0.679687,-0.26953125 V -2.2721016 c 0,-0.75 0,-1.0078125 -0.257813,-1.3242187 -0.199218,-0.2460938 -0.550781,-0.3632813 -0.996093,-0.3632813 -0.832032,0 -1.21875,0.6210938 -1.347657,0.8671875 v -0.8671875 l -1.300781,0.09375 v 0.28125 c 0.609375,0 0.691406,0.058594 0.691406,0.5039063 v 2.39062499 c 0,0.41015625 -0.105468,0.41015625 -0.691406,0.41015625 v 0.28125 c 0.421875,-0.0234375 0.585938,-0.0234375 1.019531,-0.0234375 0.433594,0 0.550782,0 1.019532,0.0234375 v -0.28125 c -0.585938,0 -0.691407,0 -0.691407,-0.41015625 z m 6.123047,-1.265625 v -0.28125 h -1.300781 v -1.640625 h -0.257812 c 0,0.75 -0.316407,1.6757813 -1.183594,1.6992188 v 0.2226562 h 0.773437 v 2.4726563 c 0,1.00781249 0.726563,1.20703124 1.207032,1.20703124 0.597656,0 0.914062,-0.57421875 0.914062,-1.20703124 v -0.5039063 h -0.257812 v 0.4804688 c 0,0.65624999 -0.28125,0.98437499 -0.597657,0.98437499 -0.597656,0 -0.597656,-0.78515625 -0.597656,-0.94921879 v -2.484375 z m 2.320313,-0.375 -1.289063,0.09375 v 0.28125 c 0.574219,0 0.644532,0.058594 0.644532,0.4921875 v 2.40234379 c 0,0.41015625 -0.09375,0.41015625 -0.679688,0.41015625 v 0.28125 c 0.398438,-0.0234375 0.585938,-0.0234375 0.984375,-0.0234375 0.140625,0 0.515625,0 0.960938,0.0234375 v -0.28125 c -0.585938,0 -0.621094,-0.046875 -0.621094,-0.38671875 z m 0.02344,-1.5585937 c 0,-0.2695313 -0.210937,-0.4921875 -0.480468,-0.4921875 -0.28125,0 -0.492188,0.234375 -0.492188,0.4921875 0,0.2578125 0.210938,0.4804687 0.492188,0.4804687 0.269531,0 0.480468,-0.2109375 0.480468,-0.4804687 z m 5.217774,3.609375 c 0,-1.171875 -0.925781,-2.109375 -2.027344,-2.109375 -1.148437,0 -2.050781,0.9609375 -2.050781,2.109375 0,1.12499999 0.9375,2.00390624 2.039062,2.00390624 1.136719,0 2.039063,-0.90234375 2.039063,-2.00390624 z m -2.027344,1.75781249 c -0.457031,0 -0.832031,-0.22265625 -1.03125,-0.57421875 -0.234375,-0.37500004 -0.246094,-0.85546874 -0.246094,-1.26562504 0,-0.328125 0,-0.84375 0.222657,-1.2070312 0.269531,-0.4570313 0.714843,-0.5976563 1.042968,-0.5976563 0.503907,0 0.878907,0.2929688 1.054688,0.5976563 0.210937,0.375 0.210937,0.8320312 0.210937,1.2070312 0,0.328125 0,0.8554688 -0.222656,1.25390629 -0.246094,0.41015625 -0.65625,0.5859375 -1.03125,0.5859375 z M 35.20162,-2.3189766 c 0,-0.9492187 0.679688,-1.4179687 1.242188,-1.4179687 0.527343,0 0.644531,0.4335937 0.644531,0.9726562 v 2.07421879 c 0,0.41015625 -0.09375,0.41015625 -0.691406,0.41015625 v 0.28125 c 0.421875,-0.0234375 0.597656,-0.0234375 1.019531,-0.0234375 0.433594,0 0.550781,0 1.019531,0.0234375 v -0.28125 c -0.457031,0 -0.679687,0 -0.679687,-0.26953125 V -2.2721016 c 0,-0.75 0,-1.0078125 -0.257813,-1.3242187 -0.199219,-0.2460938 -0.550781,-0.3632813 -0.996094,-0.3632813 -0.832031,0 -1.21875,0.6210938 -1.347656,0.8671875 v -0.8671875 l -1.300781,0.09375 v 0.28125 c 0.609375,0 0.691406,0.058594 0.691406,0.5039063 v 2.39062499 c 0,0.41015625 -0.105469,0.41015625 -0.691406,0.41015625 v 0.28125 c 0.421875,-0.0234375 0.585937,-0.0234375 1.019531,-0.0234375 0.433594,0 0.550781,0 1.019531,0.0234375 v -0.28125 c -0.585937,0 -0.691406,0 -0.691406,-0.41015625 z m 11.888672,-3.7734375 h -5.027344 v 0.28125 h 0.210938 c 0.691406,0 0.703125,0.09375 0.703125,0.421875 v 4.68750004 c 0,0.328125 -0.01172,0.421875 -0.703125,0.421875 h -0.210938 v 0.28125 c 0.398438,-0.0234375 0.960938,-0.0234375 1.371094,-0.0234375 0.363281,0 1.171875,0 1.488281,0.0234375 v -0.28125 h -0.28125 c -0.820312,0 -0.855468,-0.10546875 -0.855468,-0.43359375 V -2.9166328 h 0.808593 c 0.867188,0 0.960938,0.2929687 0.960938,1.0546875 h 0.257812 v -2.3789063 h -0.257812 c 0,0.7617188 -0.09375,1.0546875 -0.960938,1.0546875 h -0.808593 v -2.2617187 c 0,-0.3046875 0.01172,-0.3632813 0.433593,-0.3632813 h 1.136719 c 1.371094,0 1.59375,0.4921875 1.734375,1.734375 h 0.257813 z m 4.22168,4.1835938 c 0,-1.171875 -0.925781,-2.109375 -2.027344,-2.109375 -1.148437,0 -2.050781,0.9609375 -2.050781,2.109375 0,1.12499999 0.9375,2.00390624 2.039062,2.00390624 1.136719,0 2.039063,-0.90234375 2.039063,-2.00390624 z m -2.027344,1.75781249 c -0.457031,0 -0.832031,-0.22265625 -1.03125,-0.57421875 C 48.019,-1.1002266 48.007281,-1.5806953 48.007281,-1.9908516 c 0,-0.328125 0,-0.84375 0.222657,-1.2070312 0.269531,-0.4570313 0.714843,-0.5976563 1.042968,-0.5976563 0.503907,0 0.878907,0.2929688 1.054688,0.5976563 0.210937,0.375 0.210937,0.8320312 0.210937,1.2070312 0,0.328125 0,0.8554688 -0.222656,1.25390629 -0.246094,0.41015625 -0.65625,0.5859375 -1.03125,0.5859375 z M 53.17818,-2.0494453 c 0,-0.375 0.105468,-1.6875 1.125,-1.6875 v 0.011719 c -0.02344,0.011719 -0.164063,0.1171875 -0.164063,0.328125 0,0.2460938 0.1875,0.3984375 0.398438,0.3984375 0.1875,0 0.386718,-0.140625 0.386718,-0.4101562 0,-0.28125 -0.269531,-0.5507813 -0.667968,-0.5507813 -0.539063,0 -0.914063,0.375 -1.125,0.9257813 v -0.9257813 l -1.277344,0.09375 v 0.28125 c 0.609375,0 0.691406,0.058594 0.691406,0.5039063 v 2.39062499 c 0,0.41015625 -0.105469,0.41015625 -0.691406,0.41015625 v 0.28125 c 0.46875,-0.0234375 0.585937,-0.0234375 1.042969,-0.0234375 0.363281,0 0.574218,0 1.148437,0.0234375 v -0.28125 h -0.1875 c -0.65625,0 -0.679687,-0.09375 -0.679687,-0.421875 z m 7.716797,-0.9492188 c 0.199218,-0.5390625 0.5625,-0.5742187 0.761718,-0.5859375 v -0.28125 c -0.363281,0.035156 -0.386718,0.035156 -0.679687,0.035156 -0.339844,0 -0.46875,0 -0.820313,-0.035156 v 0.28125 c 0.386719,0.011719 0.503907,0.2460938 0.503907,0.4335938 0,0.082031 -0.01172,0.140625 -0.03516,0.1992187 L 59.793414,-0.70178906 58.89107,-3.1627266 c -0.04687,-0.1171875 -0.04687,-0.140625 -0.04687,-0.1757812 0,-0.2226563 0.28125,-0.2460938 0.515625,-0.2460938 v -0.28125 c -0.410156,0.035156 -0.785156,0.035156 -0.925781,0.035156 -0.28125,0 -0.539062,0 -0.820312,-0.035156 v 0.28125 c 0.28125,0 0.457031,0.011719 0.5625,0.1289063 0.08203,0.1054687 0.199218,0.4570312 0.199218,0.4921875 0,0.011719 -0.04687,0.1171875 -0.04687,0.1171875 L 57.590289,-0.81897656 56.73482,-3.1510078 c -0.04687,-0.140625 -0.04687,-0.1523438 -0.04687,-0.1875 0,-0.2460938 0.351563,-0.2460938 0.515625,-0.2460938 v -0.28125 c -0.410156,0.023437 -0.621093,0.035156 -0.972656,0.035156 -0.304687,0 -0.5625,0 -0.867187,-0.035156 v 0.28125 c 0.433593,0 0.550781,0.023437 0.65625,0.328125 l 1.160156,3.16406254 c 0.04687,0.10546875 0.07031,0.1875 0.199219,0.1875 0.140625,0 0.175781,-0.09375 0.210937,-0.1875 l 0.914063,-2.50781254 0.925781,2.50781254 c 0.03516,0.09375 0.07031,0.1875 0.199219,0.1875 0.140625,0 0.164062,-0.08203125 0.199218,-0.17578125 z m 3.758789,2.35546879 c 0.03516,0.375 0.304687,0.703125 0.691406,0.703125 0.222656,0 0.785156,-0.140625 0.785156,-0.85546875 V -1.2994453 h -0.257812 v 0.49218749 c 0,0.10546875 0,0.55078125 -0.316407,0.55078125 -0.328125,0 -0.328125,-0.43359375 -0.328125,-0.57421875 V -2.4010078 c 0,-0.515625 0,-0.8203125 -0.398437,-1.1835938 -0.328125,-0.2929687 -0.761719,-0.4335937 -1.207031,-0.4335937 -0.761719,0 -1.382813,0.375 -1.382813,0.9492187 0,0.28125 0.1875,0.4335938 0.421875,0.4335938 0.234375,0 0.410156,-0.1757813 0.410156,-0.4101563 0,-0.3867187 -0.398437,-0.4335937 -0.398437,-0.4335937 0.234375,-0.234375 0.667969,-0.3164063 0.925781,-0.3164063 0.457031,0 0.972656,0.3398438 0.972656,1.1367188 v 0.2929687 c -0.492187,0.023437 -1.160156,0.058594 -1.757812,0.3515625 -0.644531,0.3164063 -0.84375,0.7734375 -0.84375,1.13671879 0,0.73828125 0.867187,0.97265625 1.464844,0.97265625 0.75,0 1.089843,-0.4921875 1.21875,-0.73828125 z m -0.08203,-0.62109379 c 0,0.86718754 -0.679687,1.13671879 -1.066406,1.13671879 -0.421875,0 -0.820312,-0.3046875 -0.820312,-0.75 0,-0.58593749 0.515625,-1.21874999 1.886718,-1.27734379 z m 3.213868,-0.7851562 c 0,-0.375 0.105468,-1.6875 1.125,-1.6875 v 0.011719 c -0.02344,0.011719 -0.164063,0.1171875 -0.164063,0.328125 0,0.2460938 0.1875,0.3984375 0.398438,0.3984375 0.1875,0 0.386718,-0.140625 0.386718,-0.4101562 0,-0.28125 -0.269531,-0.5507813 -0.667968,-0.5507813 -0.539063,0 -0.914063,0.375 -1.125,0.9257813 v -0.9257813 l -1.277344,0.09375 v 0.28125 c 0.609375,0 0.691406,0.058594 0.691406,0.5039063 v 2.39062499 c 0,0.41015625 -0.105469,0.41015625 -0.691406,0.41015625 v 0.28125 c 0.46875,-0.0234375 0.585937,-0.0234375 1.042969,-0.0234375 0.363281,0 0.574218,0 1.148437,0.0234375 v -0.28125 h -0.1875 c -0.65625,0 -0.679687,-0.09375 -0.679687,-0.421875 z m 5.504882,0.9726562 c 0,0.16406254 0,0.18750004 -0.140625,0.37500004 -0.28125,0.41015625 -0.691406,0.57421875 -1.042968,0.57421875 -0.386719,0 -0.75,-0.2109375 -0.984375,-0.5859375 -0.234375,-0.38671879 -0.246094,-0.91406249 -0.246094,-1.20703129 0,-0.421875 0.04687,-0.890625 0.28125,-1.2539062 0.199219,-0.28125 0.5625,-0.5625 1.042969,-0.5625 0.375,0 0.738281,0.1875 0.972656,0.5273437 0.117187,0.140625 0.117187,0.1523438 0.117187,0.328125 z m 0.02344,-2.3554687 c -0.04687,-0.058594 -0.445313,-0.5273438 -1.148438,-0.5273438 -1.101562,0 -2.0625,0.8789063 -2.0625,2.0390625 0,1.11328129 0.902344,2.01562504 1.96875,2.01562504 0.644532,0 1.054688,-0.375 1.21875,-0.57421875 v 0.57421875 l 1.347657,-0.09375 v -0.28125 c -0.609375,0 -0.691407,-0.0585938 -0.691407,-0.50390625 V -6.2213203 l -1.324218,0.1054687 v 0.2695313 c 0.609375,0 0.691406,0.070312 0.691406,0.5039062 z m 8.25293,0.6210937 c 1.253906,0 2.167968,-0.7851562 2.167968,-1.640625 0,-0.890625 -0.914062,-1.6640625 -2.167968,-1.6640625 h -3.210938 v 0.2695313 h 0.199219 c 0.691406,0 0.714844,0.1054687 0.714844,0.4335937 v 4.71093754 c 0,0.328125 -0.02344,0.421875 -0.714844,0.421875 h -0.199219 v 0.28125 c 0.398438,-0.0234375 0.902344,-0.0234375 1.3125,-0.0234375 0.410156,0 0.914063,0 1.324219,0.0234375 v -0.28125 h -0.210938 c -0.691406,0 -0.714843,-0.09375 -0.714843,-0.421875 V -2.8111641 Z m -1.523438,-2.6601562 c 0,-0.3046875 0.02344,-0.375 0.445313,-0.375 h 0.855468 c 1.476563,0 1.476563,0.984375 1.476563,1.3945312 0,0.3984375 0,1.3828125 -1.488281,1.3828125 h -1.289063 z m 7.03125,4.82812499 c 0.03516,0.375 0.304688,0.703125 0.691406,0.703125 0.222657,0 0.785157,-0.140625 0.785157,-0.85546875 V -1.2994453 h -0.257813 v 0.49218749 c 0,0.10546875 0,0.55078125 -0.316406,0.55078125 -0.328125,0 -0.328125,-0.43359375 -0.328125,-0.57421875 V -2.4010078 c 0,-0.515625 0,-0.8203125 -0.398438,-1.1835938 -0.328125,-0.2929687 -0.761718,-0.4335937 -1.207031,-0.4335937 -0.761719,0 -1.382812,0.375 -1.382812,0.9492187 0,0.28125 0.1875,0.4335938 0.421875,0.4335938 0.234375,0 0.410156,-0.1757813 0.410156,-0.4101563 0,-0.3867187 -0.398438,-0.4335937 -0.398438,-0.4335937 0.234375,-0.234375 0.667969,-0.3164063 0.925782,-0.3164063 0.457031,0 0.972656,0.3398438 0.972656,1.1367188 v 0.2929687 c -0.492188,0.023437 -1.160156,0.058594 -1.757813,0.3515625 -0.644531,0.3164063 -0.84375,0.7734375 -0.84375,1.13671879 0,0.73828125 0.867188,0.97265625 1.464844,0.97265625 0.75,0 1.089844,-0.4921875 1.21875,-0.73828125 z m -0.08203,-0.62109379 c 0,0.86718754 -0.679688,1.13671879 -1.066406,1.13671879 -0.421875,0 -0.820313,-0.3046875 -0.820313,-0.75 0,-0.58593749 0.515625,-1.21874999 1.886719,-1.27734379 z m 4.702148,-2.5195312 c 0,-0.1523438 0,-0.234375 -0.105468,-0.234375 -0.04687,0 -0.05859,0 -0.175782,0.1054687 -0.02344,0.023437 -0.105468,0.1054688 -0.152343,0.1523438 -0.28125,-0.1992188 -0.5625,-0.2578125 -0.867188,-0.2578125 -1.183594,0 -1.476562,0.65625 -1.476562,1.1132812 0,0.2929688 0.128906,0.5273438 0.328125,0.7148438 0.304687,0.28125 0.644531,0.3398437 1.101562,0.421875 0.457031,0.09375 0.609375,0.1171875 0.808594,0.2695312 0.09375,0.070312 0.316406,0.2460938 0.316406,0.58593754 0,0.78515625 -0.902344,0.78515625 -1.03125,0.78515625 -0.914062,0 -1.148437,-0.76171875 -1.253906,-1.24218749 -0.02344,-0.09375 -0.03516,-0.140625 -0.140625,-0.140625 -0.128906,0 -0.128906,0.070312 -0.128906,0.234375 v 1.14843749 c 0,0.15234375 0,0.22265625 0.105468,0.22265625 0.05859,0 0.07031,0 0.222657,-0.17578125 0.03516,-0.046875 0.140625,-0.1640625 0.1875,-0.2109375 0.375,0.36328125 0.785156,0.38671875 1.007812,0.38671875 1.101563,0 1.488281,-0.64453125 1.488281,-1.24218754 0,-0.3984375 -0.175781,-0.6445312 -0.375,-0.8554687 -0.304687,-0.2929688 -0.632812,-0.3515625 -1.289062,-0.4804688 -0.234375,-0.046875 -0.890625,-0.1640625 -0.890625,-0.6679687 0,-0.2929688 0.210937,-0.6679688 1.019531,-0.6679688 0.972656,0 1.03125,0.75 1.054688,0.9726563 0.01172,0.1054687 0.01172,0.1640625 0.117187,0.1640625 0.128906,0 0.128906,-0.070312 0.128906,-0.234375 z m 3.632813,0 c 0,-0.1523438 0,-0.234375 -0.105469,-0.234375 -0.04687,0 -0.05859,0 -0.175781,0.1054687 -0.02344,0.023437 -0.105469,0.1054688 -0.152344,0.1523438 -0.28125,-0.1992188 -0.5625,-0.2578125 -0.867187,-0.2578125 -1.183594,0 -1.476563,0.65625 -1.476563,1.1132812 0,0.2929688 0.128906,0.5273438 0.328125,0.7148438 0.304688,0.28125 0.644531,0.3398437 1.101563,0.421875 0.457031,0.09375 0.609375,0.1171875 0.808593,0.2695312 0.09375,0.070312 0.316407,0.2460938 0.316407,0.58593754 0,0.78515625 -0.902344,0.78515625 -1.03125,0.78515625 -0.914063,0 -1.148438,-0.76171875 -1.253907,-1.24218749 -0.02344,-0.09375 -0.03516,-0.140625 -0.140625,-0.140625 -0.128906,0 -0.128906,0.070312 -0.128906,0.234375 v 1.14843749 c 0,0.15234375 0,0.22265625 0.105469,0.22265625 0.05859,0 0.07031,0 0.222656,-0.17578125 0.03516,-0.046875 0.140625,-0.1640625 0.1875,-0.2109375 0.375,0.36328125 0.785156,0.38671875 1.007813,0.38671875 1.101562,0 1.488281,-0.64453125 1.488281,-1.24218754 0,-0.3984375 -0.175781,-0.6445312 -0.375,-0.8554687 -0.304688,-0.2929688 -0.632813,-0.3515625 -1.289063,-0.4804688 -0.234375,-0.046875 -0.890625,-0.1640625 -0.890625,-0.6679687 0,-0.2929688 0.210938,-0.6679688 1.019532,-0.6679688 0.972656,0 1.03125,0.75 1.054687,0.9726563 0.01172,0.1054687 0.01172,0.1640625 0.117188,0.1640625 0.128906,0 0.128906,-0.070312 0.128906,-0.234375 z m 0,0"
       style="fill:#000000;fill-opacity:1;fill-rule:nonzero;stroke:none"
       aria-label="AttentionForwardPass"
       transform="matrix(1.3333333,0,0,1.3333333,50.474667,191.424)" />
    <path
       id="path37"
       d="M 11.88849,-3.68118 70.91252,-21.95746"
       style="fill:none;stroke:#000000;stroke-width:0.79701;stroke-linecap:butt;stroke-linejoin:miter;stroke-miterlimit:10;stroke-dasharray:none;stroke-opacity:1"
       transform="matrix(1.3333333,0,0,-1.3333333,280.38933,29.877333)" />
    <path
       id="path38"
       d="M 4.66248,0 C 3.28098,0.25902 1.0361,1.0361 -0.51805,1.94269 V -1.94269 C 1.0361,-1.0361 3.28098,-0.25902 4.66248,0"
       style="fill:#000000;fill-opacity:1;fill-rule:nonzero;stroke:none"
       transform="matrix(1.2736267,0.39437333,0.39437333,-1.2736267,374.93933,59.153947)" />
    <path
       id="path39"
       d="m 12.26831,-39.80782 58.1221,9.91399"
       style="fill:none;stroke:#000000;stroke-width:0.79701;stroke-linecap:butt;stroke-linejoin:miter;stroke-miterlimit:10;stroke-dasharray:none;stroke-opacity:1"
       transform="matrix(1.3333333,0,0,-1.3333333,280.38933,29.877333)" />
    <path
       id="path40"
       d="M 4.66248,0 C 3.28098,0.25902 1.0361,1.0361 -0.51805,1.94269 V -1.94269 C 1.0361,-1.0361 3.28098,-0.25902 4.66248,0"
       style="fill:#000000;fill-opacity:1;fill-rule:nonzero;stroke:none"
       transform="matrix(1.3143067,-0.22418667,-0.22418667,-1.3143067,374.2432,69.735787)" />
    <path
       id="path41"
       d="M 11.88849,-72.59892 70.91252,-90.8752"
       style="fill:none;stroke:#000000;stroke-width:0.79701;stroke-linecap:butt;stroke-linejoin:miter;stroke-miterlimit:10;stroke-dasharray:none;stroke-opacity:1"
       transform="matrix(1.3333333,0,0,-1.3333333,280.38933,29.877333)" />
    <path
       id="path42"
       d="M 4.66248,0 C 3.28098,0.25902 1.0361,1.0361 -0.51805,1.94269 V -1.94269 C 1.0361,-1.0361 3.28098,-0.25902 4.66248,0"
       style="fill:#000000;fill-opacity:1;fill-rule:nonzero;stroke:none"
       transform="matrix(1.2736267,0.39437333,0.39437333,-1.2736267,374.93933,151.04427)" />
    <path
       id="path43"
       d="M 12.44588,-95.93544 H 70.14632"
       style="fill:none;stroke:#000000;stroke-width:0.79701;stroke-linecap:butt;stroke-linejoin:miter;stroke-miterlimit:10;stroke-dasharray:none;stroke-opacity:1"
       transform="matrix(1.3333333,0,0,-1.3333333,280.38933,29.877333)" />
    <path
       id="path44"
       d="M 4.66248,0 C 3.28098,0.25902 1.0361,1.0361 -0.51805,1.94269 V -1.94269 C 1.0361,-1.0361 3.28098,-0.25902 4.66248,0"
       style="fill:#000000;fill-opacity:1;fill-rule:nonzero;stroke:none"
       transform="matrix(1.3333333,0,0,-1.3333333,373.91776,157.79125)" />
    <path
       id="path45"
       d="M 99.29967,-3.13026 157.9521,-18.3746"
       style="fill:none;stroke:#000000;stroke-width:0.79701;stroke-linecap:butt;stroke-linejoin:miter;stroke-miterlimit:10;stroke-dasharray:none;stroke-opacity:1"
       transform="matrix(1.3333333,0,0,-1.3333333,280.38933,29.877333)" />
    <path
       id="path46"
       d="M 4.66248,0 C 3.28098,0.25902 1.0361,1.0361 -0.51805,1.94269 V -1.94269 C 1.0361,-1.0361 3.28098,-0.25902 4.66248,0"
       style="fill:#000000;fill-opacity:1;fill-rule:nonzero;stroke:none"
       transform="matrix(1.2903867,0.33534667,0.33534667,-1.2903867,490.99212,54.376787)" />
    <path
       id="path47"
       d="m 99.68462,-26.39955 57.73834,2.87231"
       style="fill:none;stroke:#000000;stroke-width:0.79701;stroke-linecap:butt;stroke-linejoin:miter;stroke-miterlimit:10;stroke-dasharray:none;stroke-opacity:1"
       transform="matrix(1.3333333,0,0,-1.3333333,280.38933,29.877333)" />
    <path
       id="path48"
       d="M 4.66248,0 C 3.28098,0.25902 1.0361,1.0361 -0.51805,1.94269 V -1.94269 C 1.0361,-1.0361 3.28098,-0.25902 4.66248,0"
       style="fill:#000000;fill-opacity:1;fill-rule:nonzero;stroke:none"
       transform="matrix(1.3316267,-0.06622667,-0.06622667,-1.3316267,490.28659,61.246987)" />
    <path
       id="path49"
       d="m 99.06247,-30.94957 59.21568,-19.71896"
       style="fill:none;stroke:#000000;stroke-width:0.79701;stroke-linecap:butt;stroke-linejoin:miter;stroke-miterlimit:10;stroke-dasharray:none;stroke-opacity:1"
       transform="matrix(1.3333333,0,0,-1.3333333,280.38933,29.877333)" />
    <path
       id="path50"
       d="M 4.66248,0 C 3.28098,0.25902 1.0361,1.0361 -0.51805,1.94269 V -1.94269 C 1.0361,-1.0361 3.28098,-0.25902 4.66248,0"
       style="fill:#000000;fill-opacity:1;fill-rule:nonzero;stroke:none"
       transform="matrix(1.2649733,0.42124,0.42124,-1.2649733,491.42685,97.435373)" />
    <path
       id="path51"
       d="m 99.69658,-54.32594 57.70993,-1.34809"
       style="fill:none;stroke:#000000;stroke-width:0.79701;stroke-linecap:butt;stroke-linejoin:miter;stroke-miterlimit:10;stroke-dasharray:none;stroke-opacity:1"
       transform="matrix(1.3333333,0,0,-1.3333333,280.38933,29.877333)" />
    <path
       id="path52"
       d="M 4.66248,0 C 3.28098,0.25902 1.0361,1.0361 -0.51805,1.94269 V -1.94269 C 1.0361,-1.0361 3.28098,-0.25902 4.66248,0"
       style="fill:#000000;fill-opacity:1;fill-rule:nonzero;stroke:none"
       transform="matrix(1.3329067,0.03113333,0.03113333,-1.3329067,490.26468,104.10937)" />
    <path
       id="path53"
       d="M 11.88849,-45.58122 158.1672,-90.8752"
       style="fill:none;stroke:#000000;stroke-width:0.79701;stroke-linecap:butt;stroke-linejoin:miter;stroke-miterlimit:10;stroke-dasharray:none;stroke-opacity:1"
       transform="matrix(1.3333333,0,0,-1.3333333,280.38933,29.877333)" />
    <path
       id="path54"
       d="M 4.66248,0 C 3.28098,0.25902 1.0361,1.0361 -0.51805,1.94269 V -1.94269 C 1.0361,-1.0361 3.28098,-0.25902 4.66248,0"
       style="fill:#000000;fill-opacity:1;fill-rule:nonzero;stroke:none"
       transform="matrix(1.2736267,0.39437333,0.39437333,-1.2736267,491.27892,151.04427)" />
    <path
       id="path55"
       d="M 99.70058,-95.93544 H 157.401"
       style="fill:none;stroke:#000000;stroke-width:0.79701;stroke-linecap:butt;stroke-linejoin:miter;stroke-miterlimit:10;stroke-dasharray:none;stroke-opacity:1"
       transform="matrix(1.3333333,0,0,-1.3333333,280.38933,29.877333)" />
    <path
       id="path56"
       d="M 4.66248,0 C 3.28098,0.25902 1.0361,1.0361 -0.51805,1.94269 V -1.94269 C 1.0361,-1.0361 3.28098,-0.25902 4.66248,0"
       style="fill:#000000;fill-opacity:1;fill-rule:nonzero;stroke:none"
       transform="matrix(1.3333333,0,0,-1.3333333,490.25733,157.79125)" />
    <path
       id="path57"
       d="m -175.75612,-19.7927 32.93871,-7.5616"
       style="fill:none;stroke:#000000;stroke-width:0.79701;stroke-linecap:butt;stroke-linejoin:miter;stroke-miterlimit:10;stroke-dasharray:none;stroke-opacity:1"
       transform="matrix(1.3333333,0,0,-1.3333333,280.38933,29.877333)" />
    <path
       id="path58"
       d="M 4.66248,0 C 3.28098,0.25902 1.0361,1.0361 -0.51805,1.94269 V -1.94269 C 1.0361,-1.0361 3.28098,-0.25902 4.66248,0"
       style="fill:#000000;fill-opacity:1;fill-rule:nonzero;stroke:none"
       transform="matrix(1.29948,0.29829333,0.29829333,-1.29948,89.966093,66.349733)" />
    <path
       id="path59"
       d="m -175.85715,-44.37656 33.17862,8.80648"
       style="fill:none;stroke:#000000;stroke-width:0.79701;stroke-linecap:butt;stroke-linejoin:miter;stroke-miterlimit:10;stroke-dasharray:none;stroke-opacity:1"
       transform="matrix(1.3333333,0,0,-1.3333333,280.38933,29.877333)" />
    <path
       id="path60"
       d="M 4.66248,0 C 3.28098,0.25902 1.0361,1.0361 -0.51805,1.94269 V -1.94269 C 1.0361,-1.0361 3.28098,-0.25902 4.66248,0"
       style="fill:#000000;fill-opacity:1;fill-rule:nonzero;stroke:none"
       transform="matrix(1.2886533,-0.34204,-0.34204,-1.2886533,90.15128,77.304107)" />
    <path
       id="path61"
       d="m -175.85715,-74.9376 94.92136,25.19412"
       style="fill:none;stroke:#000000;stroke-width:0.79701;stroke-linecap:butt;stroke-linejoin:miter;stroke-miterlimit:10;stroke-dasharray:none;stroke-opacity:1"
       transform="matrix(1.3333333,0,0,-1.3333333,280.38933,29.877333)" />
    <path
       id="path62"
       d="M 4.66248,0 C 3.28098,0.25902 1.0361,1.0361 -0.51805,1.94269 V -1.94269 C 1.0361,-1.0361 3.28098,-0.25902 4.66248,0"
       style="fill:#000000;fill-opacity:1;fill-rule:nonzero;stroke:none"
       transform="matrix(1.2886533,-0.34204,-0.34204,-1.2886533,172.47493,96.201973)" />
    <path
       id="path63"
       d="m -114.01338,-33.9661 32.9387,-7.5616"
       style="fill:none;stroke:#000000;stroke-width:0.79701;stroke-linecap:butt;stroke-linejoin:miter;stroke-miterlimit:10;stroke-dasharray:none;stroke-opacity:1"
       transform="matrix(1.3333333,0,0,-1.3333333,280.38933,29.877333)" />
    <path
       id="path64"
       d="M 4.66248,0 C 3.28098,0.25902 1.0361,1.0361 -0.51805,1.94269 V -1.94269 C 1.0361,-1.0361 3.28098,-0.25902 4.66248,0"
       style="fill:#000000;fill-opacity:1;fill-rule:nonzero;stroke:none"
       transform="matrix(1.29948,0.29829333,0.29829333,-1.29948,172.28975,85.2476)" />
  </g>
</svg>
