<?xml version="1.0" encoding="UTF-8" standalone="no"?>
<!-- Created with Inkscape (http://www.inkscape.org/) -->

<svg
   version="1.1"
   id="svg1"
   width="560.29199"
   height="218.72267"
   viewBox="0 0 560.29199 218.72267"
   xmlns="http://www.w3.org/2000/svg"
   xmlns:svg="http://www.w3.org/2000/svg">
  <defs
     id="defs1" />
  <g
     id="g1">
    <path
       id="path1"
       d="M 12.04738,0 C 12.04738,6.65366 6.65366,12.04738 0,12.04738 -6.65366,12.04738 -12.04738,6.65366 -12.04738,0 c 0,-6.65366 5.39372,-12.04738 12.04738,-12.04738 6.65366,0 12.04738,5.39372 12.04738,12.04738 z"
       style="fill:#ccffcc;fill-opacity:1;fill-rule:nonzero;stroke:#00b300;stroke-width:0.79701;stroke-linecap:butt;stroke-linejoin:miter;stroke-miterlimit:10;stroke-dasharray:none;stroke-opacity:1"
       transform="matrix(1.3333333,0,0,-1.3333333,29.877333,33.066667)" />
    <path
       id="path2"
       d="m 1.9210234,-5.4010859 c -0.035156,-0.1054688 -0.035156,-0.1640625 -0.035156,-0.1757813 0,-0.2695312 0.4570312,-0.2695312 0.7148437,-0.2695312 v -0.2695313 c -0.4101562,0.023437 -0.8671875,0.023437 -1.2773437,0.023437 -0.37500001,0 -0.50390626,-0.011719 -1.14843751,-0.023437 v 0.2695313 c 0.65625,0 0.76171875,0.035156 0.87890621,0.3515625 l 2.1679688,5.49609371 c 0.058594,0.12890625 0.082031,0.19921875 0.234375,0.19921875 0.140625,0 0.1640625,-0.0585938 0.2109375,-0.17578125 L 5.7413359,-5.2487422 c 0.1875,-0.46875 0.5625,-0.5976562 0.984375,-0.5976562 v -0.2695313 c -0.3164062,0.023437 -0.5742187,0.023437 -0.8789062,0.023437 -0.3867188,0 -0.5625,-0.011719 -1.0078125,-0.023437 v 0.2695313 c 0.4453125,0.011719 0.6328125,0.2226562 0.6328125,0.4453125 0,0.082031 0,0.09375 -0.035156,0.1875 l -1.7226562,4.34765621 z m 0,0"
       style="fill:#000000;fill-opacity:1;fill-rule:nonzero;stroke:none"
       aria-label="V"
       transform="matrix(1.3333333,0,0,1.3333333,25.270667,37.150667)" />
    <path
       id="path3"
       d="m 12.04738,-41.90004 c 0,6.65367 -5.39372,12.04739 -12.04738,12.04739 -6.65366,0 -12.04738,-5.39372 -12.04738,-12.04739 0,-6.65366 5.39372,-12.04738 12.04738,-12.04738 6.65366,0 12.04738,5.39372 12.04738,12.04738 z"
       style="fill:#ffe6cc;fill-opacity:1;fill-rule:nonzero;stroke:#cc6600;stroke-width:0.79701;stroke-linecap:butt;stroke-linejoin:miter;stroke-miterlimit:10;stroke-dasharray:none;stroke-opacity:1"
       transform="matrix(1.3333333,0,0,-1.3333333,29.877333,33.066667)" />
    <path
       id="path4"
       d="m 3.4928125,-1.0766719 c 0,0.16406252 0,0.18750002 -0.140625,0.37500002 -0.28125,0.41015625 -0.6914062,0.57421875 -1.0429687,0.57421875 -0.3867188,0 -0.75,-0.2109375 -0.984375,-0.5859375 C 1.0904688,-1.1001094 1.07875,-1.6274531 1.07875,-1.9204219 c 0,-0.421875 0.046875,-0.890625 0.28125,-1.2539062 0.1992188,-0.28125 0.5625,-0.5625 1.0429688,-0.5625 0.375,0 0.7382812,0.1875 0.9726562,0.5273437 0.1171875,0.140625 0.1171875,0.1523438 0.1171875,0.328125 z M 3.51625,-3.4321406 c -0.046875,-0.058594 -0.4453125,-0.5273438 -1.1484375,-0.5273438 -1.1015625,0 -2.0625,0.8789063 -2.0625,2.0390625 0,1.11328127 0.9023438,2.01562502 1.96875,2.01562502 0.6445313,0 1.0546875,-0.375 1.21875,-0.57421875 v 0.57421875 l 1.3476563,-0.09375 v -0.28125 c -0.609375,0 -0.6914063,-0.0585938 -0.6914063,-0.50390625 V -6.2212031 l -1.3242187,0.1054687 v 0.2695313 c 0.609375,0 0.6914062,0.070312 0.6914062,0.5039062 z m 8.24707,0.3984375 c 0,-1.828125 -1.394531,-3.28125 -3.0703122,-3.28125 -1.6757812,0 -3.0585937,1.453125 -3.0585937,3.28125 0,1.8164062 1.3945312,3.23437497 3.0585937,3.23437497 1.6757812,0 3.0703122,-1.41796877 3.0703122,-3.23437497 z m -3.0703122,2.96484372 c -0.9023437,0 -2.1445312,-0.78515625 -2.1445312,-3.10546872 0,-2.1796875 1.2773437,-2.8945313 2.1445312,-2.8945313 0.8671875,0 2.1562502,0.7148438 2.1562502,2.8945313 0,2.32031247 -1.2539064,3.10546872 -2.1562502,3.10546872 z m 0,0"
       style="fill:#000000;fill-opacity:1;fill-rule:nonzero;stroke:none"
       aria-label="dO"
       transform="matrix(1.3333333,0,0,1.3333333,21.686667,93.084)" />
    <path
       id="path5"
       d="m 12.04738,-68.91774 c 0,6.65367 -5.39372,12.04739 -12.04738,12.04739 -6.65366,0 -12.04738,-5.39372 -12.04738,-12.04739 0,-6.65366 5.39372,-12.04738 12.04738,-12.04738 6.65366,0 12.04738,5.39372 12.04738,12.04738 z"
       style="fill:#fbcce8;fill-opacity:1;fill-rule:nonzero;stroke:#ec008c;stroke-width:0.79701;stroke-linecap:butt;stroke-linejoin:miter;stroke-miterlimit:10;stroke-dasharray:none;stroke-opacity:1"
       transform="matrix(1.3333333,0,0,-1.3333333,29.877333,33.066667)" />
    <path
       id="path6"
       d="m 4.7707031,-0.05741406 c 0.9609375,-0.3984375 1.875,-1.50000004 1.875,-2.97656254 0,-1.828125 -1.3945312,-3.28125 -3.0703125,-3.28125 -1.6757812,0 -3.05859372,1.453125 -3.05859372,3.28125 0,1.8164063 1.39453122,3.23437504 3.05859372,3.23437504 0.3164063,0 0.65625,-0.0703125 0.8671875,-0.12890625 0.1640625,0.890625 0.3046875,1.66406251 1.1367188,1.66406251 0.9257812,0 1.1132812,-1.19531251 1.1132812,-1.65234376 0,-0.08203125 0,-0.1875 -0.1054687,-0.1875 -0.070312,0 -0.1054688,0.046875 -0.1171875,0.09375 -0.070312,0.78515625 -0.6796875,0.83203125 -0.8203125,0.83203125 -0.4804688,0 -0.6679688,-0.38671875 -0.8789063,-0.87890625 z M 2.9308594,-0.17460156 C 2.0636719,-0.51444531 1.3957031,-1.4285078 1.3957031,-3.0339766 c 0,-2.2265625 1.2539063,-3.0351562 2.1796875,-3.0351562 0.9375,0 2.1796875,0.796875 2.1796875,3.0351562 0,1.1835938 -0.3515625,2.13281254 -1.125,2.64843754 -0.1875,-0.4453125 -0.4570312,-0.94921874 -1.0429687,-0.94921874 -0.4335938,0 -0.7617188,0.35156249 -0.7617188,0.76171874 0,0.2109375 0.09375,0.38671875 0.1054688,0.3984375 z m 1.4414062,-0.0703125 c -0.2578125,0.140625 -0.5625,0.1875 -0.796875,0.1875 -0.4335937,0 -0.5273437,-0.375 -0.5273437,-0.515625 0,-0.26953125 0.1992187,-0.53906254 0.5507812,-0.53906254 0.46875,0 0.65625,0.37500004 0.7734375,0.86718754 z m 0,0"
       style="fill:#000000;fill-opacity:1;fill-rule:nonzero;stroke:none"
       aria-label="Q"
       transform="matrix(1.3333333,0,0,1.3333333,25.1,127.87733)" />
    <path
       id="path7"
       d="m 12.04738,-95.93544 c 0,6.65367 -5.39372,12.04739 -12.04738,12.04739 -6.65366,0 -12.04738,-5.39372 -12.04738,-12.04739 0,-6.65366 5.39372,-12.04738 12.04738,-12.04738 6.65366,0 12.04738,5.39372 12.04738,12.04738 z"
       style="fill:#ccccff;fill-opacity:1;fill-rule:nonzero;stroke:#0000ff;stroke-width:0.79701;stroke-linecap:butt;stroke-linejoin:miter;stroke-miterlimit:10;stroke-dasharray:none;stroke-opacity:1"
       transform="matrix(1.3333333,0,0,-1.3333333,29.877333,33.066667)" />
    <path
       id="path8"
       d="m 5.3683594,-5.297 c 0.5625,-0.5273438 1.125,-0.5390625 1.2773437,-0.5507813 v -0.2695312 c -0.2578125,0.023437 -0.7148437,0.023437 -0.796875,0.023437 -0.375,0 -0.7148437,-0.011719 -1.1132812,-0.023437 v 0.2695312 c 0.2460937,0.011719 0.3867187,0.1289063 0.3867187,0.2929688 0,0.082031 -0.023437,0.1523437 -0.070312,0.2109375 L 2.0636719,-2.57825 v -2.8359375 c 0,-0.328125 0.011719,-0.4335938 0.703125,-0.4335938 h 0.2109375 v -0.2695312 c -0.3984375,0.023437 -0.9023438,0.023437 -1.3125,0.023437 -0.421875,0 -0.92578127,0 -1.32421877,-0.023437 v 0.2695312 h 0.2109375 c 0.69140627,0 0.70312497,0.1054688 0.70312497,0.4335938 V -0.70325 c 0,0.328125 -0.011719,0.421875 -0.70312497,0.421875 h -0.2109375 v 0.28125 c 0.3984375,-0.0234375 0.90234377,-0.0234375 1.32421877,-0.0234375 0.4101562,0 0.9140625,0 1.3125,0.0234375 v -0.28125 H 2.7667969 c -0.6914063,0 -0.703125,-0.09375 -0.703125,-0.421875 v -1.5351563 l 1.0898437,-1.0195312 1.6757813,2.390625 c 0.070312,0.09375 0.1523437,0.234375 0.1523437,0.328125 0,0.2578125 -0.3398437,0.2578125 -0.5039062,0.2578125 v 0.28125 c 0.3867187,-0.0234375 0.84375,-0.0234375 1.2421875,-0.0234375 0.234375,0 0.5976562,0 1.0546875,0.0234375 v -0.28125 c -0.5742188,0 -0.6914063,-0.0820313 -0.984375,-0.4921875 L 3.6925781,-3.750125 Z m 0,0"
       style="fill:#000000;fill-opacity:1;fill-rule:nonzero;stroke:none"
       aria-label="K"
       transform="matrix(1.3333333,0,0,1.3333333,25.1,165.06267)" />
    <path
       id="path9"
       d="m 99.30206,0 c 0,6.65366 -5.39372,12.04738 -12.04738,12.04738 -6.65367,0 -12.04739,-5.39372 -12.04739,-12.04738 0,-6.65366 5.39372,-12.04738 12.04739,-12.04738 6.65366,0 12.04738,5.39372 12.04738,12.04738 z"
       style="fill:#fbcce8;fill-opacity:1;fill-rule:nonzero;stroke:#ec008c;stroke-width:0.79701;stroke-linecap:butt;stroke-linejoin:miter;stroke-miterlimit:10;stroke-dasharray:none;stroke-opacity:1"
       transform="matrix(1.3333333,0,0,-1.3333333,29.877333,33.066667)" />
    <path
       id="path10"
       d="m 4.7696563,-0.05938281 c 0.9609375,-0.3984375 1.875,-1.49999999 1.875,-2.97656249 0,-1.828125 -1.3945313,-3.28125 -3.0703125,-3.28125 -1.6757813,0 -3.0585938,1.453125 -3.0585938,3.28125 0,1.8164062 1.3945313,3.23437499 3.0585938,3.23437499 0.3164062,0 0.65625,-0.0703125 0.8671875,-0.12890625 0.1640625,0.890625 0.3046875,1.66406246 1.1367187,1.66406246 0.9257813,0 1.1132813,-1.19531246 1.1132813,-1.65234371 0,-0.0820312525 0,-0.1875 -0.1054688,-0.1875 -0.070312,0 -0.1054687,0.046875 -0.1171875,0.09375 -0.070312,0.78515625 -0.6796875,0.83203125 -0.8203125,0.83203125 -0.4804687,0 -0.6679687,-0.38671875 -0.8789062,-0.87890625 z M 2.9298125,-0.17657031 C 2.062625,-0.51641406 1.3946563,-1.4304766 1.3946563,-3.0359453 c 0,-2.2265625 1.2539062,-3.0351563 2.1796875,-3.0351563 0.9375,0 2.1796875,0.796875 2.1796875,3.0351563 0,1.1835937 -0.3515625,2.13281249 -1.125,2.64843749 C 4.4415313,-0.83282031 4.172,-1.3367266 3.5860625,-1.3367266 c -0.4335937,0 -0.7617187,0.35156254 -0.7617187,0.76171879 0,0.2109375 0.09375,0.38671875 0.1054687,0.3984375 z m 1.4414063,-0.0703125 c -0.2578125,0.140625 -0.5625,0.1875 -0.796875,0.1875 -0.4335938,0 -0.5273438,-0.375 -0.5273438,-0.515625 0,-0.26953125 0.1992188,-0.53906249 0.5507813,-0.53906249 0.46875,0 0.65625,0.37499999 0.7734375,0.86718749 z m 0,0"
       style="fill:#000000;fill-opacity:1;fill-rule:nonzero;stroke:none"
       aria-label="Q"
       transform="matrix(1.3333333,0,0,1.3333333,141.43733,35.989333)" />
    <path
       id="path11"
       d="m 99.30206,-27.0177 c 0,6.65367 -5.39372,12.0474 -12.04738,12.0474 -6.65367,0 -12.04739,-5.39373 -12.04739,-12.0474 0,-6.65366 5.39372,-12.04738 12.04739,-12.04738 6.65366,0 12.04738,5.39372 12.04738,12.04738 z"
       style="fill:#ffffff;fill-opacity:1;fill-rule:nonzero;stroke:#000000;stroke-width:0.79701;stroke-linecap:butt;stroke-linejoin:miter;stroke-miterlimit:10;stroke-dasharray:none;stroke-opacity:1"
       transform="matrix(1.3333333,0,0,-1.3333333,29.877333,33.066667)" />
    <path
       id="path12"
       d="m 3.4910078,-1.0794141 c 0,0.16406254 0,0.18750004 -0.140625,0.37500004 -0.28125,0.41015625 -0.6914062,0.57421875 -1.0429687,0.57421875 -0.3867188,0 -0.75,-0.2109375 -0.984375,-0.5859375 C 1.0886641,-1.1028516 1.0769453,-1.6301953 1.0769453,-1.9231641 c 0,-0.421875 0.046875,-0.890625 0.28125,-1.2539062 0.1992188,-0.28125 0.5625,-0.5625 1.0429688,-0.5625 0.375,0 0.7382812,0.1875 0.9726562,0.5273437 0.1171875,0.140625 0.1171875,0.1523438 0.1171875,0.328125 z m 0.023437,-2.3554687 c -0.046875,-0.058594 -0.4453125,-0.5273438 -1.1484375,-0.5273438 -1.1015625,0 -2.06249999,0.8789063 -2.06249999,2.0390625 0,1.11328129 0.90234379,2.01562504 1.96874999,2.01562504 0.6445313,0 1.0546875,-0.375 1.21875,-0.57421875 v 0.57421875 l 1.3476563,-0.09375 v -0.28125 c -0.609375,0 -0.6914063,-0.0585938 -0.6914063,-0.50390625 V -6.2239453 l -1.3242187,0.1054687 v 0.2695313 c 0.609375,0 0.6914062,0.070312 0.6914062,0.5039062 z m 5.1796875,0.6210937 c 1.2539063,0 2.1679697,-0.7851562 2.1679697,-1.640625 0,-0.890625 -0.9140634,-1.6640625 -2.1679697,-1.6640625 h -3.210937 v 0.2695313 h 0.1992188 c 0.6914062,0 0.7148437,0.1054687 0.7148437,0.4335937 v 4.71093754 c 0,0.328125 -0.023437,0.421875 -0.7148437,0.421875 H 5.4831953 v 0.28125 c 0.3984375,-0.0234375 0.9023438,-0.0234375 1.3125,-0.0234375 0.4101563,0 0.9140625,0 1.3242188,0.0234375 v -0.28125 H 7.9089766 c -0.6914063,0 -0.7148438,-0.09375 -0.7148438,-0.421875 V -2.8137891 Z m -1.523437,-2.6601562 c 0,-0.3046875 0.023437,-0.375 0.4453125,-0.375 h 0.8554688 c 1.4765625,0 1.4765625,0.984375 1.4765625,1.3945312 0,0.3984375 0,1.3828125 -1.4882813,1.3828125 H 7.1706953 Z m 0,0"
       style="fill:#000000;fill-opacity:1;fill-rule:nonzero;stroke:none"
       aria-label="dP"
       transform="matrix(1.3333333,0,0,1.3333333,138.62267,73.24)" />
    <path
       id="path13"
       d="m 99.30206,-54.0354 c 0,6.65367 -5.39372,12.0474 -12.04738,12.0474 -6.65367,0 -12.04739,-5.39373 -12.04739,-12.0474 0,-6.65366 5.39372,-12.04738 12.04739,-12.04738 6.65366,0 12.04738,5.39372 12.04738,12.04738 z"
       style="fill:#ccccff;fill-opacity:1;fill-rule:nonzero;stroke:#0000ff;stroke-width:0.79701;stroke-linecap:butt;stroke-linejoin:miter;stroke-miterlimit:10;stroke-dasharray:none;stroke-opacity:1"
       transform="matrix(1.3333333,0,0,-1.3333333,29.877333,33.066667)" />
    <path
       id="path14"
       d="m 5.3663125,-5.2954609 c 0.5625,-0.5273438 1.125,-0.5390625 1.2773438,-0.5507813 v -0.2695312 c -0.2578125,0.023437 -0.7148438,0.023437 -0.796875,0.023437 -0.375,0 -0.7148438,-0.011719 -1.1132813,-0.023437 v 0.2695312 c 0.2460938,0.011719 0.3867188,0.1289063 0.3867188,0.2929688 0,0.082031 -0.023437,0.1523437 -0.070312,0.2109375 l -2.9882813,2.765625 v -2.8359375 c 0,-0.328125 0.011719,-0.4335938 0.703125,-0.4335938 H 2.975688 v -0.2695312 c -0.3984375,0.023437 -0.9023437,0.023437 -1.3125,0.023437 -0.421875,0 -0.92578125,0 -1.32421875,-0.023437 v 0.2695312 h 0.2109375 c 0.69140625,0 0.70312505,0.1054688 0.70312505,0.4335938 v 4.71093746 c 0,0.328125 -0.011719,0.421875 -0.70312505,0.421875 h -0.2109375 v 0.28125 c 0.3984375,-0.0234375 0.90234375,-0.0234375 1.32421875,-0.0234375 0.4101563,0 0.9140625,0 1.3125,0.0234375 v -0.28125 H 2.76475 c -0.6914062,0 -0.703125,-0.09375 -0.703125,-0.421875 V -2.2368672 L 3.1514688,-3.2563984 4.82725,-0.86577344 c 0.070312,0.09375 0.1523438,0.234375 0.1523438,0.328125 0,0.2578125 -0.3398438,0.2578125 -0.5039063,0.2578125 v 0.28125 c 0.3867188,-0.0234375 0.84375,-0.0234375 1.2421875,-0.0234375 0.234375,0 0.5976563,0 1.0546875,0.0234375 v -0.28125 c -0.5742187,0 -0.6914062,-0.0820313 -0.984375,-0.4921875 L 3.6905313,-3.7485859 Z m 0,0"
       style="fill:#000000;fill-opacity:1;fill-rule:nonzero;stroke:none"
       aria-label="K"
       transform="matrix(1.3333333,0,0,1.3333333,141.43867,109.19733)" />
    <path
       id="path15"
       d="m 99.30206,-95.93544 c 0,6.65367 -5.39372,12.04739 -12.04738,12.04739 -6.65367,0 -12.04739,-5.39372 -12.04739,-12.04739 0,-6.65366 5.39372,-12.04738 12.04739,-12.04738 6.65366,0 12.04738,5.39372 12.04738,12.04738 z"
       style="fill:#ffffff;fill-opacity:1;fill-rule:nonzero;stroke:#000000;stroke-width:0.79701;stroke-linecap:butt;stroke-linejoin:miter;stroke-miterlimit:10;stroke-dasharray:none;stroke-opacity:1"
       transform="matrix(1.3333333,0,0,-1.3333333,29.877333,33.066667)" />
    <path
       id="path16"
       d="m 3.5745859,-2.812625 c 1.2539063,0 2.1679688,-0.7851563 2.1679688,-1.640625 0,-0.890625 -0.9140625,-1.6640625 -2.1679688,-1.6640625 H 0.36364844 v 0.2695312 h 0.19921875 c 0.69140621,0 0.71484371,0.1054688 0.71484371,0.4335938 V -0.70325 c 0,0.328125 -0.023437,0.421875 -0.71484371,0.421875 H 0.36364844 v 0.28125 c 0.3984375,-0.0234375 0.90234376,-0.0234375 1.31249996,-0.0234375 0.4101563,0 0.9140625,0 1.3242188,0.0234375 v -0.28125 H 2.7894297 c -0.6914063,0 -0.7148438,-0.09375 -0.7148438,-0.421875 V -2.812625 Z M 2.0511484,-5.4727813 c 0,-0.3046875 0.023437,-0.375 0.4453125,-0.375 h 0.8554688 c 1.4765625,0 1.4765625,0.984375 1.4765625,1.3945313 0,0.3984375 0,1.3828125 -1.4882813,1.3828125 H 2.0511484 Z m 0,0"
       style="fill:#000000;fill-opacity:1;fill-rule:nonzero;stroke:none"
       aria-label="P"
       transform="matrix(1.3333333,0,0,1.3333333,142.03467,165.06267)" />
    <path
       id="path17"
       d="m 186.55676,-22.67754 c 0,6.65368 -5.39372,12.0474 -12.04739,12.0474 -6.65366,0 -12.04738,-5.39372 -12.04738,-12.0474 0,-6.65365 5.39372,-12.04737 12.04738,-12.04737 6.65367,0 12.04739,5.39372 12.04739,12.04737 z"
       style="fill:#ffffff;fill-opacity:1;fill-rule:nonzero;stroke:#000000;stroke-width:0.79701;stroke-linecap:butt;stroke-linejoin:miter;stroke-miterlimit:10;stroke-dasharray:none;stroke-opacity:1"
       transform="matrix(1.3333333,0,0,-1.3333333,29.877333,33.066667)" />
    <path
       id="path18"
       d="m 3.4916484,-1.0782813 c 0,0.16406255 0,0.18750005 -0.140625,0.37500005 -0.28125,0.41015625 -0.6914062,0.57421875 -1.0429687,0.57421875 -0.3867188,0 -0.75,-0.2109375 -0.984375,-0.5859375 -0.234375,-0.3867188 -0.2460938,-0.9140625 -0.2460938,-1.2070313 0,-0.421875 0.046875,-0.890625 0.28125,-1.2539062 0.1992188,-0.28125 0.5625,-0.5625 1.0429688,-0.5625 0.375,0 0.7382812,0.1875 0.9726562,0.5273437 0.1171875,0.140625 0.1171875,0.1523438 0.1171875,0.328125 z M 3.5150859,-3.43375 c -0.046875,-0.058594 -0.4453125,-0.5273438 -1.1484375,-0.5273438 -1.1015625,0 -2.06249996,0.8789063 -2.06249996,2.0390625 0,1.1132813 0.90234376,2.01562505 1.96874996,2.01562505 0.6445313,0 1.0546875,-0.375 1.21875,-0.57421875 v 0.57421875 l 1.3476563,-0.09375 v -0.28125 c -0.609375,0 -0.6914063,-0.0585938 -0.6914063,-0.50390625 v -5.4375 l -1.3242187,0.1054687 v 0.2695313 c 0.609375,0 0.6914062,0.070312 0.6914062,0.5039062 z m 6.9726561,-1.8632813 c 0.5625,-0.5273437 1.125,-0.5390625 1.277344,-0.5507812 v -0.2695313 c -0.257813,0.023437 -0.714844,0.023437 -0.796875,0.023437 -0.375,0 -0.714844,-0.011719 -1.1132813,-0.023437 v 0.2695313 c 0.2460933,0.011719 0.3867183,0.1289062 0.3867183,0.2929687 0,0.082031 -0.02344,0.1523438 -0.07031,0.2109375 l -2.9882813,2.765625 v -2.8359375 c 0,-0.328125 0.011719,-0.4335937 0.703125,-0.4335937 h 0.2109375 v -0.2695313 c -0.3984375,0.023437 -0.9023438,0.023437 -1.3125,0.023437 -0.421875,0 -0.9257813,0 -1.3242188,-0.023437 v 0.2695313 h 0.2109375 c 0.6914063,0 0.703125,0.1054687 0.703125,0.4335937 v 4.71093755 c 0,0.328125 -0.011719,0.421875 -0.703125,0.421875 H 5.4603984 v 0.28125 c 0.3984375,-0.0234375 0.9023438,-0.0234375 1.3242188,-0.0234375 0.4101562,0 0.9140625,0 1.3125,0.0234375 v -0.28125 H 7.8861797 c -0.6914063,0 -0.703125,-0.09375 -0.703125,-0.421875 V -2.2384375 l 1.0898437,-1.0195313 1.6757813,2.39062505 c 0.070312,0.09375 0.1523433,0.234375 0.1523433,0.328125 0,0.2578125 -0.3398433,0.2578125 -0.5039058,0.2578125 v 0.28125 c 0.3867187,-0.0234375 0.8437498,-0.0234375 1.2421878,-0.0234375 0.234375,0 0.597656,0 1.054687,0.0234375 v -0.28125 c -0.574219,0 -0.691406,-0.0820313 -0.984375,-0.4921875 L 8.8119609,-3.7501563 Z m 0,0"
       style="fill:#000000;fill-opacity:1;fill-rule:nonzero;stroke:none"
       aria-label="dK"
       transform="matrix(1.3333333,0,0,1.3333333,254.364,67.453333)" />
    <path
       id="path19"
       d="m 186.55676,-56.07343 c 0,6.65366 -5.39372,12.04738 -12.04739,12.04738 -6.65366,0 -12.04738,-5.39372 -12.04738,-12.04738 0,-6.65367 5.39372,-12.04739 12.04738,-12.04739 6.65367,0 12.04739,5.39372 12.04739,12.04739 z"
       style="fill:#ffffff;fill-opacity:1;fill-rule:nonzero;stroke:#000000;stroke-width:0.79701;stroke-linecap:butt;stroke-linejoin:miter;stroke-miterlimit:10;stroke-dasharray:none;stroke-opacity:1"
       transform="matrix(1.3333333,0,0,-1.3333333,29.877333,33.066667)" />
    <path
       id="path20"
       d="m 3.4926484,-1.0768906 c 0,0.16406247 0,0.18749997 -0.140625,0.37499997 -0.28125,0.41015625 -0.6914062,0.57421875 -1.0429687,0.57421875 -0.3867188,0 -0.75,-0.2109375 -0.984375,-0.5859375 C 1.0903047,-1.1003281 1.0785859,-1.6276719 1.0785859,-1.9206406 c 0,-0.421875 0.046875,-0.890625 0.28125,-1.2539063 0.1992188,-0.28125 0.5625,-0.5625 1.0429688,-0.5625 0.375,0 0.7382812,0.1875 0.9726562,0.5273438 0.1171875,0.140625 0.1171875,0.1523437 0.1171875,0.328125 z m 0.023437,-2.3554688 c -0.046875,-0.058594 -0.4453125,-0.5273437 -1.1484375,-0.5273437 -1.1015625,0 -2.06249996,0.8789062 -2.06249996,2.0390625 0,1.11328122 0.90234376,2.01562497 1.96874996,2.01562497 0.6445313,0 1.0546875,-0.375 1.21875,-0.57421875 v 0.57421875 l 1.3476563,-0.09375 v -0.28125 c -0.609375,0 -0.6914063,-0.0585938 -0.6914063,-0.50390625 V -6.2214219 l -1.3242187,0.1054688 v 0.2695312 c 0.609375,0 0.6914062,0.070312 0.6914062,0.5039063 z m 6.3720704,3.37500002 c 0.9609382,-0.3984375 1.8750002,-1.50000002 1.8750002,-2.97656252 0,-1.828125 -1.394532,-3.28125 -3.0703127,-3.28125 -1.6757813,0 -3.0585938,1.453125 -3.0585938,3.28125 0,1.8164063 1.3945313,3.23437502 3.0585938,3.23437502 0.3164062,0 0.65625,-0.0703125 0.8671875,-0.12890625 0.1640625,0.890625 0.3046875,1.66406253 1.1367182,1.66406253 0.925782,0 1.113282,-1.19531253 1.113282,-1.65234378 0,-0.08203125 0,-0.1875 -0.105468,-0.1875 -0.07031,0 -0.105469,0.046875 -0.117189,0.09375 -0.07031,0.78515625 -0.679686,0.83203125 -0.820311,0.83203125 -0.480469,0 -0.667969,-0.38671875 -0.8789072,-0.87890625 z M 8.0483125,-0.17454688 C 7.181125,-0.51439063 6.5131563,-1.4284531 6.5131563,-3.0339219 c 0,-2.2265625 1.2539062,-3.0351562 2.1796875,-3.0351562 0.9375,0 2.1796872,0.796875 2.1796872,3.0351562 0,1.1835938 -0.351562,2.13281252 -1.1249997,2.64843752 -0.1875,-0.4453125 -0.4570313,-0.94921872 -1.0429688,-0.94921872 -0.4335937,0 -0.7617187,0.35156247 -0.7617187,0.76171872 0,0.2109375 0.09375,0.38671875 0.1054687,0.3984375 z m 1.4414063,-0.0703125 c -0.2578125,0.140625 -0.5625,0.1875 -0.796875,0.1875 -0.4335938,0 -0.5273438,-0.375 -0.5273438,-0.515625 0,-0.26953125 0.1992188,-0.53906252 0.5507813,-0.53906252 0.46875,0 0.65625,0.37500002 0.7734375,0.86718752 z m 0,0"
       style="fill:#000000;fill-opacity:1;fill-rule:nonzero;stroke:none"
       aria-label="dQ"
       transform="matrix(1.3333333,0,0,1.3333333,254.36267,110.81867)" />
    <path
       id="path21"
       d="m 186.55676,-95.93544 c 0,6.65367 -5.39372,12.04739 -12.04739,12.04739 -6.65366,0 -12.04738,-5.39372 -12.04738,-12.04739 0,-6.65366 5.39372,-12.04738 12.04738,-12.04738 6.65367,0 12.04739,5.39372 12.04739,12.04738 z"
       style="fill:#ffffff;fill-opacity:1;fill-rule:nonzero;stroke:#000000;stroke-width:0.79701;stroke-linecap:butt;stroke-linejoin:miter;stroke-miterlimit:10;stroke-dasharray:none;stroke-opacity:1"
       transform="matrix(1.3333333,0,0,-1.3333333,29.877333,33.066667)" />
    <path
       id="path22"
       d="m 3.4925547,-1.0784453 c 0,0.16406249 0,0.18749999 -0.140625,0.37499999 -0.28125,0.41015625 -0.6914063,0.57421875 -1.0429688,0.57421875 -0.3867187,0 -0.75,-0.2109375 -0.984375,-0.5859375 C 1.0902109,-1.1018828 1.0784922,-1.6292266 1.0784922,-1.9221953 c 0,-0.421875 0.046875,-0.890625 0.28125,-1.2539063 0.1992187,-0.28125 0.5625,-0.5625 1.0429687,-0.5625 0.375,0 0.7382813,0.1875 0.9726563,0.5273438 0.1171875,0.140625 0.1171875,0.1523437 0.1171875,0.328125 z m 0.023437,-2.3554688 c -0.046875,-0.058594 -0.4453125,-0.5273437 -1.1484375,-0.5273437 -1.1015625,0 -2.06250001,0.8789062 -2.06250001,2.0390625 0,1.11328124 0.90234371,2.01562499 1.96875001,2.01562499 0.6445312,0 1.0546875,-0.375 1.21875,-0.57421875 V 0.09342969 L 4.8402109,-3.203125e-4 V -0.28157031 c -0.609375,0 -0.6914062,-0.0585938 -0.6914062,-0.50390625 V -6.2229766 l -1.3242188,0.1054688 v 0.2695312 c 0.609375,0 0.6914063,0.070312 0.6914063,0.5039063 z m 3.5244141,-1.96875 C 7.00525,-5.5081328 7.00525,-5.5667266 7.00525,-5.5784453 c 0,-0.2695313 0.4570313,-0.2695313 0.7148438,-0.2695313 v -0.2695312 c -0.4101563,0.023437 -0.8671875,0.023437 -1.2773438,0.023437 -0.375,0 -0.5039062,-0.011719 -1.1484375,-0.023437 v 0.2695312 c 0.65625,0 0.7617188,0.035156 0.8789063,0.3515625 L 8.3411875,-3.203125e-4 C 8.3997813,0.12858594 8.4232188,0.19889844 8.5755625,0.19889844 c 0.140625,0 0.1640625,-0.0585938 0.2109375,-0.17578125 l 2.074219,-5.27343749 c 0.1875,-0.46875 0.5625,-0.5976563 0.984375,-0.5976563 v -0.2695312 c -0.316406,0.023437 -0.574219,0.023437 -0.878906,0.023437 -0.386719,0 -0.5625,-0.011719 -1.007813,-0.023437 v 0.2695312 c 0.445313,0.011719 0.632813,0.2226563 0.632813,0.4453125 0,0.082031 0,0.09375 -0.03516,0.1875 l -1.722656,4.34765629 z m 0,0"
       style="fill:#000000;fill-opacity:1;fill-rule:nonzero;stroke:none"
       aria-label="dV"
       transform="matrix(1.3333333,0,0,1.3333333,254.53467,165.12933)" />
    <path
       id="path23"
       d="m 257.42381,-35.52182 c 0,6.65367 -5.39372,12.04739 -12.04738,12.04739 -6.65367,0 -12.04739,-5.39372 -12.04739,-12.04739 0,-6.65366 5.39372,-12.04738 12.04739,-12.04738 6.65366,0 12.04738,5.39372 12.04738,12.04738 z"
       style="fill:#d9d9d9;fill-opacity:1;fill-rule:nonzero;stroke:#000000;stroke-width:0.79701;stroke-linecap:butt;stroke-linejoin:miter;stroke-miterlimit:10;stroke-dasharray:none;stroke-opacity:1"
       transform="matrix(1.3333333,0,0,-1.3333333,29.877333,33.066667)" />
    <path
       id="path24"
       d="m 4.77075,-0.05792188 c 0.9609375,-0.3984375 1.875,-1.50000002 1.875,-2.97656252 0,-1.828125 -1.3945312,-3.28125 -3.0703125,-3.28125 -1.6757812,0 -3.05859375,1.453125 -3.05859375,3.28125 0,1.8164063 1.39453125,3.23437502 3.05859375,3.23437502 0.3164063,0 0.65625,-0.0703125 0.8671875,-0.12890625 0.1640625,0.890625 0.3046875,1.66406253 1.1367188,1.66406253 0.9257812,0 1.1132812,-1.19531253 1.1132812,-1.65234378 0,-0.082031245 0,-0.1875 -0.1054687,-0.1875 -0.070312,0 -0.1054688,0.046875 -0.1171875,0.09375 -0.070312,0.78515625 -0.6796875,0.83203125 -0.8203125,0.83203125 -0.4804688,0 -0.6679688,-0.38671875 -0.8789063,-0.87890625 z M 2.9309063,-0.17510938 C 2.0637188,-0.51495313 1.39575,-1.4290156 1.39575,-3.0344844 c 0,-2.2265625 1.2539063,-3.0351562 2.1796875,-3.0351562 0.9375,0 2.1796875,0.796875 2.1796875,3.0351562 0,1.1835938 -0.3515625,2.13281252 -1.125,2.64843752 -0.1875,-0.4453125 -0.4570312,-0.94921872 -1.0429687,-0.94921872 -0.4335938,0 -0.7617188,0.35156247 -0.7617188,0.76171872 0,0.2109375 0.09375,0.38671875 0.1054688,0.3984375 z m 1.4414062,-0.0703125 c -0.2578125,0.140625 -0.5625,0.1875 -0.796875,0.1875 -0.4335937,0 -0.5273437,-0.375 -0.5273437,-0.515625 0,-0.26953125 0.1992187,-0.53906252 0.5507812,-0.53906252 0.46875,0 0.65625,0.37500002 0.7734375,0.86718752 z m 0,0"
       style="fill:#000000;fill-opacity:1;fill-rule:nonzero;stroke:none"
       aria-label="Q"
       transform="matrix(1.3333333,0,0,1.3333333,352.264,83.350667)" />
    <path
       id="path25"
       d="m 257.42929,-71.75761 c 0,6.65667 -5.39616,12.05285 -12.05286,12.05285 -6.65669,0 -12.05285,-5.39618 -12.05285,-12.05285 0,-6.65669 5.39616,-12.05286 12.05285,-12.05286 6.6567,0 12.05286,5.39617 12.05286,12.05286 z"
       style="fill:#d9d9d9;fill-opacity:1;fill-rule:nonzero;stroke:#000000;stroke-width:0.79701;stroke-linecap:butt;stroke-linejoin:miter;stroke-miterlimit:10;stroke-dasharray:none;stroke-opacity:1"
       transform="matrix(1.3333333,0,0,-1.3333333,29.877333,33.066667)" />
    <path
       id="path26"
       d="m 1.7577656,-5.5194844 c 0,-0.2695312 -0.2109375,-0.4921875 -0.4804687,-0.4921875 -0.2695313,0 -0.49218753,0.2226563 -0.49218753,0.4921875 0,0.2695313 0.22265623,0.4804688 0.49218753,0.4804688 0.2695312,0 0.4804687,-0.2109375 0.4804687,-0.4804688 z m -3.1289062,6.8085938 c 0,0.1640625 0,0.1875 -0.140625,0.375 -0.28125,0.4101562 -0.6914063,0.5742187 -1.0429688,0.5742187 -0.3867187,0 -0.75,-0.2109375 -0.984375,-0.5859375 -0.234375,-0.3867187 -0.2460937,-0.91406248 -0.2460937,-1.20703123 0,-0.421875 0.046875,-0.890625 0.28125,-1.25390625 0.1992187,-0.28125002 0.5625,-0.56250002 1.0429687,-0.56250002 0.375,0 0.7382813,0.1875 0.9726563,0.52734377 0.1171875,0.140625 0.1171875,0.15234375 0.1171875,0.328125 z m 0.023437,-2.3554688 c -0.046875,-0.058594 -0.4453125,-0.5273437 -1.1484375,-0.5273437 -1.1015625,0 -2.0625,0.87890622 -2.0625,2.03906247 0,1.11328123 0.9023437,2.01562503 1.96875,2.01562503 0.6445312,0 1.0546875,-0.375 1.21875,-0.5742188 v 0.5742188 l 1.34765622,-0.09375 v -0.28125 c -0.609375,0 -0.69140625,-0.058594 -0.69140625,-0.5039063 v -5.4375 l -1.32421877,0.1054688 v 0.2695312 c 0.609375,0 0.6914063,0.070312 0.6914063,0.5039063 z m 6.9726562,-1.8632812 c 0.5625,-0.5273438 1.125,-0.5390625 1.2773438,-0.5507813 v -0.2695312 c -0.2578125,0.023437 -0.7148438,0.023437 -0.796875,0.023437 -0.375,0 -0.7148438,-0.011719 -1.1132813,-0.023437 v 0.2695312 c 0.2460938,0.011719 0.3867188,0.1289063 0.3867188,0.2929688 0,0.082031 -0.023437,0.1523437 -0.070312,0.2109375 L 2.3202656,-0.21089063 V -3.0468281 c 0,-0.328125 0.011719,-0.4335938 0.703125,-0.4335938 h 0.2109375 v -0.2695312 c -0.3984375,0.023437 -0.9023437,0.023437 -1.3125,0.023437 -0.421875,0 -0.92578123,0 -1.32421873,-0.023437 v 0.2695312 h 0.2109375 c 0.69140623,0 0.70312503,0.1054688 0.70312503,0.4335938 v 4.7109375 c 0,0.328125 -0.011719,0.421875 -0.70312503,0.421875 h -0.2109375 v 0.28125 c 0.3984375,-0.023437 0.90234373,-0.023437 1.32421873,-0.023437 0.4101563,0 0.9140625,0 1.3125,0.023437 v -0.28125 H 3.0233906 c -0.6914062,0 -0.703125,-0.09375 -0.703125,-0.421875 V 0.12895312 L 3.4101094,-0.89057813 5.0858906,1.5000469 c 0.070312,0.09375 0.1523438,0.234375 0.1523438,0.328125 0,0.2578125 -0.3398438,0.2578125 -0.5039063,0.2578125 v 0.28125 c 0.3867188,-0.023437 0.84375,-0.023437 1.2421875,-0.023437 0.234375,0 0.5976563,0 1.0546875,0.023437 v -0.28125 c -0.5742187,0 -0.6914062,-0.082031 -0.984375,-0.4921875 L 3.9491719,-1.3827656 Z m 0,0"
       style="fill:#000000;fill-opacity:1;fill-rule:nonzero;stroke:none"
       aria-label="˙&#10;dK"
       transform="matrix(1.3333333,0,0,1.3333333,355.336,131.164)" />
    <path
       id="path27"
       d="m 344.67851,-53.94707 c 0,6.65366 -5.39372,12.04738 -12.04739,12.04738 -6.65366,0 -12.04738,-5.39372 -12.04738,-12.04738 0,-6.65367 5.39372,-12.04739 12.04738,-12.04739 6.65367,0 12.04739,5.39372 12.04739,12.04739 z"
       style="fill:#ffffff;fill-opacity:1;fill-rule:nonzero;stroke:#000000;stroke-width:0.79701;stroke-linecap:butt;stroke-linejoin:miter;stroke-miterlimit:10;stroke-dasharray:none;stroke-opacity:1"
       transform="matrix(1.3333333,0,0,-1.3333333,29.877333,33.066667)" />
    <path
       id="path28"
       d="m 1.7567188,-5.5190547 c 0,-0.2695312 -0.2109375,-0.4921875 -0.4804688,-0.4921875 -0.2695312,0 -0.4921875,0.2226563 -0.4921875,0.4921875 0,0.2695313 0.2226563,0.4804688 0.4921875,0.4804688 0.2695313,0 0.4804688,-0.2109375 0.4804688,-0.4804688 z m -2.68066411,6.8056641 c 0,0.1640625 0,0.1875 -0.14062499,0.375 -0.28125,0.4101562 -0.6914063,0.5742187 -1.0429688,0.5742187 -0.3867187,0 -0.75,-0.2109375 -0.984375,-0.5859375 -0.234375,-0.3867187 -0.2460937,-0.91406248 -0.2460937,-1.20703123 0,-0.421875 0.046875,-0.890625 0.28125,-1.25390625 0.1992187,-0.28125002 0.5625,-0.56250002 1.0429687,-0.56250002 0.375,0 0.7382813,0.1875 0.9726563,0.52734377 0.11718749,0.140625 0.11718749,0.15234375 0.11718749,0.328125 z m 0.0234375,-2.3554688 c -0.046875,-0.058594 -0.44531249,-0.5273437 -1.14843749,-0.5273437 -1.1015625,0 -2.0625,0.87890622 -2.0625,2.03906247 0,1.11328123 0.9023437,2.01562503 1.96875,2.01562503 0.6445312,0 1.0546875,-0.375 1.21874999,-0.5742188 v 0.5742188 l 1.34765625,-0.09375 v -0.28125 c -0.609375,0 -0.69140625,-0.058594 -0.69140625,-0.5039063 v -5.4375 l -1.32421879,0.1054688 v 0.2695312 c 0.60937504,0 0.69140629,0.070312 0.69140629,0.5039063 z m 5.17968751,0.62109377 c 1.2539062,0 2.1679687,-0.78515627 2.1679687,-1.64062497 0,-0.890625 -0.9140625,-1.6640625 -2.1679687,-1.6640625 H 1.0682422 v 0.2695312 h 0.1992187 c 0.6914063,0 0.7148438,0.1054688 0.7148438,0.4335938 v 4.7109375 c 0,0.328125 -0.023437,0.421875 -0.7148438,0.421875 H 1.0682422 v 0.28125 c 0.3984375,-0.023437 0.9023437,-0.023437 1.3125,-0.023437 0.4101562,0 0.9140625,0 1.3242187,0.023437 v -0.28125 H 3.4940234 c -0.6914062,0 -0.7148437,-0.09375 -0.7148437,-0.421875 V -0.44776563 Z M 2.7557422,-3.1079219 c 0,-0.3046875 0.023437,-0.375 0.4453125,-0.375 h 0.8554687 c 1.4765625,0 1.4765625,0.984375 1.4765625,1.3945313 0,0.3984375 0,1.38281247 -1.4882812,1.38281247 H 2.7557422 Z m 0,0"
       style="fill:#000000;fill-opacity:1;fill-rule:nonzero;stroke:none"
       aria-label="˙&#10;dP"
       transform="matrix(1.3333333,0,0,1.3333333,471.67333,107.41733)" />
    <path
       id="path29"
       d="m 19.00175,-126.5581 h 136.50586 v 14.94342 H 19.00175 Z"
       style="fill:#ffffff;fill-opacity:1;fill-rule:nonzero;stroke:#ffffff;stroke-width:0.79701;stroke-linecap:butt;stroke-linejoin:miter;stroke-miterlimit:10;stroke-dasharray:none;stroke-opacity:1"
       transform="matrix(1.3333333,0,0,-1.3333333,29.877333,33.066667)" />
    <path
       id="path30"
       d="M 4.629375,-8.3192031 C 4.5825,-8.4598281 4.5590625,-8.5301406 4.3832813,-8.5301406 c -0.1640625,0 -0.1875,0.035156 -0.2460938,0.2226562 l -2.4960937,7.1484375 c -0.1757813,0.49218752 -0.5039063,0.79687502 -1.26562505,0.80859377 v 0.3515625 c 0.72656255,-0.0234375 0.75000005,-0.0234375 1.14843755,-0.0234375 0.328125,0 0.9023437,0 1.21875,0.0234375 v -0.3515625 C 2.23875,-0.36217188 1.9340625,-0.60826563 1.9340625,-0.94810938 c 0,-0.0703125 0,-0.09375 0.058594,-0.24609372 l 0.5507812,-1.59375 h 3.0117188 l 0.65625,1.87499997 c 0.070312,0.15234375 0.070312,0.17578125 0.070312,0.2109375 0,0.3515625 -0.6210938,0.3515625 -0.9140625,0.3515625 v 0.3515625 c 0.2695312,-0.0234375 1.21875,-0.0234375 1.5585937,-0.0234375 0.328125,0 1.1953125,0 1.4648438,0.0234375 v -0.3515625 c -0.7734375,0 -0.9960938,0 -1.1601563,-0.48046875 z m -0.5742187,1.2070312 1.3828125,3.984375 H 2.660625 Z m 6.4013667,2.3085938 h 1.6875 v -0.3515625 h -1.6875 v -2.1914063 h -0.257812 c -0.01172,1.125 -0.4453126,2.2617188 -1.5351563,2.3085938 v 0.234375 h 1.0195312 v 3.328125 c 0,1.32421872 0.8906251,1.59374997 1.5234371,1.59374997 0.75,0 1.148438,-0.73828125 1.148438,-1.59374997 V -2.1668594 H 12.08543 v 0.65625 c 0,0.86718752 -0.339844,1.37109377 -0.808594,1.37109377 -0.820313,0 -0.820313,-1.11328127 -0.820313,-1.31249997 z m 4.552735,0 h 1.6875 v -0.3515625 h -1.6875 v -2.1914063 h -0.257813 c -0.01172,1.125 -0.445312,2.2617188 -1.535156,2.3085938 v 0.234375 h 1.019531 v 3.328125 c 0,1.32421872 0.890625,1.59374997 1.523438,1.59374997 0.75,0 1.148437,-0.73828125 1.148437,-1.59374997 v -0.6914063 h -0.269531 v 0.65625 c 0,0.86718752 -0.339844,1.37109377 -0.808594,1.37109377 -0.820312,0 -0.820312,-1.11328127 -0.820312,-1.31249997 z m 7.130859,2.0273437 c 0.257813,0 0.28125,0 0.28125,-0.2226562 0,-1.2070313 -0.644531,-2.3320313 -2.085937,-2.3320313 -1.371094,0 -2.414063,1.2304688 -2.414063,2.71875 0,1.5703125 1.21875,2.73046877 2.542969,2.73046877 1.417969,0 1.957031,-1.28906247 1.957031,-1.53515627 0,-0.082031 -0.05859,-0.1289062 -0.128906,-0.1289062 -0.09375,0 -0.117188,0.070312 -0.140625,0.1289062 -0.316406,0.99609377 -1.113281,1.27734377 -1.617188,1.27734377 -0.503906,0 -1.710937,-0.33984375 -1.710937,-2.40234377 v -0.234375 z M 18.83543,-2.9988906 c 0.09375,-1.875 1.148437,-2.0976563 1.488281,-2.0976563 1.277344,0 1.347656,1.6875 1.359375,2.0976563 z m 9.246093,0.09375 c 0,-1.1132813 0,-1.4414063 -0.28125,-1.828125 -0.339843,-0.46875 -0.902343,-0.5390625 -1.3125,-0.5390625 -1.160156,0 -1.605468,0.9960937 -1.710937,1.2304687 h -0.01172 v -1.2304687 l -1.617187,0.1289062 v 0.3515625 c 0.808593,0 0.902343,0.082031 0.902343,0.6679688 v 3.24609372 c 0,0.52734375 -0.128906,0.52734375 -0.902343,0.52734375 v 0.3515625 c 0.304687,-0.0234375 0.949218,-0.0234375 1.289062,-0.0234375 0.339844,0 0.984375,0 1.300781,0.0234375 v -0.3515625 c -0.761718,0 -0.914062,0 -0.914062,-0.52734375 V -3.1043594 c 0,-1.2539062 0.832031,-1.921875 1.570312,-1.921875 0.738282,0 0.914063,0.609375 0.914063,1.3359375 v 2.81250002 c 0,0.52734375 -0.140625,0.52734375 -0.914063,0.52734375 v 0.3515625 c 0.316407,-0.0234375 0.960938,-0.0234375 1.289063,-0.0234375 0.351562,0 0.996094,0 1.300781,0.0234375 v -0.3515625 c -0.597656,0 -0.890625,0 -0.902344,-0.3515625 z m 2.862305,-1.8984375 h 1.6875 v -0.3515625 h -1.6875 v -2.1914063 h -0.257812 c -0.01172,1.125 -0.445313,2.2617188 -1.535157,2.3085938 v 0.234375 h 1.019532 v 3.328125 c 0,1.32421872 0.890625,1.59374997 1.523437,1.59374997 0.75,0 1.148438,-0.73828125 1.148438,-1.59374997 v -0.6914063 h -0.269532 v 0.65625 c 0,0.86718752 -0.339843,1.37109377 -0.808593,1.37109377 -0.820313,0 -0.820313,-1.11328127 -0.820313,-1.31249997 z m 4.623047,-2.5546875 c 0,-0.3164063 -0.246094,-0.5859375 -0.574219,-0.5859375 -0.316406,0 -0.574218,0.2460937 -0.574218,0.5742187 0,0.3515625 0.28125,0.5859375 0.574218,0.5859375 0.363282,0 0.574219,-0.3164062 0.574219,-0.5742187 z m -1.640625,2.2148437 v 0.3515625 c 0.761719,0 0.867188,0.070312 0.867188,0.65625 v 3.25781252 c 0,0.52734375 -0.128907,0.52734375 -0.902344,0.52734375 v 0.3515625 c 0.328125,-0.0234375 0.902344,-0.0234375 1.253906,-0.0234375 0.128906,0 0.820313,0 1.230469,0.0234375 v -0.3515625 c -0.773438,0 -0.832031,-0.0585938 -0.832031,-0.515625 V -5.2723281 Z m 8.302734,2.5898438 c 0,-1.546875 -1.171875,-2.7773438 -2.554687,-2.7773438 -1.429688,0 -2.566406,1.265625 -2.566406,2.7773438 0,1.5234375 1.195312,2.67187497 2.554687,2.67187497 1.40625,0 2.566406,-1.17187497 2.566406,-2.67187497 z m -2.554687,2.41406247 c -0.445313,0 -0.984375,-0.19921875 -1.324219,-0.78515625 -0.328125,-0.52734372 -0.339844,-1.24218752 -0.339844,-1.73437502 0,-0.4570312 0,-1.1835937 0.375,-1.7226562 0.328125,-0.515625 0.855469,-0.7148438 1.277344,-0.7148438 0.46875,0 0.972656,0.2226563 1.289063,0.6914063 0.375,0.5507812 0.375,1.3007812 0.375,1.7460937 0,0.4101563 0,1.1484375 -0.316407,1.71093752 -0.328125,0.57421875 -0.878906,0.80859375 -1.335937,0.80859375 z m 8.244141,-2.76562497 c 0,-1.1132813 0,-1.4414063 -0.28125,-1.828125 -0.339844,-0.46875 -0.902344,-0.5390625 -1.3125,-0.5390625 -1.160157,0 -1.605469,0.9960937 -1.710938,1.2304687 h -0.01172 v -1.2304687 l -1.617187,0.1289062 v 0.3515625 c 0.808594,0 0.902344,0.082031 0.902344,0.6679688 v 3.24609372 c 0,0.52734375 -0.128907,0.52734375 -0.902344,0.52734375 v 0.3515625 c 0.304687,-0.0234375 0.949219,-0.0234375 1.289062,-0.0234375 0.339844,0 0.984375,0 1.300782,0.0234375 v -0.3515625 c -0.761719,0 -0.914063,0 -0.914063,-0.52734375 V -3.1043594 c 0,-1.2539062 0.832031,-1.921875 1.570313,-1.921875 0.738281,0 0.914062,0.609375 0.914062,1.3359375 v 2.81250002 c 0,0.52734375 -0.140625,0.52734375 -0.914062,0.52734375 v 0.3515625 c 0.316406,-0.0234375 0.960937,-0.0234375 1.289062,-0.0234375 0.351563,0 0.996094,0 1.300781,0.0234375 v -0.3515625 c -0.597656,0 -0.890625,0 -0.902343,-0.3515625 z m 5.595703,-5.2617188 v 0.3515625 h 0.234375 c 0.867187,0 0.902343,0.1171875 0.902343,0.5625 v 6.33984377 c 0,0.4453125 -0.03516,0.5625 -0.902343,0.5625 h -0.234375 v 0.3515625 h 4.488281 c 1.546875,0 2.625,-1.04296877 2.625,-2.19140627 0,-0.9609375 -0.878906,-1.921875 -2.296875,-2.0742187 1.136719,-0.2226563 1.957031,-0.984375 1.957031,-1.875 0,-1.03125 -1.042969,-2.0273438 -2.601562,-2.0273438 z m 2.039062,3.8085938 v -2.9765625 c 0,-0.3984375 0.02344,-0.4804688 0.550781,-0.4804688 h 1.511719 c 1.195313,0 1.617188,1.03125 1.617188,1.6757813 0,0.7851562 -0.621094,1.78125 -1.945313,1.78125 z m 0.550781,4.00781247 c -0.527343,0 -0.550781,-0.0820313 -0.550781,-0.46875 V -4.1238906 h 2.238281 c 1.148438,0 1.746094,1.0078125 1.746094,1.921875 0,0.9726562 -0.726562,1.85156247 -1.898437,1.85156247 z m 9.802735,-2.83593747 c 0,-0.6445313 0,-1.125 -0.527344,-1.59375 -0.421875,-0.3867188 -0.960937,-0.5507813 -1.488281,-0.5507813 -0.972656,0 -1.734375,0.6445313 -1.734375,1.4179688 0,0.3515625 0.234375,0.515625 0.503906,0.515625 0.292969,0 0.492188,-0.1992188 0.492188,-0.4921875 0,-0.4804688 -0.433594,-0.4804688 -0.609375,-0.4804688 0.28125,-0.5039062 0.855468,-0.7265625 1.324218,-0.7265625 0.550782,0 1.253907,0.4570313 1.253907,1.5351563 v 0.4804687 c -2.402344,0.035156 -3.304688,1.0429688 -3.304688,1.9570313 0,0.94921872 1.101563,1.24218747 1.828125,1.24218747 0.785156,0 1.324219,-0.48046875 1.558594,-1.0546875 0.04687,0.5625 0.410156,0.99609375 0.925781,0.99609375 0.257813,0 0.949219,-0.1640625 0.949219,-1.12500002 v -0.6679687 h -0.269531 v 0.6679687 c 0,0.67968752 -0.28125,0.78515627 -0.457032,0.78515627 -0.445312,0 -0.445312,-0.64453125 -0.445312,-0.82031247 z m -0.785156,1.5 c 0,1.17187497 -0.867188,1.57031247 -1.382813,1.57031247 -0.585937,0 -1.078125,-0.43359375 -1.078125,-1.00781247 0,-1.5820313 2.039063,-1.7226563 2.460938,-1.7460938 z m 6.345703,-2.7304688 c -0.140625,0 -0.585938,0 -0.585938,0.4804688 0,0.2929687 0.210938,0.4921875 0.492188,0.4921875 0.28125,0 0.503906,-0.1640625 0.503906,-0.515625 0,-0.796875 -0.832031,-1.3710938 -1.804688,-1.3710938 -1.394531,0 -2.507812,1.2421875 -2.507812,2.7539063 0,1.5234375 1.148437,2.69531247 2.496094,2.69531247 1.582031,0 1.933593,-1.42968747 1.933593,-1.53515627 0,-0.1171875 -0.08203,-0.1171875 -0.117187,-0.1171875 -0.105469,0 -0.117188,0.035156 -0.152344,0.1875 -0.269531,0.84375002 -0.914062,1.20703127 -1.558594,1.20703127 -0.726562,0 -1.699218,-0.6328125 -1.699218,-2.44921877 0,-1.9921875 1.019531,-2.4726562 1.617187,-2.4726562 0.457031,0 1.113281,0.1757812 1.382813,0.6445312 z m 3.908203,1.2539063 c 0,-0.011719 -0.09375,-0.1054688 -0.09375,-0.1289063 0,-0.035156 0.761719,-0.6796875 0.855469,-0.7734375 0.820312,-0.7148437 1.347656,-0.7265625 1.605468,-0.7382812 v -0.3515625 c -0.246093,0.023437 -0.550781,0.023437 -0.914062,0.023437 -0.304688,0 -0.914063,0 -1.195313,-0.023437 v 0.3515625 c 0.199219,0.011719 0.351563,0.1171875 0.351563,0.3046875 0,0.2460937 -0.246094,0.4570312 -0.257813,0.4570312 l -1.710937,1.5117188 v -5.765625 l -1.652344,0.1289062 v 0.3515625 c 0.808594,0 0.902344,0.082031 0.902344,0.6679688 v 6.26953122 c 0,0.52734375 -0.128906,0.52734375 -0.902344,0.52734375 v 0.3515625 c 0.328125,-0.0234375 0.902344,-0.0234375 1.265625,-0.0234375 0.351563,0 0.925781,0 1.265625,0.0234375 v -0.3515625 c -0.761719,0 -0.914062,0 -0.914062,-0.52734375 V -2.1551406 l 0.773437,-0.6679688 1.136719,1.6523438 c 0.1875,0.24609372 0.269531,0.38671872 0.269531,0.55078122 0,0.2109375 -0.164062,0.26953125 -0.421875,0.26953125 v 0.3515625 c 0.304688,-0.0234375 0.890625,-0.0234375 1.207031,-0.0234375 0.515625,0 0.539063,0 1.054688,0.0234375 v -0.3515625 c -0.328125,0 -0.691406,0 -1.03125,-0.48046875 z m 10.057617,-0.8554688 c 0.269531,-0.75 0.785156,-0.7734375 0.996094,-0.7851562 v -0.3515625 c -0.304688,0.023437 -0.515625,0.023437 -0.890625,0.023437 -0.339844,0 -0.363282,0 -1.007813,-0.023437 v 0.3515625 c 0.527344,0.023437 0.679688,0.3515625 0.679688,0.5742187 0,0.011719 0,0.09375 -0.04687,0.2109375 L 84.061992,-0.87779688 82.86668,-4.2645156 c -0.05859,-0.140625 -0.05859,-0.1640625 -0.05859,-0.1992188 0,-0.3398437 0.433594,-0.3398437 0.691406,-0.3398437 v -0.3515625 c -0.339844,0.023437 -0.832031,0.023437 -1.171875,0.023437 -0.386719,0 -0.410156,0 -1.078125,-0.023437 v 0.3515625 c 0.457031,0 0.609375,0.023437 0.738281,0.1757812 0.05859,0.070312 0.210938,0.46875 0.292969,0.703125 l -1.019531,2.9179688 -1.148438,-3.2460938 c -0.05859,-0.1523437 -0.05859,-0.1757812 -0.05859,-0.234375 0,-0.3164062 0.46875,-0.3164062 0.691406,-0.3164062 v -0.3515625 c -0.292969,0.023437 -0.890625,0.023437 -1.21875,0.023437 -0.328125,0 -0.351563,0 -1.113281,-0.023437 v 0.3515625 c 0.609375,0 0.738281,0.046875 0.867187,0.4335937 l 1.5,4.27734377 c 0.04687,0.12890625 0.08203,0.2109375 0.222656,0.2109375 0.105469,0 0.164063,-0.03515625 0.222657,-0.22265625 l 1.195312,-3.41015622 1.195313,3.41015622 c 0.05859,0.1875 0.117187,0.22265625 0.222656,0.22265625 0.140625,0 0.175781,-0.08203125 0.222656,-0.2109375 z m 5.504883,0.8320313 c 0,-0.6445313 0,-1.125 -0.527344,-1.59375 -0.421875,-0.3867188 -0.960937,-0.5507813 -1.488281,-0.5507813 -0.972656,0 -1.734375,0.6445313 -1.734375,1.4179688 0,0.3515625 0.234375,0.515625 0.503906,0.515625 0.292969,0 0.492188,-0.1992188 0.492188,-0.4921875 0,-0.4804688 -0.433594,-0.4804688 -0.609375,-0.4804688 0.28125,-0.5039062 0.855468,-0.7265625 1.324218,-0.7265625 0.550782,0 1.253907,0.4570313 1.253907,1.5351563 v 0.4804687 c -2.402344,0.035156 -3.304688,1.0429688 -3.304688,1.9570313 0,0.94921872 1.101563,1.24218747 1.828125,1.24218747 0.785156,0 1.324219,-0.48046875 1.558594,-1.0546875 0.04687,0.5625 0.410156,0.99609375 0.925781,0.99609375 0.257813,0 0.949219,-0.1640625 0.949219,-1.12500002 v -0.6679687 h -0.269531 v 0.6679687 c 0,0.67968752 -0.28125,0.78515627 -0.457032,0.78515627 -0.445312,0 -0.445312,-0.64453125 -0.445312,-0.82031247 z m -0.785156,1.5 c 0,1.17187497 -0.867188,1.57031247 -1.382813,1.57031247 -0.585937,0 -1.078125,-0.43359375 -1.078125,-1.00781247 0,-1.5820313 2.039063,-1.7226563 2.460938,-1.7460938 z m 4.013671,-1.1015625 c 0,-1.1601563 0.480469,-2.2382813 1.40625,-2.2382813 0.09375,0 0.117188,0 0.164063,0.011719 -0.09375,0.046875 -0.292969,0.1171875 -0.292969,0.4335937 0,0.3515625 0.28125,0.4804688 0.46875,0.4804688 0.246094,0 0.480469,-0.1523438 0.480469,-0.4804688 0,-0.3515625 -0.316406,-0.6914062 -0.832031,-0.6914062 -1.019532,0 -1.371094,1.1015625 -1.441407,1.3242187 h -0.01172 v -1.3242187 l -1.59375,0.1289062 v 0.3515625 c 0.808593,0 0.902343,0.082031 0.902343,0.6679688 v 3.24609372 c 0,0.52734375 -0.128906,0.52734375 -0.902343,0.52734375 v 0.3515625 c 0.328125,-0.0234375 0.984375,-0.0234375 1.347656,-0.0234375 0.316406,0 1.171875,0 1.441406,0.0234375 v -0.3515625 h -0.234375 c -0.878906,0 -0.902344,-0.12890625 -0.902344,-0.5625 z m 6.146486,-5.3789063 v 0.3515625 c 0.80859,0 0.91406,0.082031 0.91406,0.6679688 v 2.6367187 c -0.25781,-0.3398437 -0.77344,-0.7617187 -1.499999,-0.7617187 -1.382812,0 -2.578125,1.171875 -2.578125,2.7070312 0,1.5117188 1.136719,2.68359377 2.449219,2.68359377 0.902345,0 1.429685,-0.59765625 1.593755,-0.8203125 v 0.8203125 l 1.6875,-0.1171875 v -0.3515625 c -0.8086,0 -0.90235,-0.0820313 -0.90235,-0.66796877 v -7.2773437 z m 0.87891,6.7734375 c 0,0.2109375 0,0.2460938 -0.16407,0.51562502 -0.28125,0.41015625 -0.77343,0.76171875 -1.371091,0.76171875 -0.316406,0 -1.605469,-0.1171875 -1.605469,-2.43749997 0,-0.8671875 0.140625,-1.3476563 0.410156,-1.734375 0.234375,-0.375 0.714844,-0.7382813 1.3125,-0.7382813 0.738284,0 1.160154,0.5273438 1.277344,0.7265625 0.14063,0.1992188 0.14063,0.2226563 0.14063,0.4453125 z m 8.54882,-2.4023437 h 2.02735 c 1.39453,0 2.67187,-0.9492188 2.67187,-2.15625 0,-1.1601563 -1.16015,-2.2148438 -2.76562,-2.2148438 h -4.03125 v 0.3515625 h 0.23437 c 0.86719,0 0.90235,0.1171875 0.90235,0.5625 v 6.33984377 c 0,0.4453125 -0.0352,0.5625 -0.90235,0.5625 h -0.23437 v 0.3515625 c 0.28125,-0.0234375 1.26562,-0.0234375 1.61718,-0.0234375 0.35157,0 1.33594,0 1.61719,0.0234375 v -0.3515625 h -0.23437 c -0.86719,0 -0.90235,-0.1171875 -0.90235,-0.5625 z m -0.0234,-0.2929688 v -3.2460937 c 0,-0.3984375 0.0234,-0.4804688 0.55078,-0.4804688 h 1.125 c 1.93359,0 1.93359,1.3476563 1.93359,1.8632813 0,0.5039062 0,1.8632812 -1.94531,1.8632812 z m 9.67089,0.9023438 c 0,-0.6445313 0,-1.125 -0.52734,-1.59375 -0.42187,-0.3867188 -0.96094,-0.5507813 -1.48828,-0.5507813 -0.97266,0 -1.73438,0.6445313 -1.73438,1.4179688 0,0.3515625 0.23438,0.515625 0.50391,0.515625 0.29297,0 0.49219,-0.1992188 0.49219,-0.4921875 0,-0.4804688 -0.4336,-0.4804688 -0.60938,-0.4804688 0.28125,-0.5039062 0.85547,-0.7265625 1.32422,-0.7265625 0.55078,0 1.25391,0.4570313 1.25391,1.5351563 v 0.4804687 c -2.40235,0.035156 -3.30469,1.0429688 -3.30469,1.9570313 0,0.94921872 1.10156,1.24218747 1.82813,1.24218747 0.78515,0 1.32421,-0.48046875 1.55859,-1.0546875 0.0469,0.5625 0.41016,0.99609375 0.92578,0.99609375 0.25781,0 0.94922,-0.1640625 0.94922,-1.12500002 v -0.6679687 h -0.26953 v 0.6679687 c 0,0.67968752 -0.28125,0.78515627 -0.45703,0.78515627 -0.44532,0 -0.44532,-0.64453125 -0.44532,-0.82031247 z m -0.78515,1.5 c 0,1.17187497 -0.86719,1.57031247 -1.38281,1.57031247 -0.58594,0 -1.07813,-0.43359375 -1.07813,-1.00781247 0,-1.5820313 2.03906,-1.7226563 2.46094,-1.7460938 z m 5.94726,-3.3632813 c 0,-0.2226562 0,-0.28125 -0.1289,-0.28125 -0.0937,0 -0.31641,0.2695313 -0.39844,0.375 -0.375,-0.3046875 -0.75,-0.375 -1.125,-0.375 -1.45313,0 -1.875,0.7851563 -1.875,1.4414063 0,0.140625 0,0.5507812 0.44531,0.9726562 0.38672,0.3398438 0.79688,0.421875 1.34766,0.5273438 0.65625,0.1289062 0.80859,0.1640625 1.11328,0.4101562 0.21094,0.1757813 0.36328,0.4335938 0.36328,0.7734375 0,0.51562502 -0.29297,1.08984377 -1.34766,1.08984377 -0.78515,0 -1.35937,-0.45703125 -1.6289,-1.65234377 -0.0469,-0.2109375 -0.0469,-0.2226562 -0.0586,-0.234375 -0.0234,-0.046875 -0.0703,-0.046875 -0.10546,-0.046875 -0.12891,0 -0.12891,0.058594 -0.12891,0.2695313 v 1.62890622 c 0,0.2109375 0,0.26953125 0.11719,0.26953125 0.0586,0 0.0703,-0.0117188 0.26953,-0.2578125 0.0586,-0.0820313 0.0586,-0.10546875 0.24609,-0.3046875 0.44531,0.5625 1.10156,0.5625 1.30078,0.5625 1.25391,0 1.875,-0.69140625 1.875,-1.64062497 0,-0.6445313 -0.39843,-1.0195313 -0.5039,-1.125 -0.4336,-0.375 -0.75,-0.4453125 -1.53516,-0.5859375 -0.36328,-0.082031 -1.23047,-0.2460938 -1.23047,-0.9609375 0,-0.375 0.2461,-0.9257813 1.32422,-0.9257813 1.30078,0 1.37109,1.1132813 1.39453,1.4882813 0.0117,0.09375 0.0937,0.09375 0.12891,0.09375 0.14062,0 0.14062,-0.058594 0.14062,-0.2695313 z m 4.61719,0 c 0,-0.2226562 0,-0.28125 -0.12891,-0.28125 -0.0937,0 -0.3164,0.2695313 -0.39843,0.375 -0.375,-0.3046875 -0.75,-0.375 -1.125,-0.375 -1.45313,0 -1.875,0.7851563 -1.875,1.4414063 0,0.140625 0,0.5507812 0.44531,0.9726562 0.38672,0.3398438 0.79687,0.421875 1.34766,0.5273438 0.65625,0.1289062 0.80859,0.1640625 1.11328,0.4101562 0.21093,0.1757813 0.36328,0.4335938 0.36328,0.7734375 0,0.51562502 -0.29297,1.08984377 -1.34766,1.08984377 -0.78515,0 -1.35937,-0.45703125 -1.6289,-1.65234377 -0.0469,-0.2109375 -0.0469,-0.2226562 -0.0586,-0.234375 -0.0234,-0.046875 -0.0703,-0.046875 -0.10547,-0.046875 -0.1289,0 -0.1289,0.058594 -0.1289,0.2695313 v 1.62890622 c 0,0.2109375 0,0.26953125 0.11718,0.26953125 0.0586,0 0.0703,-0.0117188 0.26954,-0.2578125 0.0586,-0.0820313 0.0586,-0.10546875 0.24609,-0.3046875 0.44531,0.5625 1.10156,0.5625 1.30078,0.5625 1.25391,0 1.875,-0.69140625 1.875,-1.64062497 0,-0.6445313 -0.39844,-1.0195313 -0.50391,-1.125 -0.43359,-0.375 -0.75,-0.4453125 -1.53515,-0.5859375 -0.36328,-0.082031 -1.23047,-0.2460938 -1.23047,-0.9609375 0,-0.375 0.24609,-0.9257813 1.32422,-0.9257813 1.30078,0 1.37109,1.1132813 1.39453,1.4882813 0.0117,0.09375 0.0937,0.09375 0.12891,0.09375 0.14062,0 0.14062,-0.058594 0.14062,-0.2695313 z m 0,0"
       style="fill:#000000;fill-opacity:1;fill-rule:nonzero;stroke:none"
       aria-label="AttentionBackwardPass"
       transform="matrix(1.3333333,0,0,1.3333333,59.64,197.38133)" />
    <path
       id="path31"
       d="m 192.41394,-128.88274 h 195.04068 v 17.26804 H 192.41394 Z"
       style="fill:#ffffff;fill-opacity:1;fill-rule:nonzero;stroke:#ffffff;stroke-width:0.79701;stroke-linecap:butt;stroke-linejoin:miter;stroke-miterlimit:10;stroke-dasharray:none;stroke-opacity:1"
       transform="matrix(1.3333333,0,0,-1.3333333,29.877333,33.066667)" />
    <path
       id="path32"
       d="m 0.51429687,-8.1668594 v 0.3515625 h 0.234375 c 0.86718753,0 0.90234373,0.1171875 0.90234373,0.5625 v 6.33984377 c 0,0.4453125 -0.035156,0.5625 -0.90234373,0.5625 h -0.234375 v 0.3515625 H 5.0025781 c 1.546875,0 2.625,-1.04296877 2.625,-2.19140627 0,-0.9609375 -0.8789062,-1.921875 -2.296875,-2.0742187 1.1367188,-0.2226563 1.9570313,-0.984375 1.9570313,-1.875 0,-1.03125 -1.0429688,-2.0273438 -2.6015625,-2.0273438 z m 2.03906253,3.8085938 v -2.9765625 c 0,-0.3984375 0.023437,-0.4804688 0.5507812,-0.4804688 h 1.5117188 c 1.1953125,0 1.6171875,1.03125 1.6171875,1.6757813 0,0.7851562 -0.6210938,1.78125 -1.9453125,1.78125 z m 0.5507812,4.00781247 c -0.5273437,0 -0.5507812,-0.0820313 -0.5507812,-0.46875 V -4.1238906 h 2.2382812 c 1.1484375,0 1.7460938,1.0078125 1.7460938,1.921875 0,0.9726562 -0.7265625,1.85156247 -1.8984375,1.85156247 z M 12.906875,-3.1863906 c 0,-0.6445313 0,-1.125 -0.527344,-1.59375 -0.421875,-0.3867188 -0.960937,-0.5507813 -1.488281,-0.5507813 -0.9726563,0 -1.734375,0.6445313 -1.734375,1.4179688 0,0.3515625 0.234375,0.515625 0.5039062,0.515625 0.2929688,0 0.4921878,-0.1992188 0.4921878,-0.4921875 0,-0.4804688 -0.433594,-0.4804688 -0.6093753,-0.4804688 0.28125,-0.5039062 0.8554683,-0.7265625 1.3242183,-0.7265625 0.550782,0 1.253907,0.4570313 1.253907,1.5351563 v 0.4804687 c -2.402344,0.035156 -3.3046878,1.0429688 -3.3046878,1.9570313 0,0.94921872 1.1015625,1.24218747 1.8281248,1.24218747 0.785156,0 1.324219,-0.48046875 1.558594,-1.0546875 0.04687,0.5625 0.410156,0.99609375 0.925781,0.99609375 0.257813,0 0.949219,-0.1640625 0.949219,-1.12500002 v -0.6679687 h -0.269531 v 0.6679687 c 0,0.67968752 -0.28125,0.78515627 -0.457032,0.78515627 -0.445312,0 -0.445312,-0.64453125 -0.445312,-0.82031247 z m -0.785156,1.5 c 0,1.17187497 -0.867188,1.57031247 -1.382813,1.57031247 -0.585937,0 -1.0781248,-0.43359375 -1.0781248,-1.00781247 0,-1.5820313 2.0390628,-1.7226563 2.4609378,-1.7460938 z m 6.345703,-2.7304688 c -0.140625,0 -0.585938,0 -0.585938,0.4804688 0,0.2929687 0.210938,0.4921875 0.492188,0.4921875 0.28125,0 0.503906,-0.1640625 0.503906,-0.515625 0,-0.796875 -0.832031,-1.3710938 -1.804687,-1.3710938 -1.394532,0 -2.507813,1.2421875 -2.507813,2.7539063 0,1.5234375 1.148438,2.69531247 2.496094,2.69531247 1.582031,0 1.933594,-1.42968747 1.933594,-1.53515627 0,-0.1171875 -0.08203,-0.1171875 -0.117188,-0.1171875 -0.105469,0 -0.117187,0.035156 -0.152344,0.1875 -0.269531,0.84375002 -0.914062,1.20703127 -1.558593,1.20703127 -0.726563,0 -1.699219,-0.6328125 -1.699219,-2.44921877 0,-1.9921875 1.019531,-2.4726562 1.617187,-2.4726562 0.457032,0 1.113282,0.1757812 1.382813,0.6445312 z m 3.908203,1.2539063 c 0,-0.011719 -0.09375,-0.1054688 -0.09375,-0.1289063 0,-0.035156 0.761719,-0.6796875 0.855469,-0.7734375 0.820312,-0.7148437 1.347656,-0.7265625 1.605468,-0.7382812 v -0.3515625 c -0.246093,0.023437 -0.550781,0.023437 -0.914062,0.023437 -0.304688,0 -0.914063,0 -1.195313,-0.023437 v 0.3515625 c 0.199219,0.011719 0.351563,0.1171875 0.351563,0.3046875 0,0.2460937 -0.246094,0.4570312 -0.257813,0.4570312 l -1.710937,1.5117188 v -5.765625 l -1.652344,0.1289062 v 0.3515625 c 0.808594,0 0.902344,0.082031 0.902344,0.6679688 v 6.26953122 c 0,0.52734375 -0.128906,0.52734375 -0.902344,0.52734375 v 0.3515625 c 0.328125,-0.0234375 0.902344,-0.0234375 1.265625,-0.0234375 0.351563,0 0.925781,0 1.265625,0.0234375 v -0.3515625 c -0.761719,0 -0.914062,0 -0.914062,-0.52734375 V -2.1551406 l 0.773437,-0.6679688 1.136719,1.6523438 c 0.1875,0.24609372 0.269531,0.38671872 0.269531,0.55078122 0,0.2109375 -0.164062,0.26953125 -0.421875,0.26953125 v 0.3515625 c 0.304688,-0.0234375 0.890625,-0.0234375 1.207031,-0.0234375 0.515625,0 0.539063,0 1.054688,0.0234375 v -0.3515625 c -0.328125,0 -0.691406,0 -1.03125,-0.48046875 z m 10.057617,-0.8554688 c 0.269531,-0.75 0.785156,-0.7734375 0.996094,-0.7851562 v -0.3515625 c -0.304688,0.023437 -0.515625,0.023437 -0.890625,0.023437 -0.339844,0 -0.363281,0 -1.007813,-0.023437 v 0.3515625 c 0.527344,0.023437 0.679688,0.3515625 0.679688,0.5742187 0,0.011719 0,0.09375 -0.04687,0.2109375 l -1.101563,3.14062502 -1.195312,-3.38671872 c -0.05859,-0.140625 -0.05859,-0.1640625 -0.05859,-0.1992188 0,-0.3398437 0.433594,-0.3398437 0.691406,-0.3398437 v -0.3515625 c -0.339843,0.023437 -0.832031,0.023437 -1.171875,0.023437 -0.386718,0 -0.410156,0 -1.078125,-0.023437 v 0.3515625 c 0.457032,0 0.609375,0.023437 0.738282,0.1757812 0.05859,0.070312 0.210937,0.46875 0.292968,0.703125 l -1.019531,2.9179688 -1.148437,-3.2460938 c -0.05859,-0.1523437 -0.05859,-0.1757812 -0.05859,-0.234375 0,-0.3164062 0.46875,-0.3164062 0.691406,-0.3164062 v -0.3515625 c -0.292969,0.023437 -0.890625,0.023437 -1.21875,0.023437 -0.328125,0 -0.351562,0 -1.113281,-0.023437 v 0.3515625 c 0.609375,0 0.738281,0.046875 0.867187,0.4335937 l 1.5,4.27734377 c 0.04687,0.12890625 0.08203,0.2109375 0.222657,0.2109375 0.105468,0 0.164062,-0.03515625 0.222656,-0.22265625 l 1.195312,-3.41015622 1.195313,3.41015622 c 0.05859,0.1875 0.117187,0.22265625 0.222656,0.22265625 0.140625,0 0.175781,-0.08203125 0.222656,-0.2109375 z m 5.516602,0.8320313 c 0,-0.6445313 0,-1.125 -0.527344,-1.59375 -0.421875,-0.3867188 -0.960938,-0.5507813 -1.488281,-0.5507813 -0.972657,0 -1.734375,0.6445313 -1.734375,1.4179688 0,0.3515625 0.234375,0.515625 0.503906,0.515625 0.292969,0 0.492187,-0.1992188 0.492187,-0.4921875 0,-0.4804688 -0.433593,-0.4804688 -0.609375,-0.4804688 0.28125,-0.5039062 0.855469,-0.7265625 1.324219,-0.7265625 0.550781,0 1.253906,0.4570313 1.253906,1.5351563 v 0.4804687 C 34.762344,-3.0457656 33.86,-2.0379531 33.86,-1.1238906 c 0,0.94921872 1.101562,1.24218747 1.828125,1.24218747 0.785156,0 1.324219,-0.48046875 1.558594,-1.0546875 0.04687,0.5625 0.410156,0.99609375 0.925781,0.99609375 0.257812,0 0.949219,-0.1640625 0.949219,-1.12500002 v -0.6679687 h -0.269532 v 0.6679687 c 0,0.67968752 -0.28125,0.78515627 -0.457031,0.78515627 -0.445312,0 -0.445312,-0.64453125 -0.445312,-0.82031247 z m -0.785157,1.5 c 0,1.17187497 -0.867187,1.57031247 -1.382812,1.57031247 -0.585938,0 -1.078125,-0.43359375 -1.078125,-1.00781247 0,-1.5820313 2.039062,-1.7226563 2.460937,-1.7460938 z m 4.013672,-1.1015625 c 0,-1.1601563 0.480469,-2.2382813 1.40625,-2.2382813 0.09375,0 0.117188,0 0.164063,0.011719 -0.09375,0.046875 -0.292969,0.1171875 -0.292969,0.4335937 0,0.3515625 0.28125,0.4804688 0.46875,0.4804688 0.246094,0 0.480469,-0.1523438 0.480469,-0.4804688 0,-0.3515625 -0.316406,-0.6914062 -0.832031,-0.6914062 -1.019532,0 -1.371094,1.1015625 -1.441407,1.3242187 h -0.01172 v -1.3242187 l -1.59375,0.1289062 v 0.3515625 c 0.808593,0 0.902343,0.082031 0.902343,0.6679688 v 3.24609372 c 0,0.52734375 -0.128906,0.52734375 -0.902343,0.52734375 v 0.3515625 c 0.328125,-0.0234375 0.984375,-0.0234375 1.347656,-0.0234375 0.316406,0 1.171875,0 1.441406,0.0234375 v -0.3515625 h -0.234375 c -0.878906,0 -0.902344,-0.12890625 -0.902344,-0.5625 z m 6.134766,-5.3789063 v 0.3515625 c 0.808594,0 0.914062,0.082031 0.914062,0.6679688 v 2.6367187 c -0.257812,-0.3398437 -0.773437,-0.7617187 -1.5,-0.7617187 -1.382812,0 -2.578125,1.171875 -2.578125,2.7070312 0,1.5117188 1.136719,2.68359377 2.449219,2.68359377 0.902344,0 1.429688,-0.59765625 1.59375,-0.8203125 v 0.8203125 l 1.6875,-0.1171875 v -0.3515625 c -0.808594,0 -0.902344,-0.0820313 -0.902344,-0.66796877 v -7.2773437 z m 0.878906,6.7734375 c 0,0.2109375 0,0.2460938 -0.164062,0.51562502 -0.28125,0.41015625 -0.773438,0.76171875 -1.371094,0.76171875 -0.316406,0 -1.605469,-0.1171875 -1.605469,-2.43749997 0,-0.8671875 0.140625,-1.3476563 0.410156,-1.734375 0.234375,-0.375 0.714844,-0.7382813 1.3125,-0.7382813 0.738282,0 1.160157,0.5273438 1.277344,0.7265625 0.140625,0.1992188 0.140625,0.2226563 0.140625,0.4453125 z m 8.548828,-2.4023437 h 2.027344 c 1.394531,0 2.671875,-0.9492188 2.671875,-2.15625 0,-1.1601563 -1.160156,-2.2148438 -2.765625,-2.2148438 h -4.03125 v 0.3515625 h 0.234375 c 0.867188,0 0.902344,0.1171875 0.902344,0.5625 v 6.33984377 c 0,0.4453125 -0.03516,0.5625 -0.902344,0.5625 h -0.234375 v 0.3515625 c 0.28125,-0.0234375 1.265625,-0.0234375 1.617188,-0.0234375 0.351562,0 1.335937,0 1.617187,0.0234375 v -0.3515625 h -0.234375 c -0.867187,0 -0.902344,-0.1171875 -0.902344,-0.5625 z m -0.02344,-0.2929688 v -3.2460937 c 0,-0.3984375 0.02344,-0.4804688 0.550781,-0.4804688 h 1.125 c 1.933594,0 1.933594,1.3476563 1.933594,1.8632813 0,0.5039062 0,1.8632812 -1.945313,1.8632812 z m 9.682617,0.9023438 c 0,-0.6445313 0,-1.125 -0.527344,-1.59375 -0.421875,-0.3867188 -0.960937,-0.5507813 -1.488281,-0.5507813 -0.972656,0 -1.734375,0.6445313 -1.734375,1.4179688 0,0.3515625 0.234375,0.515625 0.503906,0.515625 0.292969,0 0.492188,-0.1992188 0.492188,-0.4921875 0,-0.4804688 -0.433594,-0.4804688 -0.609375,-0.4804688 0.28125,-0.5039062 0.855469,-0.7265625 1.324219,-0.7265625 0.550781,0 1.253906,0.4570313 1.253906,1.5351563 v 0.4804687 c -2.402344,0.035156 -3.304688,1.0429688 -3.304688,1.9570313 0,0.94921872 1.101563,1.24218747 1.828125,1.24218747 0.785157,0 1.324219,-0.48046875 1.558594,-1.0546875 0.04687,0.5625 0.410156,0.99609375 0.925781,0.99609375 0.257813,0 0.949219,-0.1640625 0.949219,-1.12500002 V -1.7332656 H 67.30238 v 0.6679687 c 0,0.67968752 -0.28125,0.78515627 -0.457031,0.78515627 -0.445313,0 -0.445313,-0.64453125 -0.445313,-0.82031247 z m -0.785156,1.5 c 0,1.17187497 -0.867188,1.57031247 -1.382813,1.57031247 -0.585937,0 -1.078125,-0.43359375 -1.078125,-1.00781247 0,-1.5820313 2.039063,-1.7226563 2.460938,-1.7460938 z m 5.947265,-3.3632813 c 0,-0.2226562 0,-0.28125 -0.128906,-0.28125 -0.09375,0 -0.316406,0.2695313 -0.398437,0.375 -0.375,-0.3046875 -0.75,-0.375 -1.125,-0.375 -1.453125,0 -1.875,0.7851563 -1.875,1.4414063 0,0.140625 0,0.5507812 0.445312,0.9726562 0.386719,0.3398438 0.796875,0.421875 1.347656,0.5273438 0.65625,0.1289062 0.808594,0.1640625 1.113282,0.4101562 0.210937,0.1757813 0.363281,0.4335938 0.363281,0.7734375 0,0.51562502 -0.292969,1.08984377 -1.347656,1.08984377 -0.785157,0 -1.359375,-0.45703125 -1.628907,-1.65234377 -0.04687,-0.2109375 -0.04687,-0.2226562 -0.05859,-0.234375 -0.02344,-0.046875 -0.07031,-0.046875 -0.105469,-0.046875 -0.128906,0 -0.128906,0.058594 -0.128906,0.2695313 v 1.62890622 c 0,0.2109375 0,0.26953125 0.117187,0.26953125 0.05859,0 0.07031,-0.0117188 0.269531,-0.2578125 0.05859,-0.0820313 0.05859,-0.10546875 0.246094,-0.3046875 0.445313,0.5625 1.101563,0.5625 1.300781,0.5625 1.253907,0 1.875,-0.69140625 1.875,-1.64062497 0,-0.6445313 -0.398437,-1.0195313 -0.503906,-1.125 -0.433594,-0.375 -0.75,-0.4453125 -1.535156,-0.5859375 -0.363281,-0.082031 -1.230469,-0.2460938 -1.230469,-0.9609375 0,-0.375 0.246094,-0.9257813 1.324219,-0.9257813 1.300781,0 1.371094,1.1132813 1.394531,1.4882813 0.01172,0.09375 0.09375,0.09375 0.128906,0.09375 0.140625,0 0.140625,-0.058594 0.140625,-0.2695313 z m 4.617188,0 c 0,-0.2226562 0,-0.28125 -0.128906,-0.28125 -0.09375,0 -0.316407,0.2695313 -0.398438,0.375 -0.375,-0.3046875 -0.75,-0.375 -1.125,-0.375 -1.453125,0 -1.875,0.7851563 -1.875,1.4414063 0,0.140625 0,0.5507812 0.445313,0.9726562 0.386718,0.3398438 0.796875,0.421875 1.347656,0.5273438 0.65625,0.1289062 0.808594,0.1640625 1.113281,0.4101562 0.210938,0.1757813 0.363281,0.4335938 0.363281,0.7734375 0,0.51562502 -0.292968,1.08984377 -1.347656,1.08984377 -0.785156,0 -1.359375,-0.45703125 -1.628906,-1.65234377 -0.04687,-0.2109375 -0.04687,-0.2226562 -0.05859,-0.234375 -0.02344,-0.046875 -0.07031,-0.046875 -0.105469,-0.046875 -0.128906,0 -0.128906,0.058594 -0.128906,0.2695313 v 1.62890622 c 0,0.2109375 0,0.26953125 0.117188,0.26953125 0.05859,0 0.07031,-0.0117188 0.269531,-0.2578125 0.05859,-0.0820313 0.05859,-0.10546875 0.246094,-0.3046875 0.445312,0.5625 1.101562,0.5625 1.300781,0.5625 1.253906,0 1.875,-0.69140625 1.875,-1.64062497 0,-0.6445313 -0.398438,-1.0195313 -0.503906,-1.125 -0.433594,-0.375 -0.75,-0.4453125 -1.535157,-0.5859375 -0.363281,-0.082031 -1.230468,-0.2460938 -1.230468,-0.9609375 0,-0.375 0.246093,-0.9257813 1.324218,-0.9257813 1.300782,0 1.371094,1.1132813 1.394532,1.4882813 0.01172,0.09375 0.09375,0.09375 0.128906,0.09375 0.140625,0 0.140625,-0.058594 0.140625,-0.2695313 z m 10.072266,2.4960938 c 0,-1.546875 -1.171875,-2.7773438 -2.554688,-2.7773438 -1.429687,0 -2.566406,1.265625 -2.566406,2.7773438 0,1.5234375 1.195312,2.67187497 2.554687,2.67187497 1.40625,0 2.566407,-1.17187497 2.566407,-2.67187497 z m -2.554688,2.41406247 c -0.445312,0 -0.984375,-0.19921875 -1.324219,-0.78515625 -0.328125,-0.52734372 -0.339843,-1.24218752 -0.339843,-1.73437502 0,-0.4570312 0,-1.1835937 0.375,-1.7226562 0.328125,-0.515625 0.855468,-0.7148438 1.277343,-0.7148438 0.46875,0 0.972657,0.2226563 1.289063,0.6914063 0.375,0.5507812 0.375,1.3007812 0.375,1.7460937 0,0.4101563 0,1.1484375 -0.316406,1.71093752 -0.328125,0.57421875 -0.878907,0.80859375 -1.335938,0.80859375 z M 88.67152,-4.8035781 h 1.359375 v -0.3515625 h -1.382812 v -1.3945313 c 0,-1.078125 0.550781,-1.6289062 1.042969,-1.6289062 0.09375,0 0.28125,0.023437 0.421875,0.09375 -0.04687,0.011719 -0.351563,0.1289062 -0.351563,0.46875 0,0.28125 0.199219,0.46875 0.46875,0.46875 0.292969,0 0.480469,-0.1875 0.480469,-0.4804688 0,-0.4453125 -0.433594,-0.7851562 -1.007813,-0.7851562 -0.832031,0 -1.78125,0.6445312 -1.78125,1.8632812 v 1.3945313 h -0.925781 v 0.3515625 h 0.925781 v 3.92578122 c 0,0.52734375 -0.128906,0.52734375 -0.902343,0.52734375 v 0.3515625 c 0.328125,-0.0234375 0.984375,-0.0234375 1.347656,-0.0234375 0.316406,0 1.171875,0 1.441406,0.0234375 v -0.3515625 h -0.234375 c -0.878906,0 -0.902344,-0.12890625 -0.902344,-0.5625 z m 7.907227,-0.1757813 c -0.609375,-0.1640625 -1.148438,-0.7617187 -1.148438,-1.5234375 0,-0.8320312 0.667969,-1.59375 1.605469,-1.59375 1.957031,0 2.226563,1.9453125 2.296875,2.4609375 0.02344,0.140625 0.02344,0.1875 0.140625,0.1875 0.128906,0 0.128906,-0.058594 0.128906,-0.28125 v -2.4140625 c 0,-0.2109375 0,-0.2695312 -0.117187,-0.2695312 -0.03516,0 -0.08203,0 -0.164063,0.1523437 L 98.9225,-7.5340469 c -0.574219,-0.7382812 -1.359375,-0.8789062 -1.886719,-0.8789062 -1.324219,0 -2.296875,1.0664062 -2.296875,2.2851562 0,0.5742188 0.199219,1.1015625 0.644531,1.5703125 0.421875,0.46875 0.84375,0.5742188 1.6875,0.796875 0.421875,0.09375 1.078125,0.2578125 1.242188,0.328125 0.5625,0.28125 0.9375,0.9257813 0.9375,1.59375 0,0.89062502 -0.632813,1.74609377 -1.628906,1.74609377 -0.539063,0 -1.277344,-0.12890625 -1.863282,-0.64453125 -0.691406,-0.62109372 -0.738281,-1.48828122 -0.75,-1.87500002 -0.01172,-0.1054687 -0.117187,-0.1054687 -0.140625,-0.1054687 -0.128906,0 -0.128906,0.070312 -0.128906,0.28125 v 2.41406247 c 0,0.2109375 0,0.26953125 0.117188,0.26953125 0.07031,0 0.08203,-0.0234375 0.175781,-0.1640625 0.04687,-0.09375 0.292969,-0.5390625 0.386719,-0.71484375 0.433593,0.48046875 1.183593,0.87890625 2.214843,0.87890625 1.335938,0 2.308594,-1.125 2.308594,-2.44921872 0,-0.7265625 -0.28125,-1.265625 -0.597656,-1.6523438 C 98.899062,-4.3934219 98.36,-4.5340469 97.89125,-4.6512344 Z m 8.601563,2.203125 c 0.25781,0 0.28125,0 0.28125,-0.2226562 0,-1.2070313 -0.64453,-2.3320313 -2.08594,-2.3320313 -1.37109,0 -2.41406,1.2304688 -2.41406,2.71875 0,1.5703125 1.21875,2.73046877 2.54297,2.73046877 1.41797,0 1.95703,-1.28906247 1.95703,-1.53515627 0,-0.082031 -0.0586,-0.1289062 -0.1289,-0.1289062 -0.0937,0 -0.11719,0.070312 -0.14063,0.1289062 -0.31641,0.99609377 -1.11328,1.27734377 -1.61719,1.27734377 -0.5039,0 -1.71093,-0.33984375 -1.71093,-2.40234377 v -0.234375 z m -3.30469,-0.2226562 c 0.0937,-1.875 1.14844,-2.0976563 1.48829,-2.0976563 1.27734,0 1.34765,1.6875 1.35937,2.0976563 z m 5.97657,-5.296875 -1.65235,0.1289062 v 0.3515625 c 0.8086,0 0.90235,0.082031 0.90235,0.6679688 v 6.26953122 c 0,0.52734375 -0.12891,0.52734375 -0.90235,0.52734375 v 0.3515625 c 0.32813,-0.0234375 0.91407,-0.0234375 1.27735,-0.0234375 0.35156,0 0.94922,0 1.28906,0.0234375 v -0.3515625 c -0.76172,0 -0.91406,0 -0.91406,-0.52734375 z m 5.7832,5.5195312 c 0.25781,0 0.28125,0 0.28125,-0.2226562 0,-1.2070313 -0.64453,-2.3320313 -2.08594,-2.3320313 -1.37109,0 -2.41406,1.2304688 -2.41406,2.71875 0,1.5703125 1.21875,2.73046877 2.54297,2.73046877 1.41797,0 1.95703,-1.28906247 1.95703,-1.53515627 0,-0.082031 -0.0586,-0.1289062 -0.12891,-0.1289062 -0.0937,0 -0.11718,0.070312 -0.14062,0.1289062 -0.31641,0.99609377 -1.11328,1.27734377 -1.61719,1.27734377 -0.5039,0 -1.71094,-0.33984375 -1.71094,-2.40234377 v -0.234375 z m -3.30469,-0.2226562 c 0.0937,-1.875 1.14844,-2.0976563 1.48828,-2.0976563 1.27735,0 1.34766,1.6875 1.35938,2.0976563 z m 8.25,-1.4179688 c -0.14062,0 -0.58593,0 -0.58593,0.4804688 0,0.2929687 0.21093,0.4921875 0.49218,0.4921875 0.28125,0 0.50391,-0.1640625 0.50391,-0.515625 0,-0.796875 -0.83203,-1.3710938 -1.80469,-1.3710938 -1.39453,0 -2.50781,1.2421875 -2.50781,2.7539063 0,1.5234375 1.14844,2.69531247 2.49609,2.69531247 1.58203,0 1.9336,-1.42968747 1.9336,-1.53515627 0,-0.1171875 -0.082,-0.1171875 -0.11719,-0.1171875 -0.10547,0 -0.11719,0.035156 -0.15234,0.1875 -0.26954,0.84375002 -0.91407,1.20703127 -1.5586,1.20703127 -0.72656,0 -1.69922,-0.6328125 -1.69922,-2.44921877 0,-1.9921875 1.01953,-2.4726562 1.61719,-2.4726562 0.45703,0 1.11328,0.1757812 1.38281,0.6445312 z m 2.88282,-0.3867187 h 1.6875 v -0.3515625 h -1.6875 v -2.1914063 h -0.25782 c -0.0117,1.125 -0.44531,2.2617188 -1.53515,2.3085938 v 0.234375 h 1.01953 v 3.328125 c 0,1.32421872 0.89062,1.59374997 1.52344,1.59374997 0.75,0 1.14843,-0.73828125 1.14843,-1.59374997 v -0.6914063 h -0.26953 v 0.65625 c 0,0.86718752 -0.33984,1.37109377 -0.80859,1.37109377 -0.82031,0 -0.82031,-1.11328127 -0.82031,-1.31249997 z m 7.13085,2.0273437 c 0.25782,0 0.28125,0 0.28125,-0.2226562 0,-1.2070313 -0.64453,-2.3320313 -2.08593,-2.3320313 -1.3711,0 -2.41407,1.2304688 -2.41407,2.71875 0,1.5703125 1.21875,2.73046877 2.54297,2.73046877 1.41797,0 1.95703,-1.28906247 1.95703,-1.53515627 0,-0.082031 -0.0586,-0.1289062 -0.1289,-0.1289062 -0.0937,0 -0.11719,0.070312 -0.14063,0.1289062 -0.3164,0.99609377 -1.11328,1.27734377 -1.61718,1.27734377 -0.50391,0 -1.71094,-0.33984375 -1.71094,-2.40234377 v -0.234375 z m -3.30468,-0.2226562 c 0.0937,-1.875 1.14843,-2.0976563 1.48828,-2.0976563 1.27734,0 1.34765,1.6875 1.35937,2.0976563 z m 7.51172,-5.1679688 v 0.3515625 c 0.80859,0 0.91406,0.082031 0.91406,0.6679688 v 2.6367187 c -0.25781,-0.3398437 -0.77344,-0.7617187 -1.5,-0.7617187 -1.38281,0 -2.57813,1.171875 -2.57813,2.7070312 0,1.5117188 1.13672,2.68359377 2.44922,2.68359377 0.90235,0 1.42969,-0.59765625 1.59375,-0.8203125 v 0.8203125 l 1.6875,-0.1171875 v -0.3515625 c -0.80859,0 -0.90234,-0.0820313 -0.90234,-0.66796877 v -7.2773437 z m 0.8789,6.7734375 c 0,0.2109375 0,0.2460938 -0.16406,0.51562502 -0.28125,0.41015625 -0.77344,0.76171875 -1.37109,0.76171875 -0.31641,0 -1.60547,-0.1171875 -1.60547,-2.43749997 0,-0.8671875 0.14062,-1.3476563 0.41015,-1.734375 0.23438,-0.375 0.71485,-0.7382813 1.3125,-0.7382813 0.73828,0 1.16016,0.5273438 1.27735,0.7265625 0.14062,0.1992188 0.14062,0.2226563 0.14062,0.4453125 z m 8.43164,-3.5859375 c -0.60937,-0.1640625 -1.14843,-0.7617187 -1.14843,-1.5234375 0,-0.8320312 0.66796,-1.59375 1.60546,-1.59375 1.95704,0 2.22657,1.9453125 2.29688,2.4609375 0.0234,0.140625 0.0234,0.1875 0.14062,0.1875 0.12891,0 0.12891,-0.058594 0.12891,-0.28125 v -2.4140625 c 0,-0.2109375 0,-0.2695312 -0.11719,-0.2695312 -0.0352,0 -0.082,0 -0.16406,0.1523437 l -0.39844,0.7265625 c -0.57422,-0.7382812 -1.35937,-0.8789062 -1.88672,-0.8789062 -1.32421,0 -2.29687,1.0664062 -2.29687,2.2851562 0,0.5742188 0.19922,1.1015625 0.64453,1.5703125 0.42188,0.46875 0.84375,0.5742188 1.6875,0.796875 0.42188,0.09375 1.07813,0.2578125 1.24219,0.328125 0.5625,0.28125 0.9375,0.9257813 0.9375,1.59375 0,0.89062502 -0.63281,1.74609377 -1.62891,1.74609377 -0.53906,0 -1.27734,-0.12890625 -1.86328,-0.64453125 -0.69141,-0.62109372 -0.73828,-1.48828122 -0.75,-1.87500002 -0.0117,-0.1054687 -0.11719,-0.1054687 -0.14062,-0.1054687 -0.12891,0 -0.12891,0.070312 -0.12891,0.28125 v 2.41406247 c 0,0.2109375 0,0.26953125 0.11719,0.26953125 0.0703,0 0.082,-0.0234375 0.17578,-0.1640625 0.0469,-0.09375 0.29297,-0.5390625 0.38672,-0.71484375 0.43359,0.48046875 1.18359,0.87890625 2.21484,0.87890625 1.33594,0 2.30859,-1.125 2.30859,-2.44921872 0,-0.7265625 -0.28125,-1.265625 -0.59765,-1.6523438 -0.44531,-0.5390625 -0.98438,-0.6796875 -1.45313,-0.796875 z m 7.65235,-0.1640625 v 0.3515625 c 0.80859,0 0.91406,0.082031 0.91406,0.6679688 v 2.1445312 c 0,1.00781252 -0.53906,1.86328127 -1.44141,1.86328127 -0.97265,0 -1.04297,-0.5625 -1.04297,-1.19531247 v -3.9609375 l -1.67578,0.1289062 v 0.3515625 c 0.90235,0 0.90235,0.035156 0.90235,1.1015625 v 1.7929688 c 0,0.7382812 0,1.17187497 0.36328,1.55859372 0.28125,0.31640625 0.77344,0.45703125 1.38281,0.45703125 0.19922,0 0.58594,0 0.99609,-0.33984375 0.33985,-0.28125 0.53907,-0.73828125 0.53907,-0.73828125 v 1.078125 l 1.65234,-0.1171875 v -0.3515625 c -0.80859,0 -0.90234,-0.0820313 -0.90234,-0.66796877 v -4.2539062 z m 4.86328,-3.1523437 -1.65235,0.1289062 v 0.3515625 c 0.8086,0 0.90235,0.082031 0.90235,0.6679688 v 7.14843747 h 0.26953 c 0.0469,-0.09375 0.375,-0.69140625 0.42187,-0.7734375 0.28125,0.43359375 0.79688,0.890625 1.5586,0.890625 1.37109,0 2.57812,-1.16015627 2.57812,-2.69531247 0,-1.5234375 -1.125,-2.6953125 -2.44922,-2.6953125 -0.65625,0 -1.21875,0.3046875 -1.6289,0.8085937 z m 0.0234,4.4765625 c 0,-0.2226563 0,-0.2460938 0.14062,-0.4335938 0.28125,-0.4335937 0.80859,-0.7734375 1.39453,-0.7734375 0.36328,0 1.61719,0.140625 1.61719,2.4375 0,0.796875 -0.12891,1.3007813 -0.41016,1.73437502 -0.23437,0.36328125 -0.71484,0.73828125 -1.3125,0.73828125 -0.64453,0 -1.0664,-0.421875 -1.26562,-0.73828125 -0.16406,-0.25781252 -0.16406,-0.30468752 -0.16406,-0.50390622 z m 5.90625,1.6523437 c 0.5625,0.375 1.04296,0.375 1.17187,0.375 1.07813,0 1.875,-0.8085937 1.875,-1.734375 0,-0.3164062 -0.0937,-0.7734375 -0.46875,-1.1601562 0.45703,-0.4804688 1.01953,-0.4804688 1.08984,-0.4804688 0.0469,0 0.10547,0 0.15235,0.023437 -0.11719,0.046875 -0.1875,0.1757813 -0.1875,0.3046875 0,0.1640625 0.1289,0.3046875 0.3164,0.3046875 0.0937,0 0.31641,-0.058594 0.31641,-0.3164062 0,-0.2109375 -0.17578,-0.5507813 -0.58594,-0.5507813 -0.63281,0 -1.08984,0.3867188 -1.26562,0.5625 -0.35156,-0.28125 -0.77344,-0.4335937 -1.23047,-0.4335937 -1.06641,0 -1.875,0.8203125 -1.875,1.734375 0,0.6796875 0.42187,1.125 0.53906,1.2304687 -0.14062,0.1757813 -0.35156,0.5273438 -0.35156,0.9960938 0,0.69140622 0.41016,0.98437497 0.50391,1.05468747 -0.55079,0.15234375 -1.08985,0.5859375 -1.08985,1.20703125 0,0.82031248 1.11328,1.49999998 2.58985,1.49999998 1.41796,0 2.60156,-0.6328125 2.60156,-1.52343748 0,-0.3046875 -0.082,-1.0078125 -0.79688,-1.3828125 -0.60937,-0.3046875 -1.20703,-0.3046875 -2.23828,-0.3046875 -0.72656,0 -0.80859,0 -1.03125,-0.234375 -0.11719,-0.11718752 -0.22265,-0.33984372 -0.22265,-0.59765622 0,-0.1992188 0.0703,-0.3984375 0.1875,-0.5742183 z m 1.18359,0.1289063 c -1.04297,0 -1.04297,-1.2070313 -1.04297,-1.4882813 0,-0.2109375 0,-0.703125 0.19922,-1.03125 0.22266,-0.3398437 0.58594,-0.4570312 0.83203,-0.4570312 1.05469,0 1.05469,1.2070312 1.05469,1.4765625 0,0.2109375 0,0.703125 -0.19922,1.03125 -0.23438,0.3398437 -0.58594,0.46875 -0.84375,0.46875 z m 0.32812,4.2421875 c -1.14843,0 -2.01562,-0.5859375 -2.01562,-1.26562503 0,-0.10546875 0.0234,-0.5625 0.46875,-0.87890625 0.26953,-0.1640625 0.375,-0.1640625 1.20703,-0.1640625 0.99609,0 2.34375,0 2.34375,1.04296875 0,0.70312503 -0.90234,1.26562503 -2.00391,1.26562503 z m 4.91309,-4.9921875 c 0,-1.1601563 0.48047,-2.2382813 1.40625,-2.2382813 0.0937,0 0.11719,0 0.16406,0.011719 -0.0937,0.046875 -0.29297,0.1171875 -0.29297,0.4335937 0,0.3515625 0.28125,0.4804688 0.46875,0.4804688 0.2461,0 0.48047,-0.1523438 0.48047,-0.4804688 0,-0.3515625 -0.3164,-0.6914062 -0.83203,-0.6914062 -1.01953,0 -1.37109,1.1015625 -1.4414,1.3242187 h -0.0117 v -1.3242187 l -1.59375,0.1289062 v 0.3515625 c 0.80859,0 0.90234,0.082031 0.90234,0.6679688 v 3.24609372 c 0,0.52734375 -0.12891,0.52734375 -0.90234,0.52734375 v 0.3515625 c 0.32812,-0.0234375 0.98437,-0.0234375 1.34765,-0.0234375 0.31641,0 1.17188,0 1.44141,0.0234375 v -0.3515625 h -0.23438 c -0.8789,0 -0.90234,-0.12890625 -0.90234,-0.5625 z m 7.16602,-0.3984375 c 0,-0.6445313 0,-1.125 -0.52735,-1.59375 -0.42187,-0.3867188 -0.96094,-0.5507813 -1.48828,-0.5507813 -0.97266,0 -1.73437,0.6445313 -1.73437,1.4179688 0,0.3515625 0.23437,0.515625 0.5039,0.515625 0.29297,0 0.49219,-0.1992188 0.49219,-0.4921875 0,-0.4804688 -0.43359,-0.4804688 -0.60938,-0.4804688 0.28125,-0.5039062 0.85547,-0.7265625 1.32422,-0.7265625 0.55078,0 1.25391,0.4570313 1.25391,1.5351563 v 0.4804687 c -2.40234,0.035156 -3.30469,1.0429688 -3.30469,1.9570313 0,0.94921872 1.10156,1.24218747 1.82813,1.24218747 0.78515,0 1.32422,-0.48046875 1.55859,-1.0546875 0.0469,0.5625 0.41016,0.99609375 0.92578,0.99609375 0.25781,0 0.94922,-0.1640625 0.94922,-1.12500002 v -0.6679687 h -0.26953 v 0.6679687 c 0,0.67968752 -0.28125,0.78515627 -0.45703,0.78515627 -0.44531,0 -0.44531,-0.64453125 -0.44531,-0.82031247 z m -0.78516,1.5 c 0,1.17187497 -0.86719,1.57031247 -1.38281,1.57031247 -0.58594,0 -1.07813,-0.43359375 -1.07813,-1.00781247 0,-1.5820313 2.03906,-1.7226563 2.46094,-1.7460938 z m 4.95117,3.65625 c -0.76172,0 -0.91406,0 -0.91406,-0.5390625 v -2.07421878 c 0.22266,0.29296875 0.71484,0.76171875 1.47656,0.76171875 1.3711,0 2.57813,-1.16015627 2.57813,-2.69531247 0,-1.5234375 -1.125,-2.6953125 -2.42578,-2.6953125 -1.05469,0 -1.61719,0.75 -1.65235,0.8085937 v -0.8085937 l -1.65234,0.1289062 v 0.3515625 c 0.83203,0 0.90234,0.082031 0.90234,0.609375 v 5.6132813 c 0,0.5390625 -0.1289,0.5390625 -0.90234,0.5390625 v 0.3515625 c 0.30469,-0.023437 0.94922,-0.023437 1.28906,-0.023437 0.33984,0 0.98438,0 1.30078,0.023437 z M 177.4,-3.8074844 c 0,-0.234375 0,-0.2460937 0.14062,-0.4335937 0.35157,-0.5390625 0.9375,-0.7617188 1.39454,-0.7617188 0.89062,0 1.61718,1.078125 1.61718,2.4257813 0,1.4179687 -0.82031,2.46093747 -1.73437,2.46093747 -0.375,0 -0.71485,-0.15234375 -0.96094,-0.38671875 C 177.5875,-0.77232813 177.4,-1.0184219 177.4,-1.3465469 Z m 9.80859,0.9023438 c 0,-1.1132813 0,-1.4414063 -0.28125,-1.828125 -0.33984,-0.46875 -0.90234,-0.5390625 -1.3125,-0.5390625 -1.01953,0 -1.5,0.7734375 -1.67578,1.1484375 h -0.0117 v -4.171875 l -1.65234,0.1289062 v 0.3515625 c 0.80859,0 0.90234,0.082031 0.90234,0.6679688 v 6.26953122 c 0,0.52734375 -0.1289,0.52734375 -0.90234,0.52734375 v 0.3515625 c 0.30469,-0.0234375 0.94922,-0.0234375 1.28906,-0.0234375 0.33985,0 0.98438,0 1.30078,0.0234375 v -0.3515625 c -0.76172,0 -0.91406,0 -0.91406,-0.52734375 V -3.1043594 c 0,-1.2539062 0.83203,-1.921875 1.57031,-1.921875 0.73828,0 0.91407,0.609375 0.91407,1.3359375 v 2.81250002 c 0,0.52734375 -0.14063,0.52734375 -0.91407,0.52734375 v 0.3515625 c 0.31641,-0.0234375 0.96094,-0.0234375 1.28907,-0.0234375 0.35156,0 0.99609,0 1.30078,0.0234375 v -0.3515625 c -0.59766,0 -0.89063,0 -0.90235,-0.3515625 z m 0,0"
       style="fill:#000000;fill-opacity:1;fill-rule:nonzero;stroke:none"
       aria-label="BackwardPassofSelectedSubgraph"
       transform="matrix(1.3333333,0,0,1.3333333,290.85333,197.38133)" />
    <path
       id="path33"
       d="M 11.88849,-3.68118 70.91252,-21.95746"
       style="fill:none;stroke:#000000;stroke-width:0.79701;stroke-linecap:butt;stroke-linejoin:miter;stroke-miterlimit:10;stroke-dasharray:none;stroke-opacity:1"
       transform="matrix(1.3333333,0,0,-1.3333333,29.877333,33.066667)" />
    <path
       id="path34"
       d="M 4.66248,0 C 3.28098,0.25902 1.0361,1.0361 -0.51805,1.94269 V -1.94269 C 1.0361,-1.0361 3.28098,-0.25902 4.66248,0"
       style="fill:#000000;fill-opacity:1;fill-rule:nonzero;stroke:none"
       transform="matrix(1.2736267,0.39437333,0.39437333,-1.2736267,124.42733,62.34328)" />
    <path
       id="path35"
       d="m 12.26831,-39.80782 58.1221,9.91399"
       style="fill:none;stroke:#000000;stroke-width:0.79701;stroke-linecap:butt;stroke-linejoin:miter;stroke-miterlimit:10;stroke-dasharray:none;stroke-opacity:1"
       transform="matrix(1.3333333,0,0,-1.3333333,29.877333,33.066667)" />
    <path
       id="path36"
       d="M 4.66248,0 C 3.28098,0.25902 1.0361,1.0361 -0.51805,1.94269 V -1.94269 C 1.0361,-1.0361 3.28098,-0.25902 4.66248,0"
       style="fill:#000000;fill-opacity:1;fill-rule:nonzero;stroke:none"
       transform="matrix(1.3143067,-0.22418667,-0.22418667,-1.3143067,123.7312,72.92512)" />
    <path
       id="path37"
       d="M 11.88849,-72.59892 70.91252,-90.8752"
       style="fill:none;stroke:#000000;stroke-width:0.79701;stroke-linecap:butt;stroke-linejoin:miter;stroke-miterlimit:10;stroke-dasharray:none;stroke-opacity:1"
       transform="matrix(1.3333333,0,0,-1.3333333,29.877333,33.066667)" />
    <path
       id="path38"
       d="M 4.66248,0 C 3.28098,0.25902 1.0361,1.0361 -0.51805,1.94269 V -1.94269 C 1.0361,-1.0361 3.28098,-0.25902 4.66248,0"
       style="fill:#000000;fill-opacity:1;fill-rule:nonzero;stroke:none"
       transform="matrix(1.2736267,0.39437333,0.39437333,-1.2736267,124.42733,154.2336)" />
    <path
       id="path39"
       d="M 12.44588,-95.93544 H 70.14632"
       style="fill:none;stroke:#000000;stroke-width:0.79701;stroke-linecap:butt;stroke-linejoin:miter;stroke-miterlimit:10;stroke-dasharray:none;stroke-opacity:1"
       transform="matrix(1.3333333,0,0,-1.3333333,29.877333,33.066667)" />
    <path
       id="path40"
       d="M 4.66248,0 C 3.28098,0.25902 1.0361,1.0361 -0.51805,1.94269 V -1.94269 C 1.0361,-1.0361 3.28098,-0.25902 4.66248,0"
       style="fill:#000000;fill-opacity:1;fill-rule:nonzero;stroke:none"
       transform="matrix(1.3333333,0,0,-1.3333333,123.40576,160.98059)" />
    <path
       id="path41"
       d="M 99.29967,-3.13026 157.9521,-18.3746"
       style="fill:none;stroke:#000000;stroke-width:0.79701;stroke-linecap:butt;stroke-linejoin:miter;stroke-miterlimit:10;stroke-dasharray:none;stroke-opacity:1"
       transform="matrix(1.3333333,0,0,-1.3333333,29.877333,33.066667)" />
    <path
       id="path42"
       d="M 4.66248,0 C 3.28098,0.25902 1.0361,1.0361 -0.51805,1.94269 V -1.94269 C 1.0361,-1.0361 3.28098,-0.25902 4.66248,0"
       style="fill:#000000;fill-opacity:1;fill-rule:nonzero;stroke:none"
       transform="matrix(1.2903867,0.33534667,0.33534667,-1.2903867,240.48012,57.56612)" />
    <path
       id="path43"
       d="m 99.68462,-26.39955 57.73834,2.87231"
       style="fill:none;stroke:#000000;stroke-width:0.79701;stroke-linecap:butt;stroke-linejoin:miter;stroke-miterlimit:10;stroke-dasharray:none;stroke-opacity:1"
       transform="matrix(1.3333333,0,0,-1.3333333,29.877333,33.066667)" />
    <path
       id="path44"
       d="M 4.66248,0 C 3.28098,0.25902 1.0361,1.0361 -0.51805,1.94269 V -1.94269 C 1.0361,-1.0361 3.28098,-0.25902 4.66248,0"
       style="fill:#000000;fill-opacity:1;fill-rule:nonzero;stroke:none"
       transform="matrix(1.3316267,-0.06622667,-0.06622667,-1.3316267,239.77459,64.43632)" />
    <path
       id="path45"
       d="m 99.06247,-30.94957 59.21568,-19.71896"
       style="fill:none;stroke:#000000;stroke-width:0.79701;stroke-linecap:butt;stroke-linejoin:miter;stroke-miterlimit:10;stroke-dasharray:none;stroke-opacity:1"
       transform="matrix(1.3333333,0,0,-1.3333333,29.877333,33.066667)" />
    <path
       id="path46"
       d="M 4.66248,0 C 3.28098,0.25902 1.0361,1.0361 -0.51805,1.94269 V -1.94269 C 1.0361,-1.0361 3.28098,-0.25902 4.66248,0"
       style="fill:#000000;fill-opacity:1;fill-rule:nonzero;stroke:none"
       transform="matrix(1.2649733,0.42124,0.42124,-1.2649733,240.91485,100.62471)" />
    <path
       id="path47"
       d="m 99.69658,-54.32594 57.70993,-1.34809"
       style="fill:none;stroke:#000000;stroke-width:0.79701;stroke-linecap:butt;stroke-linejoin:miter;stroke-miterlimit:10;stroke-dasharray:none;stroke-opacity:1"
       transform="matrix(1.3333333,0,0,-1.3333333,29.877333,33.066667)" />
    <path
       id="path48"
       d="M 4.66248,0 C 3.28098,0.25902 1.0361,1.0361 -0.51805,1.94269 V -1.94269 C 1.0361,-1.0361 3.28098,-0.25902 4.66248,0"
       style="fill:#000000;fill-opacity:1;fill-rule:nonzero;stroke:none"
       transform="matrix(1.3329067,0.03113333,0.03113333,-1.3329067,239.75268,107.29871)" />
    <path
       id="path49"
       d="M 11.88849,-45.58122 158.1672,-90.8752"
       style="fill:none;stroke:#000000;stroke-width:0.79701;stroke-linecap:butt;stroke-linejoin:miter;stroke-miterlimit:10;stroke-dasharray:none;stroke-opacity:1"
       transform="matrix(1.3333333,0,0,-1.3333333,29.877333,33.066667)" />
    <path
       id="path50"
       d="M 4.66248,0 C 3.28098,0.25902 1.0361,1.0361 -0.51805,1.94269 V -1.94269 C 1.0361,-1.0361 3.28098,-0.25902 4.66248,0"
       style="fill:#000000;fill-opacity:1;fill-rule:nonzero;stroke:none"
       transform="matrix(1.2736267,0.39437333,0.39437333,-1.2736267,240.76692,154.2336)" />
    <path
       id="path51"
       d="M 99.70058,-95.93544 H 157.401"
       style="fill:none;stroke:#000000;stroke-width:0.79701;stroke-linecap:butt;stroke-linejoin:miter;stroke-miterlimit:10;stroke-dasharray:none;stroke-opacity:1"
       transform="matrix(1.3333333,0,0,-1.3333333,29.877333,33.066667)" />
    <path
       id="path52"
       d="M 4.66248,0 C 3.28098,0.25902 1.0361,1.0361 -0.51805,1.94269 V -1.94269 C 1.0361,-1.0361 3.28098,-0.25902 4.66248,0"
       style="fill:#000000;fill-opacity:1;fill-rule:nonzero;stroke:none"
       transform="matrix(1.3333333,0,0,-1.3333333,239.74533,160.98059)" />
    <path
       id="path53"
       d="m 257.5534,-38.09319 58.33903,-12.31924"
       style="fill:none;stroke:#000000;stroke-width:0.79701;stroke-linecap:butt;stroke-linejoin:miter;stroke-miterlimit:10;stroke-dasharray:none;stroke-opacity:1"
       transform="matrix(1.3333333,0,0,-1.3333333,29.877333,33.066667)" />
    <path
       id="path54"
       d="M 4.66248,0 C 3.28098,0.25902 1.0361,1.0361 -0.51805,1.94269 V -1.94269 C 1.0361,-1.0361 3.28098,-0.25902 4.66248,0"
       style="fill:#000000;fill-opacity:1;fill-rule:nonzero;stroke:none"
       transform="matrix(1.3045333,0.27546667,0.27546667,-1.3045333,451.06724,100.28321)" />
    <path
       id="path55"
       d="m 257.57567,-69.26758 58.29352,11.89917"
       style="fill:none;stroke:#000000;stroke-width:0.79701;stroke-linecap:butt;stroke-linejoin:miter;stroke-miterlimit:10;stroke-dasharray:none;stroke-opacity:1"
       transform="matrix(1.3333333,0,0,-1.3333333,29.877333,33.066667)" />
    <path
       id="path56"
       d="M 4.66248,0 C 3.28098,0.25902 1.0361,1.0361 -0.51805,1.94269 V -1.94269 C 1.0361,-1.0361 3.28098,-0.25902 4.66248,0"
       style="fill:#000000;fill-opacity:1;fill-rule:nonzero;stroke:none"
       transform="matrix(1.3063333,-0.26664,-0.26664,-1.3063333,451.03623,109.55789)" />
    <path
       id="path57"
       d="M 178.98503,14.43842 H 82.779 c -5.50234,0 -9.96276,-4.46041 -9.96276,-9.96277 v -35.96901 c 0,-5.50237 4.46042,-9.96277 9.96276,-9.96277 h 96.20603 c 5.50235,0 9.96277,4.4604 9.96277,9.96277 V 4.47565 c 0,5.50236 -4.46042,9.96277 -9.96277,9.96277 z"
       style="fill:none;stroke:#ff0000;stroke-width:0.79701;stroke-linecap:butt;stroke-linejoin:miter;stroke-miterlimit:10;stroke-dasharray:0.79701, 1.99255;stroke-dashoffset:0;stroke-opacity:1"
       transform="matrix(1.3333333,0,0,-1.3333333,29.877333,33.066667)" />
    <path
       id="path58"
       d="M 340.09561,-18.09454 H 237.90645 c -5.50235,0 -9.96277,-4.46042 -9.96277,-9.96277 V -79.2276 c 0,-5.50235 4.46042,-9.96277 9.96277,-9.96277 h 102.18916 c 5.50235,0 9.96277,4.46042 9.96277,9.96277 v 51.17029 c 0,5.50235 -4.46042,9.96277 -9.96277,9.96277 z"
       style="fill:none;stroke:#ff0000;stroke-width:0.79701;stroke-linecap:butt;stroke-linejoin:miter;stroke-miterlimit:10;stroke-dasharray:0.79701, 1.99255;stroke-dashoffset:0;stroke-opacity:1"
       transform="matrix(1.3333333,0,0,-1.3333333,29.877333,33.066667)" />
  </g>
</svg>
