<?xml version="1.0" encoding="UTF-8" standalone="no"?>
<!-- Created with Inkscape (http://www.inkscape.org/) -->

<svg
   version="1.1"
   id="svg1"
   width="533.60535"
   height="215.17999"
   viewBox="0 0 533.60535 215.17999"
   xmlns="http://www.w3.org/2000/svg"
   xmlns:svg="http://www.w3.org/2000/svg">
  <defs
     id="defs1" />
  <g
     id="g1">
    <path
       id="path1"
       d="M 12.04738,0 C 12.04738,6.65366 6.65366,12.04738 0,12.04738 -6.65366,12.04738 -12.04738,6.65366 -12.04738,0 c 0,-6.65366 5.39372,-12.04738 12.04738,-12.04738 6.65366,0 12.04738,5.39372 12.04738,12.04738 z"
       style="fill:#ccffcc;fill-opacity:1;fill-rule:nonzero;stroke:#00b300;stroke-width:0.79701;stroke-linecap:butt;stroke-linejoin:miter;stroke-miterlimit:10;stroke-dasharray:none;stroke-opacity:1"
       transform="matrix(1.3333333,0,0,-1.3333333,29.877333,33.065333)" />
    <path
       id="path2"
       d="m 1.9210234,-5.4010859 c -0.035156,-0.1054688 -0.035156,-0.1640625 -0.035156,-0.1757813 0,-0.2695312 0.4570312,-0.2695312 0.7148437,-0.2695312 v -0.2695313 c -0.4101562,0.023437 -0.8671875,0.023437 -1.2773437,0.023437 -0.37500001,0 -0.50390626,-0.011719 -1.14843751,-0.023437 v 0.2695313 c 0.65625,0 0.76171875,0.035156 0.87890621,0.3515625 l 2.1679688,5.49609371 c 0.058594,0.12890625 0.082031,0.19921875 0.234375,0.19921875 0.140625,0 0.1640625,-0.0585938 0.2109375,-0.17578125 L 5.7413359,-5.2487422 c 0.1875,-0.46875 0.5625,-0.5976562 0.984375,-0.5976562 v -0.2695313 c -0.3164062,0.023437 -0.5742187,0.023437 -0.8789062,0.023437 -0.3867188,0 -0.5625,-0.011719 -1.0078125,-0.023437 v 0.2695313 c 0.4453125,0.011719 0.6328125,0.2226562 0.6328125,0.4453125 0,0.082031 0,0.09375 -0.035156,0.1875 l -1.7226562,4.34765621 z m 0,0"
       style="fill:#000000;fill-opacity:1;fill-rule:nonzero;stroke:none"
       aria-label="V"
       transform="matrix(1.3333333,0,0,1.3333333,25.270667,37.150667)" />
    <path
       id="path3"
       d="m 12.04738,-41.90004 c 0,6.65367 -5.39372,12.04739 -12.04738,12.04739 -6.65366,0 -12.04738,-5.39372 -12.04738,-12.04739 0,-6.65366 5.39372,-12.04738 12.04738,-12.04738 6.65366,0 12.04738,5.39372 12.04738,12.04738 z"
       style="fill:#ffe6cc;fill-opacity:1;fill-rule:nonzero;stroke:#cc6600;stroke-width:0.79701;stroke-linecap:butt;stroke-linejoin:miter;stroke-miterlimit:10;stroke-dasharray:none;stroke-opacity:1"
       transform="matrix(1.3333333,0,0,-1.3333333,29.877333,33.065333)" />
    <path
       id="path4"
       d="m 3.4928125,-1.0786016 c 0,0.16406254 0,0.18750004 -0.140625,0.37500004 -0.28125,0.41015625 -0.6914062,0.57421875 -1.0429687,0.57421875 -0.3867188,0 -0.75,-0.2109375 -0.984375,-0.5859375 C 1.0904688,-1.1020391 1.07875,-1.6293828 1.07875,-1.9223516 c 0,-0.421875 0.046875,-0.890625 0.28125,-1.2539062 0.1992188,-0.28125 0.5625,-0.5625 1.0429688,-0.5625 0.375,0 0.7382812,0.1875 0.9726562,0.5273437 0.1171875,0.140625 0.1171875,0.1523438 0.1171875,0.328125 z M 3.51625,-3.4340703 c -0.046875,-0.058594 -0.4453125,-0.5273438 -1.1484375,-0.5273438 -1.1015625,0 -2.0625,0.8789063 -2.0625,2.0390625 0,1.11328129 0.9023438,2.01562504 1.96875,2.01562504 0.6445313,0 1.0546875,-0.375 1.21875,-0.57421875 V 0.09327344 L 4.8404688,-4.765625e-4 V -0.28172656 c -0.609375,0 -0.6914063,-0.0585938 -0.6914063,-0.50390625 V -6.2231328 l -1.3242187,0.1054687 v 0.2695313 c 0.609375,0 0.6914062,0.070312 0.6914062,0.5039062 z m 8.24707,0.3984375 c 0,-1.828125 -1.394531,-3.28125 -3.0703122,-3.28125 -1.6757812,0 -3.0585937,1.453125 -3.0585937,3.28125 0,1.8164062 1.3945312,3.23437499 3.0585937,3.23437499 1.6757812,0 3.0703122,-1.41796879 3.0703122,-3.23437499 z m -3.0703122,2.96484374 c -0.9023437,0 -2.1445312,-0.78515625 -2.1445312,-3.10546874 0,-2.1796875 1.2773437,-2.8945313 2.1445312,-2.8945313 0.8671875,0 2.1562502,0.7148438 2.1562502,2.8945313 0,2.32031249 -1.2539064,3.10546874 -2.1562502,3.10546874 z m 0,0"
       style="fill:#000000;fill-opacity:1;fill-rule:nonzero;stroke:none"
       aria-label="dO"
       transform="matrix(1.3333333,0,0,1.3333333,21.686667,93.082667)" />
    <path
       id="path5"
       d="m 12.04738,-68.91774 c 0,6.65367 -5.39372,12.04739 -12.04738,12.04739 -6.65366,0 -12.04738,-5.39372 -12.04738,-12.04739 0,-6.65366 5.39372,-12.04738 12.04738,-12.04738 6.65366,0 12.04738,5.39372 12.04738,12.04738 z"
       style="fill:#fbcce8;fill-opacity:1;fill-rule:nonzero;stroke:#ec008c;stroke-width:0.79701;stroke-linecap:butt;stroke-linejoin:miter;stroke-miterlimit:10;stroke-dasharray:none;stroke-opacity:1"
       transform="matrix(1.3333333,0,0,-1.3333333,29.877333,33.065333)" />
    <path
       id="path6"
       d="m 4.7707031,-0.05741406 c 0.9609375,-0.3984375 1.875,-1.50000004 1.875,-2.97656254 0,-1.828125 -1.3945312,-3.28125 -3.0703125,-3.28125 -1.6757812,0 -3.05859372,1.453125 -3.05859372,3.28125 0,1.8164063 1.39453122,3.23437504 3.05859372,3.23437504 0.3164063,0 0.65625,-0.0703125 0.8671875,-0.12890625 0.1640625,0.890625 0.3046875,1.66406251 1.1367188,1.66406251 0.9257812,0 1.1132812,-1.19531251 1.1132812,-1.65234376 0,-0.08203125 0,-0.1875 -0.1054687,-0.1875 -0.070312,0 -0.1054688,0.046875 -0.1171875,0.09375 -0.070312,0.78515625 -0.6796875,0.83203125 -0.8203125,0.83203125 -0.4804688,0 -0.6679688,-0.38671875 -0.8789063,-0.87890625 z M 2.9308594,-0.17460156 C 2.0636719,-0.51444531 1.3957031,-1.4285078 1.3957031,-3.0339766 c 0,-2.2265625 1.2539063,-3.0351562 2.1796875,-3.0351562 0.9375,0 2.1796875,0.796875 2.1796875,3.0351562 0,1.1835938 -0.3515625,2.13281254 -1.125,2.64843754 -0.1875,-0.4453125 -0.4570312,-0.94921874 -1.0429687,-0.94921874 -0.4335938,0 -0.7617188,0.35156249 -0.7617188,0.76171874 0,0.2109375 0.09375,0.38671875 0.1054688,0.3984375 z m 1.4414062,-0.0703125 c -0.2578125,0.140625 -0.5625,0.1875 -0.796875,0.1875 -0.4335937,0 -0.5273437,-0.375 -0.5273437,-0.515625 0,-0.26953125 0.1992187,-0.53906254 0.5507812,-0.53906254 0.46875,0 0.65625,0.37500004 0.7734375,0.86718754 z m 0,0"
       style="fill:#000000;fill-opacity:1;fill-rule:nonzero;stroke:none"
       aria-label="Q"
       transform="matrix(1.3333333,0,0,1.3333333,25.1,127.87733)" />
    <path
       id="path7"
       d="m 12.04738,-95.93544 c 0,6.65367 -5.39372,12.04739 -12.04738,12.04739 -6.65366,0 -12.04738,-5.39372 -12.04738,-12.04739 0,-6.65366 5.39372,-12.04738 12.04738,-12.04738 6.65366,0 12.04738,5.39372 12.04738,12.04738 z"
       style="fill:#ccccff;fill-opacity:1;fill-rule:nonzero;stroke:#0000ff;stroke-width:0.79701;stroke-linecap:butt;stroke-linejoin:miter;stroke-miterlimit:10;stroke-dasharray:none;stroke-opacity:1"
       transform="matrix(1.3333333,0,0,-1.3333333,29.877333,33.065333)" />
    <path
       id="path8"
       d="m 5.3683594,-5.297 c 0.5625,-0.5273437 1.125,-0.5390625 1.2773437,-0.5507812 v -0.2695313 c -0.2578125,0.023437 -0.7148437,0.023437 -0.796875,0.023437 -0.375,0 -0.7148437,-0.011719 -1.1132812,-0.023437 v 0.2695313 c 0.2460937,0.011719 0.3867187,0.1289062 0.3867187,0.2929687 0,0.082031 -0.023437,0.1523438 -0.070312,0.2109375 L 2.0636719,-2.57825 v -2.8359375 c 0,-0.328125 0.011719,-0.4335937 0.703125,-0.4335937 h 0.2109375 v -0.2695313 c -0.3984375,0.023437 -0.9023438,0.023437 -1.3125,0.023437 -0.421875,0 -0.92578127,0 -1.32421877,-0.023437 v 0.2695313 h 0.2109375 c 0.69140627,0 0.70312497,0.1054687 0.70312497,0.4335937 V -0.70325 c 0,0.328125 -0.011719,0.421875 -0.70312497,0.421875 h -0.2109375 v 0.28125 c 0.3984375,-0.0234375 0.90234377,-0.0234375 1.32421877,-0.0234375 0.4101562,0 0.9140625,0 1.3125,0.0234375 v -0.28125 H 2.7667969 c -0.6914063,0 -0.703125,-0.09375 -0.703125,-0.421875 v -1.5351562 l 1.0898437,-1.0195313 1.6757813,2.390625 c 0.070312,0.09375 0.1523437,0.234375 0.1523437,0.328125 0,0.2578125 -0.3398437,0.2578125 -0.5039062,0.2578125 v 0.28125 c 0.3867187,-0.0234375 0.84375,-0.0234375 1.2421875,-0.0234375 0.234375,0 0.5976562,0 1.0546875,0.0234375 v -0.28125 c -0.5742188,0 -0.6914063,-0.0820313 -0.984375,-0.4921875 L 3.6925781,-3.750125 Z m 0,0"
       style="fill:#000000;fill-opacity:1;fill-rule:nonzero;stroke:none"
       aria-label="K"
       transform="matrix(1.3333333,0,0,1.3333333,25.1,165.06267)" />
    <path
       id="path9"
       d="m 99.30206,0 c 0,6.65366 -5.39372,12.04738 -12.04738,12.04738 -6.65367,0 -12.04739,-5.39372 -12.04739,-12.04738 0,-6.65366 5.39372,-12.04738 12.04739,-12.04738 6.65366,0 12.04738,5.39372 12.04738,12.04738 z"
       style="fill:#fbcce8;fill-opacity:1;fill-rule:nonzero;stroke:#ec008c;stroke-width:0.79701;stroke-linecap:butt;stroke-linejoin:miter;stroke-miterlimit:10;stroke-dasharray:none;stroke-opacity:1"
       transform="matrix(1.3333333,0,0,-1.3333333,29.877333,33.065333)" />
    <path
       id="path10"
       d="m 4.7696563,-0.05838281 c 0.9609375,-0.3984375 1.875,-1.49999999 1.875,-2.97656249 0,-1.828125 -1.3945313,-3.28125 -3.0703125,-3.28125 -1.6757813,0 -3.0585938,1.453125 -3.0585938,3.28125 0,1.8164062 1.3945313,3.23437499 3.0585938,3.23437499 0.3164062,0 0.65625,-0.0703125 0.8671875,-0.12890625 0.1640625,0.890625 0.3046875,1.66406246 1.1367187,1.66406246 0.9257813,0 1.1132813,-1.19531246 1.1132813,-1.65234371 0,-0.0820312525 0,-0.1875 -0.1054688,-0.1875 -0.070312,0 -0.1054687,0.046875 -0.1171875,0.09375 -0.070312,0.78515625 -0.6796875,0.83203125 -0.8203125,0.83203125 -0.4804687,0 -0.6679687,-0.38671875 -0.8789062,-0.87890625 z M 2.9298125,-0.17557031 C 2.062625,-0.51541406 1.3946563,-1.4294766 1.3946563,-3.0349453 c 0,-2.2265625 1.2539062,-3.0351563 2.1796875,-3.0351563 0.9375,0 2.1796875,0.796875 2.1796875,3.0351563 0,1.1835937 -0.3515625,2.13281249 -1.125,2.64843749 C 4.4415313,-0.83182031 4.172,-1.3357266 3.5860625,-1.3357266 c -0.4335937,0 -0.7617187,0.35156254 -0.7617187,0.76171879 0,0.2109375 0.09375,0.38671875 0.1054687,0.3984375 z m 1.4414063,-0.0703125 c -0.2578125,0.140625 -0.5625,0.1875 -0.796875,0.1875 -0.4335938,0 -0.5273438,-0.375 -0.5273438,-0.515625 0,-0.26953125 0.1992188,-0.53906249 0.5507813,-0.53906249 0.46875,0 0.65625,0.37499999 0.7734375,0.86718749 z m 0,0"
       style="fill:#000000;fill-opacity:1;fill-rule:nonzero;stroke:none"
       aria-label="Q"
       transform="matrix(1.3333333,0,0,1.3333333,141.43733,35.988)" />
    <path
       id="path11"
       d="m 99.30206,-27.0177 c 0,6.65367 -5.39372,12.0474 -12.04738,12.0474 -6.65367,0 -12.04739,-5.39373 -12.04739,-12.0474 0,-6.65366 5.39372,-12.04738 12.04739,-12.04738 6.65366,0 12.04738,5.39372 12.04738,12.04738 z"
       style="fill:#ffffff;fill-opacity:1;fill-rule:nonzero;stroke:#000000;stroke-width:0.79701;stroke-linecap:butt;stroke-linejoin:miter;stroke-miterlimit:10;stroke-dasharray:none;stroke-opacity:1"
       transform="matrix(1.3333333,0,0,-1.3333333,29.877333,33.065333)" />
    <path
       id="path12"
       d="m 3.4910078,-1.0794141 c 0,0.16406254 0,0.18750004 -0.140625,0.37500004 -0.28125,0.41015625 -0.6914062,0.57421875 -1.0429687,0.57421875 -0.3867188,0 -0.75,-0.2109375 -0.984375,-0.5859375 C 1.0886641,-1.1028516 1.0769453,-1.6301953 1.0769453,-1.9231641 c 0,-0.421875 0.046875,-0.890625 0.28125,-1.2539062 0.1992188,-0.28125 0.5625,-0.5625 1.0429688,-0.5625 0.375,0 0.7382812,0.1875 0.9726562,0.5273437 0.1171875,0.140625 0.1171875,0.1523438 0.1171875,0.328125 z m 0.023437,-2.3554687 c -0.046875,-0.058594 -0.4453125,-0.5273438 -1.1484375,-0.5273438 -1.1015625,0 -2.06249999,0.8789063 -2.06249999,2.0390625 0,1.11328129 0.90234379,2.01562504 1.96874999,2.01562504 0.6445313,0 1.0546875,-0.375 1.21875,-0.57421875 v 0.57421875 l 1.3476563,-0.09375 v -0.28125 c -0.609375,0 -0.6914063,-0.0585938 -0.6914063,-0.50390625 V -6.2239453 l -1.3242187,0.1054687 v 0.2695313 c 0.609375,0 0.6914062,0.070312 0.6914062,0.5039062 z m 5.1796875,0.6210937 c 1.2539063,0 2.1679697,-0.7851562 2.1679697,-1.640625 0,-0.890625 -0.9140634,-1.6640625 -2.1679697,-1.6640625 h -3.210937 v 0.2695313 h 0.1992188 c 0.6914062,0 0.7148437,0.1054687 0.7148437,0.4335937 v 4.71093754 c 0,0.328125 -0.023437,0.421875 -0.7148437,0.421875 H 5.4831953 v 0.28125 c 0.3984375,-0.0234375 0.9023438,-0.0234375 1.3125,-0.0234375 0.4101563,0 0.9140625,0 1.3242188,0.0234375 v -0.28125 H 7.9089766 c -0.6914063,0 -0.7148438,-0.09375 -0.7148438,-0.421875 V -2.8137891 Z m -1.523437,-2.6601562 c 0,-0.3046875 0.023437,-0.375 0.4453125,-0.375 h 0.8554688 c 1.4765625,0 1.4765625,0.984375 1.4765625,1.3945312 0,0.3984375 0,1.3828125 -1.4882813,1.3828125 H 7.1706953 Z m 0,0"
       style="fill:#000000;fill-opacity:1;fill-rule:nonzero;stroke:none"
       aria-label="dP"
       transform="matrix(1.3333333,0,0,1.3333333,138.62267,73.24)" />
    <path
       id="path13"
       d="m 99.30206,-54.0354 c 0,6.65367 -5.39372,12.0474 -12.04738,12.0474 -6.65367,0 -12.04739,-5.39373 -12.04739,-12.0474 0,-6.65366 5.39372,-12.04738 12.04739,-12.04738 6.65366,0 12.04738,5.39372 12.04738,12.04738 z"
       style="fill:#ccccff;fill-opacity:1;fill-rule:nonzero;stroke:#0000ff;stroke-width:0.79701;stroke-linecap:butt;stroke-linejoin:miter;stroke-miterlimit:10;stroke-dasharray:none;stroke-opacity:1"
       transform="matrix(1.3333333,0,0,-1.3333333,29.877333,33.065333)" />
    <path
       id="path14"
       d="m 5.3663125,-5.2954609 c 0.5625,-0.5273438 1.125,-0.5390625 1.2773438,-0.5507813 v -0.2695312 c -0.2578125,0.023437 -0.7148438,0.023437 -0.796875,0.023437 -0.375,0 -0.7148438,-0.011719 -1.1132813,-0.023437 v 0.2695312 c 0.2460938,0.011719 0.3867188,0.1289063 0.3867188,0.2929688 0,0.082031 -0.023437,0.1523437 -0.070312,0.2109375 l -2.9882813,2.765625 v -2.8359375 c 0,-0.328125 0.011719,-0.4335938 0.703125,-0.4335938 H 2.975688 v -0.2695312 c -0.3984375,0.023437 -0.9023437,0.023437 -1.3125,0.023437 -0.421875,0 -0.92578125,0 -1.32421875,-0.023437 v 0.2695312 h 0.2109375 c 0.69140625,0 0.70312505,0.1054688 0.70312505,0.4335938 v 4.71093746 c 0,0.328125 -0.011719,0.421875 -0.70312505,0.421875 h -0.2109375 v 0.28125 c 0.3984375,-0.0234375 0.90234375,-0.0234375 1.32421875,-0.0234375 0.4101563,0 0.9140625,0 1.3125,0.0234375 v -0.28125 H 2.76475 c -0.6914062,0 -0.703125,-0.09375 -0.703125,-0.421875 V -2.2368672 L 3.1514688,-3.2563984 4.82725,-0.86577344 c 0.070312,0.09375 0.1523438,0.234375 0.1523438,0.328125 0,0.2578125 -0.3398438,0.2578125 -0.5039063,0.2578125 v 0.28125 c 0.3867188,-0.0234375 0.84375,-0.0234375 1.2421875,-0.0234375 0.234375,0 0.5976563,0 1.0546875,0.0234375 v -0.28125 c -0.5742187,0 -0.6914062,-0.0820313 -0.984375,-0.4921875 L 3.6905313,-3.7485859 Z m 0,0"
       style="fill:#000000;fill-opacity:1;fill-rule:nonzero;stroke:none"
       aria-label="K"
       transform="matrix(1.3333333,0,0,1.3333333,141.43867,109.19733)" />
    <path
       id="path15"
       d="m 99.30206,-95.93544 c 0,6.65367 -5.39372,12.04739 -12.04738,12.04739 -6.65367,0 -12.04739,-5.39372 -12.04739,-12.04739 0,-6.65366 5.39372,-12.04738 12.04739,-12.04738 6.65366,0 12.04738,5.39372 12.04738,12.04738 z"
       style="fill:#ffffff;fill-opacity:1;fill-rule:nonzero;stroke:#000000;stroke-width:0.79701;stroke-linecap:butt;stroke-linejoin:miter;stroke-miterlimit:10;stroke-dasharray:none;stroke-opacity:1"
       transform="matrix(1.3333333,0,0,-1.3333333,29.877333,33.065333)" />
    <path
       id="path16"
       d="m 3.5745859,-2.812625 c 1.2539063,0 2.1679688,-0.7851562 2.1679688,-1.640625 0,-0.890625 -0.9140625,-1.6640625 -2.1679688,-1.6640625 H 0.36364844 v 0.2695313 h 0.19921875 c 0.69140621,0 0.71484371,0.1054687 0.71484371,0.4335937 V -0.70325 c 0,0.328125 -0.023437,0.421875 -0.71484371,0.421875 H 0.36364844 v 0.28125 c 0.3984375,-0.0234375 0.90234376,-0.0234375 1.31249996,-0.0234375 0.4101563,0 0.9140625,0 1.3242188,0.0234375 v -0.28125 H 2.7894297 c -0.6914063,0 -0.7148438,-0.09375 -0.7148438,-0.421875 V -2.812625 Z M 2.0511484,-5.4727812 c 0,-0.3046875 0.023437,-0.375 0.4453125,-0.375 h 0.8554688 c 1.4765625,0 1.4765625,0.984375 1.4765625,1.3945312 0,0.3984375 0,1.3828125 -1.4882813,1.3828125 H 2.0511484 Z m 0,0"
       style="fill:#000000;fill-opacity:1;fill-rule:nonzero;stroke:none"
       aria-label="P"
       transform="matrix(1.3333333,0,0,1.3333333,142.03467,165.06267)" />
    <path
       id="path17"
       d="m 186.55676,-22.67754 c 0,6.65368 -5.39372,12.0474 -12.04739,12.0474 -6.65366,0 -12.04738,-5.39372 -12.04738,-12.0474 0,-6.65365 5.39372,-12.04737 12.04738,-12.04737 6.65367,0 12.04739,5.39372 12.04739,12.04737 z"
       style="fill:#ffffff;fill-opacity:1;fill-rule:nonzero;stroke:#000000;stroke-width:0.79701;stroke-linecap:butt;stroke-linejoin:miter;stroke-miterlimit:10;stroke-dasharray:none;stroke-opacity:1"
       transform="matrix(1.3333333,0,0,-1.3333333,29.877333,33.065333)" />
    <path
       id="path18"
       d="m 3.4916484,-1.0782813 c 0,0.16406255 0,0.18750005 -0.140625,0.37500005 -0.28125,0.41015625 -0.6914062,0.57421875 -1.0429687,0.57421875 -0.3867188,0 -0.75,-0.2109375 -0.984375,-0.5859375 -0.234375,-0.3867188 -0.2460938,-0.9140625 -0.2460938,-1.2070313 0,-0.421875 0.046875,-0.890625 0.28125,-1.2539062 0.1992188,-0.28125 0.5625,-0.5625 1.0429688,-0.5625 0.375,0 0.7382812,0.1875 0.9726562,0.5273437 0.1171875,0.140625 0.1171875,0.1523438 0.1171875,0.328125 z M 3.5150859,-3.43375 c -0.046875,-0.058594 -0.4453125,-0.5273438 -1.1484375,-0.5273438 -1.1015625,0 -2.06249996,0.8789063 -2.06249996,2.0390625 0,1.1132813 0.90234376,2.01562505 1.96874996,2.01562505 0.6445313,0 1.0546875,-0.375 1.21875,-0.57421875 v 0.57421875 l 1.3476563,-0.09375 v -0.28125 c -0.609375,0 -0.6914063,-0.0585938 -0.6914063,-0.50390625 v -5.4375 l -1.3242187,0.1054687 v 0.2695313 c 0.609375,0 0.6914062,0.070312 0.6914062,0.5039062 z m 6.9726561,-1.8632813 c 0.5625,-0.5273437 1.125,-0.5390625 1.277344,-0.5507812 v -0.2695313 c -0.257813,0.023437 -0.714844,0.023437 -0.796875,0.023437 -0.375,0 -0.714844,-0.011719 -1.1132813,-0.023437 v 0.2695313 c 0.2460933,0.011719 0.3867183,0.1289062 0.3867183,0.2929687 0,0.082031 -0.02344,0.1523438 -0.07031,0.2109375 l -2.9882813,2.765625 v -2.8359375 c 0,-0.328125 0.011719,-0.4335937 0.703125,-0.4335937 h 0.2109375 v -0.2695313 c -0.3984375,0.023437 -0.9023438,0.023437 -1.3125,0.023437 -0.421875,0 -0.9257813,0 -1.3242188,-0.023437 v 0.2695313 h 0.2109375 c 0.6914063,0 0.703125,0.1054687 0.703125,0.4335937 v 4.71093755 c 0,0.328125 -0.011719,0.421875 -0.703125,0.421875 H 5.4603984 v 0.28125 c 0.3984375,-0.0234375 0.9023438,-0.0234375 1.3242188,-0.0234375 0.4101562,0 0.9140625,0 1.3125,0.0234375 v -0.28125 H 7.8861797 c -0.6914063,0 -0.703125,-0.09375 -0.703125,-0.421875 V -2.2384375 l 1.0898437,-1.0195313 1.6757813,2.39062505 c 0.070312,0.09375 0.1523433,0.234375 0.1523433,0.328125 0,0.2578125 -0.3398433,0.2578125 -0.5039058,0.2578125 v 0.28125 c 0.3867187,-0.0234375 0.8437498,-0.0234375 1.2421878,-0.0234375 0.234375,0 0.597656,0 1.054687,0.0234375 v -0.28125 c -0.574219,0 -0.691406,-0.0820313 -0.984375,-0.4921875 L 8.8119609,-3.7501563 Z m 0,0"
       style="fill:#000000;fill-opacity:1;fill-rule:nonzero;stroke:none"
       aria-label="dK"
       transform="matrix(1.3333333,0,0,1.3333333,254.364,67.453333)" />
    <path
       id="path19"
       d="m 186.55676,-56.07343 c 0,6.65366 -5.39372,12.04738 -12.04739,12.04738 -6.65366,0 -12.04738,-5.39372 -12.04738,-12.04738 0,-6.65367 5.39372,-12.04739 12.04738,-12.04739 6.65367,0 12.04739,5.39372 12.04739,12.04739 z"
       style="fill:#ffffff;fill-opacity:1;fill-rule:nonzero;stroke:#000000;stroke-width:0.79701;stroke-linecap:butt;stroke-linejoin:miter;stroke-miterlimit:10;stroke-dasharray:none;stroke-opacity:1"
       transform="matrix(1.3333333,0,0,-1.3333333,29.877333,33.065333)" />
    <path
       id="path20"
       d="m 3.4926484,-1.0768906 c 0,0.16406247 0,0.18749997 -0.140625,0.37499997 -0.28125,0.41015625 -0.6914062,0.57421875 -1.0429687,0.57421875 -0.3867188,0 -0.75,-0.2109375 -0.984375,-0.5859375 C 1.0903047,-1.1003281 1.0785859,-1.6276719 1.0785859,-1.9206406 c 0,-0.421875 0.046875,-0.890625 0.28125,-1.2539063 0.1992188,-0.28125 0.5625,-0.5625 1.0429688,-0.5625 0.375,0 0.7382812,0.1875 0.9726562,0.5273438 0.1171875,0.140625 0.1171875,0.1523437 0.1171875,0.328125 z m 0.023437,-2.3554688 c -0.046875,-0.058594 -0.4453125,-0.5273437 -1.1484375,-0.5273437 -1.1015625,0 -2.06249996,0.8789062 -2.06249996,2.0390625 0,1.11328122 0.90234376,2.01562497 1.96874996,2.01562497 0.6445313,0 1.0546875,-0.375 1.21875,-0.57421875 v 0.57421875 l 1.3476563,-0.09375 v -0.28125 c -0.609375,0 -0.6914063,-0.0585938 -0.6914063,-0.50390625 V -6.2214219 l -1.3242187,0.1054688 v 0.2695312 c 0.609375,0 0.6914062,0.070312 0.6914062,0.5039063 z m 6.3720704,3.37500002 c 0.9609382,-0.3984375 1.8750002,-1.50000002 1.8750002,-2.97656252 0,-1.828125 -1.394532,-3.28125 -3.0703127,-3.28125 -1.6757813,0 -3.0585938,1.453125 -3.0585938,3.28125 0,1.8164063 1.3945313,3.23437502 3.0585938,3.23437502 0.3164062,0 0.65625,-0.0703125 0.8671875,-0.12890625 0.1640625,0.890625 0.3046875,1.66406253 1.1367182,1.66406253 0.925782,0 1.113282,-1.19531253 1.113282,-1.65234378 0,-0.08203125 0,-0.1875 -0.105468,-0.1875 -0.07031,0 -0.105469,0.046875 -0.117189,0.09375 -0.07031,0.78515625 -0.679686,0.83203125 -0.820311,0.83203125 -0.480469,0 -0.667969,-0.38671875 -0.8789072,-0.87890625 z M 8.0483125,-0.17454688 C 7.181125,-0.51439063 6.5131563,-1.4284531 6.5131563,-3.0339219 c 0,-2.2265625 1.2539062,-3.0351562 2.1796875,-3.0351562 0.9375,0 2.1796872,0.796875 2.1796872,3.0351562 0,1.1835938 -0.351562,2.13281252 -1.1249997,2.64843752 -0.1875,-0.4453125 -0.4570313,-0.94921872 -1.0429688,-0.94921872 -0.4335937,0 -0.7617187,0.35156247 -0.7617187,0.76171872 0,0.2109375 0.09375,0.38671875 0.1054687,0.3984375 z m 1.4414063,-0.0703125 c -0.2578125,0.140625 -0.5625,0.1875 -0.796875,0.1875 -0.4335938,0 -0.5273438,-0.375 -0.5273438,-0.515625 0,-0.26953125 0.1992188,-0.53906252 0.5507813,-0.53906252 0.46875,0 0.65625,0.37500002 0.7734375,0.86718752 z m 0,0"
       style="fill:#000000;fill-opacity:1;fill-rule:nonzero;stroke:none"
       aria-label="dQ"
       transform="matrix(1.3333333,0,0,1.3333333,254.36267,110.81867)" />
    <path
       id="path21"
       d="m 186.55676,-95.93544 c 0,6.65367 -5.39372,12.04739 -12.04739,12.04739 -6.65366,0 -12.04738,-5.39372 -12.04738,-12.04739 0,-6.65366 5.39372,-12.04738 12.04738,-12.04738 6.65367,0 12.04739,5.39372 12.04739,12.04738 z"
       style="fill:#ffffff;fill-opacity:1;fill-rule:nonzero;stroke:#000000;stroke-width:0.79701;stroke-linecap:butt;stroke-linejoin:miter;stroke-miterlimit:10;stroke-dasharray:none;stroke-opacity:1"
       transform="matrix(1.3333333,0,0,-1.3333333,29.877333,33.065333)" />
    <path
       id="path22"
       d="m 3.4925547,-1.0784453 c 0,0.16406249 0,0.18749999 -0.140625,0.37499999 -0.28125,0.41015625 -0.6914063,0.57421875 -1.0429688,0.57421875 -0.3867187,0 -0.75,-0.2109375 -0.984375,-0.5859375 C 1.0902109,-1.1018828 1.0784922,-1.6292266 1.0784922,-1.9221953 c 0,-0.421875 0.046875,-0.890625 0.28125,-1.2539063 0.1992187,-0.28125 0.5625,-0.5625 1.0429687,-0.5625 0.375,0 0.7382813,0.1875 0.9726563,0.5273438 0.1171875,0.140625 0.1171875,0.1523437 0.1171875,0.328125 z m 0.023437,-2.3554688 c -0.046875,-0.058594 -0.4453125,-0.5273437 -1.1484375,-0.5273437 -1.1015625,0 -2.06250001,0.8789062 -2.06250001,2.0390625 0,1.11328124 0.90234371,2.01562499 1.96875001,2.01562499 0.6445312,0 1.0546875,-0.375 1.21875,-0.57421875 V 0.09342969 L 4.8402109,-3.203125e-4 V -0.28157031 c -0.609375,0 -0.6914062,-0.0585938 -0.6914062,-0.50390625 V -6.2229766 l -1.3242188,0.1054688 v 0.2695312 c 0.609375,0 0.6914063,0.070312 0.6914063,0.5039063 z m 3.5244141,-1.96875 C 7.00525,-5.5081328 7.00525,-5.5667266 7.00525,-5.5784453 c 0,-0.2695313 0.4570313,-0.2695313 0.7148438,-0.2695313 v -0.2695312 c -0.4101563,0.023437 -0.8671875,0.023437 -1.2773438,0.023437 -0.375,0 -0.5039062,-0.011719 -1.1484375,-0.023437 v 0.2695312 c 0.65625,0 0.7617188,0.035156 0.8789063,0.3515625 L 8.3411875,-3.203125e-4 C 8.3997813,0.12858594 8.4232188,0.19889844 8.5755625,0.19889844 c 0.140625,0 0.1640625,-0.0585938 0.2109375,-0.17578125 l 2.074219,-5.27343749 c 0.1875,-0.46875 0.5625,-0.5976563 0.984375,-0.5976563 v -0.2695312 c -0.316406,0.023437 -0.574219,0.023437 -0.878906,0.023437 -0.386719,0 -0.5625,-0.011719 -1.007813,-0.023437 v 0.2695312 c 0.445313,0.011719 0.632813,0.2226563 0.632813,0.4453125 0,0.082031 0,0.09375 -0.03516,0.1875 l -1.722656,4.34765629 z m 0,0"
       style="fill:#000000;fill-opacity:1;fill-rule:nonzero;stroke:none"
       aria-label="dV"
       transform="matrix(1.3333333,0,0,1.3333333,254.53467,165.12933)" />
    <path
       id="path23"
       d="m 257.42381,-35.52182 c 0,6.65367 -5.39372,12.04739 -12.04738,12.04739 -6.65367,0 -12.04739,-5.39372 -12.04739,-12.04739 0,-6.65366 5.39372,-12.04738 12.04739,-12.04738 6.65366,0 12.04738,5.39372 12.04738,12.04738 z"
       style="fill:#d9d9d9;fill-opacity:1;fill-rule:nonzero;stroke:#000000;stroke-width:0.79701;stroke-linecap:butt;stroke-linejoin:miter;stroke-miterlimit:10;stroke-dasharray:none;stroke-opacity:1"
       transform="matrix(1.3333333,0,0,-1.3333333,29.877333,33.065333)" />
    <path
       id="path24"
       d="m 4.77075,-0.05792187 c 0.9609375,-0.3984375 1.875,-1.50000003 1.875,-2.97656253 0,-1.828125 -1.3945312,-3.28125 -3.0703125,-3.28125 -1.6757812,0 -3.05859375,1.453125 -3.05859375,3.28125 0,1.8164063 1.39453125,3.23437503 3.05859375,3.23437503 0.3164063,0 0.65625,-0.0703125 0.8671875,-0.12890625 0.1640625,0.890625 0.3046875,1.66406252 1.1367188,1.66406252 0.9257812,0 1.1132812,-1.19531252 1.1132812,-1.65234377 0,-0.082031255 0,-0.1875 -0.1054687,-0.1875 -0.070312,0 -0.1054688,0.046875 -0.1171875,0.09375 -0.070312,0.78515625 -0.6796875,0.83203125 -0.8203125,0.83203125 -0.4804688,0 -0.6679688,-0.38671875 -0.8789063,-0.87890625 z M 2.9309063,-0.17510937 C 2.0637188,-0.51495312 1.39575,-1.4290156 1.39575,-3.0344844 c 0,-2.2265625 1.2539063,-3.0351562 2.1796875,-3.0351562 0.9375,0 2.1796875,0.796875 2.1796875,3.0351562 0,1.1835938 -0.3515625,2.13281253 -1.125,2.64843753 -0.1875,-0.4453125 -0.4570312,-0.94921873 -1.0429687,-0.94921873 -0.4335938,0 -0.7617188,0.35156248 -0.7617188,0.76171873 0,0.2109375 0.09375,0.38671875 0.1054688,0.3984375 z m 1.4414062,-0.0703125 c -0.2578125,0.140625 -0.5625,0.1875 -0.796875,0.1875 -0.4335937,0 -0.5273437,-0.375 -0.5273437,-0.515625 0,-0.26953125 0.1992187,-0.53906253 0.5507812,-0.53906253 0.46875,0 0.65625,0.37500003 0.7734375,0.86718753 z m 0,0"
       style="fill:#000000;fill-opacity:1;fill-rule:nonzero;stroke:none"
       aria-label="Q"
       transform="matrix(1.3333333,0,0,1.3333333,352.264,83.350667)" />
    <path
       id="path25"
       d="m 257.42929,-71.75761 c 0,6.65667 -5.39616,12.05285 -12.05286,12.05285 -6.65669,0 -12.05285,-5.39618 -12.05285,-12.05285 0,-6.65669 5.39616,-12.05286 12.05285,-12.05286 6.6567,0 12.05286,5.39617 12.05286,12.05286 z"
       style="fill:#d9d9d9;fill-opacity:1;fill-rule:nonzero;stroke:#000000;stroke-width:0.79701;stroke-linecap:butt;stroke-linejoin:miter;stroke-miterlimit:10;stroke-dasharray:none;stroke-opacity:1"
       transform="matrix(1.3333333,0,0,-1.3333333,29.877333,33.065333)" />
    <path
       id="path26"
       d="m 1.7577656,-5.5194844 c 0,-0.2695312 -0.2109375,-0.4921875 -0.4804687,-0.4921875 -0.2695313,0 -0.49218753,0.2226563 -0.49218753,0.4921875 0,0.2695313 0.22265623,0.4804688 0.49218753,0.4804688 0.2695312,0 0.4804687,-0.2109375 0.4804687,-0.4804688 z m -3.1289062,6.8085938 c 0,0.1640625 0,0.1875 -0.140625,0.375 -0.28125,0.4101562 -0.6914063,0.5742187 -1.0429688,0.5742187 -0.3867187,0 -0.75,-0.2109375 -0.984375,-0.5859375 -0.234375,-0.3867187 -0.2460937,-0.91406248 -0.2460937,-1.20703123 0,-0.421875 0.046875,-0.890625 0.28125,-1.25390625 0.1992187,-0.28125002 0.5625,-0.56250002 1.0429687,-0.56250002 0.375,0 0.7382813,0.1875 0.9726563,0.52734377 0.1171875,0.140625 0.1171875,0.15234375 0.1171875,0.328125 z m 0.023437,-2.3554688 c -0.046875,-0.058594 -0.4453125,-0.5273437 -1.1484375,-0.5273437 -1.1015625,0 -2.0625,0.87890622 -2.0625,2.03906247 0,1.11328123 0.9023437,2.01562503 1.96875,2.01562503 0.6445312,0 1.0546875,-0.375 1.21875,-0.5742188 v 0.5742188 l 1.34765622,-0.09375 v -0.28125 c -0.609375,0 -0.69140625,-0.058594 -0.69140625,-0.5039063 v -5.4375 l -1.32421877,0.1054688 v 0.2695312 c 0.609375,0 0.6914063,0.070312 0.6914063,0.5039063 z m 6.9726562,-1.8632812 c 0.5625,-0.5273438 1.125,-0.5390625 1.2773438,-0.5507813 v -0.2695312 c -0.2578125,0.023437 -0.7148438,0.023437 -0.796875,0.023437 -0.375,0 -0.7148438,-0.011719 -1.1132813,-0.023437 v 0.2695312 c 0.2460938,0.011719 0.3867188,0.1289063 0.3867188,0.2929688 0,0.082031 -0.023437,0.1523437 -0.070312,0.2109375 L 2.3202656,-0.21089063 V -3.0468281 c 0,-0.328125 0.011719,-0.4335938 0.703125,-0.4335938 h 0.2109375 v -0.2695312 c -0.3984375,0.023437 -0.9023437,0.023437 -1.3125,0.023437 -0.421875,0 -0.92578123,0 -1.32421873,-0.023437 v 0.2695312 h 0.2109375 c 0.69140623,0 0.70312503,0.1054688 0.70312503,0.4335938 v 4.7109375 c 0,0.328125 -0.011719,0.421875 -0.70312503,0.421875 h -0.2109375 v 0.28125 c 0.3984375,-0.023437 0.90234373,-0.023437 1.32421873,-0.023437 0.4101563,0 0.9140625,0 1.3125,0.023437 v -0.28125 H 3.0233906 c -0.6914062,0 -0.703125,-0.09375 -0.703125,-0.421875 V 0.12895312 L 3.4101094,-0.89057813 5.0858906,1.5000469 c 0.070312,0.09375 0.1523438,0.234375 0.1523438,0.328125 0,0.2578125 -0.3398438,0.2578125 -0.5039063,0.2578125 v 0.28125 c 0.3867188,-0.023437 0.84375,-0.023437 1.2421875,-0.023437 0.234375,0 0.5976563,0 1.0546875,0.023437 v -0.28125 c -0.5742187,0 -0.6914062,-0.082031 -0.984375,-0.4921875 L 3.9491719,-1.3827656 Z m 0,0"
       style="fill:#000000;fill-opacity:1;fill-rule:nonzero;stroke:none"
       aria-label="˙&#10;dK"
       transform="matrix(1.3333333,0,0,1.3333333,355.336,131.164)" />
    <path
       id="path27"
       d="m 344.67851,-53.94707 c 0,6.65366 -5.39372,12.04738 -12.04739,12.04738 -6.65366,0 -12.04738,-5.39372 -12.04738,-12.04738 0,-6.65367 5.39372,-12.04739 12.04738,-12.04739 6.65367,0 12.04739,5.39372 12.04739,12.04739 z"
       style="fill:#ffffff;fill-opacity:1;fill-rule:nonzero;stroke:#000000;stroke-width:0.79701;stroke-linecap:butt;stroke-linejoin:miter;stroke-miterlimit:10;stroke-dasharray:none;stroke-opacity:1"
       transform="matrix(1.3333333,0,0,-1.3333333,29.877333,33.065333)" />
    <path
       id="path28"
       d="m 1.7567188,-5.5209844 c 0,-0.2695312 -0.2109375,-0.4921875 -0.4804688,-0.4921875 -0.2695312,0 -0.4921875,0.2226563 -0.4921875,0.4921875 0,0.2695313 0.2226563,0.4804688 0.4921875,0.4804688 0.2695313,0 0.4804688,-0.2109375 0.4804688,-0.4804688 z m -2.68066411,6.8085938 c 0,0.1640625 0,0.1875 -0.14062499,0.375 -0.28125,0.4101562 -0.6914063,0.5742187 -1.0429688,0.5742187 -0.3867187,0 -0.75,-0.2109375 -0.984375,-0.5859375 -0.234375,-0.3867187 -0.2460937,-0.91406248 -0.2460937,-1.20703123 0,-0.421875 0.046875,-0.890625 0.28125,-1.25390625 0.1992187,-0.28125002 0.5625,-0.56250002 1.0429687,-0.56250002 0.375,0 0.7382813,0.1875 0.9726563,0.52734377 0.11718749,0.140625 0.11718749,0.15234375 0.11718749,0.328125 z m 0.0234375,-2.3554688 c -0.046875,-0.058594 -0.44531249,-0.5273437 -1.14843749,-0.5273437 -1.1015625,0 -2.0625,0.87890622 -2.0625,2.03906247 0,1.11328123 0.9023437,2.01562503 1.96875,2.01562503 0.6445312,0 1.0546875,-0.375 1.21874999,-0.5742188 v 0.5742188 l 1.34765625,-0.09375 v -0.28125 c -0.609375,0 -0.69140625,-0.058594 -0.69140625,-0.5039063 v -5.4375 l -1.32421879,0.1054688 v 0.2695312 c 0.60937504,0 0.69140629,0.070312 0.69140629,0.5039063 z m 5.17968751,0.62109377 c 1.2539062,0 2.1679687,-0.78515627 2.1679687,-1.64062497 0,-0.890625 -0.9140625,-1.6640625 -2.1679687,-1.6640625 H 1.0682422 v 0.2695312 h 0.1992187 c 0.6914063,0 0.7148438,0.1054688 0.7148438,0.4335938 v 4.7109375 c 0,0.328125 -0.023437,0.421875 -0.7148438,0.421875 H 1.0682422 v 0.28125 c 0.3984375,-0.023437 0.9023437,-0.023437 1.3125,-0.023437 0.4101562,0 0.9140625,0 1.3242187,0.023437 v -0.28125 H 3.4940234 c -0.6914062,0 -0.7148437,-0.09375 -0.7148437,-0.421875 V -0.44676563 Z M 2.7557422,-3.1069219 c 0,-0.3046875 0.023437,-0.375 0.4453125,-0.375 h 0.8554687 c 1.4765625,0 1.4765625,0.984375 1.4765625,1.3945313 0,0.3984375 0,1.38281247 -1.4882812,1.38281247 H 2.7557422 Z m 0,0"
       style="fill:#000000;fill-opacity:1;fill-rule:nonzero;stroke:none"
       aria-label="˙&#10;dP"
       transform="matrix(1.3333333,0,0,1.3333333,471.67333,107.416)" />
    <path
       id="path29"
       d="m 32.803,-124.48254 h 108.90338 v 12.86786 H 32.803 Z"
       style="fill:#ffffff;fill-opacity:1;fill-rule:nonzero;stroke:#ffffff;stroke-width:0.79701;stroke-linecap:butt;stroke-linejoin:miter;stroke-miterlimit:10;stroke-dasharray:none;stroke-opacity:1"
       transform="matrix(1.3333333,0,0,-1.3333333,29.877333,33.065333)" />
    <path
       id="path30"
       d="m 3.6691953,-6.2344141 c -0.046875,-0.1171875 -0.070312,-0.1875 -0.2109375,-0.1875 -0.1523437,0 -0.1640625,0.058594 -0.2226562,0.1992188 l -1.921875,5.33203124 c -0.1054688,0.29296875 -0.31640629,0.609375 -1.00781254,0.609375 V -3.90625e-5 C 0.64575781,-0.02347656 0.89185156,-0.02347656 1.2199766,-0.02347656 c 0.3164062,0 0.515625,0 1.0078125,0.0234374975 V -0.28128906 c -0.5039063,0 -0.65625,-0.28125 -0.65625,-0.45703125 0,-0.0820313 0.011719,-0.1171875 0.035156,-0.1640625 l 0.421875,-1.16015629 h 2.3203125 l 0.4804688,1.35937504 c 0.035156,0.0820313 0.046875,0.1171875 0.046875,0.15234375 0,0.26953125 -0.5039063,0.26953125 -0.7382813,0.26953125 V -3.90625e-5 C 4.5481016,-0.02347656 5.0168516,-0.02347656 5.4270078,-0.02347656 c 0.3984375,0 0.4335938,0 1.171875,0.0234374975 V -0.28128906 H 6.4465391 c -0.5507813,0 -0.65625,-0.0820313 -0.7382813,-0.328125 z m 0.5742188,3.890625 H 2.1223203 l 1.0664063,-2.9296875 z m 5.3261718,-1.2421875 v -0.28125 H 8.2688047 v -1.640625 H 8.0109922 c 0,0.75 -0.3164063,1.6757813 -1.1835938,1.6992188 v 0.2226562 h 0.7734375 v 2.4726563 c 0,1.00781249 0.7265625,1.20703124 1.2070313,1.20703124 0.5976562,0 0.9140625,-0.57421875 0.9140625,-1.20703124 V -1.6172266 H 9.4641172 v 0.4804688 c 0,0.65624999 -0.28125,0.98437499 -0.5976563,0.98437499 -0.5976562,0 -0.5976562,-0.78515625 -0.5976562,-0.94921879 v -2.484375 z m 3.5830081,0 v -0.28125 h -1.300781 v -1.640625 H 11.594 c 0,0.75 -0.316406,1.6757813 -1.183594,1.6992188 v 0.2226562 h 0.773438 v 2.4726563 c 0,1.00781249 0.726562,1.20703124 1.207031,1.20703124 0.597656,0 0.914063,-0.57421875 0.914063,-1.20703124 v -0.5039063 h -0.257813 v 0.4804688 c 0,0.65624999 -0.28125,0.98437499 -0.597656,0.98437499 -0.597656,0 -0.597656,-0.78515625 -0.597656,-0.94921879 v -2.484375 z m 4.250976,1.5351563 c 0.199219,0 0.246094,0 0.246094,-0.1875 0,-0.9257813 -0.503906,-1.78125 -1.652344,-1.78125 -1.078125,0 -1.921875,0.9375 -1.921875,2.0507812 0,1.17187504 0.949219,2.06250004 2.039063,2.06250004 1.089844,0 1.535156,-0.94921875 1.535156,-1.16015624 0,-0.058594 -0.04687,-0.1171875 -0.128906,-0.1171875 -0.09375,0 -0.117188,0.058594 -0.128906,0.09375 -0.304688,0.91406249 -1.101563,0.93749999 -1.230469,0.93749999 -0.433594,0 -0.796875,-0.24609375 -1.007813,-0.55078125 C 14.860602,-1.1367578 14.848883,-1.6758203 14.848883,-2.0508203 Z m -2.542968,-0.2226563 c 0.08203,-1.3710937 0.878906,-1.5234375 1.136718,-1.5234375 0.492188,0 1.03125,0.3867188 1.042969,1.5234375 z m 4.719726,-0.046875 c 0,-0.9492187 0.679688,-1.4179687 1.242188,-1.4179687 0.527343,0 0.644531,0.4335937 0.644531,0.9726562 v 2.07421879 c 0,0.41015625 -0.09375,0.41015625 -0.691406,0.41015625 V -3.90625e-5 C 21.197516,-0.02347656 21.373297,-0.02347656 21.795172,-0.02347656 c 0.433594,0 0.550781,0 1.019531,0.0234374975 V -0.28128906 c -0.457031,0 -0.679687,0 -0.679687,-0.26953125 V -2.2734766 c 0,-0.75 0,-1.0078125 -0.257813,-1.3242187 -0.199219,-0.2460938 -0.550781,-0.3632813 -0.996094,-0.3632813 -0.832031,0 -1.21875,0.6210938 -1.347656,0.8671875 v -0.8671875 l -1.300781,0.09375 v 0.28125 c 0.609375,0 0.691406,0.058594 0.691406,0.5039063 v 2.39062499 c 0,0.41015625 -0.105469,0.41015625 -0.691406,0.41015625 V -3.90625e-5 C 18.654547,-0.02347656 18.818609,-0.02347656 19.252203,-0.02347656 c 0.433594,0 0.550781,0 1.019531,0.0234374975 V -0.28128906 c -0.585937,0 -0.691406,0 -0.691406,-0.41015625 z m 6.123047,-1.265625 v -0.28125 h -1.300781 v -1.640625 h -0.257813 c 0,0.75 -0.316406,1.6757813 -1.183593,1.6992188 v 0.2226562 h 0.773437 v 2.4726563 c 0,1.00781249 0.726563,1.20703124 1.207031,1.20703124 0.597657,0 0.914063,-0.57421875 0.914063,-1.20703124 v -0.5039063 h -0.257813 v 0.4804688 c 0,0.65624999 -0.28125,0.98437499 -0.597656,0.98437499 -0.597656,0 -0.597656,-0.78515625 -0.597656,-0.94921879 v -2.484375 z m 2.320313,-0.375 -1.289063,0.09375 v 0.28125 c 0.574219,0 0.644531,0.058594 0.644531,0.4921875 v 2.40234379 c 0,0.41015625 -0.09375,0.41015625 -0.679687,0.41015625 V -3.90625e-5 C 27.097906,-0.02347656 27.285406,-0.02347656 27.683844,-0.02347656 c 0.140625,0 0.515625,0 0.960937,0.0234374975 V -0.28128906 c -0.585937,0 -0.621093,-0.046875 -0.621093,-0.38671875 z m 0.02344,-1.5585937 c 0,-0.2695313 -0.210937,-0.4921875 -0.480469,-0.4921875 -0.28125,0 -0.492187,0.234375 -0.492187,0.4921875 0,0.2578125 0.210937,0.4804687 0.492187,0.4804687 0.269532,0 0.480469,-0.2109375 0.480469,-0.4804687 z m 5.217773,3.609375 c 0,-1.171875 -0.925781,-2.109375 -2.027343,-2.109375 -1.148438,0 -2.050782,0.9609375 -2.050782,2.109375 0,1.12499999 0.9375,2.00390624 2.039063,2.00390624 1.136719,0 2.039062,-0.90234375 2.039062,-2.00390624 z m -2.027343,1.75781249 c -0.457032,0 -0.832032,-0.22265625 -1.03125,-0.57421875 -0.234375,-0.37500004 -0.246094,-0.85546874 -0.246094,-1.26562504 0,-0.328125 0,-0.84375 0.222656,-1.2070312 0.269531,-0.4570313 0.714844,-0.5976563 1.042969,-0.5976563 0.503906,0 0.878906,0.2929688 1.054687,0.5976563 0.210938,0.375 0.210938,0.8320312 0.210938,1.2070312 0,0.328125 0,0.8554688 -0.222656,1.25390629 -0.246094,0.41015625 -0.65625,0.5859375 -1.03125,0.5859375 z m 3.963867,-2.16796879 c 0,-0.9492187 0.679687,-1.4179687 1.242187,-1.4179687 0.527344,0 0.644532,0.4335937 0.644532,0.9726562 v 2.07421879 c 0,0.41015625 -0.09375,0.41015625 -0.691407,0.41015625 V -3.90625e-5 C 36.818609,-0.02347656 36.994391,-0.02347656 37.416266,-0.02347656 c 0.433593,0 0.550781,0 1.019531,0.0234374975 V -0.28128906 c -0.457031,0 -0.679688,0 -0.679688,-0.26953125 V -2.2734766 c 0,-0.75 0,-1.0078125 -0.257812,-1.3242187 -0.199219,-0.2460938 -0.550781,-0.3632813 -0.996094,-0.3632813 -0.832031,0 -1.21875,0.6210938 -1.347656,0.8671875 v -0.8671875 l -1.300781,0.09375 v 0.28125 c 0.609375,0 0.691406,0.058594 0.691406,0.5039063 v 2.39062499 c 0,0.41015625 -0.105469,0.41015625 -0.691406,0.41015625 V -3.90625e-5 C 34.275641,-0.02347656 34.439703,-0.02347656 34.873297,-0.02347656 c 0.433594,0 0.550781,0 1.019531,0.0234374975 V -0.28128906 c -0.585937,0 -0.691406,0 -0.691406,-0.41015625 z m 8.560547,-3.1523437 c 0,-0.3046875 0.01172,-0.375 0.433594,-0.375 h 1.171875 c 0.878906,0 1.242187,0.703125 1.242187,1.2421875 0,0.6914062 -0.597656,1.3007812 -1.441406,1.3007812 h -1.40625 z m 2.191406,2.2734375 c 0.890625,-0.1757813 1.511719,-0.75 1.511719,-1.40625 0,-0.796875 -0.855469,-1.5117188 -2.039063,-1.5117188 h -3.339843 v 0.2695313 h 0.210937 c 0.691406,0 0.703125,0.1054687 0.703125,0.4335937 v 4.71093754 c 0,0.328125 -0.01172,0.421875 -0.703125,0.421875 h -0.21094 V -3.90625e-5 h 3.585937 c 1.21875,0 2.0625,-0.7968749975 2.0625,-1.6289062375 0,-0.8085938 -0.785156,-1.4648438 -1.78125,-1.5703125 z m -1.757812,2.91796874 c -0.421875,0 -0.433594,-0.0585938 -0.433594,-0.36328125 V -3.0703516 h 1.6875 c 1.042969,0 1.394531,0.8789063 1.394531,1.4179688 0,0.69140624 -0.539062,1.37109374 -1.464844,1.37109374 z m 7.125,-0.36328125 c 0.03516,0.375 0.304687,0.703125 0.691406,0.703125 0.222656,0 0.785156,-0.140625 0.785156,-0.85546875 V -1.3008203 h -0.257812 v 0.49218749 c 0,0.10546875 0,0.55078125 -0.316407,0.55078125 -0.328125,0 -0.328125,-0.43359375 -0.328125,-0.57421875 V -2.4023828 c 0,-0.515625 0,-0.8203125 -0.398437,-1.1835938 -0.328125,-0.2929687 -0.761719,-0.4335937 -1.207031,-0.4335937 -0.761719,0 -1.382813,0.375 -1.382813,0.9492187 0,0.28125 0.1875,0.4335938 0.421875,0.4335938 0.234375,0 0.410156,-0.1757813 0.410156,-0.4101563 0,-0.3867187 -0.398437,-0.4335937 -0.398437,-0.4335937 0.234375,-0.234375 0.667969,-0.3164063 0.925781,-0.3164063 0.457031,0 0.972656,0.3398438 0.972656,1.1367188 v 0.2929687 c -0.492187,0.023437 -1.160156,0.058594 -1.757812,0.3515625 -0.644531,0.3164063 -0.84375,0.7734375 -0.84375,1.13671879 0,0.73828125 0.867187,0.97265625 1.464844,0.97265625 0.75,0 1.089843,-0.4921875 1.21875,-0.73828125 z m -0.08203,-0.62109379 c 0,0.86718754 -0.679687,1.13671879 -1.066406,1.13671879 -0.421875,0 -0.820312,-0.3046875 -0.820312,-0.75 0,-0.58593749 0.515625,-1.21874999 1.886718,-1.27734379 z m 4.87793,-2.2617187 c -0.1875,0.035156 -0.363281,0.1640625 -0.363281,0.421875 0,0.234375 0.175781,0.421875 0.410156,0.421875 0.234375,0 0.421875,-0.1640625 0.421875,-0.4335938 0,-0.5625 -0.621094,-0.9023437 -1.417969,-0.9023437 -1.148437,0 -2.003906,0.9609375 -2.003906,2.0859375 0,1.14843749 0.9375,2.02734374 1.992187,2.02734374 1.242188,0 1.535157,-1.078125 1.535157,-1.16015624 0,-0.1054688 -0.105469,-0.1054688 -0.128907,-0.1054688 -0.09375,0 -0.09375,0.011719 -0.152343,0.1640625 -0.210938,0.62109379 -0.703125,0.85546879 -1.171875,0.85546879 -0.5625,0 -1.300782,-0.46875 -1.300782,-1.79296879 0,-1.3945312 0.714844,-1.8164062 1.253907,-1.8164062 0.117187,0 0.597656,0.011719 0.925781,0.234375 z m 2.179687,1.5820312 v -4.2773437 l -1.324218,0.1054687 v 0.2695313 c 0.609375,0 0.691406,0.070312 0.691406,0.5039062 v 4.65234379 c 0,0.41015625 -0.105469,0.41015625 -0.691406,0.41015625 V -3.90625e-5 C 57.370367,-0.02347656 57.593023,-0.02347656 57.968023,-0.02347656 c 0.363282,0 0.585938,0 0.996094,0.0234374975 V -0.28128906 c -0.597656,0 -0.691406,0 -0.691406,-0.41015625 V -1.5937891 l 0.574219,-0.4804687 0.867187,1.17187499 c 0.140625,0.19921875 0.210938,0.3046875 0.210938,0.421875 0,0.09375 -0.02344,0.19921875 -0.304688,0.19921875 V -3.90625e-5 C 60.030523,-0.02347656 60.241461,-0.02347656 60.593023,-0.02347656 c 0.257813,0 0.550782,0 0.808594,0.0234374975 V -0.28128906 c -0.292969,0 -0.515625,0 -0.832031,-0.43359375 L 59.292242,-2.4492578 c 0.878906,-0.7617188 1.289063,-1.1132813 1.898438,-1.1367188 v -0.28125 c -0.316407,0.035156 -0.328125,0.035156 -0.65625,0.035156 -0.269532,0 -0.503907,-0.011719 -0.984375,-0.035156 v 0.28125 c 0.128906,0.011719 0.234375,0.070312 0.234375,0.2109375 0,0.1757813 -0.140625,0.2929688 -0.222657,0.3632813 z m 8.976563,-1.0546875 c 0.199219,-0.5390625 0.5625,-0.5742187 0.761719,-0.5859375 v -0.28125 c -0.363282,0.035156 -0.386719,0.035156 -0.679688,0.035156 -0.339844,0 -0.46875,0 -0.820312,-0.035156 v 0.28125 c 0.386718,0.011719 0.503906,0.2460938 0.503906,0.4335938 0,0.082031 -0.01172,0.140625 -0.03516,0.1992187 l -0.832032,2.25000004 -0.902343,-2.46093754 c -0.04687,-0.1171875 -0.04687,-0.140625 -0.04687,-0.1757812 0,-0.2226563 0.28125,-0.2460938 0.515625,-0.2460938 v -0.28125 c -0.410157,0.035156 -0.785157,0.035156 -0.925782,0.035156 -0.28125,0 -0.539062,0 -0.820312,-0.035156 v 0.28125 c 0.28125,0 0.457031,0.011719 0.5625,0.1289063 0.08203,0.1054687 0.199219,0.4570312 0.199219,0.4921875 0,0.011719 -0.04687,0.1171875 -0.04687,0.1171875 l -0.738282,2.02734374 -0.855468,-2.33203124 c -0.04687,-0.140625 -0.04687,-0.1523438 -0.04687,-0.1875 0,-0.2460938 0.351562,-0.2460938 0.515625,-0.2460938 v -0.28125 c -0.410157,0.023437 -0.621094,0.035156 -0.972657,0.035156 -0.304687,0 -0.5625,0 -0.867187,-0.035156 v 0.28125 c 0.433594,0 0.550781,0.023437 0.65625,0.328125 l 1.160156,3.16406254 c 0.04687,0.10546875 0.07031,0.1875 0.199219,0.1875 0.140625,0 0.175781,-0.0937500025 0.210937,-0.1875 l 0.914063,-2.50781254 0.925781,2.50781254 c 0.03516,0.0937499975 0.07031,0.1875 0.199219,0.1875 0.140625,0 0.164062,-0.08203125 0.199219,-0.17578125 z m 3.758789,2.35546879 c 0.03516,0.375 0.304688,0.703125 0.691406,0.703125 0.222657,0 0.785157,-0.140625 0.785157,-0.85546875 V -1.3008203 H 72.25025 v 0.49218749 c 0,0.10546875 0,0.55078125 -0.316406,0.55078125 -0.328125,0 -0.328125,-0.43359375 -0.328125,-0.57421875 V -2.4023828 c 0,-0.515625 0,-0.8203125 -0.398438,-1.1835938 -0.328125,-0.2929687 -0.761718,-0.4335937 -1.207031,-0.4335937 -0.761719,0 -1.382812,0.375 -1.382812,0.9492187 0,0.28125 0.1875,0.4335938 0.421875,0.4335938 0.234375,0 0.410156,-0.1757813 0.410156,-0.4101563 0,-0.3867187 -0.398438,-0.4335937 -0.398438,-0.4335937 0.234375,-0.234375 0.667969,-0.3164063 0.925782,-0.3164063 0.457031,0 0.972656,0.3398438 0.972656,1.1367188 v 0.2929687 c -0.492188,0.023437 -1.160156,0.058594 -1.757813,0.3515625 -0.644531,0.3164063 -0.84375,0.7734375 -0.84375,1.13671879 0,0.73828125 0.867188,0.97265625 1.464844,0.97265625 0.75,0 1.089844,-0.4921875 1.21875,-0.73828125 z m -0.08203,-0.62109379 c 0,0.86718754 -0.679688,1.13671879 -1.066406,1.13671879 -0.421875,0 -0.820313,-0.3046875 -0.820313,-0.75 0,-0.58593749 0.515625,-1.21874999 1.886719,-1.27734379 z m 3.213867,-0.7851562 c 0,-0.375 0.105469,-1.6875 1.125,-1.6875 v 0.011719 c -0.02344,0.011719 -0.164063,0.1171875 -0.164063,0.328125 0,0.2460938 0.1875,0.3984375 0.398438,0.3984375 0.1875,0 0.386719,-0.140625 0.386719,-0.4101562 0,-0.28125 -0.269532,-0.5507813 -0.667969,-0.5507813 -0.539063,0 -0.914063,0.375 -1.125,0.9257813 v -0.9257813 l -1.277344,0.09375 v 0.28125 c 0.609375,0 0.691406,0.058594 0.691406,0.5039063 v 2.39062499 c 0,0.41015625 -0.105468,0.41015625 -0.691406,0.41015625 V -3.90625e-5 c 0.46875,-0.0234374975 0.585938,-0.0234374975 1.042969,-0.0234374975 0.363281,0 0.574219,0 1.148437,0.0234374975 V -0.28128906 h -0.1875 c -0.65625,0 -0.679687,-0.09375 -0.679687,-0.421875 z m 5.504883,0.9726562 c 0,0.16406254 0,0.18750004 -0.140625,0.37500004 -0.28125,0.41015625 -0.691406,0.57421875 -1.042969,0.57421875 -0.386719,0 -0.75,-0.2109375 -0.984375,-0.5859375 -0.234375,-0.38671879 -0.246094,-0.91406249 -0.246094,-1.20703129 0,-0.421875 0.04687,-0.890625 0.28125,-1.2539062 0.199219,-0.28125 0.5625,-0.5625 1.042969,-0.5625 0.375,0 0.738281,0.1875 0.972656,0.5273437 0.117188,0.140625 0.117188,0.1523438 0.117188,0.328125 z m 0.02344,-2.3554687 c -0.04687,-0.058594 -0.445312,-0.5273438 -1.148437,-0.5273438 -1.101563,0 -2.0625,0.8789063 -2.0625,2.0390625 0,1.11328129 0.902344,2.01562504 1.96875,2.01562504 0.644531,0 1.054687,-0.375 1.21875,-0.57421875 V 0.09371094 L 81.015875,-3.90625e-5 V -0.28128906 c -0.609375,0 -0.691406,-0.0585938 -0.691406,-0.50390625 V -6.2226953 l -1.324219,0.1054687 v 0.2695313 c 0.609375,0 0.691406,0.070312 0.691406,0.5039062 z m 8.25293,0.6210937 c 1.253906,0 2.167969,-0.7851562 2.167969,-1.640625 0,-0.890625 -0.914063,-1.6640625 -2.167969,-1.6640625 h -3.210938 v 0.2695313 h 0.199219 c 0.691406,0 0.714844,0.1054687 0.714844,0.4335937 v 4.71093754 c 0,0.328125 -0.02344,0.421875 -0.714844,0.421875 H 84.733648 V -3.90625e-5 c 0.398438,-0.0234374975 0.902344,-0.0234374975 1.3125,-0.0234374975 0.410157,0 0.914063,0 1.324219,0.0234374975 V -0.28128906 H 87.15943 c -0.691407,0 -0.714844,-0.09375 -0.714844,-0.421875 V -2.8125391 Z m -1.523438,-2.6601562 c 0,-0.3046875 0.02344,-0.375 0.445313,-0.375 h 0.855469 c 1.476562,0 1.476562,0.984375 1.476562,1.3945312 0,0.3984375 0,1.3828125 -1.488281,1.3828125 h -1.289063 z m 7.03125,4.82812499 c 0.03516,0.375 0.304688,0.703125 0.691407,0.703125 0.222656,0 0.785156,-0.140625 0.785156,-0.85546875 V -1.3008203 h -0.257813 v 0.49218749 c 0,0.10546875 0,0.55078125 -0.316406,0.55078125 -0.328125,0 -0.328125,-0.43359375 -0.328125,-0.57421875 V -2.4023828 c 0,-0.515625 0,-0.8203125 -0.398437,-1.1835938 -0.328125,-0.2929687 -0.761719,-0.4335937 -1.207032,-0.4335937 -0.761718,0 -1.382812,0.375 -1.382812,0.9492187 0,0.28125 0.1875,0.4335938 0.421875,0.4335938 0.234375,0 0.410156,-0.1757813 0.410156,-0.4101563 0,-0.3867187 -0.398437,-0.4335937 -0.398437,-0.4335937 0.234375,-0.234375 0.667968,-0.3164063 0.925781,-0.3164063 0.457031,0 0.972656,0.3398438 0.972656,1.1367188 v 0.2929687 c -0.492187,0.023437 -1.160156,0.058594 -1.757812,0.3515625 -0.644532,0.3164063 -0.84375,0.7734375 -0.84375,1.13671879 0,0.73828125 0.867187,0.97265625 1.464843,0.97265625 0.75,0 1.089844,-0.4921875 1.21875,-0.73828125 z m -0.08203,-0.62109379 c 0,0.86718754 -0.679687,1.13671879 -1.066406,1.13671879 -0.421875,0 -0.820313,-0.3046875 -0.820313,-0.75 0,-0.58593749 0.515625,-1.21874999 1.886719,-1.27734379 z m 4.702149,-2.5195312 c 0,-0.1523438 0,-0.234375 -0.105469,-0.234375 -0.04687,0 -0.05859,0 -0.175781,0.1054687 -0.02344,0.023437 -0.105469,0.1054688 -0.152344,0.1523438 -0.28125,-0.1992188 -0.5625,-0.2578125 -0.867188,-0.2578125 -1.183593,0 -1.476562,0.65625 -1.476562,1.1132812 0,0.2929688 0.128906,0.5273438 0.328125,0.7148438 0.304687,0.28125 0.644531,0.3398437 1.101562,0.421875 0.457032,0.09375 0.609375,0.1171875 0.808594,0.2695312 0.09375,0.070312 0.316406,0.2460938 0.316406,0.58593754 0,0.78515625 -0.902343,0.78515625 -1.03125,0.78515625 -0.914062,0 -1.148437,-0.76171875 -1.253906,-1.24218749 -0.02344,-0.09375 -0.03516,-0.140625 -0.140625,-0.140625 -0.128906,0 -0.128906,0.070312 -0.128906,0.234375 v 1.14843749 c 0,0.15234375 0,0.22265625 0.105469,0.22265625 0.05859,0 0.07031,0 0.222656,-0.17578125 0.03516,-0.046875 0.140625,-0.1640625 0.1875,-0.2109375 0.375,0.36328125 0.785156,0.38671875 1.007812,0.38671875 1.101563,0 1.488282,-0.64453125 1.488282,-1.24218754 0,-0.3984375 -0.175782,-0.6445312 -0.375,-0.8554687 -0.304688,-0.2929688 -0.632813,-0.3515625 -1.289063,-0.4804688 -0.234375,-0.046875 -0.890625,-0.1640625 -0.890625,-0.6679687 0,-0.2929688 0.210938,-0.6679688 1.019531,-0.6679688 0.972657,0 1.03125,0.75 1.054688,0.9726563 0.01172,0.1054687 0.01172,0.1640625 0.117187,0.1640625 0.128907,0 0.128907,-0.070312 0.128907,-0.234375 z m 3.632814,0 c 0,-0.1523438 0,-0.234375 -0.10547,-0.234375 -0.0469,0 -0.0586,0 -0.17578,0.1054687 -0.0234,0.023437 -0.10547,0.1054688 -0.15235,0.1523438 -0.28125,-0.1992188 -0.5625,-0.2578125 -0.86718,-0.2578125 -1.183597,0 -1.476566,0.65625 -1.476566,1.1132812 0,0.2929688 0.128907,0.5273438 0.328125,0.7148438 0.304688,0.28125 0.644532,0.3398437 1.101561,0.421875 0.45703,0.09375 0.60938,0.1171875 0.8086,0.2695312 0.0937,0.070312 0.3164,0.2460938 0.3164,0.58593754 0,0.78515625 -0.90234,0.78515625 -1.03125,0.78515625 -0.914061,0 -1.148436,-0.76171875 -1.253904,-1.24218749 -0.02344,-0.09375 -0.03516,-0.140625 -0.140625,-0.140625 -0.128907,0 -0.128907,0.070312 -0.128907,0.234375 v 1.14843749 c 0,0.15234375 0,0.22265625 0.105469,0.22265625 0.05859,0 0.07031,0 0.222656,-0.17578125 0.03516,-0.046875 0.140625,-0.1640625 0.1875,-0.2109375 0.375,0.36328125 0.785161,0.38671875 1.007811,0.38671875 1.10156,0 1.48828,-0.64453125 1.48828,-1.24218754 0,-0.3984375 -0.17578,-0.6445312 -0.375,-0.8554687 -0.30468,-0.2929688 -0.63281,-0.3515625 -1.28906,-0.4804688 -0.23437,-0.046875 -0.890624,-0.1640625 -0.890624,-0.6679687 0,-0.2929688 0.210937,-0.6679688 1.019534,-0.6679688 0.97265,0 1.03125,0.75 1.05468,0.9726563 0.0117,0.1054687 0.0117,0.1640625 0.11719,0.1640625 0.12891,0 0.12891,-0.070312 0.12891,-0.234375 z m 0,0"
       style="fill:#000000;fill-opacity:1;fill-rule:nonzero;stroke:none"
       aria-label="AttentionBackwardPass"
       transform="matrix(1.3333333,0,0,1.3333333,78.041333,194.61333)" />
    <path
       id="path31"
       d="m 212.42932,-126.22603 h 155.00992 v 14.61134 H 212.42932 Z"
       style="fill:#ffffff;fill-opacity:1;fill-rule:nonzero;stroke:#ffffff;stroke-width:0.79701;stroke-linecap:butt;stroke-linejoin:miter;stroke-miterlimit:10;stroke-dasharray:none;stroke-opacity:1"
       transform="matrix(1.3333333,0,0,-1.3333333,29.877333,33.065333)" />
    <path
       id="path32"
       d="m 2.0383594,-5.4726953 c 0,-0.3046875 0.011719,-0.375 0.4335937,-0.375 h 1.171875 c 0.8789063,0 1.2421875,0.703125 1.2421875,1.2421875 0,0.6914062 -0.5976562,1.3007812 -1.4414062,1.3007812 h -1.40625 z m 2.1914062,2.2734375 c 0.890625,-0.1757813 1.5117188,-0.75 1.5117188,-1.40625 0,-0.796875 -0.8554688,-1.5117188 -2.0390625,-1.5117188 H 0.36257813 v 0.2695313 h 0.2109375 c 0.69140627,0 0.70312497,0.1054687 0.70312497,0.4335937 v 4.71093754 c 0,0.328125 -0.011719,0.421875 -0.70312497,0.421875 H 0.36257813 V -3.90625e-5 H 3.9485156 c 1.21875,0 2.0625,-0.7968749975 2.0625,-1.6289062375 0,-0.8085938 -0.7851562,-1.4648438 -1.78125,-1.5703125 z m -1.7578125,2.91796874 c -0.421875,0 -0.4335937,-0.0585938 -0.4335937,-0.36328125 V -3.0703516 h 1.6875 c 1.0429687,0 1.3945312,0.8789063 1.3945312,1.4179688 0,0.69140624 -0.5390625,1.37109374 -1.4648437,1.37109374 z m 7.125,-0.36328125 c 0.035156,0.375 0.3046875,0.703125 0.6914059,0.703125 0.222657,0 0.785157,-0.140625 0.785157,-0.85546875 V -1.3008203 h -0.257813 v 0.49218749 c 0,0.10546875 0,0.55078125 -0.316406,0.55078125 -0.328125,0 -0.328125,-0.43359375 -0.328125,-0.57421875 V -2.4023828 c 0,-0.515625 0,-0.8203125 -0.3984376,-1.1835938 -0.328125,-0.2929687 -0.7617188,-0.4335937 -1.2070313,-0.4335937 -0.7617187,0 -1.3828125,0.375 -1.3828125,0.9492187 0,0.28125 0.1875,0.4335938 0.421875,0.4335938 0.234375,0 0.4101563,-0.1757813 0.4101563,-0.4101563 0,-0.3867187 -0.3984375,-0.4335937 -0.3984375,-0.4335937 0.234375,-0.234375 0.6679687,-0.3164063 0.9257812,-0.3164063 0.4570313,0 0.9726563,0.3398438 0.9726563,1.1367188 v 0.2929687 c -0.4921875,0.023437 -1.1601563,0.058594 -1.7578125,0.3515625 -0.6445313,0.3164063 -0.84375,0.7734375 -0.84375,1.13671879 0,0.73828125 0.8671875,0.97265625 1.4648437,0.97265625 0.75,0 1.0898438,-0.4921875 1.21875,-0.73828125 z M 9.5149219,-1.2656641 c 0,0.86718754 -0.6796875,1.13671879 -1.0664063,1.13671879 -0.421875,0 -0.8203125,-0.3046875 -0.8203125,-0.75 0,-0.58593749 0.515625,-1.21874999 1.8867188,-1.27734379 z m 4.8779301,-2.2617187 c -0.1875,0.035156 -0.363282,0.1640625 -0.363282,0.421875 0,0.234375 0.175782,0.421875 0.410157,0.421875 0.234375,0 0.421875,-0.1640625 0.421875,-0.4335938 0,-0.5625 -0.621094,-0.9023437 -1.417969,-0.9023437 -1.148438,0 -2.003906,0.9609375 -2.003906,2.0859375 0,1.14843749 0.9375,2.02734374 1.992187,2.02734374 1.242188,0 1.535156,-1.078125 1.535156,-1.16015624 0,-0.1054688 -0.105468,-0.1054688 -0.128906,-0.1054688 -0.09375,0 -0.09375,0.011719 -0.152344,0.1640625 -0.210937,0.62109379 -0.703125,0.85546879 -1.171875,0.85546879 -0.5625,0 -1.300781,-0.46875 -1.300781,-1.79296879 0,-1.3945312 0.714844,-1.8164062 1.253906,-1.8164062 0.117188,0 0.597657,0.011719 0.925782,0.234375 z m 2.170898,1.5820312 v -4.2773437 l -1.324219,0.1054687 v 0.2695313 c 0.609375,0 0.691407,0.070312 0.691407,0.5039062 v 4.65234379 c 0,0.41015625 -0.105469,0.41015625 -0.691407,0.41015625 V -3.90625e-5 C 15.637969,-0.02347656 15.860625,-0.02347656 16.235625,-0.02347656 c 0.363281,0 0.585938,0 0.996094,0.0234374975 V -0.28128906 c -0.597656,0 -0.691406,0 -0.691406,-0.41015625 V -1.5937891 l 0.574218,-0.4804687 0.867188,1.17187499 c 0.140625,0.19921875 0.210937,0.3046875 0.210937,0.421875 0,0.09375 -0.02344,0.19921875 -0.304687,0.19921875 V -3.90625e-5 C 18.298125,-0.02347656 18.509063,-0.02347656 18.860625,-0.02347656 c 0.257813,0 0.550781,0 0.808594,0.0234374975 V -0.28128906 c -0.292969,0 -0.515625,0 -0.832031,-0.43359375 L 17.559844,-2.4492578 c 0.878906,-0.7617188 1.289062,-1.1132813 1.898437,-1.1367188 v -0.28125 c -0.316406,0.035156 -0.328125,0.035156 -0.65625,0.035156 -0.269531,0 -0.503906,-0.011719 -0.984375,-0.035156 v 0.28125 c 0.128907,0.011719 0.234375,0.070312 0.234375,0.2109375 0,0.1757813 -0.140625,0.2929688 -0.222656,0.3632813 z m 8.985352,-1.0546875 c 0.199218,-0.5390625 0.5625,-0.5742187 0.761718,-0.5859375 v -0.28125 c -0.363281,0.035156 -0.386718,0.035156 -0.679687,0.035156 -0.339844,0 -0.46875,0 -0.820313,-0.035156 v 0.28125 c 0.386719,0.011719 0.503907,0.2460938 0.503907,0.4335938 0,0.082031 -0.01172,0.140625 -0.03516,0.1992187 l -0.832031,2.25000004 -0.902344,-2.46093754 c -0.04687,-0.1171875 -0.04687,-0.140625 -0.04687,-0.1757812 0,-0.2226563 0.28125,-0.2460938 0.515625,-0.2460938 v -0.28125 c -0.410156,0.035156 -0.785156,0.035156 -0.925781,0.035156 -0.28125,0 -0.539062,0 -0.820312,-0.035156 v 0.28125 c 0.28125,0 0.457031,0.011719 0.5625,0.1289063 0.08203,0.1054687 0.199218,0.4570312 0.199218,0.4921875 0,0.011719 -0.04687,0.1171875 -0.04687,0.1171875 l -0.738281,2.02734374 -0.855469,-2.33203124 c -0.04687,-0.140625 -0.04687,-0.1523438 -0.04687,-0.1875 0,-0.2460938 0.351563,-0.2460938 0.515625,-0.2460938 v -0.28125 c -0.410156,0.023437 -0.621093,0.035156 -0.972656,0.035156 -0.304687,0 -0.5625,0 -0.867187,-0.035156 v 0.28125 c 0.433593,0 0.550781,0.023437 0.65625,0.328125 l 1.160156,3.16406254 c 0.04687,0.10546875 0.07031,0.1875 0.199219,0.1875 0.140625,0 0.175781,-0.0937500025 0.210937,-0.1875 l 0.914063,-2.50781254 0.925781,2.50781254 c 0.03516,0.0937499975 0.07031,0.1875 0.199219,0.1875 0.140625,0 0.164062,-0.08203125 0.199218,-0.17578125 z m 3.758789,2.35546879 c 0.03516,0.375 0.304687,0.703125 0.691406,0.703125 0.222656,0 0.785156,-0.140625 0.785156,-0.85546875 V -1.3008203 h -0.257812 v 0.49218749 c 0,0.10546875 0,0.55078125 -0.316407,0.55078125 -0.328125,0 -0.328125,-0.43359375 -0.328125,-0.57421875 V -2.4023828 c 0,-0.515625 0,-0.8203125 -0.398437,-1.1835938 -0.328125,-0.2929687 -0.761719,-0.4335937 -1.207031,-0.4335937 -0.761719,0 -1.382813,0.375 -1.382813,0.9492187 0,0.28125 0.1875,0.4335938 0.421875,0.4335938 0.234375,0 0.410156,-0.1757813 0.410156,-0.4101563 0,-0.3867187 -0.398437,-0.4335937 -0.398437,-0.4335937 0.234375,-0.234375 0.667969,-0.3164063 0.925781,-0.3164063 0.457031,0 0.972656,0.3398438 0.972656,1.1367188 v 0.2929687 c -0.492187,0.023437 -1.160156,0.058594 -1.757812,0.3515625 -0.644531,0.3164063 -0.84375,0.7734375 -0.84375,1.13671879 0,0.73828125 0.867187,0.97265625 1.464844,0.97265625 0.75,0 1.089843,-0.4921875 1.21875,-0.73828125 z m -0.08203,-0.62109379 c 0,0.86718754 -0.679687,1.13671879 -1.066406,1.13671879 -0.421875,0 -0.820312,-0.3046875 -0.820312,-0.75 0,-0.58593749 0.515625,-1.21874999 1.886718,-1.27734379 z m 3.213868,-0.7851562 c 0,-0.375 0.105468,-1.6875 1.125,-1.6875 v 0.011719 c -0.02344,0.011719 -0.164063,0.1171875 -0.164063,0.328125 0,0.2460938 0.1875,0.3984375 0.398438,0.3984375 0.1875,0 0.386718,-0.140625 0.386718,-0.4101562 0,-0.28125 -0.269531,-0.5507813 -0.667968,-0.5507813 -0.539063,0 -0.914063,0.375 -1.125,0.9257813 v -0.9257813 l -1.277344,0.09375 v 0.28125 c 0.609375,0 0.691406,0.058594 0.691406,0.5039063 v 2.39062499 c 0,0.41015625 -0.105469,0.41015625 -0.691406,0.41015625 V -3.90625e-5 C 31.58426,-0.02347656 31.701447,-0.02347656 32.158479,-0.02347656 c 0.363281,0 0.574218,0 1.148437,0.0234374975 V -0.28128906 h -0.1875 c -0.65625,0 -0.679687,-0.09375 -0.679687,-0.421875 z m 5.501953,0.9726562 c 0,0.16406254 0,0.18750004 -0.140625,0.37500004 -0.28125,0.41015625 -0.691407,0.57421875 -1.042969,0.57421875 -0.386719,0 -0.75,-0.2109375 -0.984375,-0.5859375 -0.234375,-0.38671879 -0.246094,-0.91406249 -0.246094,-1.20703129 0,-0.421875 0.04687,-0.890625 0.28125,-1.2539062 0.199219,-0.28125 0.5625,-0.5625 1.042969,-0.5625 0.375,0 0.738281,0.1875 0.972656,0.5273437 0.117188,0.140625 0.117188,0.1523438 0.117188,0.328125 z m 0.02344,-2.3554687 c -0.04687,-0.058594 -0.445312,-0.5273438 -1.148437,-0.5273438 -1.101563,0 -2.0625,0.8789063 -2.0625,2.0390625 0,1.11328129 0.902343,2.01562504 1.96875,2.01562504 0.644531,0 1.054687,-0.375 1.21875,-0.57421875 V 0.09371094 L 39.289336,-3.90625e-5 V -0.28128906 c -0.609375,0 -0.691406,-0.0585938 -0.691406,-0.50390625 V -6.2226953 l -1.324219,0.1054687 v 0.2695313 c 0.609375,0 0.691406,0.070312 0.691406,0.5039062 z m 8.25586,0.6210937 c 1.253906,0 2.167968,-0.7851562 2.167968,-1.640625 0,-0.890625 -0.914062,-1.6640625 -2.167968,-1.6640625 h -3.210938 v 0.2695313 h 0.199219 c 0.691406,0 0.714844,0.1054687 0.714844,0.4335937 v 4.71093754 c 0,0.328125 -0.02344,0.421875 -0.714844,0.421875 H 43.010039 V -3.90625e-5 c 0.398438,-0.0234374975 0.902344,-0.0234374975 1.3125,-0.0234374975 0.410156,0 0.914063,0 1.324219,0.0234374975 V -0.28128906 H 45.43582 c -0.691406,0 -0.714843,-0.09375 -0.714843,-0.421875 V -2.8125391 Z m -1.523438,-2.6601562 c 0,-0.3046875 0.02344,-0.375 0.445313,-0.375 h 0.855468 c 1.476563,0 1.476563,0.984375 1.476563,1.3945312 0,0.3984375 0,1.3828125 -1.488281,1.3828125 h -1.289063 z m 7.03125,4.82812499 c 0.03516,0.375 0.304688,0.703125 0.691406,0.703125 0.222657,0 0.785157,-0.140625 0.785157,-0.85546875 V -1.3008203 h -0.257813 v 0.49218749 c 0,0.10546875 0,0.55078125 -0.316406,0.55078125 -0.328125,0 -0.328125,-0.43359375 -0.328125,-0.57421875 V -2.4023828 c 0,-0.515625 0,-0.8203125 -0.398438,-1.1835938 -0.328125,-0.2929687 -0.761718,-0.4335937 -1.207031,-0.4335937 -0.761719,0 -1.382812,0.375 -1.382812,0.9492187 0,0.28125 0.1875,0.4335938 0.421875,0.4335938 0.234375,0 0.410156,-0.1757813 0.410156,-0.4101563 0,-0.3867187 -0.398438,-0.4335937 -0.398438,-0.4335937 0.234375,-0.234375 0.667969,-0.3164063 0.925782,-0.3164063 0.457031,0 0.972656,0.3398438 0.972656,1.1367188 v 0.2929687 c -0.492188,0.023437 -1.160156,0.058594 -1.757813,0.3515625 -0.644531,0.3164063 -0.84375,0.7734375 -0.84375,1.13671879 0,0.73828125 0.867188,0.97265625 1.464844,0.97265625 0.75,0 1.089844,-0.4921875 1.21875,-0.73828125 z m -0.08203,-0.62109379 c 0,0.86718754 -0.679688,1.13671879 -1.066406,1.13671879 -0.421875,0 -0.820313,-0.3046875 -0.820313,-0.75 0,-0.58593749 0.515625,-1.21874999 1.886719,-1.27734379 z m 4.699219,-2.5195312 c 0,-0.1523438 0,-0.234375 -0.105469,-0.234375 -0.04687,0 -0.05859,0 -0.175781,0.1054687 -0.02344,0.023437 -0.105469,0.1054688 -0.152344,0.1523438 -0.28125,-0.1992188 -0.5625,-0.2578125 -0.867188,-0.2578125 -1.183593,0 -1.476562,0.65625 -1.476562,1.1132812 0,0.2929688 0.128906,0.5273438 0.328125,0.7148438 0.304687,0.28125 0.644531,0.3398437 1.101562,0.421875 0.457032,0.09375 0.609375,0.1171875 0.808594,0.2695312 0.09375,0.070312 0.316406,0.2460938 0.316406,0.58593754 0,0.78515625 -0.902343,0.78515625 -1.03125,0.78515625 -0.914062,0 -1.148437,-0.76171875 -1.253906,-1.24218749 -0.02344,-0.09375 -0.03516,-0.140625 -0.140625,-0.140625 -0.128906,0 -0.128906,0.070312 -0.128906,0.234375 v 1.14843749 c 0,0.15234375 0,0.22265625 0.105469,0.22265625 0.05859,0 0.07031,0 0.222656,-0.17578125 0.03516,-0.046875 0.140625,-0.1640625 0.1875,-0.2109375 0.375,0.36328125 0.785156,0.38671875 1.007812,0.38671875 1.101563,0 1.488282,-0.64453125 1.488282,-1.24218754 0,-0.3984375 -0.175782,-0.6445312 -0.375,-0.8554687 -0.304688,-0.2929688 -0.632813,-0.3515625 -1.289063,-0.4804688 -0.234375,-0.046875 -0.890625,-0.1640625 -0.890625,-0.6679687 0,-0.2929688 0.210938,-0.6679688 1.019531,-0.6679688 0.972657,0 1.03125,0.75 1.054688,0.9726563 0.01172,0.1054687 0.01172,0.1640625 0.117187,0.1640625 0.128907,0 0.128907,-0.070312 0.128907,-0.234375 z m 3.635742,0 c 0,-0.1523438 0,-0.234375 -0.105469,-0.234375 -0.04687,0 -0.05859,0 -0.175781,0.1054687 -0.02344,0.023437 -0.105469,0.1054688 -0.152344,0.1523438 -0.28125,-0.1992188 -0.5625,-0.2578125 -0.867187,-0.2578125 -1.183594,0 -1.476563,0.65625 -1.476563,1.1132812 0,0.2929688 0.128906,0.5273438 0.328125,0.7148438 0.304688,0.28125 0.644531,0.3398437 1.101563,0.421875 0.457031,0.09375 0.609375,0.1171875 0.808593,0.2695312 0.09375,0.070312 0.316407,0.2460938 0.316407,0.58593754 0,0.78515625 -0.902344,0.78515625 -1.03125,0.78515625 -0.914063,0 -1.148438,-0.76171875 -1.253907,-1.24218749 -0.02344,-0.09375 -0.03516,-0.140625 -0.140625,-0.140625 -0.128906,0 -0.128906,0.070312 -0.128906,0.234375 v 1.14843749 c 0,0.15234375 0,0.22265625 0.105469,0.22265625 0.05859,0 0.07031,0 0.222656,-0.17578125 0.03516,-0.046875 0.140625,-0.1640625 0.1875,-0.2109375 0.375,0.36328125 0.785156,0.38671875 1.007813,0.38671875 1.101562,0 1.488281,-0.64453125 1.488281,-1.24218754 0,-0.3984375 -0.175781,-0.6445312 -0.375,-0.8554687 -0.304688,-0.2929688 -0.632813,-0.3515625 -1.289063,-0.4804688 -0.234375,-0.046875 -0.890625,-0.1640625 -0.890625,-0.6679687 0,-0.2929688 0.210938,-0.6679688 1.019532,-0.6679688 0.972656,0 1.03125,0.75 1.054687,0.9726563 0.01172,0.1054687 0.01172,0.1640625 0.117188,0.1640625 0.128906,0 0.128906,-0.070312 0.128906,-0.234375 z m 7.96582,1.875 c 0,-1.171875 -0.925781,-2.109375 -2.027344,-2.109375 -1.148437,0 -2.050781,0.9609375 -2.050781,2.109375 0,1.12499999 0.9375,2.00390624 2.039063,2.00390624 1.136718,0 2.039062,-0.90234375 2.039062,-2.00390624 z m -2.027344,1.75781249 c -0.457031,0 -0.832031,-0.22265625 -1.03125,-0.57421875 -0.234375,-0.37500004 -0.246093,-0.85546874 -0.246093,-1.26562504 0,-0.328125 0,-0.84375 0.222656,-1.2070312 0.269531,-0.4570313 0.714844,-0.5976563 1.042969,-0.5976563 0.503906,0 0.878906,0.2929688 1.054687,0.5976563 0.210938,0.375 0.210938,0.8320312 0.210938,1.2070312 0,0.328125 0,0.8554688 -0.222657,1.25390629 -0.246093,0.41015625 -0.65625,0.5859375 -1.03125,0.5859375 z M 70.90067,-3.5859766 v -0.28125 h -1.066406 v -1.0078125 c 0,-0.8203125 0.445312,-1.21875 0.832031,-1.21875 0.08203,0 0.175781,0.011719 0.269531,0.046875 -0.09375,0.035156 -0.234375,0.1523438 -0.234375,0.375 0,0.234375 0.164063,0.3867188 0.398438,0.3867188 0.234375,0 0.398437,-0.1640625 0.398437,-0.3984375 0,-0.3398438 -0.339843,-0.6328125 -0.832031,-0.6328125 -0.703125,0 -1.441406,0.5273437 -1.441406,1.4179687 v 1.03125 h -0.703125 v 0.28125 h 0.703125 v 2.89453129 c 0,0.41015625 -0.09375,0.41015625 -0.679688,0.41015625 V -3.90625e-5 C 69.013951,-0.02347656 69.131139,-0.02347656 69.58817,-0.02347656 c 0.363281,0 0.574219,0 1.136719,0.0234374975 V -0.28128906 h -0.175781 c -0.65625,0 -0.679688,-0.09375 -0.679688,-0.421875 V -3.5859766 Z m 5.238281,-0.1640625 c -0.726562,-0.1757812 -0.949218,-0.75 -0.949218,-1.1484375 0,-0.5976562 0.480468,-1.171875 1.230468,-1.171875 1.160157,0 1.628907,0.8671875 1.746094,1.7695313 0.03516,0.1640625 0.03516,0.2109375 0.152344,0.2109375 0.117187,0 0.117187,-0.058594 0.117187,-0.2460938 v -1.734375 c 0,-0.1757812 0,-0.2460937 -0.105468,-0.2460937 -0.05859,0 -0.07031,0 -0.128907,0.1171875 -0.117187,0.1523437 -0.03516,0.035156 -0.328125,0.5039062 -0.152343,-0.1757812 -0.621093,-0.6210937 -1.464843,-0.6210937 -1.042969,0 -1.792969,0.8085937 -1.792969,1.7226562 0,0.703125 0.421875,1.1367188 0.457031,1.1835938 0.410156,0.3867187 0.574219,0.4335937 1.640625,0.6796875 0.726563,0.1757812 0.796875,0.1992187 1.101563,0.5039062 0,0 0.304687,0.3398438 0.304687,0.8671875 0,0.60937504 -0.433594,1.27734379 -1.253906,1.27734379 -0.691406,0 -1.933594,-0.28125 -2.003906,-1.76953129 -0.01172,-0.1289062 -0.01172,-0.1875 -0.128907,-0.1875 -0.117187,0 -0.117187,0.070312 -0.117187,0.2578125 v 1.72265629 c 0,0.1875 0,0.2578125 0.105469,0.2578125 0.05859,0 0.07031,-0.0117188 0.128906,-0.1171875 0.117187,-0.1640625 0.03516,-0.046875 0.328125,-0.515625 0.550781,0.5390625 1.265625,0.6328125 1.699219,0.6328125 1.089843,0 1.816406,-0.90234375 1.816406,-1.86328129 0,-0.5039062 -0.1875,-0.9023437 -0.398438,-1.171875 -0.386718,-0.4921875 -0.785156,-0.5859375 -1.371093,-0.7265625 z m 6.667969,1.6992188 c 0.199219,0 0.246094,0 0.246094,-0.1875 0,-0.9257813 -0.503906,-1.78125 -1.652344,-1.78125 -1.078125,0 -1.921875,0.9375 -1.921875,2.0507812 0,1.17187504 0.949219,2.06250004 2.039063,2.06250004 1.089843,0 1.535156,-0.94921875 1.535156,-1.16015624 0,-0.058594 -0.04687,-0.1171875 -0.128906,-0.1171875 -0.09375,0 -0.117188,0.058594 -0.128907,0.09375 -0.304687,0.91406249 -1.101562,0.93749999 -1.230468,0.93749999 -0.433594,0 -0.796875,-0.24609375 -1.007813,-0.55078125 C 80.263945,-1.1367578 80.252227,-1.6758203 80.252227,-2.0508203 Z m -2.542969,-0.2226563 c 0.08203,-1.3710937 0.878907,-1.5234375 1.136719,-1.5234375 0.492188,0 1.03125,0.3867188 1.042969,1.5234375 z m 4.708008,-3.9492187 -1.324219,0.1054687 v 0.2695313 c 0.609375,0 0.679688,0.070312 0.679688,0.5039062 v 4.65234379 c 0,0.41015625 -0.09375,0.41015625 -0.679688,0.41015625 V -3.90625e-5 C 84.057891,-0.02347656 84.233672,-0.02347656 84.643828,-0.02347656 c 0.421875,0 0.574219,0 1.019531,0.0234374975 V -0.28128906 c -0.597656,0 -0.691406,0 -0.691406,-0.41015625 z m 4.494141,4.171875 c 0.199219,0 0.246094,0 0.246094,-0.1875 0,-0.9257813 -0.503907,-1.78125 -1.652344,-1.78125 -1.078125,0 -1.921875,0.9375 -1.921875,2.0507812 0,1.17187504 0.949219,2.06250004 2.039062,2.06250004 1.089844,0 1.535157,-0.94921875 1.535157,-1.16015624 0,-0.058594 -0.04687,-0.1171875 -0.128907,-0.1171875 -0.09375,0 -0.117187,0.058594 -0.128906,0.09375 -0.304687,0.91406249 -1.101562,0.93749999 -1.230469,0.93749999 -0.433593,0 -0.796875,-0.24609375 -1.007812,-0.55078125 C 86.923125,-1.1367578 86.911406,-1.6758203 86.911406,-2.0508203 Z m -2.542969,-0.2226563 c 0.08203,-1.3710937 0.878906,-1.5234375 1.136719,-1.5234375 0.492187,0 1.03125,0.3867188 1.042969,1.5234375 z m 6.313477,-1.2539062 c -0.1875,0.035156 -0.363282,0.1640625 -0.363282,0.421875 0,0.234375 0.175782,0.421875 0.410157,0.421875 0.234375,0 0.421875,-0.1640625 0.421875,-0.4335938 0,-0.5625 -0.621094,-0.9023437 -1.417969,-0.9023437 -1.148438,0 -2.003906,0.9609375 -2.003906,2.0859375 0,1.14843749 0.9375,2.02734374 1.992187,2.02734374 1.242188,0 1.535156,-1.078125 1.535156,-1.16015624 0,-0.1054688 -0.105468,-0.1054688 -0.128906,-0.1054688 -0.09375,0 -0.09375,0.011719 -0.152344,0.1640625 -0.210937,0.62109379 -0.703125,0.85546879 -1.171875,0.85546879 -0.5625,0 -1.300781,-0.46875 -1.300781,-1.79296879 0,-1.3945312 0.714844,-1.8164062 1.253906,-1.8164062 0.117188,0 0.597657,0.011719 0.925782,0.234375 z m 3.755859,-0.058594 v -0.28125 H 95.69168 v -1.640625 h -0.257813 c 0,0.75 -0.316406,1.6757813 -1.183594,1.6992188 v 0.2226562 h 0.773438 v 2.4726563 c 0,1.00781249 0.726562,1.20703124 1.207031,1.20703124 0.597656,0 0.914063,-0.57421875 0.914063,-1.20703124 v -0.5039063 h -0.257813 v 0.4804688 c 0,0.65624999 -0.28125,0.98437499 -0.597656,0.98437499 -0.597656,0 -0.597656,-0.78515625 -0.597656,-0.94921879 v -2.484375 z m 4.250983,1.5351563 c 0.19922,0 0.24609,0 0.24609,-0.1875 0,-0.9257813 -0.5039,-1.78125 -1.652346,-1.78125 -1.078125,0 -1.921875,0.9375 -1.921875,2.0507812 0,1.17187504 0.949218,2.06250004 2.039062,2.06250004 1.089849,0 1.535159,-0.94921875 1.535159,-1.16015624 0,-0.058594 -0.0469,-0.1171875 -0.1289,-0.1171875 -0.0937,0 -0.11719,0.058594 -0.12891,0.09375 -0.30469,0.91406249 -1.10156,0.93749999 -1.23047,0.93749999 -0.433598,0 -0.796879,-0.24609375 -1.007816,-0.55078125 C 98.700469,-1.1367578 98.68875,-1.6758203 98.68875,-2.0508203 Z m -2.542975,-0.2226563 c 0.08203,-1.3710937 0.878906,-1.5234375 1.136719,-1.5234375 0.492196,0 1.031256,0.3867188 1.042976,1.5234375 z m 6.550785,1.1953125 c 0,0.16406254 0,0.18750004 -0.14062,0.37500004 -0.28125,0.41015625 -0.69141,0.57421875 -1.04297,0.57421875 -0.38672,0 -0.75,-0.2109375 -0.98438,-0.5859375 -0.23437,-0.38671879 -0.24609,-0.91406249 -0.24609,-1.20703129 0,-0.421875 0.0469,-0.890625 0.28125,-1.2539062 0.19922,-0.28125 0.5625,-0.5625 1.04297,-0.5625 0.375,0 0.73828,0.1875 0.97265,0.5273437 0.11719,0.140625 0.11719,0.1523438 0.11719,0.328125 z m 0.0234,-2.3554687 c -0.0469,-0.058594 -0.44531,-0.5273438 -1.14844,-0.5273438 -1.10156,0 -2.0625,0.8789063 -2.0625,2.0390625 0,1.11328129 0.90234,2.01562504 1.96875,2.01562504 0.64453,0 1.05469,-0.375 1.21875,-0.57421875 V 0.09371094 L 106.59891,-3.90625e-5 V -0.28128906 c -0.60938,0 -0.69141,-0.0585938 -0.69141,-0.50390625 V -6.2226953 l -1.32422,0.1054687 v 0.2695313 c 0.60938,0 0.69141,0.070312 0.69141,0.5039062 z m 6.71777,-0.3164063 c -0.72656,-0.1757812 -0.94922,-0.75 -0.94922,-1.1484375 0,-0.5976562 0.48047,-1.171875 1.23047,-1.171875 1.16016,0 1.62891,0.8671875 1.74609,1.7695313 0.0352,0.1640625 0.0352,0.2109375 0.15235,0.2109375 0.11719,0 0.11719,-0.058594 0.11719,-0.2460938 v -1.734375 c 0,-0.1757812 0,-0.2460937 -0.10547,-0.2460937 -0.0586,0 -0.0703,0 -0.12891,0.1171875 -0.11719,0.1523437 -0.0352,0.035156 -0.32812,0.5039062 -0.15235,-0.1757812 -0.6211,-0.6210937 -1.46485,-0.6210937 -1.04297,0 -1.79297,0.8085937 -1.79297,1.7226562 0,0.703125 0.42188,1.1367188 0.45703,1.1835938 0.41016,0.3867187 0.57422,0.4335937 1.64063,0.6796875 0.72656,0.1757812 0.79687,0.1992187 1.10156,0.5039062 0,0 0.30469,0.3398438 0.30469,0.8671875 0,0.60937504 -0.43359,1.27734379 -1.25391,1.27734379 -0.6914,0 -1.93359,-0.28125 -2.0039,-1.76953129 -0.0117,-0.1289062 -0.0117,-0.1875 -0.12891,-0.1875 -0.11719,0 -0.11719,0.070312 -0.11719,0.2578125 v 1.72265629 c 0,0.1875 0,0.2578125 0.10547,0.2578125 0.0586,0 0.0703,-0.0117188 0.12891,-0.1171875 0.11719,-0.1640625 0.0352,-0.046875 0.32812,-0.515625 0.55078,0.5390625 1.26563,0.6328125 1.69922,0.6328125 1.08985,0 1.81641,-0.90234375 1.81641,-1.86328129 0,-0.5039062 -0.1875,-0.9023437 -0.39844,-1.171875 -0.38672,-0.4921875 -0.78516,-0.5859375 -1.37109,-0.7265625 z m 6.62988,2.25 c 0,0.79687504 -0.44531,1.37109379 -1.08984,1.37109379 -0.75,0 -0.79687,-0.38671875 -0.79687,-0.8671875 V -3.9609766 l -1.34766,0.09375 v 0.28125 c 0.69141,0 0.69141,0.023437 0.69141,0.8203125 v 1.3476563 c 0,0.58593749 0,0.96093749 0.41015,1.27734374 0.25781,0.17578125 0.6211,0.234375 0.98438,0.234375 0.46875,0 0.90234,-0.19921875 1.16015,-0.73828125 h 0.0117 V 0.09371094 L 119.97,-3.90625e-5 V -0.28128906 c -0.60937,0 -0.67969,-0.0585938 -0.67969,-0.50390625 V -3.9609766 l -1.35937,0.09375 v 0.28125 c 0.60937,0 0.6914,0.058594 0.6914,0.5039063 z m 3.1875,-1.359375 c 0,-0.1757812 0,-0.1757812 0.10547,-0.328125 0.30469,-0.4101562 0.73828,-0.5507812 1.07813,-0.5507812 0.38672,0 0.75,0.2109375 0.98437,0.5859375 0.23438,0.3867187 0.2461,0.9257812 0.2461,1.2070312 0,0.421875 -0.0469,0.890625 -0.28125,1.25390629 -0.19922,0.29296875 -0.5625,0.5625 -1.04297,0.5625 -0.39844,0 -0.73828,-0.2109375 -0.96094,-0.5390625 -0.12891,-0.1875 -0.12891,-0.19921875 -0.12891,-0.37499999 z m -0.0703,2.30859379 c 0.26953,0.3984375 0.72656,0.64453125 1.20703,0.64453125 1.06641,0 2.05078,-0.85546875 2.05078,-2.02734374 0,-1.125 -0.89062,-2.0273438 -1.95703,-2.0273438 -0.62109,0 -1.03125,0.3164063 -1.2539,0.5507813 v -2.8125 l -1.32422,0.1054687 v 0.2695313 c 0.60937,0 0.6914,0.070312 0.6914,0.5039062 V -3.90625e-5 h 0.2461 z m 4.69922,-1.05468749 c 0.22266,0.140625 0.49219,0.28125 0.91406,0.28125 0.84375,0 1.48828,-0.609375 1.48828,-1.3242188 0,-0.4335937 -0.24609,-0.7382812 -0.36328,-0.8671875 0.36328,-0.3164062 0.78516,-0.3164062 0.89063,-0.3164062 -0.0469,0.023437 -0.11719,0.070312 -0.11719,0.2226562 0,0.1054688 0.0586,0.2695313 0.26953,0.2695313 0.11719,0 0.26953,-0.082031 0.26953,-0.2695313 0,-0.1757812 -0.1289,-0.4570312 -0.49218,-0.4570312 -0.25782,0 -0.65625,0.1054687 -0.97266,0.421875 -0.24609,-0.1875 -0.58594,-0.3164063 -0.97266,-0.3164063 -0.84375,0 -1.48828,0.609375 -1.48828,1.3125 0,0.4570313 0.26953,0.7851563 0.41016,0.9140625 -0.0234,0.023437 -0.26953,0.3398438 -0.26953,0.75000004 0,0.3046875 0.14062,0.62109375 0.38672,0.78515625 -0.45704,0.140625 -0.82032,0.48046875 -0.82032,0.90234375 0,0.63281246 0.89063,1.14843746 2.03907,1.14843746 1.10156,0 2.03906,-0.4804687 2.03906,-1.17187496 0,-0.36328125 -0.16406,-0.76171875 -0.50391,-0.97265625 -0.49219,-0.31640625 -1.01953,-0.31640625 -1.86328,-0.31640625 -0.1875,0 -0.46875,0 -0.53906,-0.0234375 -0.26953,-0.046875 -0.4336,-0.29296875 -0.4336,-0.57421874 0,-0.1523438 0.0469,-0.28125 0.12891,-0.3984375 z m 0.91406,0.035156 c -0.79687,0 -0.79687,-0.8789062 -0.79687,-1.078125 0,-0.234375 0.0117,-0.5390625 0.16406,-0.7617187 0.14063,-0.1757813 0.375,-0.3046875 0.63281,-0.3046875 0.8086,0 0.8086,0.8671875 0.8086,1.0664062 0,0.2109375 0,1.078125 -0.8086,1.078125 z m 0.41016,1.52343754 c 0.28125,0 1.38281,0.01171875 1.38281,0.73828125 0,0.51562501 -0.67969,0.91406251 -1.52344,0.91406251 -0.8789,0 -1.54687,-0.421875 -1.54687,-0.91406251 0,-0.140625 0.0937,-0.73828125 0.85547,-0.73828125 z m 3.75,-2.00390624 c 0,-0.375 0.10547,-1.6875 1.125,-1.6875 v 0.011719 c -0.0234,0.011719 -0.16406,0.1171875 -0.16406,0.328125 0,0.2460938 0.1875,0.3984375 0.39843,0.3984375 0.1875,0 0.38672,-0.140625 0.38672,-0.4101562 0,-0.28125 -0.26953,-0.5507813 -0.66797,-0.5507813 -0.53906,0 -0.91406,0.375 -1.125,0.9257813 v -0.9257813 l -1.27734,0.09375 v 0.28125 c 0.60938,0 0.69141,0.058594 0.69141,0.5039063 v 2.39062499 c 0,0.41015625 -0.10547,0.41015625 -0.69141,0.41015625 V -3.90625e-5 c 0.46875,-0.0234374975 0.58594,-0.0234374975 1.04297,-0.0234374975 0.36328,0 0.57422,0 1.14844,0.0234374975 V -0.28128906 h -0.1875 c -0.65625,0 -0.67969,-0.09375 -0.67969,-0.421875 z m 5.08301,1.40624999 c 0.0352,0.375 0.30468,0.703125 0.6914,0.703125 0.22266,0 0.78516,-0.140625 0.78516,-0.85546875 V -1.3008203 h -0.25781 v 0.49218749 c 0,0.10546875 0,0.55078125 -0.31641,0.55078125 -0.32812,0 -0.32812,-0.43359375 -0.32812,-0.57421875 V -2.4023828 c 0,-0.515625 0,-0.8203125 -0.39844,-1.1835938 -0.32813,-0.2929687 -0.76172,-0.4335937 -1.20703,-0.4335937 -0.76172,0 -1.38282,0.375 -1.38282,0.9492187 0,0.28125 0.1875,0.4335938 0.42188,0.4335938 0.23437,0 0.41016,-0.1757813 0.41016,-0.4101563 0,-0.3867187 -0.39844,-0.4335937 -0.39844,-0.4335937 0.23437,-0.234375 0.66797,-0.3164063 0.92578,-0.3164063 0.45703,0 0.97266,0.3398438 0.97266,1.1367188 v 0.2929687 c -0.49219,0.023437 -1.16016,0.058594 -1.75782,0.3515625 -0.64453,0.3164063 -0.84375,0.7734375 -0.84375,1.13671879 0,0.73828125 0.86719,0.97265625 1.46485,0.97265625 0.75,0 1.08984,-0.4921875 1.21875,-0.73828165 z m -0.082,-0.62109379 c 0,0.86718754 -0.67969,1.13671879 -1.06641,1.13671879 -0.42188,0 -0.82031,-0.3046875 -0.82031,-0.75 0,-0.58593749 0.51562,-1.21874999 1.88672,-1.27734379 z m 3.22558,-1.7460937 c 0.30469,-0.515625 0.8086,-0.703125 1.1836,-0.703125 0.6914,0 1.23046,0.8085937 1.23046,1.78125 0,1.01953124 -0.60937,1.80468749 -1.33593,1.80468749 -0.39844,0 -0.73828,-0.234375 -0.96094,-0.5390625 -0.11719,-0.1875 -0.11719,-0.19921875 -0.11719,-0.37499999 z m 0,2.57812499 c 0.23438,0.234375 0.53906,0.52734375 1.13672,0.52734375 1.06641,0 2.05078,-0.85546875 2.05078,-2.02734374 0,-1.1367188 -0.8789,-2.0273438 -1.93359,-2.0273438 -0.49219,0 -0.9375,0.1992188 -1.27735,0.5625 v -0.5625 l -1.32421,0.09375 v 0.28125 c 0.63281,0 0.6914,0.058594 0.6914,0.4335938 V 1.054648 c 0,0.4101563 -0.10547,0.4101563 -0.6914,0.4101563 v 0.2695312 c 0.42187,-0.011719 0.58593,-0.023437 1.01953,-0.023437 0.43359,0 0.55078,0.011719 1.01953,0.023437 V 1.4648047 c -0.58594,0 -0.69141,0 -0.69141,-0.4101563 z m 5.14453,-5.78906249 -1.32422,0.1054687 v 0.2695313 c 0.60938,0 0.69141,0.070312 0.69141,0.5039062 v 4.65234379 c 0,0.41015625 -0.10547,0.41015625 -0.69141,0.41015625 V -3.90625e-5 c 0.42188,-0.0234374975 0.58594,-0.0234374975 1.01954,-0.0234374975 0.43359,0 0.55078,0 1.01953,0.0234374975 V -0.28128906 c -0.58594,0 -0.69141,0 -0.69141,-0.41015625 V -2.3203516 c 0,-0.9492187 0.67969,-1.4179687 1.24219,-1.4179687 0.52734,0 0.64453,0.4335937 0.64453,0.9726562 v 2.07421879 c 0,0.41015625 -0.0937,0.41015625 -0.69141,0.41015625 V -3.90625e-5 c 0.42188,-0.0234374975 0.59766,-0.0234374975 1.01953,-0.0234374975 0.4336,0 0.55079,0 1.01954,0.0234374975 V -0.28128906 c -0.45704,0 -0.67969,0 -0.67969,-0.26953125 V -2.2734766 c 0,-0.75 0,-1.0078125 -0.25781,-1.3242187 -0.19922,-0.2460938 -0.55079,-0.3632813 -0.9961,-0.3632813 -0.59765,0 -1.04297,0.3164063 -1.3125,0.8085938 h -0.0117 z m 0,0"
       style="fill:#000000;fill-opacity:1;fill-rule:nonzero;stroke:none"
       aria-label="BackwardPassofSelectedSubgraph"
       transform="matrix(1.3333333,0,0,1.3333333,317.54,194.61333)" />
    <path
       id="path33"
       d="M 11.88849,-3.68118 70.91252,-21.95746"
       style="fill:none;stroke:#000000;stroke-width:0.79701;stroke-linecap:butt;stroke-linejoin:miter;stroke-miterlimit:10;stroke-dasharray:none;stroke-opacity:1"
       transform="matrix(1.3333333,0,0,-1.3333333,29.877333,33.065333)" />
    <path
       id="path34"
       d="M 4.66248,0 C 3.28098,0.25902 1.0361,1.0361 -0.51805,1.94269 V -1.94269 C 1.0361,-1.0361 3.28098,-0.25902 4.66248,0"
       style="fill:#000000;fill-opacity:1;fill-rule:nonzero;stroke:none"
       transform="matrix(1.2736267,0.39437333,0.39437333,-1.2736267,124.42733,62.341947)" />
    <path
       id="path35"
       d="m 12.26831,-39.80782 58.1221,9.91399"
       style="fill:none;stroke:#000000;stroke-width:0.79701;stroke-linecap:butt;stroke-linejoin:miter;stroke-miterlimit:10;stroke-dasharray:none;stroke-opacity:1"
       transform="matrix(1.3333333,0,0,-1.3333333,29.877333,33.065333)" />
    <path
       id="path36"
       d="M 4.66248,0 C 3.28098,0.25902 1.0361,1.0361 -0.51805,1.94269 V -1.94269 C 1.0361,-1.0361 3.28098,-0.25902 4.66248,0"
       style="fill:#000000;fill-opacity:1;fill-rule:nonzero;stroke:none"
       transform="matrix(1.3143067,-0.22418667,-0.22418667,-1.3143067,123.7312,72.923787)" />
    <path
       id="path37"
       d="M 11.88849,-72.59892 70.91252,-90.8752"
       style="fill:none;stroke:#000000;stroke-width:0.79701;stroke-linecap:butt;stroke-linejoin:miter;stroke-miterlimit:10;stroke-dasharray:none;stroke-opacity:1"
       transform="matrix(1.3333333,0,0,-1.3333333,29.877333,33.065333)" />
    <path
       id="path38"
       d="M 4.66248,0 C 3.28098,0.25902 1.0361,1.0361 -0.51805,1.94269 V -1.94269 C 1.0361,-1.0361 3.28098,-0.25902 4.66248,0"
       style="fill:#000000;fill-opacity:1;fill-rule:nonzero;stroke:none"
       transform="matrix(1.2736267,0.39437333,0.39437333,-1.2736267,124.42733,154.23227)" />
    <path
       id="path39"
       d="M 12.44588,-95.93544 H 70.14632"
       style="fill:none;stroke:#000000;stroke-width:0.79701;stroke-linecap:butt;stroke-linejoin:miter;stroke-miterlimit:10;stroke-dasharray:none;stroke-opacity:1"
       transform="matrix(1.3333333,0,0,-1.3333333,29.877333,33.065333)" />
    <path
       id="path40"
       d="M 4.66248,0 C 3.28098,0.25902 1.0361,1.0361 -0.51805,1.94269 V -1.94269 C 1.0361,-1.0361 3.28098,-0.25902 4.66248,0"
       style="fill:#000000;fill-opacity:1;fill-rule:nonzero;stroke:none"
       transform="matrix(1.3333333,0,0,-1.3333333,123.40576,160.97925)" />
    <path
       id="path41"
       d="M 99.29967,-3.13026 157.9521,-18.3746"
       style="fill:none;stroke:#000000;stroke-width:0.79701;stroke-linecap:butt;stroke-linejoin:miter;stroke-miterlimit:10;stroke-dasharray:none;stroke-opacity:1"
       transform="matrix(1.3333333,0,0,-1.3333333,29.877333,33.065333)" />
    <path
       id="path42"
       d="M 4.66248,0 C 3.28098,0.25902 1.0361,1.0361 -0.51805,1.94269 V -1.94269 C 1.0361,-1.0361 3.28098,-0.25902 4.66248,0"
       style="fill:#000000;fill-opacity:1;fill-rule:nonzero;stroke:none"
       transform="matrix(1.2903867,0.33534667,0.33534667,-1.2903867,240.48012,57.564787)" />
    <path
       id="path43"
       d="m 99.68462,-26.39955 57.73834,2.87231"
       style="fill:none;stroke:#000000;stroke-width:0.79701;stroke-linecap:butt;stroke-linejoin:miter;stroke-miterlimit:10;stroke-dasharray:none;stroke-opacity:1"
       transform="matrix(1.3333333,0,0,-1.3333333,29.877333,33.065333)" />
    <path
       id="path44"
       d="M 4.66248,0 C 3.28098,0.25902 1.0361,1.0361 -0.51805,1.94269 V -1.94269 C 1.0361,-1.0361 3.28098,-0.25902 4.66248,0"
       style="fill:#000000;fill-opacity:1;fill-rule:nonzero;stroke:none"
       transform="matrix(1.3316267,-0.06622667,-0.06622667,-1.3316267,239.77459,64.434987)" />
    <path
       id="path45"
       d="m 99.06247,-30.94957 59.21568,-19.71896"
       style="fill:none;stroke:#000000;stroke-width:0.79701;stroke-linecap:butt;stroke-linejoin:miter;stroke-miterlimit:10;stroke-dasharray:none;stroke-opacity:1"
       transform="matrix(1.3333333,0,0,-1.3333333,29.877333,33.065333)" />
    <path
       id="path46"
       d="M 4.66248,0 C 3.28098,0.25902 1.0361,1.0361 -0.51805,1.94269 V -1.94269 C 1.0361,-1.0361 3.28098,-0.25902 4.66248,0"
       style="fill:#000000;fill-opacity:1;fill-rule:nonzero;stroke:none"
       transform="matrix(1.2649733,0.42124,0.42124,-1.2649733,240.91485,100.62337)" />
    <path
       id="path47"
       d="m 99.69658,-54.32594 57.70993,-1.34809"
       style="fill:none;stroke:#000000;stroke-width:0.79701;stroke-linecap:butt;stroke-linejoin:miter;stroke-miterlimit:10;stroke-dasharray:none;stroke-opacity:1"
       transform="matrix(1.3333333,0,0,-1.3333333,29.877333,33.065333)" />
    <path
       id="path48"
       d="M 4.66248,0 C 3.28098,0.25902 1.0361,1.0361 -0.51805,1.94269 V -1.94269 C 1.0361,-1.0361 3.28098,-0.25902 4.66248,0"
       style="fill:#000000;fill-opacity:1;fill-rule:nonzero;stroke:none"
       transform="matrix(1.3329067,0.03113333,0.03113333,-1.3329067,239.75268,107.29737)" />
    <path
       id="path49"
       d="M 11.88849,-45.58122 158.1672,-90.8752"
       style="fill:none;stroke:#000000;stroke-width:0.79701;stroke-linecap:butt;stroke-linejoin:miter;stroke-miterlimit:10;stroke-dasharray:none;stroke-opacity:1"
       transform="matrix(1.3333333,0,0,-1.3333333,29.877333,33.065333)" />
    <path
       id="path50"
       d="M 4.66248,0 C 3.28098,0.25902 1.0361,1.0361 -0.51805,1.94269 V -1.94269 C 1.0361,-1.0361 3.28098,-0.25902 4.66248,0"
       style="fill:#000000;fill-opacity:1;fill-rule:nonzero;stroke:none"
       transform="matrix(1.2736267,0.39437333,0.39437333,-1.2736267,240.76692,154.23227)" />
    <path
       id="path51"
       d="M 99.70058,-95.93544 H 157.401"
       style="fill:none;stroke:#000000;stroke-width:0.79701;stroke-linecap:butt;stroke-linejoin:miter;stroke-miterlimit:10;stroke-dasharray:none;stroke-opacity:1"
       transform="matrix(1.3333333,0,0,-1.3333333,29.877333,33.065333)" />
    <path
       id="path52"
       d="M 4.66248,0 C 3.28098,0.25902 1.0361,1.0361 -0.51805,1.94269 V -1.94269 C 1.0361,-1.0361 3.28098,-0.25902 4.66248,0"
       style="fill:#000000;fill-opacity:1;fill-rule:nonzero;stroke:none"
       transform="matrix(1.3333333,0,0,-1.3333333,239.74533,160.97925)" />
    <path
       id="path53"
       d="m 257.5534,-38.09319 58.33903,-12.31924"
       style="fill:none;stroke:#000000;stroke-width:0.79701;stroke-linecap:butt;stroke-linejoin:miter;stroke-miterlimit:10;stroke-dasharray:none;stroke-opacity:1"
       transform="matrix(1.3333333,0,0,-1.3333333,29.877333,33.065333)" />
    <path
       id="path54"
       d="M 4.66248,0 C 3.28098,0.25902 1.0361,1.0361 -0.51805,1.94269 V -1.94269 C 1.0361,-1.0361 3.28098,-0.25902 4.66248,0"
       style="fill:#000000;fill-opacity:1;fill-rule:nonzero;stroke:none"
       transform="matrix(1.3045333,0.27546667,0.27546667,-1.3045333,451.06724,100.28188)" />
    <path
       id="path55"
       d="m 257.57567,-69.26758 58.29352,11.89917"
       style="fill:none;stroke:#000000;stroke-width:0.79701;stroke-linecap:butt;stroke-linejoin:miter;stroke-miterlimit:10;stroke-dasharray:none;stroke-opacity:1"
       transform="matrix(1.3333333,0,0,-1.3333333,29.877333,33.065333)" />
    <path
       id="path56"
       d="M 4.66248,0 C 3.28098,0.25902 1.0361,1.0361 -0.51805,1.94269 V -1.94269 C 1.0361,-1.0361 3.28098,-0.25902 4.66248,0"
       style="fill:#000000;fill-opacity:1;fill-rule:nonzero;stroke:none"
       transform="matrix(1.3063333,-0.26664,-0.26664,-1.3063333,451.03623,109.55656)" />
    <path
       id="path57"
       d="M 178.98503,14.43842 H 82.779 c -5.50234,0 -9.96276,-4.46041 -9.96276,-9.96277 v -35.96901 c 0,-5.50237 4.46042,-9.96277 9.96276,-9.96277 h 96.20603 c 5.50235,0 9.96277,4.4604 9.96277,9.96277 V 4.47565 c 0,5.50236 -4.46042,9.96277 -9.96277,9.96277 z"
       style="fill:none;stroke:#ff0000;stroke-width:0.79701;stroke-linecap:butt;stroke-linejoin:miter;stroke-miterlimit:10;stroke-dasharray:0.79701, 1.99255;stroke-dashoffset:0;stroke-opacity:1"
       transform="matrix(1.3333333,0,0,-1.3333333,29.877333,33.065333)" />
    <path
       id="path58"
       d="M 340.09561,-18.09454 H 237.90645 c -5.50235,0 -9.96277,-4.46042 -9.96277,-9.96277 V -79.2276 c 0,-5.50235 4.46042,-9.96277 9.96277,-9.96277 h 102.18916 c 5.50235,0 9.96277,4.46042 9.96277,9.96277 v 51.17029 c 0,5.50235 -4.46042,9.96277 -9.96277,9.96277 z"
       style="fill:none;stroke:#ff0000;stroke-width:0.79701;stroke-linecap:butt;stroke-linejoin:miter;stroke-miterlimit:10;stroke-dasharray:0.79701, 1.99255;stroke-dashoffset:0;stroke-opacity:1"
       transform="matrix(1.3333333,0,0,-1.3333333,29.877333,33.065333)" />
  </g>
</svg>
