<?xml version="1.0" encoding="UTF-8" standalone="no"?>
<!-- Created with Inkscape (http://www.inkscape.org/) -->

<svg
   version="1.1"
   id="svg1"
   width="541.62665"
   height="216.36"
   viewBox="0 0 541.62665 216.36"
   xmlns="http://www.w3.org/2000/svg"
   xmlns:svg="http://www.w3.org/2000/svg">
  <defs
     id="defs1" />
  <g
     id="g1">
    <path
       id="path1"
       d="M 12.04738,0 C 12.04738,6.65366 6.65366,12.04738 0,12.04738 -6.65366,12.04738 -12.04738,6.65366 -12.04738,0 c 0,-6.65366 5.39372,-12.04738 12.04738,-12.04738 6.65366,0 12.04738,5.39372 12.04738,12.04738 z"
       style="fill:#ccffcc;fill-opacity:1;fill-rule:nonzero;stroke:#00b300;stroke-width:0.79701;stroke-linecap:butt;stroke-linejoin:miter;stroke-miterlimit:10;stroke-dasharray:none;stroke-opacity:1"
       transform="matrix(1.3333333,0,0,-1.3333333,29.877333,33.065333)" />
    <path
       id="path2"
       d="m 1.9210234,-5.4030156 c -0.035156,-0.1054688 -0.035156,-0.1640625 -0.035156,-0.1757813 0,-0.2695312 0.4570312,-0.2695312 0.7148437,-0.2695312 v -0.2695313 c -0.4101562,0.023437 -0.8671875,0.023437 -1.2773437,0.023437 -0.37500001,0 -0.50390626,-0.011719 -1.14843751,-0.023437 v 0.2695313 c 0.65625,0 0.76171875,0.035156 0.87890621,0.3515625 l 2.1679688,5.496093725 c 0.058594,0.128906255 0.082031,0.199218755 0.234375,0.199218755 0.140625,0 0.1640625,-0.0585938 0.2109375,-0.17578125 L 5.7413359,-5.2506719 c 0.1875,-0.46875 0.5625,-0.5976562 0.984375,-0.5976562 v -0.2695313 c -0.3164062,0.023437 -0.5742187,0.023437 -0.8789062,0.023437 -0.3867188,0 -0.5625,-0.011719 -1.0078125,-0.023437 v 0.2695313 c 0.4453125,0.011719 0.6328125,0.2226562 0.6328125,0.4453125 0,0.082031 0,0.09375 -0.035156,0.1875 l -1.7226562,4.34765623 z m 0,0"
       style="fill:#000000;fill-opacity:1;fill-rule:nonzero;stroke:none"
       aria-label="V"
       transform="matrix(1.3333333,0,0,1.3333333,25.270667,37.149333)" />
    <path
       id="path3"
       d="m 12.04738,-41.90004 c 0,6.65367 -5.39372,12.04739 -12.04738,12.04739 -6.65366,0 -12.04738,-5.39372 -12.04738,-12.04739 0,-6.65366 5.39372,-12.04738 12.04738,-12.04738 6.65366,0 12.04738,5.39372 12.04738,12.04738 z"
       style="fill:#ffe6cc;fill-opacity:1;fill-rule:nonzero;stroke:#cc6600;stroke-width:0.79701;stroke-linecap:butt;stroke-linejoin:miter;stroke-miterlimit:10;stroke-dasharray:none;stroke-opacity:1"
       transform="matrix(1.3333333,0,0,-1.3333333,29.877333,33.065333)" />
    <path
       id="path4"
       d="m 3.4928125,-1.0786016 c 0,0.16406254 0,0.18750004 -0.140625,0.37500004 -0.28125,0.41015625 -0.6914062,0.57421875 -1.0429687,0.57421875 -0.3867188,0 -0.75,-0.2109375 -0.984375,-0.5859375 C 1.0904688,-1.1020391 1.07875,-1.6293828 1.07875,-1.9223516 c 0,-0.421875 0.046875,-0.890625 0.28125,-1.2539062 0.1992188,-0.28125 0.5625,-0.5625 1.0429688,-0.5625 0.375,0 0.7382812,0.1875 0.9726562,0.5273437 0.1171875,0.140625 0.1171875,0.1523438 0.1171875,0.328125 z M 3.51625,-3.4340703 c -0.046875,-0.058594 -0.4453125,-0.5273438 -1.1484375,-0.5273438 -1.1015625,0 -2.0625,0.8789063 -2.0625,2.0390625 0,1.11328129 0.9023438,2.01562504 1.96875,2.01562504 0.6445313,0 1.0546875,-0.375 1.21875,-0.57421875 V 0.09327344 L 4.8404688,-4.765625e-4 V -0.28172656 c -0.609375,0 -0.6914063,-0.0585938 -0.6914063,-0.50390625 V -6.2231328 l -1.3242187,0.1054687 v 0.2695313 c 0.609375,0 0.6914062,0.070312 0.6914062,0.5039062 z m 8.24707,0.3984375 c 0,-1.828125 -1.394531,-3.28125 -3.0703122,-3.28125 -1.6757812,0 -3.0585937,1.453125 -3.0585937,3.28125 0,1.8164062 1.3945312,3.23437499 3.0585937,3.23437499 1.6757812,0 3.0703122,-1.41796879 3.0703122,-3.23437499 z m -3.0703122,2.96484374 c -0.9023437,0 -2.1445312,-0.78515625 -2.1445312,-3.10546874 0,-2.1796875 1.2773437,-2.8945313 2.1445312,-2.8945313 0.8671875,0 2.1562502,0.7148438 2.1562502,2.8945313 0,2.32031249 -1.2539064,3.10546874 -2.1562502,3.10546874 z m 0,0"
       style="fill:#000000;fill-opacity:1;fill-rule:nonzero;stroke:none"
       aria-label="dO"
       transform="matrix(1.3333333,0,0,1.3333333,21.686667,93.082667)" />
    <path
       id="path5"
       d="m 12.04738,-68.91774 c 0,6.65367 -5.39372,12.04739 -12.04738,12.04739 -6.65366,0 -12.04738,-5.39372 -12.04738,-12.04739 0,-6.65366 5.39372,-12.04738 12.04738,-12.04738 6.65366,0 12.04738,5.39372 12.04738,12.04738 z"
       style="fill:#fbcce8;fill-opacity:1;fill-rule:nonzero;stroke:#ec008c;stroke-width:0.79701;stroke-linecap:butt;stroke-linejoin:miter;stroke-miterlimit:10;stroke-dasharray:none;stroke-opacity:1"
       transform="matrix(1.3333333,0,0,-1.3333333,29.877333,33.065333)" />
    <path
       id="path6"
       d="m 4.7707031,-0.05934375 c 0.9609375,-0.3984375 1.875,-1.49999995 1.875,-2.97656245 0,-1.828125 -1.3945312,-3.28125 -3.0703125,-3.28125 -1.6757812,0 -3.05859372,1.453125 -3.05859372,3.28125 0,1.8164062 1.39453122,3.23437495 3.05859372,3.23437495 0.3164063,0 0.65625,-0.0703125 0.8671875,-0.12890625 0.1640625,0.890625 0.3046875,1.6640625 1.1367188,1.6640625 0.9257812,0 1.1132812,-1.1953125 1.1132812,-1.65234375 0,-0.08203125 0,-0.1875 -0.1054687,-0.1875 -0.070312,0 -0.1054688,0.046875 -0.1171875,0.09375 C 6.3996094,0.7726875 5.7902344,0.8195625 5.6496094,0.8195625 c -0.4804688,0 -0.6679688,-0.38671875 -0.8789063,-0.87890625 z M 2.9308594,-0.17653125 C 2.0636719,-0.516375 1.3957031,-1.4304375 1.3957031,-3.0359062 c 0,-2.2265625 1.2539063,-3.0351563 2.1796875,-3.0351563 0.9375,0 2.1796875,0.796875 2.1796875,3.0351563 0,1.1835937 -0.3515625,2.13281245 -1.125,2.64843745 -0.1875,-0.4453125 -0.4570312,-0.94921875 -1.0429687,-0.94921875 -0.4335938,0 -0.7617188,0.3515625 -0.7617188,0.76171875 0,0.2109375 0.09375,0.38671875 0.1054688,0.3984375 z m 1.4414062,-0.0703125 c -0.2578125,0.140625 -0.5625,0.1875 -0.796875,0.1875 -0.4335937,0 -0.5273437,-0.375 -0.5273437,-0.515625 0,-0.26953125 0.1992187,-0.53906245 0.5507812,-0.53906245 0.46875,0 0.65625,0.37499995 0.7734375,0.86718745 z m 0,0"
       style="fill:#000000;fill-opacity:1;fill-rule:nonzero;stroke:none"
       aria-label="Q"
       transform="matrix(1.3333333,0,0,1.3333333,25.1,127.876)" />
    <path
       id="path7"
       d="m 12.04738,-95.93544 c 0,6.65367 -5.39372,12.04739 -12.04738,12.04739 -6.65366,0 -12.04738,-5.39372 -12.04738,-12.04739 0,-6.65366 5.39372,-12.04738 12.04738,-12.04738 6.65366,0 12.04738,5.39372 12.04738,12.04738 z"
       style="fill:#ccccff;fill-opacity:1;fill-rule:nonzero;stroke:#0000ff;stroke-width:0.79701;stroke-linecap:butt;stroke-linejoin:miter;stroke-miterlimit:10;stroke-dasharray:none;stroke-opacity:1"
       transform="matrix(1.3333333,0,0,-1.3333333,29.877333,33.065333)" />
    <path
       id="path8"
       d="m 5.3683594,-5.297 c 0.5625,-0.5273437 1.125,-0.5390625 1.2773437,-0.5507812 v -0.2695313 c -0.2578125,0.023437 -0.7148437,0.023437 -0.796875,0.023437 -0.375,0 -0.7148437,-0.011719 -1.1132812,-0.023437 v 0.2695313 c 0.2460937,0.011719 0.3867187,0.1289062 0.3867187,0.2929687 0,0.082031 -0.023437,0.1523438 -0.070312,0.2109375 L 2.0636719,-2.57825 v -2.8359375 c 0,-0.328125 0.011719,-0.4335937 0.703125,-0.4335937 h 0.2109375 v -0.2695313 c -0.3984375,0.023437 -0.9023438,0.023437 -1.3125,0.023437 -0.421875,0 -0.92578127,0 -1.32421877,-0.023437 v 0.2695313 h 0.2109375 c 0.69140627,0 0.70312497,0.1054687 0.70312497,0.4335937 V -0.70325 c 0,0.328125 -0.011719,0.421875 -0.70312497,0.421875 h -0.2109375 v 0.28125 c 0.3984375,-0.0234375 0.90234377,-0.0234375 1.32421877,-0.0234375 0.4101562,0 0.9140625,0 1.3125,0.0234375 v -0.28125 H 2.7667969 c -0.6914063,0 -0.703125,-0.09375 -0.703125,-0.421875 v -1.5351562 l 1.0898437,-1.0195313 1.6757813,2.390625 c 0.070312,0.09375 0.1523437,0.234375 0.1523437,0.328125 0,0.2578125 -0.3398437,0.2578125 -0.5039062,0.2578125 v 0.28125 c 0.3867187,-0.0234375 0.84375,-0.0234375 1.2421875,-0.0234375 0.234375,0 0.5976562,0 1.0546875,0.0234375 v -0.28125 c -0.5742188,0 -0.6914063,-0.0820313 -0.984375,-0.4921875 L 3.6925781,-3.750125 Z m 0,0"
       style="fill:#000000;fill-opacity:1;fill-rule:nonzero;stroke:none"
       aria-label="K"
       transform="matrix(1.3333333,0,0,1.3333333,25.1,165.06267)" />
    <path
       id="path9"
       d="m 99.30206,0 c 0,6.65366 -5.39372,12.04738 -12.04738,12.04738 -6.65367,0 -12.04739,-5.39372 -12.04739,-12.04738 0,-6.65366 5.39372,-12.04738 12.04739,-12.04738 6.65366,0 12.04738,5.39372 12.04738,12.04738 z"
       style="fill:#fbcce8;fill-opacity:1;fill-rule:nonzero;stroke:#ec008c;stroke-width:0.79701;stroke-linecap:butt;stroke-linejoin:miter;stroke-miterlimit:10;stroke-dasharray:none;stroke-opacity:1"
       transform="matrix(1.3333333,0,0,-1.3333333,29.877333,33.065333)" />
    <path
       id="path10"
       d="m 4.7696563,-0.05838281 c 0.9609375,-0.3984375 1.875,-1.49999999 1.875,-2.97656249 0,-1.828125 -1.3945313,-3.28125 -3.0703125,-3.28125 -1.6757813,0 -3.0585938,1.453125 -3.0585938,3.28125 0,1.8164062 1.3945313,3.23437499 3.0585938,3.23437499 0.3164062,0 0.65625,-0.0703125 0.8671875,-0.12890625 0.1640625,0.890625 0.3046875,1.66406246 1.1367187,1.66406246 0.9257813,0 1.1132813,-1.19531246 1.1132813,-1.65234371 0,-0.0820312525 0,-0.1875 -0.1054688,-0.1875 -0.070312,0 -0.1054687,0.046875 -0.1171875,0.09375 -0.070312,0.78515625 -0.6796875,0.83203125 -0.8203125,0.83203125 -0.4804687,0 -0.6679687,-0.38671875 -0.8789062,-0.87890625 z M 2.9298125,-0.17557031 C 2.062625,-0.51541406 1.3946563,-1.4294766 1.3946563,-3.0349453 c 0,-2.2265625 1.2539062,-3.0351563 2.1796875,-3.0351563 0.9375,0 2.1796875,0.796875 2.1796875,3.0351563 0,1.1835937 -0.3515625,2.13281249 -1.125,2.64843749 C 4.4415313,-0.83182031 4.172,-1.3357266 3.5860625,-1.3357266 c -0.4335937,0 -0.7617187,0.35156254 -0.7617187,0.76171879 0,0.2109375 0.09375,0.38671875 0.1054687,0.3984375 z m 1.4414063,-0.0703125 c -0.2578125,0.140625 -0.5625,0.1875 -0.796875,0.1875 -0.4335938,0 -0.5273438,-0.375 -0.5273438,-0.515625 0,-0.26953125 0.1992188,-0.53906249 0.5507813,-0.53906249 0.46875,0 0.65625,0.37499999 0.7734375,0.86718749 z m 0,0"
       style="fill:#000000;fill-opacity:1;fill-rule:nonzero;stroke:none"
       aria-label="Q"
       transform="matrix(1.3333333,0,0,1.3333333,141.43733,35.988)" />
    <path
       id="path11"
       d="m 99.30206,-27.0177 c 0,6.65367 -5.39372,12.0474 -12.04738,12.0474 -6.65367,0 -12.04739,-5.39373 -12.04739,-12.0474 0,-6.65366 5.39372,-12.04738 12.04739,-12.04738 6.65366,0 12.04738,5.39372 12.04738,12.04738 z"
       style="fill:#ffffff;fill-opacity:1;fill-rule:nonzero;stroke:#000000;stroke-width:0.79701;stroke-linecap:butt;stroke-linejoin:miter;stroke-miterlimit:10;stroke-dasharray:none;stroke-opacity:1"
       transform="matrix(1.3333333,0,0,-1.3333333,29.877333,33.065333)" />
    <path
       id="path12"
       d="m 3.4910078,-1.0794141 c 0,0.16406254 0,0.18750004 -0.140625,0.37500004 -0.28125,0.41015625 -0.6914062,0.57421875 -1.0429687,0.57421875 -0.3867188,0 -0.75,-0.2109375 -0.984375,-0.5859375 C 1.0886641,-1.1028516 1.0769453,-1.6301953 1.0769453,-1.9231641 c 0,-0.421875 0.046875,-0.890625 0.28125,-1.2539062 0.1992188,-0.28125 0.5625,-0.5625 1.0429688,-0.5625 0.375,0 0.7382812,0.1875 0.9726562,0.5273437 0.1171875,0.140625 0.1171875,0.1523438 0.1171875,0.328125 z m 0.023437,-2.3554687 c -0.046875,-0.058594 -0.4453125,-0.5273438 -1.1484375,-0.5273438 -1.1015625,0 -2.06249999,0.8789063 -2.06249999,2.0390625 0,1.11328129 0.90234379,2.01562504 1.96874999,2.01562504 0.6445313,0 1.0546875,-0.375 1.21875,-0.57421875 v 0.57421875 l 1.3476563,-0.09375 v -0.28125 c -0.609375,0 -0.6914063,-0.0585938 -0.6914063,-0.50390625 V -6.2239453 l -1.3242187,0.1054687 v 0.2695313 c 0.609375,0 0.6914062,0.070312 0.6914062,0.5039062 z m 5.1796875,0.6210937 c 1.2539063,0 2.1679697,-0.7851562 2.1679697,-1.640625 0,-0.890625 -0.9140634,-1.6640625 -2.1679697,-1.6640625 h -3.210937 v 0.2695313 h 0.1992188 c 0.6914062,0 0.7148437,0.1054687 0.7148437,0.4335937 v 4.71093754 c 0,0.328125 -0.023437,0.421875 -0.7148437,0.421875 H 5.4831953 v 0.28125 c 0.3984375,-0.0234375 0.9023438,-0.0234375 1.3125,-0.0234375 0.4101563,0 0.9140625,0 1.3242188,0.0234375 v -0.28125 H 7.9089766 c -0.6914063,0 -0.7148438,-0.09375 -0.7148438,-0.421875 V -2.8137891 Z m -1.523437,-2.6601562 c 0,-0.3046875 0.023437,-0.375 0.4453125,-0.375 h 0.8554688 c 1.4765625,0 1.4765625,0.984375 1.4765625,1.3945312 0,0.3984375 0,1.3828125 -1.4882813,1.3828125 H 7.1706953 Z m 0,0"
       style="fill:#000000;fill-opacity:1;fill-rule:nonzero;stroke:none"
       aria-label="dP"
       transform="matrix(1.3333333,0,0,1.3333333,138.62267,73.24)" />
    <path
       id="path13"
       d="m 99.30206,-54.0354 c 0,6.65367 -5.39372,12.0474 -12.04738,12.0474 -6.65367,0 -12.04739,-5.39373 -12.04739,-12.0474 0,-6.65366 5.39372,-12.04738 12.04739,-12.04738 6.65366,0 12.04738,5.39372 12.04738,12.04738 z"
       style="fill:#ccccff;fill-opacity:1;fill-rule:nonzero;stroke:#0000ff;stroke-width:0.79701;stroke-linecap:butt;stroke-linejoin:miter;stroke-miterlimit:10;stroke-dasharray:none;stroke-opacity:1"
       transform="matrix(1.3333333,0,0,-1.3333333,29.877333,33.065333)" />
    <path
       id="path14"
       d="m 5.3663125,-5.2973906 c 0.5625,-0.5273438 1.125,-0.5390625 1.2773438,-0.5507813 v -0.2695312 c -0.2578125,0.023437 -0.7148438,0.023437 -0.796875,0.023437 -0.375,0 -0.7148438,-0.011719 -1.1132813,-0.023437 v 0.2695312 c 0.2460938,0.011719 0.3867188,0.1289063 0.3867188,0.2929688 0,0.082031 -0.023437,0.1523437 -0.070312,0.2109375 l -2.9882813,2.765625 v -2.8359375 c 0,-0.328125 0.011719,-0.4335938 0.703125,-0.4335938 H 2.975688 v -0.2695312 c -0.3984375,0.023437 -0.9023437,0.023437 -1.3125,0.023437 -0.421875,0 -0.92578125,0 -1.32421875,-0.023437 v 0.2695312 h 0.2109375 c 0.69140625,0 0.70312505,0.1054688 0.70312505,0.4335938 v 4.71093748 c 0,0.328125 -0.011719,0.421875 -0.70312505,0.421875 h -0.210938 V -5.15625e-4 C 0.73740625,-0.02395312 1.2413125,-0.02395312 1.6631875,-0.02395312 c 0.4101563,0 0.9140625,0 1.3125,0.023437495 V -0.28176562 H 2.76475 c -0.6914062,0 -0.703125,-0.09375 -0.703125,-0.421875 V -2.2387969 L 3.1514688,-3.2583281 4.82725,-0.86770312 c 0.070312,0.09375 0.1523438,0.234375 0.1523438,0.328125 0,0.2578125 -0.3398438,0.2578125 -0.5039063,0.2578125 v 0.281249995 c 0.3867188,-0.023437495 0.84375,-0.023437495 1.2421875,-0.023437495 0.234375,0 0.5976563,0 1.0546875,0.023437495 V -0.28176562 c -0.5742187,0 -0.6914062,-0.0820313 -0.984375,-0.4921875 L 3.6905313,-3.7505156 Z m 0,0"
       style="fill:#000000;fill-opacity:1;fill-rule:nonzero;stroke:none"
       aria-label="K"
       transform="matrix(1.3333333,0,0,1.3333333,141.43867,109.196)" />
    <path
       id="path15"
       d="m 99.30206,-95.93544 c 0,6.65367 -5.39372,12.04739 -12.04738,12.04739 -6.65367,0 -12.04739,-5.39372 -12.04739,-12.04739 0,-6.65366 5.39372,-12.04738 12.04739,-12.04738 6.65366,0 12.04738,5.39372 12.04738,12.04738 z"
       style="fill:#ffffff;fill-opacity:1;fill-rule:nonzero;stroke:#000000;stroke-width:0.79701;stroke-linecap:butt;stroke-linejoin:miter;stroke-miterlimit:10;stroke-dasharray:none;stroke-opacity:1"
       transform="matrix(1.3333333,0,0,-1.3333333,29.877333,33.065333)" />
    <path
       id="path16"
       d="m 3.5745859,-2.812625 c 1.2539063,0 2.1679688,-0.7851562 2.1679688,-1.640625 0,-0.890625 -0.9140625,-1.6640625 -2.1679688,-1.6640625 H 0.36364844 v 0.2695313 h 0.19921875 c 0.69140621,0 0.71484371,0.1054687 0.71484371,0.4335937 V -0.70325 c 0,0.328125 -0.023437,0.421875 -0.71484371,0.421875 H 0.36364844 v 0.28125 c 0.3984375,-0.0234375 0.90234376,-0.0234375 1.31249996,-0.0234375 0.4101563,0 0.9140625,0 1.3242188,0.0234375 v -0.28125 H 2.7894297 c -0.6914063,0 -0.7148438,-0.09375 -0.7148438,-0.421875 V -2.812625 Z M 2.0511484,-5.4727812 c 0,-0.3046875 0.023437,-0.375 0.4453125,-0.375 h 0.8554688 c 1.4765625,0 1.4765625,0.984375 1.4765625,1.3945312 0,0.3984375 0,1.3828125 -1.4882813,1.3828125 H 2.0511484 Z m 0,0"
       style="fill:#000000;fill-opacity:1;fill-rule:nonzero;stroke:none"
       aria-label="P"
       transform="matrix(1.3333333,0,0,1.3333333,142.03467,165.06267)" />
    <path
       id="path17"
       d="m 186.55676,-22.67754 c 0,6.65368 -5.39372,12.0474 -12.04739,12.0474 -6.65366,0 -12.04738,-5.39372 -12.04738,-12.0474 0,-6.65365 5.39372,-12.04737 12.04738,-12.04737 6.65367,0 12.04739,5.39372 12.04739,12.04737 z"
       style="fill:#ffffff;fill-opacity:1;fill-rule:nonzero;stroke:#000000;stroke-width:0.79701;stroke-linecap:butt;stroke-linejoin:miter;stroke-miterlimit:10;stroke-dasharray:none;stroke-opacity:1"
       transform="matrix(1.3333333,0,0,-1.3333333,29.877333,33.065333)" />
    <path
       id="path18"
       d="m 3.4916484,-1.0772812 c 0,0.16406245 0,0.18749995 -0.140625,0.37499995 -0.28125,0.41015625 -0.6914062,0.57421875 -1.0429687,0.57421875 -0.3867188,0 -0.75,-0.2109375 -0.984375,-0.5859375 -0.234375,-0.3867187 -0.2460938,-0.9140625 -0.2460938,-1.2070312 0,-0.421875 0.046875,-0.890625 0.28125,-1.2539063 0.1992188,-0.28125 0.5625,-0.5625 1.0429688,-0.5625 0.375,0 0.7382812,0.1875 0.9726562,0.5273438 0.1171875,0.140625 0.1171875,0.1523437 0.1171875,0.328125 z M 3.5150859,-3.43275 c -0.046875,-0.058594 -0.4453125,-0.5273437 -1.1484375,-0.5273437 -1.1015625,0 -2.06249996,0.8789062 -2.06249996,2.0390625 0,1.1132812 0.90234376,2.01562495 1.96874996,2.01562495 0.6445313,0 1.0546875,-0.375 1.21875,-0.57421875 v 0.57421875 l 1.3476563,-0.09375 v -0.28125 c -0.609375,0 -0.6914063,-0.0585938 -0.6914063,-0.50390625 v -5.4375 l -1.3242187,0.1054688 v 0.2695312 c 0.609375,0 0.6914062,0.070312 0.6914062,0.5039063 z m 6.9726561,-1.8632812 c 0.5625,-0.5273438 1.125,-0.5390625 1.277344,-0.5507813 v -0.2695312 c -0.257813,0.023437 -0.714844,0.023437 -0.796875,0.023437 -0.375,0 -0.714844,-0.011719 -1.1132813,-0.023437 v 0.2695312 c 0.2460933,0.011719 0.3867183,0.1289063 0.3867183,0.2929688 0,0.082031 -0.02344,0.1523437 -0.07031,0.2109375 l -2.9882813,2.765625 v -2.8359375 c 0,-0.328125 0.011719,-0.4335938 0.703125,-0.4335938 h 0.2109375 v -0.2695312 c -0.3984375,0.023437 -0.9023438,0.023437 -1.3125,0.023437 -0.421875,0 -0.9257813,0 -1.3242188,-0.023437 v 0.2695312 h 0.2109375 c 0.6914063,0 0.703125,0.1054688 0.703125,0.4335938 v 4.71093745 c 0,0.328125 -0.011719,0.421875 -0.703125,0.421875 H 5.4603984 v 0.28125 c 0.3984375,-0.0234375 0.9023438,-0.0234375 1.3242188,-0.0234375 0.4101562,0 0.9140625,0 1.3125,0.0234375 v -0.28125 H 7.8861797 c -0.6914063,0 -0.703125,-0.09375 -0.703125,-0.421875 V -2.2374375 l 1.0898437,-1.0195312 1.6757813,2.39062495 c 0.070312,0.09375 0.1523433,0.234375 0.1523433,0.328125 0,0.2578125 -0.3398433,0.2578125 -0.5039058,0.2578125 v 0.28125 c 0.3867187,-0.0234375 0.8437498,-0.0234375 1.2421878,-0.0234375 0.234375,0 0.597656,0 1.054687,0.0234375 v -0.28125 c -0.574219,0 -0.691406,-0.0820313 -0.984375,-0.4921875 L 8.8119609,-3.7491562 Z m 0,0"
       style="fill:#000000;fill-opacity:1;fill-rule:nonzero;stroke:none"
       aria-label="dK"
       transform="matrix(1.3333333,0,0,1.3333333,254.364,67.452)" />
    <path
       id="path19"
       d="m 186.55676,-56.07343 c 0,6.65366 -5.39372,12.04738 -12.04739,12.04738 -6.65366,0 -12.04738,-5.39372 -12.04738,-12.04738 0,-6.65367 5.39372,-12.04739 12.04738,-12.04739 6.65367,0 12.04739,5.39372 12.04739,12.04739 z"
       style="fill:#ffffff;fill-opacity:1;fill-rule:nonzero;stroke:#000000;stroke-width:0.79701;stroke-linecap:butt;stroke-linejoin:miter;stroke-miterlimit:10;stroke-dasharray:none;stroke-opacity:1"
       transform="matrix(1.3333333,0,0,-1.3333333,29.877333,33.065333)" />
    <path
       id="path20"
       d="m 3.4926484,-1.0788203 c 0,0.16406249 0,0.18749999 -0.140625,0.37499999 -0.28125,0.41015625 -0.6914062,0.57421875 -1.0429687,0.57421875 -0.3867188,0 -0.75,-0.2109375 -0.984375,-0.5859375 C 1.0903047,-1.1022578 1.0785859,-1.6296016 1.0785859,-1.9225703 c 0,-0.421875 0.046875,-0.890625 0.28125,-1.2539063 0.1992188,-0.28125 0.5625,-0.5625 1.0429688,-0.5625 0.375,0 0.7382812,0.1875 0.9726562,0.5273438 0.1171875,0.140625 0.1171875,0.1523437 0.1171875,0.328125 z m 0.023437,-2.3554688 c -0.046875,-0.058594 -0.4453125,-0.5273437 -1.1484375,-0.5273437 -1.1015625,0 -2.06249996,0.8789062 -2.06249996,2.0390625 0,1.11328124 0.90234376,2.01562499 1.96874996,2.01562499 0.6445313,0 1.0546875,-0.375 1.21875,-0.57421875 V 0.09305469 L 4.8403047,-6.953125e-4 V -0.28194531 c -0.609375,0 -0.6914063,-0.0585938 -0.6914063,-0.50390625 V -6.2233516 l -1.3242187,0.1054688 v 0.2695312 c 0.609375,0 0.6914062,0.070312 0.6914062,0.5039063 z m 6.3720704,3.37500004 c 0.9609382,-0.3984375 1.8750002,-1.50000004 1.8750002,-2.97656254 0,-1.828125 -1.394532,-3.28125 -3.0703127,-3.28125 -1.6757813,0 -3.0585938,1.453125 -3.0585938,3.28125 0,1.8164063 1.3945313,3.23437504 3.0585938,3.23437504 0.3164062,0 0.65625,-0.0703125 0.8671875,-0.12890625 0.1640625,0.890625 0.3046875,1.66406251 1.1367182,1.66406251 0.925782,0 1.113282,-1.19531251 1.113282,-1.65234376 0,-0.0820312525 0,-0.1875 -0.105468,-0.1875 -0.07031,0 -0.105469,0.046875 -0.117189,0.09375 -0.07031,0.78515625 -0.679686,0.83203125 -0.820311,0.83203125 -0.480469,0 -0.667969,-0.38671875 -0.8789072,-0.87890625 z M 8.0483125,-0.17647656 C 7.181125,-0.51632031 6.5131563,-1.4303828 6.5131563,-3.0358516 c 0,-2.2265625 1.2539062,-3.0351562 2.1796875,-3.0351562 0.9375,0 2.1796872,0.796875 2.1796872,3.0351562 0,1.1835938 -0.351562,2.13281254 -1.1249997,2.64843754 -0.1875,-0.4453125 -0.4570313,-0.94921874 -1.0429688,-0.94921874 -0.4335937,0 -0.7617187,0.35156249 -0.7617187,0.76171874 0,0.2109375 0.09375,0.38671875 0.1054687,0.3984375 z m 1.4414063,-0.0703125 c -0.2578125,0.140625 -0.5625,0.1875 -0.796875,0.1875 -0.4335938,0 -0.5273438,-0.375 -0.5273438,-0.515625 0,-0.26953125 0.1992188,-0.53906254 0.5507813,-0.53906254 0.46875,0 0.65625,0.37500004 0.7734375,0.86718754 z m 0,0"
       style="fill:#000000;fill-opacity:1;fill-rule:nonzero;stroke:none"
       aria-label="dQ"
       transform="matrix(1.3333333,0,0,1.3333333,254.36267,110.81733)" />
    <path
       id="path21"
       d="m 186.55676,-95.93544 c 0,6.65367 -5.39372,12.04739 -12.04739,12.04739 -6.65366,0 -12.04738,-5.39372 -12.04738,-12.04739 0,-6.65366 5.39372,-12.04738 12.04738,-12.04738 6.65367,0 12.04739,5.39372 12.04739,12.04738 z"
       style="fill:#ffffff;fill-opacity:1;fill-rule:nonzero;stroke:#000000;stroke-width:0.79701;stroke-linecap:butt;stroke-linejoin:miter;stroke-miterlimit:10;stroke-dasharray:none;stroke-opacity:1"
       transform="matrix(1.3333333,0,0,-1.3333333,29.877333,33.065333)" />
    <path
       id="path22"
       d="m 3.4925547,-1.0774453 c 0,0.16406249 0,0.18749999 -0.140625,0.37499999 -0.28125,0.41015625 -0.6914063,0.57421875 -1.0429688,0.57421875 -0.3867187,0 -0.75,-0.2109375 -0.984375,-0.5859375 C 1.0902109,-1.1008828 1.0784922,-1.6282266 1.0784922,-1.9211953 c 0,-0.421875 0.046875,-0.890625 0.28125,-1.2539063 0.1992187,-0.28125 0.5625,-0.5625 1.0429687,-0.5625 0.375,0 0.7382813,0.1875 0.9726563,0.5273438 0.1171875,0.140625 0.1171875,0.1523437 0.1171875,0.328125 z m 0.023437,-2.3554688 c -0.046875,-0.058594 -0.4453125,-0.5273437 -1.1484375,-0.5273437 -1.1015625,0 -2.06250001,0.8789062 -2.06250001,2.0390625 0,1.11328124 0.90234371,2.01562499 1.96875001,2.01562499 0.6445312,0 1.0546875,-0.375 1.21875,-0.57421875 V 0.09442969 L 4.8402109,6.796875e-4 V -0.28057031 c -0.609375,0 -0.6914062,-0.0585938 -0.6914062,-0.50390625 V -6.2219766 l -1.3242188,0.1054688 v 0.2695312 c 0.609375,0 0.6914063,0.070312 0.6914063,0.5039063 z m 3.5244141,-1.96875 C 7.00525,-5.5071328 7.00525,-5.5657266 7.00525,-5.5774453 c 0,-0.2695313 0.4570313,-0.2695313 0.7148438,-0.2695313 v -0.2695312 c -0.4101563,0.023437 -0.8671875,0.023437 -1.2773438,0.023437 -0.375,0 -0.5039062,-0.011719 -1.1484375,-0.023437 v 0.2695312 c 0.65625,0 0.7617188,0.035156 0.8789063,0.3515625 L 8.3411875,6.796875e-4 C 8.3997813,0.12958594 8.4232188,0.19989844 8.5755625,0.19989844 c 0.140625,0 0.1640625,-0.0585938 0.2109375,-0.17578125 l 2.074219,-5.27343749 c 0.1875,-0.46875 0.5625,-0.5976563 0.984375,-0.5976563 v -0.2695312 c -0.316406,0.023437 -0.574219,0.023437 -0.878906,0.023437 -0.386719,0 -0.5625,-0.011719 -1.007813,-0.023437 v 0.2695312 c 0.445313,0.011719 0.632813,0.2226563 0.632813,0.4453125 0,0.082031 0,0.09375 -0.03516,0.1875 l -1.722656,4.34765629 z m 0,0"
       style="fill:#000000;fill-opacity:1;fill-rule:nonzero;stroke:none"
       aria-label="dV"
       transform="matrix(1.3333333,0,0,1.3333333,254.53467,165.128)" />
    <path
       id="path23"
       d="m 257.42381,-35.52182 c 0,6.65367 -5.39372,12.04739 -12.04738,12.04739 -6.65367,0 -12.04739,-5.39372 -12.04739,-12.04739 0,-6.65366 5.39372,-12.04738 12.04739,-12.04738 6.65366,0 12.04738,5.39372 12.04738,12.04738 z"
       style="fill:#d9d9d9;fill-opacity:1;fill-rule:nonzero;stroke:#000000;stroke-width:0.79701;stroke-linecap:butt;stroke-linejoin:miter;stroke-miterlimit:10;stroke-dasharray:none;stroke-opacity:1"
       transform="matrix(1.3333333,0,0,-1.3333333,29.877333,33.065333)" />
    <path
       id="path24"
       d="m 4.77075,-0.05985156 c 0.9609375,-0.3984375 1.875,-1.50000004 1.875,-2.97656254 0,-1.828125 -1.3945312,-3.28125 -3.0703125,-3.28125 -1.6757812,0 -3.05859375,1.453125 -3.05859375,3.28125 0,1.8164063 1.39453125,3.23437504 3.05859375,3.23437504 0.3164063,0 0.65625,-0.0703125 0.8671875,-0.12890625 0.1640625,0.890625 0.3046875,1.66406251 1.1367188,1.66406251 0.9257812,0 1.1132812,-1.19531251 1.1132812,-1.65234376 0,-0.08203125 0,-0.1875 -0.1054687,-0.1875 -0.070312,0 -0.1054688,0.046875 -0.1171875,0.09375 -0.070312,0.78515625 -0.6796875,0.83203125 -0.8203125,0.83203125 -0.4804688,0 -0.6679688,-0.38671875 -0.8789063,-0.87890625 z M 2.9309063,-0.17703906 C 2.0637188,-0.51688281 1.39575,-1.4309453 1.39575,-3.0364141 c 0,-2.2265625 1.2539063,-3.0351562 2.1796875,-3.0351562 0.9375,0 2.1796875,0.796875 2.1796875,3.0351562 0,1.1835938 -0.3515625,2.13281254 -1.125,2.64843754 -0.1875,-0.4453125 -0.4570312,-0.94921874 -1.0429687,-0.94921874 -0.4335938,0 -0.7617188,0.35156249 -0.7617188,0.76171874 0,0.2109375 0.09375,0.38671875 0.1054688,0.3984375 z m 1.4414062,-0.0703125 c -0.2578125,0.140625 -0.5625,0.1875 -0.796875,0.1875 -0.4335937,0 -0.5273437,-0.375 -0.5273437,-0.515625 0,-0.26953125 0.1992187,-0.53906254 0.5507812,-0.53906254 0.46875,0 0.65625,0.37500004 0.7734375,0.86718754 z m 0,0"
       style="fill:#000000;fill-opacity:1;fill-rule:nonzero;stroke:none"
       aria-label="Q"
       transform="matrix(1.3333333,0,0,1.3333333,352.264,83.349333)" />
    <path
       id="path25"
       d="m 257.42929,-71.75761 c 0,6.65667 -5.39616,12.05285 -12.05286,12.05285 -6.65669,0 -12.05285,-5.39618 -12.05285,-12.05285 0,-6.65669 5.39616,-12.05286 12.05285,-12.05286 6.6567,0 12.05286,5.39617 12.05286,12.05286 z"
       style="fill:#d9d9d9;fill-opacity:1;fill-rule:nonzero;stroke:#000000;stroke-width:0.79701;stroke-linecap:butt;stroke-linejoin:miter;stroke-miterlimit:10;stroke-dasharray:none;stroke-opacity:1"
       transform="matrix(1.3333333,0,0,-1.3333333,29.877333,33.065333)" />
    <path
       id="path26"
       d="m 1.7577656,-5.5184844 c 0,-0.2695312 -0.2109375,-0.4921875 -0.4804687,-0.4921875 -0.2695313,0 -0.49218753,0.2226563 -0.49218753,0.4921875 0,0.2695313 0.22265623,0.4804688 0.49218753,0.4804688 0.2695312,0 0.4804687,-0.2109375 0.4804687,-0.4804688 z m -3.1289062,6.8056641 c 0,0.1640625 0,0.1875 -0.140625,0.375 -0.28125,0.4101562 -0.6914063,0.5742187 -1.0429688,0.5742187 -0.3867187,0 -0.75,-0.2109375 -0.984375,-0.5859375 -0.234375,-0.3867187 -0.2460937,-0.91406246 -0.2460937,-1.20703121 0,-0.421875 0.046875,-0.890625 0.28125,-1.25390625 0.1992187,-0.28125004 0.5625,-0.56250004 1.0429687,-0.56250004 0.375,0 0.7382813,0.1875 0.9726563,0.52734379 0.1171875,0.140625 0.1171875,0.15234375 0.1171875,0.328125 z m 0.023437,-2.3554688 c -0.046875,-0.058594 -0.4453125,-0.5273437 -1.1484375,-0.5273437 -1.1015625,0 -2.0625,0.87890624 -2.0625,2.03906249 0,1.11328121 0.9023437,2.01562501 1.96875,2.01562501 0.6445312,0 1.0546875,-0.375 1.21875,-0.5742188 v 0.5742188 l 1.34765622,-0.09375 v -0.28125 c -0.609375,0 -0.69140625,-0.058594 -0.69140625,-0.5039063 v -5.4375 l -1.32421877,0.1054688 v 0.2695312 c 0.609375,0 0.6914063,0.070312 0.6914063,0.5039063 z m 6.9726562,-1.8632812 c 0.5625,-0.5273438 1.125,-0.5390625 1.2773438,-0.5507813 v -0.2695312 c -0.2578125,0.023437 -0.7148438,0.023437 -0.796875,0.023437 -0.375,0 -0.7148438,-0.011719 -1.1132813,-0.023437 v 0.2695312 c 0.2460938,0.011719 0.3867188,0.1289063 0.3867188,0.2929688 0,0.082031 -0.023437,0.1523437 -0.070312,0.2109375 L 2.3202656,-0.21282031 V -3.0487578 c 0,-0.328125 0.011719,-0.4335938 0.703125,-0.4335938 h 0.2109375 v -0.2695312 c -0.3984375,0.023437 -0.9023437,0.023437 -1.3125,0.023437 -0.421875,0 -0.92578123,0 -1.32421873,-0.023437 v 0.2695312 h 0.2109375 c 0.69140623,0 0.70312503,0.1054688 0.70312503,0.4335938 v 4.7109375 c 0,0.328125 -0.011719,0.421875 -0.70312503,0.421875 h -0.2109375 v 0.28125 c 0.3984375,-0.023437 0.90234373,-0.023437 1.32421873,-0.023437 0.4101563,0 0.9140625,0 1.3125,0.023437 v -0.28125 H 3.0233906 c -0.6914062,0 -0.703125,-0.09375 -0.703125,-0.421875 V 0.12702344 L 3.4101094,-0.89250781 5.0858906,1.4981172 c 0.070312,0.09375 0.1523438,0.234375 0.1523438,0.328125 0,0.2578125 -0.3398438,0.2578125 -0.5039063,0.2578125 v 0.28125 c 0.3867188,-0.023437 0.84375,-0.023437 1.2421875,-0.023437 0.234375,0 0.5976563,0 1.0546875,0.023437 v -0.28125 c -0.5742187,0 -0.6914062,-0.082031 -0.984375,-0.4921875 L 3.9491719,-1.3846953 Z m 0,0"
       style="fill:#000000;fill-opacity:1;fill-rule:nonzero;stroke:none"
       aria-label="˙&#10;dK"
       transform="matrix(1.3333333,0,0,1.3333333,355.336,131.16267)" />
    <path
       id="path27"
       d="m 344.67851,-53.94707 c 0,6.65366 -5.39372,12.04738 -12.04739,12.04738 -6.65366,0 -12.04738,-5.39372 -12.04738,-12.04738 0,-6.65367 5.39372,-12.04739 12.04738,-12.04739 6.65367,0 12.04739,5.39372 12.04739,12.04739 z"
       style="fill:#ffffff;fill-opacity:1;fill-rule:nonzero;stroke:#000000;stroke-width:0.79701;stroke-linecap:butt;stroke-linejoin:miter;stroke-miterlimit:10;stroke-dasharray:none;stroke-opacity:1"
       transform="matrix(1.3333333,0,0,-1.3333333,29.877333,33.065333)" />
    <path
       id="path28"
       d="m 1.7567188,-5.5209844 c 0,-0.2695312 -0.2109375,-0.4921875 -0.4804688,-0.4921875 -0.2695312,0 -0.4921875,0.2226563 -0.4921875,0.4921875 0,0.2695313 0.2226563,0.4804688 0.4921875,0.4804688 0.2695313,0 0.4804688,-0.2109375 0.4804688,-0.4804688 z m -2.68066411,6.8085938 c 0,0.1640625 0,0.1875 -0.14062499,0.375 -0.28125,0.4101562 -0.6914063,0.5742187 -1.0429688,0.5742187 -0.3867187,0 -0.75,-0.2109375 -0.984375,-0.5859375 -0.234375,-0.3867187 -0.2460937,-0.91406247 -0.2460937,-1.20703122 0,-0.421875 0.046875,-0.890625 0.28125,-1.25390625 0.1992187,-0.28125003 0.5625,-0.56250003 1.0429687,-0.56250003 0.375,0 0.7382813,0.1875 0.9726563,0.52734378 0.11718749,0.140625 0.11718749,0.15234375 0.11718749,0.328125 z m 0.0234375,-2.3554688 c -0.046875,-0.058594 -0.44531249,-0.5273437 -1.14843749,-0.5273437 -1.1015625,0 -2.0625,0.87890623 -2.0625,2.03906248 0,1.11328122 0.9023437,2.01562502 1.96875,2.01562502 0.6445312,0 1.0546875,-0.375 1.21874999,-0.5742188 v 0.5742188 l 1.34765625,-0.09375 v -0.28125 c -0.609375,0 -0.69140625,-0.058594 -0.69140625,-0.5039063 v -5.4375 l -1.32421879,0.1054688 v 0.2695312 c 0.60937504,0 0.69140629,0.070312 0.69140629,0.5039063 z m 5.17968751,0.62109378 c 1.2539062,0 2.1679687,-0.78515628 2.1679687,-1.64062498 0,-0.890625 -0.9140625,-1.6640625 -2.1679687,-1.6640625 H 1.0682422 v 0.2695312 h 0.1992187 c 0.6914063,0 0.7148438,0.1054688 0.7148438,0.4335938 v 4.7109375 c 0,0.328125 -0.023437,0.421875 -0.7148438,0.421875 H 1.0682422 v 0.28125 c 0.3984375,-0.023437 0.9023437,-0.023437 1.3125,-0.023437 0.4101562,0 0.9140625,0 1.3242187,0.023437 v -0.28125 H 3.4940234 c -0.6914062,0 -0.7148437,-0.09375 -0.7148437,-0.421875 V -0.44676562 Z M 2.7557422,-3.1069219 c 0,-0.3046875 0.023437,-0.375 0.4453125,-0.375 h 0.8554687 c 1.4765625,0 1.4765625,0.984375 1.4765625,1.3945313 0,0.3984375 0,1.38281248 -1.4882812,1.38281248 H 2.7557422 Z m 0,0"
       style="fill:#000000;fill-opacity:1;fill-rule:nonzero;stroke:none"
       aria-label="˙&#10;dP"
       transform="matrix(1.3333333,0,0,1.3333333,471.67333,107.416)" />
    <path
       id="path29"
       d="m 28.6545,-125.1744 h 117.20038 v 13.55971 H 28.6545 Z"
       style="fill:#ffffff;fill-opacity:1;fill-rule:nonzero;stroke:#ffffff;stroke-width:0.79701;stroke-linecap:butt;stroke-linejoin:miter;stroke-miterlimit:10;stroke-dasharray:none;stroke-opacity:1"
       transform="matrix(1.3333333,0,0,-1.3333333,29.877333,33.065333)" />
    <path
       id="path30"
       d="m 3.9617266,-6.9371328 c -0.046875,-0.1289063 -0.070312,-0.1992188 -0.2226563,-0.1992188 -0.1640625,0 -0.1875,0.058594 -0.2460937,0.1992188 l -2.0625,5.96484374 c -0.1757813,0.50390625 -0.57421879,0.65625 -1.11328129,0.66796875 V 3.671875e-4 c 0.234375,-0.0117187475 0.65625,-0.0351562475 1.01953129,-0.0351562475 0.3046875,0 0.8203125,0.0234375 1.1484375,0.0351562475 V -0.30432031 c -0.5039063,0 -0.75,-0.2578125 -0.75,-0.515625 0,-0.0234375 0.011719,-0.12890625 0.023437,-0.140625 L 2.2156328,-2.2730703 h 2.4609375 l 0.5273438,1.52343749 c 0.011719,0.046875 0.023437,0.10546875 0.023437,0.140625 0,0.3046875 -0.5507813,0.3046875 -0.8203125,0.3046875 V 3.671875e-4 C 4.7586016,-0.03478906 5.4617266,-0.03478906 5.8367266,-0.03478906 c 0.4335937,0 0.890625,0.01171875 1.3007812,0.0351562475 V -0.30432031 H 6.9617266 c -0.5976563,0 -0.7382813,-0.0703125 -0.84375,-0.3984375 z m -0.5273438,1.125 1.125,3.234375 H 2.3211016 Z m 5.4814453,1.828125 H 10.345516 V -4.2886953 H 8.9158281 V -6.1285391 H 8.6697344 c -0.011719,0.8203125 -0.3164063,1.8867188 -1.2890625,1.921875 v 0.2226563 h 0.84375 v 2.7539062 c 0,1.21875004 0.9257812,1.33593754 1.2890625,1.33593754 0.7031246,0 0.9843746,-0.703125 0.9843746,-1.33593754 v -0.5742187 h -0.246093 v 0.5507812 c 0,0.73828129 -0.3046879,1.11328129 -0.6679691,1.11328129 -0.6679688,0 -0.6679688,-0.90234379 -0.6679688,-1.07812499 z m 3.8730469,0 h 1.429688 v -0.3046875 h -1.429688 v -1.8398438 h -0.246094 c -0.01172,0.8203125 -0.316406,1.8867188 -1.289062,1.921875 v 0.2226563 h 0.84375 v 2.7539062 c 0,1.21875004 0.925781,1.33593754 1.289062,1.33593754 0.703125,0 0.984375,-0.703125 0.984375,-1.33593754 v -0.5742187 h -0.246093 v 0.5507812 c 0,0.73828129 -0.304688,1.11328129 -0.667969,1.11328129 -0.667969,0 -0.667969,-0.90234379 -0.667969,-1.07812499 z m 3.266602,1.4765625 c 0.05859,-1.4882813 0.902343,-1.734375 1.242187,-1.734375 1.019531,0 1.125,1.3476562 1.125,1.734375 z m -0.01172,0.2109375 h 2.789062 c 0.210938,0 0.246094,0 0.246094,-0.2109375 0,-0.984375 -0.539062,-1.9570313 -1.78125,-1.9570313 -1.160156,0 -2.074219,1.03125 -2.074219,2.2734375 0,1.33593754 1.042969,2.29687504 2.191407,2.29687504 1.21875,0 1.664062,-1.1015625 1.664062,-1.28906254 0,-0.1054687 -0.08203,-0.1171875 -0.128906,-0.1171875 -0.09375,0 -0.117188,0.058594 -0.128906,0.140625 -0.351563,1.01953129 -1.253907,1.01953129 -1.347657,1.01953129 -0.503906,0 -0.902343,-0.29296875 -1.125,-0.66796875 C 16.043758,-1.2886953 16.043758,-1.9449453 16.043758,-2.2965078 Z m 4.426758,-1.125 v 2.66015624 c 0,0.45703125 -0.117188,0.45703125 -0.785157,0.45703125 V 3.671875e-4 c 0.351563,-0.0117187475 0.855469,-0.0351562475 1.125,-0.0351562475 0.257813,0 0.785157,0.0234375 1.113282,0.0351562475 V -0.30432031 c -0.65625,0 -0.773438,0 -0.773438,-0.45703125 V -2.5894766 c 0,-1.03125 0.714844,-1.59375 1.347656,-1.59375 0.621094,0 0.738282,0.5390625 0.738282,1.1015625 v 2.32031254 c 0,0.45703125 -0.117188,0.45703125 -0.773438,0.45703125 V 3.671875e-4 c 0.339844,-0.0117187475 0.855469,-0.0351562475 1.125,-0.0351562475 0.257813,0 0.773438,0.0234375 1.113281,0.0351562475 V -0.30432031 c -0.515625,0 -0.773437,0 -0.785156,-0.3046875 V -2.5074453 c 0,-0.8554688 0,-1.171875 -0.304687,-1.5234375 -0.140625,-0.1757813 -0.46875,-0.375 -1.042969,-0.375 -0.726563,0 -1.195313,0.4335937 -1.476563,1.0546875 v -1.0546875 l -1.40625,0.1171875 v 0.3046875 c 0.703125,0 0.785157,0.070312 0.785157,0.5625 z m 5.876953,-0.5625 h 1.429687 v -0.3046875 h -1.429687 v -1.8398438 h -0.246094 c -0.01172,0.8203125 -0.316406,1.8867188 -1.289062,1.921875 v 0.2226563 h 0.84375 v 2.7539062 c 0,1.21875004 0.925781,1.33593754 1.289062,1.33593754 0.703125,0 0.984375,-0.703125 0.984375,-1.33593754 v -0.5742187 h -0.246094 v 0.5507812 c 0,0.73828129 -0.304687,1.11328129 -0.667968,1.11328129 -0.667969,0 -0.667969,-0.90234379 -0.667969,-1.07812499 z m 3.911133,-0.421875 -1.394532,0.1171875 v 0.3046875 c 0.65625,0 0.738282,0.058594 0.738282,0.5507812 v 2.67187504 c 0,0.45703125 -0.105469,0.45703125 -0.773438,0.45703125 V 3.671875e-4 C 29.14532,-0.01135156 29.684383,-0.03478906 29.930477,-0.03478906 c 0.339843,0 0.691406,0.0234375 1.03125,0.0351562475 V -0.30432031 c -0.65625,0 -0.703125,-0.0585938 -0.703125,-0.4453125 z m 0.04687,-1.734375 c 0,-0.3164063 -0.246094,-0.5273438 -0.527344,-0.5273438 -0.316406,0 -0.527344,0.2695313 -0.527344,0.5273438 0,0.2695312 0.210938,0.5273437 0.527344,0.5273437 0.28125,0 0.527344,-0.1992187 0.527344,-0.5273437 z m 5.648437,4.0078125 c 0,-1.2773438 -0.996094,-2.3320313 -2.191406,-2.3320313 -1.253906,0 -2.214844,1.0898438 -2.214844,2.3320313 0,1.28906249 1.03125,2.23828124 2.203125,2.23828124 1.207031,0 2.203125,-0.97265625 2.203125,-2.23828124 z m -2.191406,1.99218749 c -0.433594,0 -0.867188,-0.2109375 -1.136719,-0.66796875 -0.257812,-0.43359374 -0.257812,-1.04296874 -0.257812,-1.40625004 0,-0.3867187 0,-0.9257812 0.246093,-1.359375 0.269532,-0.4570312 0.738282,-0.6679687 1.136719,-0.6679687 0.433594,0 0.867188,0.2226562 1.125,0.6445312 0.257813,0.4335938 0.257813,1.0078125 0.257813,1.3828125 0,0.3632813 0,0.9023438 -0.222657,1.33593754 -0.222656,0.4453125 -0.65625,0.73828125 -1.148437,0.73828125 z m 3.588867,-3.28124999 v 2.66015624 c 0,0.45703125 -0.117187,0.45703125 -0.785156,0.45703125 V 3.671875e-4 c 0.351562,-0.0117187475 0.855469,-0.0351562475 1.125,-0.0351562475 0.257812,0 0.785156,0.0234375 1.113281,0.0351562475 V -0.30432031 c -0.65625,0 -0.773437,0 -0.773437,-0.45703125 V -2.5894766 c 0,-1.03125 0.714843,-1.59375 1.347656,-1.59375 0.621094,0 0.738281,0.5390625 0.738281,1.1015625 v 2.32031254 c 0,0.45703125 -0.117187,0.45703125 -0.773437,0.45703125 V 3.671875e-4 c 0.339843,-0.0117187475 0.855468,-0.0351562475 1.125,-0.0351562475 0.257812,0 0.773437,0.0234375 1.113281,0.0351562475 V -0.30432031 c -0.515625,0 -0.773438,0 -0.785156,-0.3046875 V -2.5074453 c 0,-0.8554688 0,-1.171875 -0.304688,-1.5234375 -0.140625,-0.1757813 -0.46875,-0.375 -1.042969,-0.375 -0.726562,0 -1.195312,0.4335937 -1.476562,1.0546875 v -1.0546875 l -1.40625,0.1171875 v 0.3046875 c 0.703125,0 0.785156,0.070312 0.785156,0.5625 z m 9.975586,-0.2226563 v -2.4492187 c 0,-0.328125 0.01172,-0.3984375 0.480469,-0.3984375 h 1.242187 c 0.960938,0 1.3125,0.84375 1.3125,1.3710937 0,0.6328125 -0.492187,1.4765625 -1.59375,1.4765625 z m 2.34375,0.09375 c 0.972656,-0.1992187 1.652344,-0.8320312 1.652344,-1.5703125 0,-0.8671875 -0.914063,-1.6875 -2.203125,-1.6875 h -3.644532 v 0.3164063 h 0.234375 c 0.761719,0 0.785157,0.1054687 0.785157,0.46875 v 5.24999999 c 0,0.3515625 -0.02344,0.46875 -0.785157,0.46875 H 45.475398 V 3.671875e-4 h 3.902344 c 1.324219,0 2.214844,-0.8906249975 2.214844,-1.8281249875 0,-0.8671875 -0.808594,-1.6054688 -1.921875,-1.7226563 z m -0.609375,3.24609379 h -1.2539 c -0.46875,0 -0.480469,-0.0703125 -0.480469,-0.3984375 V -3.4215078 h 1.875 c 0.984375,0 1.394531,0.9257812 1.394531,1.59375 0,0.703125 -0.515625,1.52343749 -1.535156,1.52343749 z m 6.421875,-0.45703125 c 0.03516,0.3984375 0.304687,0.8203125 0.773437,0.8203125 0.210938,0 0.820313,-0.140625 0.820313,-0.94921875 V -1.4410391 h -0.246094 v 0.55078129 c 0,0.5859375 -0.246094,0.64453125 -0.363281,0.64453125 -0.328125,0 -0.363281,-0.45703125 -0.363281,-0.50390625 V -2.7418203 c 0,-0.4101563 0,-0.8085938 -0.363282,-1.171875 -0.386718,-0.3867188 -0.878906,-0.5507813 -1.359375,-0.5507813 -0.820312,0 -1.511718,0.46875 -1.511718,1.125 0,0.3046875 0.199218,0.46875 0.457031,0.46875 0.28125,0 0.46875,-0.1992187 0.46875,-0.4570312 0,-0.1171875 -0.05859,-0.4453125 -0.515625,-0.4570313 0.269531,-0.3515625 0.761719,-0.4570312 1.078125,-0.4570312 0.492187,0 1.054687,0.3867187 1.054687,1.2773437 v 0.3632813 c -0.503906,0.035156 -1.207031,0.058594 -1.828125,0.3632812 -0.75,0.3398438 -0.996093,0.8554688 -0.996093,1.28906254 0,0.80859375 0.960937,1.0546875 1.59375,1.0546875 0.65625,0 1.113281,-0.3984375 1.300781,-0.8671875 z m -0.07031,-1.62890624 v 0.9960937 c 0,0.94921879 -0.714843,1.28906254 -1.160156,1.28906254 -0.492187,0 -0.902344,-0.3515625 -0.902344,-0.85546875 0,-0.53906249 0.421875,-1.37109379 2.0625,-1.42968749 z m 2.897461,0.2226562 c 0,-1.6289062 0.820313,-2.0507812 1.347657,-2.0507812 0.09375,0 0.714843,0.011719 1.066406,0.375 -0.410156,0.023437 -0.46875,0.328125 -0.46875,0.4570312 0,0.2578125 0.1875,0.4570313 0.457031,0.4570313 0.257813,0 0.457031,-0.1640625 0.457031,-0.46875 0,-0.6796875 -0.75,-1.0664063 -1.523437,-1.0664063 -1.242188,0 -2.15625,1.078125 -2.15625,2.3085938 0,1.27734374 0.984375,2.26171874 2.144531,2.26171874 1.335938,0 1.652344,-1.19531254 1.652344,-1.28906254 0,-0.1054687 -0.105469,-0.1054687 -0.128906,-0.1054687 -0.09375,0 -0.117188,0.046875 -0.128907,0.1054687 -0.292968,0.92578129 -0.9375,1.04296879 -1.3125,1.04296879 -0.527343,0 -1.40625,-0.421875 -1.40625,-2.02734379 z m 4.042969,1.40625004 c 0,0.45703125 -0.105469,0.45703125 -0.773437,0.45703125 V 3.671875e-4 C 61.908016,-0.01135156 62.376766,-0.03478906 62.658016,-0.03478906 c 0.304687,0 0.703125,0.01171875 1.101562,0.0351562475 V -0.30432031 c -0.667969,0 -0.773437,0 -0.773437,-0.45703125 V -1.7808828 l 0.632812,-0.5507813 c 0.773438,1.0546875 1.183594,1.61718754 1.183594,1.79296879 0,0.1875 -0.164063,0.234375 -0.351563,0.234375 V 3.671875e-4 C 64.720516,-0.01135156 65.318172,-0.03478906 65.517391,-0.03478906 c 0.292968,0 0.585937,0.01171875 0.867187,0.0351562475 V -0.30432031 c -0.363281,0 -0.585937,0 -0.960937,-0.52734375 L 64.158016,-2.6246328 c -0.01172,-0.011719 -0.05859,-0.070312 -0.05859,-0.1054688 0,-0.035156 0.703125,-0.6328125 0.808594,-0.7148437 0.621093,-0.5039063 1.042968,-0.5273438 1.253906,-0.5390625 v -0.3046875 c -0.292969,0.023437 -0.421875,0.023437 -0.703125,0.023437 -0.351563,0 -0.972656,-0.023437 -1.113281,-0.023437 v 0.3046875 c 0.1875,0.011719 0.292968,0.1171875 0.292968,0.2460937 0,0.1992188 -0.140625,0.3164063 -0.222656,0.3867188 l -1.40625,1.21875 v -4.78125 l -1.429687,0.1054687 v 0.3164063 c 0.691406,0 0.773437,0.070312 0.773437,0.5507812 z M 72.721492,-3.3511953 c 0.175781,-0.4921875 0.492188,-0.6210938 0.84375,-0.6328125 v -0.3046875 c -0.222656,0.011719 -0.515625,0.023437 -0.726562,0.023437 -0.292969,0 -0.738282,-0.023437 -0.9375,-0.023437 v 0.3046875 c 0.363281,0.011719 0.585937,0.1875 0.585937,0.4804687 0,0.058594 0,0.082031 -0.04687,0.2109375 L 71.52618,-0.74963281 70.541805,-3.5269766 c -0.03516,-0.1171875 -0.04687,-0.140625 -0.04687,-0.1875 0,-0.2695312 0.386718,-0.2695312 0.585937,-0.2695312 v -0.3046875 c -0.292969,0 -0.796875,0.023437 -1.03125,0.023437 -0.304687,0 -0.597656,-0.011719 -0.890625,-0.023437 v 0.3046875 c 0.363281,0 0.527344,0.023437 0.621094,0.1523437 0.05859,0.058594 0.164062,0.3515625 0.234375,0.5390625 l -0.855469,2.41406254 -0.949219,-2.66015624 c -0.04687,-0.1171875 -0.04687,-0.140625 -0.04687,-0.1757813 0,-0.2695312 0.386719,-0.2695312 0.585938,-0.2695312 v -0.3046875 c -0.292969,0 -0.855469,0.023437 -1.089844,0.023437 -0.03516,0 -0.5625,-0.011719 -0.925781,-0.023437 v 0.3046875 c 0.503906,0 0.621094,0.035156 0.738281,0.3515625 l 1.253906,3.52734374 c 0.05859,0.140625 0.08203,0.2109375 0.210938,0.2109375 0.128906,0 0.152344,-0.05859375 0.199219,-0.19921875 l 1.007812,-2.81249999 1.019531,2.82421874 c 0.03516,0.1171875 0.07031,0.1875 0.199219,0.1875 0.128906,0 0.152344,-0.08203125 0.199219,-0.1875 z m 4.066406,2.58984374 c 0.03516,0.3984375 0.304688,0.8203125 0.773438,0.8203125 0.210937,0 0.820312,-0.140625 0.820312,-0.94921875 V -1.4410391 h -0.246093 v 0.55078129 c 0,0.5859375 -0.246094,0.64453125 -0.363282,0.64453125 -0.328125,0 -0.363281,-0.45703125 -0.363281,-0.50390625 V -2.7418203 c 0,-0.4101563 0,-0.8085938 -0.363281,-1.171875 -0.386719,-0.3867188 -0.878906,-0.5507813 -1.359375,-0.5507813 -0.820313,0 -1.511719,0.46875 -1.511719,1.125 0,0.3046875 0.199219,0.46875 0.457031,0.46875 0.28125,0 0.46875,-0.1992187 0.46875,-0.4570312 0,-0.1171875 -0.05859,-0.4453125 -0.515625,-0.4570313 0.269532,-0.3515625 0.761719,-0.4570312 1.078125,-0.4570312 0.492188,0 1.054688,0.3867187 1.054688,1.2773437 v 0.3632813 c -0.503906,0.035156 -1.207031,0.058594 -1.828125,0.3632812 -0.75,0.3398438 -0.996094,0.8554688 -0.996094,1.28906254 0,0.80859375 0.960938,1.0546875 1.59375,1.0546875 0.65625,0 1.113281,-0.3984375 1.300781,-0.8671875 z m -0.07031,-1.62890624 v 0.9960937 c 0,0.94921879 -0.714844,1.28906254 -1.160156,1.28906254 -0.492188,0 -0.902344,-0.3515625 -0.902344,-0.85546875 0,-0.53906249 0.421875,-1.37109379 2.0625,-1.42968749 z m 3.401367,-0.9140625 v -1.1015625 l -1.382812,0.1171875 v 0.3046875 c 0.691406,0 0.773437,0.070312 0.773437,0.5625 v 2.66015624 c 0,0.45703125 -0.105469,0.45703125 -0.773437,0.45703125 V 3.671875e-4 C 79.122859,-0.01135156 79.591609,-0.03478906 79.872859,-0.03478906 c 0.398438,0 0.867188,0 1.265625,0.0351562475 V -0.30432031 h -0.210937 c -0.738281,0 -0.761719,-0.1171875 -0.761719,-0.46875 V -2.3082266 c 0,-0.984375 0.421875,-1.875 1.183594,-1.875 0.05859,0 0.08203,0 0.105469,0.011719 -0.03516,0.011719 -0.234375,0.1289062 -0.234375,0.3867187 0,0.28125 0.210937,0.4335938 0.433593,0.4335938 0.175782,0 0.421875,-0.1289063 0.421875,-0.4453125 0,-0.3164063 -0.304687,-0.609375 -0.726562,-0.609375 -0.738281,0 -1.089844,0.6679687 -1.230469,1.1015625 z m 6.023438,2.75390624 v 0.65625 L 87.607234,3.671875e-4 V -0.30432031 c -0.703125,0 -0.773437,-0.0703125 -0.773437,-0.5625 V -6.9136953 l -1.441406,0.1054687 v 0.3164063 c 0.703125,0 0.785156,0.070312 0.785156,0.5507812 v 2.15625 c -0.292969,-0.3632812 -0.726563,-0.6210937 -1.265625,-0.6210937 -1.171875,0 -2.214844,0.984375 -2.214844,2.2617187 0,1.26562504 0.972656,2.25000004 2.109375,2.25000004 0.644531,0 1.089844,-0.33984375 1.335938,-0.65625 z m 0,-2.67187504 v 2.0507813 c 0,0.17578124 0,0.19921874 -0.105469,0.36328124 -0.304688,0.48046875 -0.75,0.703125 -1.183594,0.703125 -0.445312,0 -0.796875,-0.2578125 -1.042969,-0.64453125 -0.257812,-0.41015629 -0.292968,-0.97265629 -0.292968,-1.38281249 0,-0.3632813 0.02344,-0.9609375 0.316406,-1.4179688 0.210937,-0.3046875 0.585937,-0.6328125 1.125,-0.6328125 0.351562,0 0.761719,0.1523438 1.078125,0.5976563 0.105469,0.1640625 0.105469,0.1875 0.105469,0.3632812 z m 7.338867,0.070312 h 1.6875 c 1.195312,0 2.261719,-0.796875 2.261719,-1.7929687 0,-0.984375 -0.984375,-1.8632813 -2.34375,-1.8632813 h -3.515625 v 0.3164063 h 0.234375 c 0.773437,0 0.785156,0.1054687 0.785156,0.46875 v 5.24999999 c 0,0.3515625 -0.01172,0.46875 -0.785156,0.46875 H 91.571102 V 3.671875e-4 C 91.922664,-0.03478906 92.649227,-0.03478906 93.035945,-0.03478906 c 0.375,0 1.125,0 1.476563,0.0351562475 V -0.30432031 h -0.246094 c -0.761719,0 -0.785156,-0.1171875 -0.785156,-0.46875 z M 93.4461,-3.4097896 v -2.6835937 c 0,-0.328125 0.02344,-0.3984375 0.492187,-0.3984375 h 0.890625 c 1.582031,0 1.582031,1.0546875 1.582031,1.546875 0,0.4570312 0,1.5351562 -1.582031,1.5351562 z m 7.59082,2.64843754 c 0.0352,0.3984375 0.30469,0.8203125 0.77344,0.8203125 0.21094,0 0.82031,-0.140625 0.82031,-0.94921875 V -1.4410391 h -0.24609 v 0.55078129 c 0,0.5859375 -0.2461,0.64453125 -0.36328,0.64453125 -0.32813,0 -0.36328,-0.45703125 -0.36328,-0.50390625 V -2.7418203 c 0,-0.4101563 0,-0.8085938 -0.36329,-1.171875 -0.38671,-0.3867188 -0.8789,-0.5507813 -1.359373,-0.5507813 -0.820312,0 -1.511718,0.46875 -1.511718,1.125 0,0.3046875 0.199218,0.46875 0.457031,0.46875 0.28125,0 0.46875,-0.1992187 0.46875,-0.4570312 0,-0.1171875 -0.05859,-0.4453125 -0.515625,-0.4570313 0.269531,-0.3515625 0.761719,-0.4570312 1.078125,-0.4570312 0.49219,0 1.05469,0.3867187 1.05469,1.2773437 v 0.3632813 c -0.50391,0.035156 -1.207034,0.058594 -1.828128,0.3632812 -0.75,0.3398438 -0.996093,0.8554688 -0.996093,1.28906254 0,0.80859375 0.960937,1.0546875 1.59375,1.0546875 0.656251,0 1.113281,-0.3984375 1.300781,-0.867188 z m -0.0703,-1.62890624 v 0.9960937 c 0,0.94921879 -0.71484,1.28906254 -1.160159,1.28906254 -0.492187,0 -0.902344,-0.3515625 -0.902344,-0.85546875 0,-0.53906249 0.421875,-1.37109379 2.062503,-1.42968749 z m 3.80859,0.4570312 c 0.22266,0.035156 1.03125,0.1992188 1.03125,0.9140625 0,0.51562504 -0.35156,0.91406254 -1.125,0.91406254 -0.83203,0 -1.19531,-0.57421875 -1.38281,-1.41796874 -0.0352,-0.1289063 -0.0352,-0.1757813 -0.14062,-0.1757813 -0.12891,0 -0.12891,0.070312 -0.12891,0.2578125 v 1.31250004 c 0,0.1640625 0,0.234375 0.10547,0.234375 0.0586,0 0.0703,0 0.25781,-0.19921875 0.0117,-0.01171875 0.0117,-0.03515625 0.19922,-0.22265625 0.43359,0.421875 0.87891,0.421875 1.08984,0.421875 1.14844,0 1.60547,-0.66796875 1.60547,-1.38281254 0,-0.5273437 -0.29297,-0.8203125 -0.42187,-0.9492187 -0.32813,-0.3164063 -0.71485,-0.3984375 -1.13672,-0.46875 -0.55078,-0.1171875 -1.21875,-0.2460938 -1.21875,-0.8203125 0,-0.3515625 0.25781,-0.7617188 1.11328,-0.7617188 1.10156,0 1.14844,0.9023438 1.17187,1.2070313 0,0.09375 0.0937,0.09375 0.11719,0.09375 0.12891,0 0.12891,-0.046875 0.12891,-0.2460938 v -0.9960937 c 0,-0.1757813 0,-0.2460938 -0.11719,-0.2460938 -0.0469,0 -0.0703,0 -0.19922,0.1171875 -0.0234,0.046875 -0.1289,0.1289063 -0.16406,0.1640625 -0.375,-0.28125 -0.78516,-0.28125 -0.9375,-0.28125 -1.21875,0 -1.59375,0.6679688 -1.59375,1.2304688 0,0.3398437 0.16406,0.6210937 0.43359,0.84375 0.31641,0.2578125 0.59766,0.3164062 1.3125,0.4570312 z m 3.92871,0 c 0.22266,0.035156 1.03125,0.1992188 1.03125,0.9140625 0,0.51562504 -0.35156,0.91406254 -1.125,0.91406254 -0.83203,0 -1.19531,-0.57421875 -1.38281,-1.41796874 -0.0352,-0.1289063 -0.0352,-0.1757813 -0.14062,-0.1757813 -0.12891,0 -0.12891,0.070312 -0.12891,0.2578125 v 1.31250004 c 0,0.1640625 0,0.234375 0.10547,0.234375 0.0586,0 0.0703,0 0.25781,-0.19921875 0.0117,-0.01171875 0.0117,-0.03515625 0.19922,-0.22265625 0.43359,0.421875 0.87891,0.421875 1.08984,0.421875 1.14844,0 1.60547,-0.66796875 1.60547,-1.38281254 0,-0.5273437 -0.29297,-0.8203125 -0.42187,-0.9492187 -0.32813,-0.3164063 -0.71485,-0.3984375 -1.13672,-0.46875 -0.55078,-0.1171875 -1.21875,-0.2460938 -1.21875,-0.8203125 0,-0.3515625 0.25781,-0.7617188 1.11328,-0.7617188 1.10156,0 1.14844,0.9023438 1.17188,1.2070313 0,0.09375 0.0937,0.09375 0.11718,0.09375 0.12891,0 0.12891,-0.046875 0.12891,-0.2460938 v -0.9960937 c 0,-0.1757813 0,-0.2460938 -0.11719,-0.2460938 -0.0469,0 -0.0703,0 -0.19922,0.1171875 -0.0234,0.046875 -0.1289,0.1289063 -0.16406,0.1640625 -0.375,-0.28125 -0.78516,-0.28125 -0.9375,-0.28125 -1.21875,0 -1.59375,0.6679688 -1.59375,1.2304688 0,0.3398437 0.16406,0.6210937 0.43359,0.84375 0.31641,0.2578125 0.59766,0.3164062 1.3125,0.4570312 z m 0,0"
       style="fill:#000000;fill-opacity:1;fill-rule:nonzero;stroke:none"
       aria-label="AttentionBackwardPass"
       transform="matrix(1.3333333,0,0,1.3333333,72.510667,195.53467)" />
    <path
       id="path31"
       d="m 206.41328,-127.1116 h 167.04198 v 15.49692 H 206.41328 Z"
       style="fill:#ffffff;fill-opacity:1;fill-rule:nonzero;stroke:#ffffff;stroke-width:0.79701;stroke-linecap:butt;stroke-linejoin:miter;stroke-miterlimit:10;stroke-dasharray:none;stroke-opacity:1"
       transform="matrix(1.3333333,0,0,-1.3333333,29.877333,33.065333)" />
    <path
       id="path32"
       d="m 2.2154922,-3.6441641 v -2.4492187 c 0,-0.328125 0.011719,-0.3984375 0.4804687,-0.3984375 h 1.2421875 c 0.9609375,0 1.3125,0.84375 1.3125,1.3710937 0,0.6328125 -0.4921875,1.4765625 -1.59375,1.4765625 z m 2.34375,0.09375 c 0.9726562,-0.1992187 1.6523437,-0.8320312 1.6523437,-1.5703125 0,-0.8671875 -0.9140625,-1.6875 -2.203125,-1.6875 H 0.36392969 v 0.3164063 h 0.234375 c 0.76171871,0 0.78515621,0.1054687 0.78515621,0.46875 v 5.24999999 c 0,0.3515625 -0.023437,0.46875 -0.78515621,0.46875 h -0.234375 V 3.671875e-4 H 4.2662734 c 1.3242188,0 2.2148438,-0.8906249975 2.2148438,-1.8281249875 0,-0.8671875 -0.8085938,-1.6054688 -1.921875,-1.7226563 z m -0.609375,3.24609379 H 2.6959609 c -0.46875,0 -0.4804687,-0.0703125 -0.4804687,-0.3984375 V -3.4215078 h 1.875 c 0.984375,0 1.3945312,0.9257812 1.3945312,1.59375 0,0.703125 -0.515625,1.52343749 -1.5351562,1.52343749 z m 6.4218748,-0.45703125 c 0.03516,0.3984375 0.304688,0.8203125 0.773438,0.8203125 0.210937,0 0.820312,-0.140625 0.820312,-0.94921875 V -1.4410391 h -0.246094 v 0.55078129 c 0,0.5859375 -0.246093,0.64453125 -0.363281,0.64453125 -0.328125,0 -0.363281,-0.45703125 -0.363281,-0.50390625 V -2.7418203 c 0,-0.4101563 0,-0.8085938 -0.363281,-1.171875 -0.386719,-0.3867188 -0.8789066,-0.5507813 -1.3593753,-0.5507813 -0.8203125,0 -1.5117188,0.46875 -1.5117188,1.125 0,0.3046875 0.1992188,0.46875 0.4570313,0.46875 0.28125,0 0.46875,-0.1992187 0.46875,-0.4570312 0,-0.1171875 -0.058594,-0.4453125 -0.515625,-0.4570313 0.2695312,-0.3515625 0.7617187,-0.4570312 1.078125,-0.4570312 0.4921875,0 1.0546878,0.3867187 1.0546878,1.2773437 v 0.3632813 c -0.5039066,0.035156 -1.2070316,0.058594 -1.8281253,0.3632812 -0.75,0.3398438 -0.9960938,0.8554688 -0.9960938,1.28906254 0,0.80859375 0.9609375,1.0546875 1.59375,1.0546875 0.65625,0 1.1132811,-0.3984375 1.3007811,-0.8671875 z M 10.30143,-2.3902578 v 0.9960937 c 0,0.94921879 -0.7148441,1.28906254 -1.1601566,1.28906254 -0.4921875,0 -0.9023437,-0.3515625 -0.9023437,-0.85546875 0,-0.53906249 0.421875,-1.37109379 2.0625003,-1.42968749 z m 2.897461,0.2226562 c 0,-1.6289062 0.820312,-2.0507812 1.347656,-2.0507812 0.09375,0 0.714844,0.011719 1.066406,0.375 -0.410156,0.023437 -0.46875,0.328125 -0.46875,0.4570312 0,0.2578125 0.1875,0.4570313 0.457031,0.4570313 0.257813,0 0.457032,-0.1640625 0.457032,-0.46875 0,-0.6796875 -0.75,-1.0664063 -1.523438,-1.0664063 -1.242187,0 -2.15625,1.078125 -2.15625,2.3085938 0,1.27734374 0.984375,2.26171874 2.144531,2.26171874 1.335938,0 1.652344,-1.19531254 1.652344,-1.28906254 0,-0.1054687 -0.105469,-0.1054687 -0.128906,-0.1054687 -0.09375,0 -0.117188,0.046875 -0.128906,0.1054687 -0.292969,0.92578129 -0.9375,1.04296879 -1.3125,1.04296879 -0.527344,0 -1.40625,-0.421875 -1.40625,-2.02734379 z m 4.042968,1.40625004 c 0,0.45703125 -0.105468,0.45703125 -0.773437,0.45703125 V 3.671875e-4 C 16.796547,-0.01135156 17.265297,-0.03478906 17.546547,-0.03478906 c 0.304687,0 0.703125,0.01171875 1.101562,0.0351562475 V -0.30432031 c -0.667968,0 -0.773437,0 -0.773437,-0.45703125 V -1.7808828 l 0.632812,-0.5507813 c 0.773438,1.0546875 1.183594,1.61718754 1.183594,1.79296879 0,0.1875 -0.164062,0.234375 -0.351562,0.234375 V 3.671875e-4 C 19.609047,-0.01135156 20.206703,-0.03478906 20.405922,-0.03478906 c 0.292969,0 0.585937,0.01171875 0.867187,0.0351562475 V -0.30432031 c -0.363281,0 -0.585937,0 -0.960937,-0.52734375 L 19.046547,-2.6246328 c -0.01172,-0.011719 -0.05859,-0.070312 -0.05859,-0.1054688 0,-0.035156 0.703125,-0.6328125 0.808594,-0.7148437 0.621094,-0.5039063 1.042969,-0.5273438 1.253906,-0.5390625 v -0.3046875 c -0.292969,0.023437 -0.421875,0.023437 -0.703125,0.023437 -0.351562,0 -0.972656,-0.023437 -1.113281,-0.023437 v 0.3046875 c 0.1875,0.011719 0.292969,0.1171875 0.292969,0.2460937 0,0.1992188 -0.140625,0.3164063 -0.222657,0.3867188 l -1.40625,1.21875 v -4.78125 l -1.429687,0.1054687 v 0.3164063 c 0.691406,0 0.773437,0.070312 0.773437,0.5507812 z M 27.610023,-3.3511953 c 0.175782,-0.4921875 0.492188,-0.6210938 0.84375,-0.6328125 v -0.3046875 c -0.222656,0.011719 -0.515625,0.023437 -0.726562,0.023437 -0.292969,0 -0.738281,-0.023437 -0.9375,-0.023437 v 0.3046875 c 0.363281,0.011719 0.585937,0.1875 0.585937,0.4804687 0,0.058594 0,0.082031 -0.04687,0.2109375 l -0.914062,2.54296879 -0.984375,-2.77734379 c -0.03516,-0.1171875 -0.04687,-0.140625 -0.04687,-0.1875 0,-0.2695312 0.386719,-0.2695312 0.585937,-0.2695312 v -0.3046875 c -0.292968,0 -0.796875,0.023437 -1.03125,0.023437 -0.304687,0 -0.597656,-0.011719 -0.890625,-0.023437 v 0.3046875 c 0.363282,0 0.527344,0.023437 0.621094,0.1523437 0.05859,0.058594 0.164063,0.3515625 0.234375,0.5390625 l -0.855469,2.41406254 -0.949218,-2.66015624 c -0.04687,-0.1171875 -0.04687,-0.140625 -0.04687,-0.1757813 0,-0.2695312 0.386718,-0.2695312 0.585937,-0.2695312 v -0.3046875 c -0.292969,0 -0.855469,0.023437 -1.089844,0.023437 -0.03516,0 -0.5625,-0.011719 -0.925781,-0.023437 v 0.3046875 c 0.503906,0 0.621094,0.035156 0.738281,0.3515625 l 1.253907,3.52734374 c 0.05859,0.140625 0.08203,0.2109375 0.210937,0.2109375 0.128906,0 0.152344,-0.05859375 0.199219,-0.19921875 l 1.007812,-2.81249999 1.019532,2.82421874 c 0.03516,0.1171875 0.07031,0.1875 0.199218,0.1875 0.128907,0 0.152344,-0.08203125 0.199219,-0.1875 z m 4.078125,2.58984374 c 0.03516,0.3984375 0.304688,0.8203125 0.773438,0.8203125 0.210937,0 0.820312,-0.140625 0.820312,-0.94921875 V -1.4410391 h -0.246093 v 0.55078129 c 0,0.5859375 -0.246094,0.64453125 -0.363282,0.64453125 -0.328125,0 -0.363281,-0.45703125 -0.363281,-0.50390625 V -2.7418203 c 0,-0.4101563 0,-0.8085938 -0.363281,-1.171875 -0.386719,-0.3867188 -0.878906,-0.5507813 -1.359375,-0.5507813 -0.820313,0 -1.511719,0.46875 -1.511719,1.125 0,0.3046875 0.199219,0.46875 0.457031,0.46875 0.28125,0 0.46875,-0.1992187 0.46875,-0.4570312 0,-0.1171875 -0.05859,-0.4453125 -0.515625,-0.4570313 0.269532,-0.3515625 0.761719,-0.4570312 1.078125,-0.4570312 0.492188,0 1.054688,0.3867187 1.054688,1.2773437 v 0.3632813 c -0.503906,0.035156 -1.207031,0.058594 -1.828125,0.3632812 -0.75,0.3398438 -0.996094,0.8554688 -0.996094,1.28906254 0,0.80859375 0.960938,1.0546875 1.59375,1.0546875 0.65625,0 1.113281,-0.3984375 1.300781,-0.8671875 z m -0.07031,-1.62890624 v 0.9960937 c 0,0.94921879 -0.714844,1.28906254 -1.160156,1.28906254 -0.492188,0 -0.902344,-0.3515625 -0.902344,-0.85546875 0,-0.53906249 0.421875,-1.37109379 2.0625,-1.42968749 z m 3.398437,-0.9140625 v -1.1015625 l -1.382812,0.1171875 v 0.3046875 c 0.691406,0 0.773437,0.070312 0.773437,0.5625 v 2.66015624 c 0,0.45703125 -0.105468,0.45703125 -0.773437,0.45703125 V 3.671875e-4 C 34.02018,-0.01135156 34.48893,-0.03478906 34.77018,-0.03478906 c 0.398437,0 0.867187,0 1.265625,0.0351562475 V -0.30432031 h -0.210938 c -0.738281,0 -0.761719,-0.1171875 -0.761719,-0.46875 V -2.3082266 c 0,-0.984375 0.421875,-1.875 1.183594,-1.875 0.05859,0 0.08203,0 0.105469,0.011719 -0.03516,0.011719 -0.234375,0.1289062 -0.234375,0.3867187 0,0.28125 0.210937,0.4335938 0.433594,0.4335938 0.175781,0 0.421875,-0.1289063 0.421875,-0.4453125 0,-0.3164063 -0.304688,-0.609375 -0.726563,-0.609375 -0.738281,0 -1.089844,0.6679687 -1.230469,1.1015625 z m 6.023438,2.75390624 v 0.65625 L 42.504555,3.671875e-4 V -0.30432031 c -0.703125,0 -0.773438,-0.0703125 -0.773438,-0.5625 V -6.9136953 l -1.441406,0.1054687 v 0.3164063 c 0.703125,0 0.785156,0.070312 0.785156,0.5507812 v 2.15625 c -0.292969,-0.3632812 -0.726562,-0.6210937 -1.265625,-0.6210937 -1.171875,0 -2.214844,0.984375 -2.214844,2.2617187 0,1.26562504 0.972657,2.25000004 2.109375,2.25000004 0.644532,0 1.089844,-0.33984375 1.335938,-0.65625 z m 0,-2.67187504 v 2.0507813 c 0,0.17578124 0,0.19921874 -0.105469,0.36328124 -0.304687,0.48046875 -0.75,0.703125 -1.183594,0.703125 -0.445312,0 -0.796875,-0.2578125 -1.042968,-0.64453125 -0.257813,-0.41015629 -0.292969,-0.97265629 -0.292969,-1.38281249 0,-0.3632813 0.02344,-0.9609375 0.316406,-1.4179688 0.210938,-0.3046875 0.585938,-0.6328125 1.125,-0.6328125 0.351563,0 0.761719,0.1523438 1.078125,0.5976563 0.105469,0.1640625 0.105469,0.1875 0.105469,0.3632812 z m 7.330078,0.070312 h 1.6875 c 1.195313,0 2.261719,-0.796875 2.261719,-1.7929687 0,-0.984375 -0.984375,-1.8632813 -2.34375,-1.8632813 h -3.515625 v 0.3164063 h 0.234375 c 0.773437,0 0.785156,0.1054687 0.785156,0.46875 v 5.24999999 c 0,0.3515625 -0.01172,0.46875 -0.785156,0.46875 H 46.459633 V 3.671875e-4 C 46.811195,-0.03478906 47.537758,-0.03478906 47.924477,-0.03478906 c 0.375,0 1.125,0 1.476562,0.0351562475 V -0.30432031 h -0.246094 c -0.761718,0 -0.785156,-0.1171875 -0.785156,-0.46875 z m -0.03516,-0.2578125 v -2.6835937 c 0,-0.328125 0.02344,-0.3984375 0.492187,-0.3984375 h 0.890625 c 1.582032,0 1.582032,1.0546875 1.582032,1.546875 0,0.4570312 0,1.5351562 -1.582032,1.5351562 z m 7.59082,2.64843754 c 0.03516,0.3984375 0.304688,0.8203125 0.773438,0.8203125 0.210937,0 0.820312,-0.140625 0.820312,-0.94921875 V -1.4410391 h -0.246094 v 0.55078129 c 0,0.5859375 -0.246093,0.64453125 -0.363281,0.64453125 -0.328125,0 -0.363281,-0.45703125 -0.363281,-0.50390625 V -2.7418203 c 0,-0.4101563 0,-0.8085938 -0.363281,-1.171875 -0.386719,-0.3867188 -0.878907,-0.5507813 -1.359375,-0.5507813 -0.820313,0 -1.511719,0.46875 -1.511719,1.125 0,0.3046875 0.199219,0.46875 0.457031,0.46875 0.28125,0 0.46875,-0.1992187 0.46875,-0.4570312 0,-0.1171875 -0.05859,-0.4453125 -0.515625,-0.4570313 0.269531,-0.3515625 0.761719,-0.4570312 1.078125,-0.4570312 0.492188,0 1.054688,0.3867187 1.054688,1.2773437 v 0.3632813 c -0.503907,0.035156 -1.207032,0.058594 -1.828125,0.3632812 -0.75,0.3398438 -0.996094,0.8554688 -0.996094,1.28906254 0,0.80859375 0.960937,1.0546875 1.59375,1.0546875 0.65625,0 1.113281,-0.3984375 1.300781,-0.867188 z m -0.07031,-1.62890624 v 0.9960937 c 0,0.94921879 -0.714844,1.28906254 -1.160157,1.28906254 -0.492187,0 -0.902343,-0.3515625 -0.902343,-0.85546875 0,-0.53906249 0.421875,-1.37109379 2.0625,-1.42968749 z m 3.808593,0.4570312 c 0.222657,0.035156 1.03125,0.1992188 1.03125,0.9140625 0,0.51562504 -0.351562,0.91406254 -1.125,0.91406254 -0.832031,0 -1.195312,-0.57421875 -1.382812,-1.41796874 -0.03516,-0.1289063 -0.03516,-0.1757813 -0.140625,-0.1757813 -0.128906,0 -0.128906,0.070312 -0.128906,0.2578125 v 1.31250004 c 0,0.1640625 0,0.234375 0.105468,0.234375 0.05859,0 0.07031,0 0.257813,-0.19921875 0.01172,-0.01171875 0.01172,-0.03515625 0.199219,-0.22265625 0.433593,0.421875 0.878906,0.421875 1.089843,0.421875 1.148438,0 1.605469,-0.66796875 1.605469,-1.38281254 0,-0.5273437 -0.292969,-0.8203125 -0.421875,-0.9492187 -0.328125,-0.3164063 -0.714844,-0.3984375 -1.136719,-0.46875 -0.550781,-0.1171875 -1.21875,-0.2460938 -1.21875,-0.8203125 0,-0.3515625 0.257813,-0.7617188 1.113282,-0.7617188 1.101562,0 1.148437,0.9023438 1.171875,1.2070313 0,0.09375 0.09375,0.09375 0.117187,0.09375 0.128906,0 0.128906,-0.046875 0.128906,-0.2460938 v -0.9960937 c 0,-0.1757813 0,-0.2460938 -0.117187,-0.2460938 -0.04687,0 -0.07031,0 -0.199219,0.1171875 -0.02344,0.046875 -0.128906,0.1289063 -0.164062,0.1640625 -0.375,-0.28125 -0.785157,-0.28125 -0.9375,-0.28125 -1.21875,0 -1.59375,0.6679688 -1.59375,1.2304688 0,0.3398437 0.164062,0.6210937 0.433593,0.84375 0.316407,0.2578125 0.597657,0.3164062 1.3125,0.4570312 z m 3.928711,0 c 0.222657,0.035156 1.03125,0.1992188 1.03125,0.9140625 0,0.51562504 -0.351562,0.91406254 -1.125,0.91406254 -0.832031,0 -1.195312,-0.57421875 -1.382812,-1.41796874 -0.03516,-0.1289063 -0.03516,-0.1757813 -0.140625,-0.1757813 -0.128906,0 -0.128906,0.070312 -0.128906,0.2578125 v 1.31250004 c 0,0.1640625 0,0.234375 0.105468,0.234375 0.05859,0 0.07031,0 0.257813,-0.19921875 0.01172,-0.01171875 0.01172,-0.03515625 0.199219,-0.22265625 0.433593,0.421875 0.878906,0.421875 1.089843,0.421875 1.148438,0 1.605469,-0.66796875 1.605469,-1.38281254 0,-0.5273437 -0.292969,-0.8203125 -0.421875,-0.9492187 -0.328125,-0.3164063 -0.714844,-0.3984375 -1.136719,-0.46875 -0.550781,-0.1171875 -1.21875,-0.2460938 -1.21875,-0.8203125 0,-0.3515625 0.257813,-0.7617188 1.113282,-0.7617188 1.101562,0 1.148437,0.9023438 1.171875,1.2070313 0,0.09375 0.09375,0.09375 0.117187,0.09375 0.128906,0 0.128906,-0.046875 0.128906,-0.2460938 v -0.9960937 c 0,-0.1757813 0,-0.2460938 -0.117187,-0.2460938 -0.04687,0 -0.07031,0 -0.199219,0.1171875 -0.02344,0.046875 -0.128906,0.1289063 -0.164062,0.1640625 -0.375,-0.28125 -0.785157,-0.28125 -0.9375,-0.28125 -1.21875,0 -1.59375,0.6679688 -1.59375,1.2304688 0,0.3398437 0.164062,0.6210937 0.433593,0.84375 0.316407,0.2578125 0.597657,0.3164062 1.3125,0.4570312 z m 9.861328,-0.1992187 c 0,-1.2773438 -0.996093,-2.3320313 -2.191406,-2.3320313 -1.253906,0 -2.214844,1.0898438 -2.214844,2.3320313 0,1.28906249 1.03125,2.23828124 2.203125,2.23828124 1.207032,0 2.203125,-0.97265625 2.203125,-2.23828124 z m -2.191406,1.99218749 c -0.433594,0 -0.867187,-0.2109375 -1.136719,-0.66796875 -0.257812,-0.43359374 -0.257812,-1.04296874 -0.257812,-1.40625004 0,-0.3867187 0,-0.9257812 0.246094,-1.359375 0.269531,-0.4570312 0.738281,-0.6679687 1.136718,-0.6679687 0.433594,0 0.867188,0.2226562 1.125,0.6445312 0.257813,0.4335938 0.257813,1.0078125 0.257813,1.3828125 0,0.3632813 0,0.9023438 -0.222656,1.33593754 -0.222657,0.4453125 -0.65625,0.73828125 -1.148438,0.73828125 z m 4.230469,-4.14843749 v -1.1601563 c 0,-0.8789062 0.480469,-1.359375 0.914062,-1.359375 0.03516,0 0.175782,0 0.328125,0.070312 -0.117187,0.046875 -0.292968,0.1757813 -0.292968,0.421875 0,0.234375 0.152343,0.4335938 0.421875,0.4335938 0.292968,0 0.433593,-0.1992188 0.433593,-0.4453125 0,-0.3632813 -0.363281,-0.6914063 -0.890625,-0.6914063 -0.703125,0 -1.546875,0.5273438 -1.546875,1.5820313 v 1.1484375 h -0.785156 v 0.3046875 h 0.785156 v 3.22265624 c 0,0.45703125 -0.105468,0.45703125 -0.773437,0.45703125 V 3.671875e-4 C 74.473305,-0.01135156 74.942055,-0.03478906 75.223305,-0.03478906 c 0.398437,0 0.867187,0 1.265625,0.0351562475 V -0.30432031 h -0.210938 c -0.738281,0 -0.761719,-0.1171875 -0.761719,-0.46875 V -3.9840078 h 1.136719 v -0.3046875 z m 8.106445,0.421875 -1.277344,-0.3046875 c -0.621093,-0.1523438 -1.007812,-0.6914063 -1.007812,-1.265625 0,-0.703125 0.539062,-1.3007813 1.3125,-1.3007813 1.664062,0 1.886719,1.6289063 1.945312,2.0742188 0.01172,0.058594 0.01172,0.1171875 0.117188,0.1171875 0.128906,0 0.128906,-0.046875 0.128906,-0.234375 v -2.0039063 c 0,-0.1640625 0,-0.234375 -0.105469,-0.234375 -0.07031,0 -0.08203,0.011719 -0.152343,0.1289063 l -0.351563,0.5625 c -0.292969,-0.28125 -0.703125,-0.6914063 -1.59375,-0.6914063 -1.101562,0 -1.933594,0.8789063 -1.933594,1.9335938 0,0.8203125 0.527344,1.546875 1.300782,1.8164062 0.105468,0.046875 0.621093,0.1640625 1.3125,0.328125 0.269531,0.070312 0.574218,0.140625 0.84375,0.515625 0.210937,0.2578125 0.316406,0.5859375 0.316406,0.9140625 0,0.70312504 -0.503906,1.41796879 -1.335938,1.41796879 -0.292968,0 -1.042968,-0.046875 -1.570312,-0.5390625 -0.585938,-0.52734379 -0.609375,-1.17187499 -0.621094,-1.52343749 -0.01172,-0.1054688 -0.09375,-0.1054688 -0.117187,-0.1054688 -0.128907,0 -0.128907,0.070312 -0.128907,0.2460938 v 1.99218749 c 0,0.17578125 0,0.24609375 0.105469,0.24609375 0.07031,0 0.08203,-0.0234375 0.152344,-0.12890625 0,-0.01171875 0.02344,-0.046875 0.351562,-0.57421875 0.316407,0.33984375 0.949219,0.703125 1.839844,0.703125 1.160156,0 1.957031,-0.984375 1.957031,-2.07421874 0,-0.9960938 -0.65625,-1.8164063 -1.488281,-2.015625 z m 3.166992,1.359375 c 0.05859,-1.4882813 0.902344,-1.734375 1.242188,-1.734375 1.019531,0 1.125,1.3476562 1.125,1.734375 z m -0.01172,0.2109375 h 2.789062 c 0.210938,0 0.246094,0 0.246094,-0.2109375 0,-0.984375 -0.539063,-1.9570313 -1.78125,-1.9570313 -1.160156,0 -2.074219,1.03125 -2.074219,2.2734375 0,1.33593754 1.042969,2.29687504 2.191406,2.29687504 1.21875,0 1.664063,-1.1015625 1.664063,-1.28906254 0,-0.1054687 -0.08203,-0.1171875 -0.128906,-0.1171875 -0.09375,0 -0.117188,0.058594 -0.128907,0.140625 -0.351562,1.01953129 -1.253906,1.01953129 -1.347656,1.01953129 -0.503906,0 -0.902344,-0.29296875 -1.125,-0.66796875 C 86.754555,-1.2886953 86.754555,-1.9449453 86.754555,-2.2965078 Z m 5.085937,-4.6171875 -1.429687,0.1054687 v 0.3164063 c 0.703125,0 0.773437,0.070312 0.773437,0.5507812 v 5.17968754 c 0,0.45703125 -0.105469,0.45703125 -0.773437,0.45703125 V 3.671875e-4 C 90.73893,-0.01135156 91.266273,-0.03478906 91.512367,-0.03478906 c 0.257813,0 0.738281,0.0234375 1.113281,0.0351562475 V -0.30432031 c -0.667968,0 -0.785156,0 -0.785156,-0.45703125 z m 2.121094,4.40625 c 0.05859,-1.4882813 0.902344,-1.734375 1.242187,-1.734375 1.019532,0 1.125,1.3476562 1.125,1.734375 z m -0.01172,0.2109375 h 2.789063 c 0.210937,0 0.246093,0 0.246093,-0.2109375 0,-0.984375 -0.539062,-1.9570313 -1.78125,-1.9570313 -1.160156,0 -2.074218,1.03125 -2.074218,2.2734375 0,1.33593754 1.042968,2.29687504 2.191406,2.29687504 1.21875,0 1.664062,-1.1015625 1.664062,-1.28906254 0,-0.1054687 -0.08203,-0.1171875 -0.128906,-0.1171875 -0.09375,0 -0.117187,0.058594 -0.128906,0.140625 -0.351563,1.01953129 -1.253906,1.01953129 -1.347656,1.01953129 -0.503907,0 -0.902344,-0.29296875 -1.125,-0.66796875 C 93.949867,-1.2886953 93.949867,-1.9449453 93.949867,-2.2965078 Z m 4.488281,0.1289062 c 0,-1.6289062 0.820313,-2.0507812 1.347657,-2.0507812 0.09375,0 0.714848,0.011719 1.066408,0.375 -0.41016,0.023437 -0.46875,0.328125 -0.46875,0.4570312 0,0.2578125 0.1875,0.4570313 0.45703,0.4570313 0.25781,0 0.45703,-0.1640625 0.45703,-0.46875 0,-0.6796875 -0.75,-1.0664063 -1.523437,-1.0664063 -1.242188,0 -2.15625,1.078125 -2.15625,2.3085938 0,1.27734374 0.984375,2.26171874 2.144531,2.26171874 1.335936,0 1.652346,-1.19531254 1.652346,-1.28906254 0,-0.1054687 -0.10547,-0.1054687 -0.12891,-0.1054687 -0.0937,0 -0.11718,0.046875 -0.1289,0.1054687 -0.29297,0.92578129 -0.9375,1.04296879 -1.312505,1.04296879 -0.527343,0 -1.40625,-0.421875 -1.40625,-2.02734379 z m 4.989265,-1.8164062 h 1.42968 v -0.3046875 h -1.42968 v -1.8398438 h -0.2461 c -0.0117,0.8203125 -0.3164,1.8867188 -1.28906,1.921875 v 0.2226563 h 0.84375 v 2.7539062 c 0,1.21875004 0.92578,1.33593754 1.28906,1.33593754 0.70313,0 0.98438,-0.703125 0.98438,-1.33593754 v -0.5742187 h -0.2461 v 0.5507812 c 0,0.73828129 -0.30468,1.11328129 -0.66797,1.11328129 -0.66796,0 -0.66796,-0.90234379 -0.66796,-1.07812499 z m 3.26367,1.4765625 c 0.0586,-1.4882813 0.90234,-1.734375 1.24219,-1.734375 1.01953,0 1.125,1.3476562 1.125,1.734375 z m -0.0117,0.2109375 h 2.78906 c 0.21094,0 0.2461,0 0.2461,-0.2109375 0,-0.984375 -0.53907,-1.9570313 -1.78125,-1.9570313 -1.16016,0 -2.07422,1.03125 -2.07422,2.2734375 0,1.33593754 1.04297,2.29687504 2.1914,2.29687504 1.21875,0 1.66407,-1.1015625 1.66407,-1.28906254 0,-0.1054687 -0.082,-0.1171875 -0.12891,-0.1171875 -0.0937,0 -0.11719,0.058594 -0.12891,0.140625 -0.35156,1.01953129 -1.2539,1.01953129 -1.34765,1.01953129 -0.50391,0 -0.90235,-0.29296875 -1.125,-0.66796875 -0.30469,-0.48046874 -0.30469,-1.13671874 -0.30469,-1.48828124 z m 7.11328,1.74609374 v 0.65625 L 115.25748,3.671875e-4 V -0.30432031 c -0.70312,0 -0.77343,-0.0703125 -0.77343,-0.5625 V -6.9136953 l -1.44141,0.1054687 v 0.3164063 c 0.70313,0 0.78516,0.070312 0.78516,0.5507812 v 2.15625 c -0.29297,-0.3632812 -0.72657,-0.6210937 -1.26563,-0.6210937 -1.17187,0 -2.21484,0.984375 -2.21484,2.2617187 0,1.26562504 0.97265,2.25000004 2.10937,2.25000004 0.64453,0 1.08985,-0.33984375 1.33594,-0.65625 z m 0,-2.67187504 v 2.0507813 c 0,0.17578124 0,0.19921874 -0.10547,0.36328124 -0.30469,0.48046875 -0.75,0.703125 -1.18359,0.703125 -0.44531,0 -0.79688,-0.2578125 -1.04297,-0.64453125 -0.25781,-0.41015629 -0.29297,-0.97265629 -0.29297,-1.38281249 0,-0.3632813 0.0234,-0.9609375 0.31641,-1.4179688 0.21093,-0.3046875 0.58593,-0.6328125 1.125,-0.6328125 0.35156,0 0.76172,0.1523438 1.07812,0.5976563 0.10547,0.1640625 0.10547,0.1875 0.10547,0.3632812 z m 8.5459,-0.6445312 -1.27734,-0.3046875 c -0.6211,-0.1523438 -1.00782,-0.6914063 -1.00782,-1.265625 0,-0.703125 0.53907,-1.3007813 1.3125,-1.3007813 1.66407,0 1.88672,1.6289063 1.94532,2.0742188 0.0117,0.058594 0.0117,0.1171875 0.11718,0.1171875 0.12891,0 0.12891,-0.046875 0.12891,-0.234375 v -2.0039063 c 0,-0.1640625 0,-0.234375 -0.10547,-0.234375 -0.0703,0 -0.082,0.011719 -0.15234,0.1289063 l -0.35157,0.5625 c -0.29296,-0.28125 -0.70312,-0.6914063 -1.59375,-0.6914063 -1.10156,0 -1.93359,0.8789063 -1.93359,1.9335938 0,0.8203125 0.52734,1.546875 1.30078,1.8164062 0.10547,0.046875 0.6211,0.1640625 1.3125,0.328125 0.26953,0.070312 0.57422,0.140625 0.84375,0.515625 0.21094,0.2578125 0.31641,0.5859375 0.31641,0.9140625 0,0.70312504 -0.50391,1.41796879 -1.33594,1.41796879 -0.29297,0 -1.04297,-0.046875 -1.57031,-0.5390625 -0.58594,-0.52734379 -0.60938,-1.17187499 -0.6211,-1.52343749 -0.0117,-0.1054688 -0.0937,-0.1054688 -0.11718,-0.1054688 -0.12891,0 -0.12891,0.070312 -0.12891,0.2460938 v 1.99218749 c 0,0.17578125 0,0.24609375 0.10547,0.24609375 0.0703,0 0.082,-0.0234375 0.15234,-0.12890625 0,-0.01171875 0.0234,-0.046875 0.35157,-0.57421875 0.3164,0.33984375 0.94921,0.703125 1.83984,0.703125 1.16016,0 1.95703,-0.984375 1.95703,-2.07421874 0,-0.9960938 -0.65625,-1.8164063 -1.48828,-2.015625 z m 5.94726,3.08203124 v 0.890625 L 129.72721,3.671875e-4 V -0.30432031 c -0.70312,0 -0.78516,-0.0703125 -0.78516,-0.5625 V -4.4058828 l -1.45312,0.1171875 v 0.3046875 c 0.69141,0 0.77344,0.070312 0.77344,0.5625 v 1.7695312 c 0,0.86718754 -0.48047,1.54687504 -1.20703,1.54687504 -0.83204,0 -0.87891,-0.46875 -0.87891,-0.99609374 v -3.3046875 l -1.46484,0.1171875 v 0.3046875 c 0.78515,0 0.78515,0.035156 0.78515,0.9140625 v 1.5 c 0,0.77343749 0,1.67578124 1.51172,1.67578124 0.55078,0 0.99609,-0.26953125 1.27734,-0.890625 z m 3.3545,-2.96484374 v -3.1640625 l -1.42969,0.1054687 v 0.3164063 c 0.69141,0 0.77344,0.070312 0.77344,0.5507812 V 3.671875e-4 h 0.24609 c 0.0117,-0.0117187475 0.0937,-0.1523437475 0.36328,-0.6210937475 0.15235,0.234375 0.5625,0.7265625 1.30078,0.7265625 1.1836,0 2.22657,-0.97265625 2.22657,-2.26171874 0,-1.265625 -0.97266,-2.25 -2.10938,-2.25 -0.78516,0 -1.20703,0.46875 -1.37109,0.6562495 z m 0.0352,2.6132812 v -2.0507812 c 0,-0.1875 0,-0.1992188 0.10547,-0.3632813 0.38672,-0.5507812 0.9375,-0.6328125 1.17188,-0.6328125 0.45703,0 0.80859,0.2578125 1.05468,0.6328125 0.25782,0.4101563 0.28125,0.984375 0.28125,1.3945313 0,0.3632812 -0.0117,0.9609375 -0.30468,1.40624999 -0.21094,0.31640625 -0.58594,0.64453125 -1.125,0.64453125 -0.44532,0 -0.8086,-0.24609375 -1.04297,-0.609375 -0.14063,-0.2109375 -0.14063,-0.24609375 -0.14063,-0.42187504 z m 6.00293,-0.5742187 c -0.86718,0 -0.86718,-0.9960938 -0.86718,-1.2304688 0,-0.2695312 0.0117,-0.5859375 0.15234,-0.8320312 0.082,-0.1171875 0.31641,-0.3984375 0.71484,-0.3984375 0.86719,0 0.86719,0.9960937 0.86719,1.21875 0,0.2695312 -0.0117,0.5976562 -0.16406,0.84375 -0.082,0.1171875 -0.30469,0.3984375 -0.70313,0.3984375 z m -1.16015,0.3867187 c 0,-0.035156 0,-0.2695312 0.17578,-0.46875 0.38672,0.28125 0.79687,0.3046875 0.98437,0.3046875 0.92578,0 1.60547,-0.6796875 1.60547,-1.453125 0,-0.3632812 -0.15234,-0.7382812 -0.39844,-0.9609375 0.35157,-0.3398437 0.71485,-0.3867187 0.89063,-0.3867187 0.0234,0 0.0703,0 0.10547,0 -0.11719,0.046875 -0.16406,0.1523437 -0.16406,0.2695312 0,0.1757813 0.1289,0.2929688 0.29296,0.2929688 0.0937,0 0.28125,-0.070312 0.28125,-0.2929688 0,-0.1757812 -0.11718,-0.4921875 -0.5039,-0.4921875 -0.19922,0 -0.63281,0.058594 -1.05469,0.46875 -0.42187,-0.328125 -0.84375,-0.3632812 -1.05469,-0.3632812 -0.92578,0 -1.61718,0.6914062 -1.61718,1.453125 0,0.4453125 0.22265,0.8203125 0.46875,1.03125 -0.12891,0.1523437 -0.30469,0.4804687 -0.30469,0.8203125 0,0.31640624 0.1289,0.69140624 0.43359,0.89062499 -0.59765,0.17578125 -0.91406,0.59765625 -0.91406,0.99609375 0,0.71484376 0.98437,1.26562496 2.20312,1.26562496 1.17188,0 2.20313,-0.5039062 2.20313,-1.28906246 0,-0.33984375 -0.14063,-0.85546875 -0.64453,-1.125 -0.52735,-0.28125 -1.10156,-0.28125 -1.71094,-0.28125 -0.24609,0 -0.67969,0 -0.75,-0.0117188 -0.31641,-0.046875 -0.52734,-0.35156254 -0.52734,-0.66796874 z m 1.4414,3.1523438 c -1.00781,0 -1.69922,-0.515625 -1.69922,-1.04296876 0,-0.45703125 0.375,-0.8203125 0.82032,-0.85546875 h 0.58593 c 0.85547,0 1.96875,0 1.96875,0.85546875 0,0.53906246 -0.70312,1.04296876 -1.67578,1.04296876 z m 4.15137,-5.1328125 v -1.1015625 l -1.38281,0.1171875 v 0.3046875 c 0.6914,0 0.77343,0.070312 0.77343,0.5625 v 2.66015624 c 0,0.45703125 -0.10546,0.45703125 -0.77343,0.45703125 V 3.671875e-4 c 0.38672,-0.0117187475 0.85547,-0.0351562475 1.13672,-0.0351562475 0.39843,0 0.86718,0 1.26562,0.0351562475 V -0.30432031 h -0.21094 c -0.73828,0 -0.76172,-0.1171875 -0.76172,-0.46875 V -2.3082266 c 0,-0.984375 0.42188,-1.875 1.1836,-1.875 0.0586,0 0.082,0 0.10547,0.011719 -0.0352,0.011719 -0.23438,0.1289062 -0.23438,0.3867187 0,0.28125 0.21094,0.4335938 0.4336,0.4335938 0.17578,0 0.42187,-0.1289063 0.42187,-0.4453125 0,-0.3164063 -0.30469,-0.609375 -0.72656,-0.609375 -0.73828,0 -1.08985,0.6679687 -1.23047,1.1015618 z m 5.55469,2.54296874 c 0.0351,0.3984375 0.30468,0.8203125 0.77343,0.8203125 0.21094,0 0.82032,-0.140625 0.82032,-0.94921875 V -1.4410391 h -0.2461 v 0.55078129 c 0,0.5859375 -0.24609,0.64453125 -0.36328,0.64453125 -0.32812,0 -0.36328,-0.45703125 -0.36328,-0.50390625 V -2.7418203 c 0,-0.4101563 0,-0.8085938 -0.36328,-1.171875 -0.38672,-0.3867188 -0.87891,-0.5507813 -1.35938,-0.5507813 -0.82031,0 -1.51171,0.46875 -1.51171,1.125 0,0.3046875 0.19921,0.46875 0.45703,0.46875 0.28125,0 0.46875,-0.1992187 0.46875,-0.4570312 0,-0.1171875 -0.0586,-0.4453125 -0.51563,-0.4570313 0.26953,-0.3515625 0.76172,-0.4570312 1.07813,-0.4570312 0.49218,0 1.05468,0.3867187 1.05468,1.2773437 v 0.3632813 c -0.5039,0.035156 -1.20703,0.058594 -1.82812,0.3632812 -0.75,0.3398438 -0.99609,0.8554688 -0.99609,1.28906254 0,0.80859375 0.96093,1.0546875 1.59375,1.0546875 0.65625,0 1.11328,-0.3984375 1.30078,-0.867188 z m -0.0703,-1.62890624 v 0.9960937 c 0,0.94921879 -0.71484,1.28906254 -1.16015,1.28906254 -0.49219,0 -0.90235,-0.3515625 -0.90235,-0.85546875 0,-0.53906249 0.42188,-1.37109379 2.0625,-1.42968749 z m 3.44532,-1.359375 v -0.65625 l -1.42969,0.1171875 v 0.3046875 c 0.70312,0 0.77344,0.058594 0.77344,0.4921875 v 4.6640625 c 0,0.4570312 -0.10547,0.4570312 -0.77344,0.4570312 v 0.3046875 c 0.33984,-0.011719 0.85547,-0.035156 1.11328,-0.035156 0.26953,0 0.77344,0.023437 1.125,0.035156 v -0.304687 c -0.66797,0 -0.77344,0 -0.77344,-0.4570312 v -1.75781251 c 0.0469,0.15234375 0.46875,0.69140625 1.21875,0.69140625 1.1836,0 2.22657,-0.97265625 2.22657,-2.26171874 0,-1.265625 -0.97266,-2.25 -2.08594,-2.25 -0.77344,0 -1.19531,0.4453125 -1.39453,0.6562495 z m 0.0351,2.6132812 v -2.2148437 c 0.28125,-0.515625 0.77344,-0.796875 1.27735,-0.796875 0.72656,0 1.33593,0.8671875 1.33593,1.9921875 0,1.20703124 -0.6914,2.05078124 -1.42968,2.05078124 -0.39844,0 -0.77344,-0.19921875 -1.04297,-0.609375 -0.14063,-0.2109375 -0.14063,-0.22265625 -0.14063,-0.42187504 z m 4.88965,0.37500004 c 0,0.45703125 -0.11719,0.45703125 -0.78515,0.45703125 V 3.671875e-4 c 0.35156,-0.0117187475 0.85546,-0.0351562475 1.125,-0.0351562475 0.25781,0 0.78515,0.0234375 1.11328,0.0351562475 V -0.30432031 c -0.65625,0 -0.77344,0 -0.77344,-0.45703125 V -2.5894766 c 0,-1.03125 0.71484,-1.59375 1.34766,-1.59375 0.62109,0 0.73828,0.5390625 0.73828,1.1015625 v 2.32031254 c 0,0.45703125 -0.11719,0.45703125 -0.77344,0.45703125 V 3.671875e-4 c 0.33984,-0.0117187475 0.85547,-0.0351562475 1.125,-0.0351562475 0.25781,0 0.77344,0.0234375 1.11328,0.0351562475 V -0.30432031 c -0.51562,0 -0.77344,0 -0.78516,-0.3046875 V -2.5074453 c 0,-0.8554688 0,-1.171875 -0.30468,-1.5234375 -0.14063,-0.1757813 -0.46875,-0.375 -1.04297,-0.375 -0.84375,0 -1.27735,0.5976562 -1.44141,0.984375 v -3.4921875 l -1.4414,0.1054687 v 0.3164063 c 0.70312,0 0.78515,0.070312 0.78515,0.5507812 z m 0,0"
       style="fill:#000000;fill-opacity:1;fill-rule:nonzero;stroke:none"
       aria-label="BackwardPassofSelectedSubgraph"
       transform="matrix(1.3333333,0,0,1.3333333,309.51867,195.53467)" />
    <path
       id="path33"
       d="M 11.88849,-3.68118 70.91252,-21.95746"
       style="fill:none;stroke:#000000;stroke-width:0.79701;stroke-linecap:butt;stroke-linejoin:miter;stroke-miterlimit:10;stroke-dasharray:none;stroke-opacity:1"
       transform="matrix(1.3333333,0,0,-1.3333333,29.877333,33.065333)" />
    <path
       id="path34"
       d="M 4.66248,0 C 3.28098,0.25902 1.0361,1.0361 -0.51805,1.94269 V -1.94269 C 1.0361,-1.0361 3.28098,-0.25902 4.66248,0"
       style="fill:#000000;fill-opacity:1;fill-rule:nonzero;stroke:none"
       transform="matrix(1.2736267,0.39437333,0.39437333,-1.2736267,124.42733,62.341947)" />
    <path
       id="path35"
       d="m 12.26831,-39.80782 58.1221,9.91399"
       style="fill:none;stroke:#000000;stroke-width:0.79701;stroke-linecap:butt;stroke-linejoin:miter;stroke-miterlimit:10;stroke-dasharray:none;stroke-opacity:1"
       transform="matrix(1.3333333,0,0,-1.3333333,29.877333,33.065333)" />
    <path
       id="path36"
       d="M 4.66248,0 C 3.28098,0.25902 1.0361,1.0361 -0.51805,1.94269 V -1.94269 C 1.0361,-1.0361 3.28098,-0.25902 4.66248,0"
       style="fill:#000000;fill-opacity:1;fill-rule:nonzero;stroke:none"
       transform="matrix(1.3143067,-0.22418667,-0.22418667,-1.3143067,123.7312,72.923787)" />
    <path
       id="path37"
       d="M 11.88849,-72.59892 70.91252,-90.8752"
       style="fill:none;stroke:#000000;stroke-width:0.79701;stroke-linecap:butt;stroke-linejoin:miter;stroke-miterlimit:10;stroke-dasharray:none;stroke-opacity:1"
       transform="matrix(1.3333333,0,0,-1.3333333,29.877333,33.065333)" />
    <path
       id="path38"
       d="M 4.66248,0 C 3.28098,0.25902 1.0361,1.0361 -0.51805,1.94269 V -1.94269 C 1.0361,-1.0361 3.28098,-0.25902 4.66248,0"
       style="fill:#000000;fill-opacity:1;fill-rule:nonzero;stroke:none"
       transform="matrix(1.2736267,0.39437333,0.39437333,-1.2736267,124.42733,154.23227)" />
    <path
       id="path39"
       d="M 12.44588,-95.93544 H 70.14632"
       style="fill:none;stroke:#000000;stroke-width:0.79701;stroke-linecap:butt;stroke-linejoin:miter;stroke-miterlimit:10;stroke-dasharray:none;stroke-opacity:1"
       transform="matrix(1.3333333,0,0,-1.3333333,29.877333,33.065333)" />
    <path
       id="path40"
       d="M 4.66248,0 C 3.28098,0.25902 1.0361,1.0361 -0.51805,1.94269 V -1.94269 C 1.0361,-1.0361 3.28098,-0.25902 4.66248,0"
       style="fill:#000000;fill-opacity:1;fill-rule:nonzero;stroke:none"
       transform="matrix(1.3333333,0,0,-1.3333333,123.40576,160.97925)" />
    <path
       id="path41"
       d="M 99.29967,-3.13026 157.9521,-18.3746"
       style="fill:none;stroke:#000000;stroke-width:0.79701;stroke-linecap:butt;stroke-linejoin:miter;stroke-miterlimit:10;stroke-dasharray:none;stroke-opacity:1"
       transform="matrix(1.3333333,0,0,-1.3333333,29.877333,33.065333)" />
    <path
       id="path42"
       d="M 4.66248,0 C 3.28098,0.25902 1.0361,1.0361 -0.51805,1.94269 V -1.94269 C 1.0361,-1.0361 3.28098,-0.25902 4.66248,0"
       style="fill:#000000;fill-opacity:1;fill-rule:nonzero;stroke:none"
       transform="matrix(1.2903867,0.33534667,0.33534667,-1.2903867,240.48012,57.564787)" />
    <path
       id="path43"
       d="m 99.68462,-26.39955 57.73834,2.87231"
       style="fill:none;stroke:#000000;stroke-width:0.79701;stroke-linecap:butt;stroke-linejoin:miter;stroke-miterlimit:10;stroke-dasharray:none;stroke-opacity:1"
       transform="matrix(1.3333333,0,0,-1.3333333,29.877333,33.065333)" />
    <path
       id="path44"
       d="M 4.66248,0 C 3.28098,0.25902 1.0361,1.0361 -0.51805,1.94269 V -1.94269 C 1.0361,-1.0361 3.28098,-0.25902 4.66248,0"
       style="fill:#000000;fill-opacity:1;fill-rule:nonzero;stroke:none"
       transform="matrix(1.3316267,-0.06622667,-0.06622667,-1.3316267,239.77459,64.434987)" />
    <path
       id="path45"
       d="m 99.06247,-30.94957 59.21568,-19.71896"
       style="fill:none;stroke:#000000;stroke-width:0.79701;stroke-linecap:butt;stroke-linejoin:miter;stroke-miterlimit:10;stroke-dasharray:none;stroke-opacity:1"
       transform="matrix(1.3333333,0,0,-1.3333333,29.877333,33.065333)" />
    <path
       id="path46"
       d="M 4.66248,0 C 3.28098,0.25902 1.0361,1.0361 -0.51805,1.94269 V -1.94269 C 1.0361,-1.0361 3.28098,-0.25902 4.66248,0"
       style="fill:#000000;fill-opacity:1;fill-rule:nonzero;stroke:none"
       transform="matrix(1.2649733,0.42124,0.42124,-1.2649733,240.91485,100.62337)" />
    <path
       id="path47"
       d="m 99.69658,-54.32594 57.70993,-1.34809"
       style="fill:none;stroke:#000000;stroke-width:0.79701;stroke-linecap:butt;stroke-linejoin:miter;stroke-miterlimit:10;stroke-dasharray:none;stroke-opacity:1"
       transform="matrix(1.3333333,0,0,-1.3333333,29.877333,33.065333)" />
    <path
       id="path48"
       d="M 4.66248,0 C 3.28098,0.25902 1.0361,1.0361 -0.51805,1.94269 V -1.94269 C 1.0361,-1.0361 3.28098,-0.25902 4.66248,0"
       style="fill:#000000;fill-opacity:1;fill-rule:nonzero;stroke:none"
       transform="matrix(1.3329067,0.03113333,0.03113333,-1.3329067,239.75268,107.29737)" />
    <path
       id="path49"
       d="M 11.88849,-45.58122 158.1672,-90.8752"
       style="fill:none;stroke:#000000;stroke-width:0.79701;stroke-linecap:butt;stroke-linejoin:miter;stroke-miterlimit:10;stroke-dasharray:none;stroke-opacity:1"
       transform="matrix(1.3333333,0,0,-1.3333333,29.877333,33.065333)" />
    <path
       id="path50"
       d="M 4.66248,0 C 3.28098,0.25902 1.0361,1.0361 -0.51805,1.94269 V -1.94269 C 1.0361,-1.0361 3.28098,-0.25902 4.66248,0"
       style="fill:#000000;fill-opacity:1;fill-rule:nonzero;stroke:none"
       transform="matrix(1.2736267,0.39437333,0.39437333,-1.2736267,240.76692,154.23227)" />
    <path
       id="path51"
       d="M 99.70058,-95.93544 H 157.401"
       style="fill:none;stroke:#000000;stroke-width:0.79701;stroke-linecap:butt;stroke-linejoin:miter;stroke-miterlimit:10;stroke-dasharray:none;stroke-opacity:1"
       transform="matrix(1.3333333,0,0,-1.3333333,29.877333,33.065333)" />
    <path
       id="path52"
       d="M 4.66248,0 C 3.28098,0.25902 1.0361,1.0361 -0.51805,1.94269 V -1.94269 C 1.0361,-1.0361 3.28098,-0.25902 4.66248,0"
       style="fill:#000000;fill-opacity:1;fill-rule:nonzero;stroke:none"
       transform="matrix(1.3333333,0,0,-1.3333333,239.74533,160.97925)" />
    <path
       id="path53"
       d="m 257.5534,-38.09319 58.33903,-12.31924"
       style="fill:none;stroke:#000000;stroke-width:0.79701;stroke-linecap:butt;stroke-linejoin:miter;stroke-miterlimit:10;stroke-dasharray:none;stroke-opacity:1"
       transform="matrix(1.3333333,0,0,-1.3333333,29.877333,33.065333)" />
    <path
       id="path54"
       d="M 4.66248,0 C 3.28098,0.25902 1.0361,1.0361 -0.51805,1.94269 V -1.94269 C 1.0361,-1.0361 3.28098,-0.25902 4.66248,0"
       style="fill:#000000;fill-opacity:1;fill-rule:nonzero;stroke:none"
       transform="matrix(1.3045333,0.27546667,0.27546667,-1.3045333,451.06724,100.28188)" />
    <path
       id="path55"
       d="m 257.57567,-69.26758 58.29352,11.89917"
       style="fill:none;stroke:#000000;stroke-width:0.79701;stroke-linecap:butt;stroke-linejoin:miter;stroke-miterlimit:10;stroke-dasharray:none;stroke-opacity:1"
       transform="matrix(1.3333333,0,0,-1.3333333,29.877333,33.065333)" />
    <path
       id="path56"
       d="M 4.66248,0 C 3.28098,0.25902 1.0361,1.0361 -0.51805,1.94269 V -1.94269 C 1.0361,-1.0361 3.28098,-0.25902 4.66248,0"
       style="fill:#000000;fill-opacity:1;fill-rule:nonzero;stroke:none"
       transform="matrix(1.3063333,-0.26664,-0.26664,-1.3063333,451.03623,109.55656)" />
    <path
       id="path57"
       d="M 178.98503,14.43842 H 82.779 c -5.50234,0 -9.96276,-4.46041 -9.96276,-9.96277 v -35.96901 c 0,-5.50237 4.46042,-9.96277 9.96276,-9.96277 h 96.20603 c 5.50235,0 9.96277,4.4604 9.96277,9.96277 V 4.47565 c 0,5.50236 -4.46042,9.96277 -9.96277,9.96277 z"
       style="fill:none;stroke:#ff0000;stroke-width:0.79701;stroke-linecap:butt;stroke-linejoin:miter;stroke-miterlimit:10;stroke-dasharray:0.79701, 1.99255;stroke-dashoffset:0;stroke-opacity:1"
       transform="matrix(1.3333333,0,0,-1.3333333,29.877333,33.065333)" />
    <path
       id="path58"
       d="M 340.09561,-18.09454 H 237.90645 c -5.50235,0 -9.96277,-4.46042 -9.96277,-9.96277 V -79.2276 c 0,-5.50235 4.46042,-9.96277 9.96277,-9.96277 h 102.18916 c 5.50235,0 9.96277,4.46042 9.96277,9.96277 v 51.17029 c 0,5.50235 -4.46042,9.96277 -9.96277,9.96277 z"
       style="fill:none;stroke:#ff0000;stroke-width:0.79701;stroke-linecap:butt;stroke-linejoin:miter;stroke-miterlimit:10;stroke-dasharray:0.79701, 1.99255;stroke-dashoffset:0;stroke-opacity:1"
       transform="matrix(1.3333333,0,0,-1.3333333,29.877333,33.065333)" />
  </g>
</svg>
